<?xml version="1.0" encoding="utf-8"?>
<!-- Generator: Adobe Illustrator 25.0.0, SVG Export Plug-In . SVG Version: 6.00 Build 0)  -->
<svg version="1.1" id="Calque_1" xmlns="http://www.w3.org/2000/svg" xmlns:xlink="http://www.w3.org/1999/xlink" x="0px" y="0px"
	 viewBox="0 0 1921 1081" style="enable-background:new 0 0 1921 1081;" xml:space="preserve">
<style type="text/css">
	.st0{fill:#F0F1C6;stroke:#1D1D1B;stroke-miterlimit:10;}
	.st1{display:none;}
	.st2{display:inline;opacity:0.29;fill:#BD9F86;enable-background:new    ;}
	.st3{fill:#E1D8B3;}
	.st4{fill:#D06F6B;}
	.st5{fill:#BD9F86;}
	.st6{display:inline;}
	.st7{fill:#629E47;}
	.st8{fill:#85C289;}
	.st9{fill:#A1CC8D;}
	.st10{fill:#1A3E1D;}
	.st11{fill:#83724E;}
	.st12{fill:none;stroke:#422918;stroke-miterlimit:10;}
	.st13{fill:#422918;}
	.st14{fill:none;stroke:#422918;stroke-width:4;stroke-miterlimit:10;}
	.st15{fill:#86544F;}
	.st16{fill:none;}
	.st17{fill:#824946;}
	.st18{fill:#81423F;}
	.st19{opacity:0.29;fill:#B9AA9F;enable-background:new    ;}
	.st20{fill:#EEBBD2;stroke:#25121C;stroke-width:0.25;stroke-miterlimit:10;}
	.st21{fill:#9A948C;stroke:#25121C;stroke-width:0.25;stroke-miterlimit:10;}
	.st22{fill:#E89CC1;}
	.st23{fill:#A78533;}
	.st24{fill:#59501A;}
	.st25{fill:#7C6B6F;}
	.st26{fill:#2F1535;}
	.st27{fill:#6EA9DC;}
	.st28{fill:#80BBAE;}
	.st29{fill:#EDC2C1;}
	.st30{fill:#A3CFA1;}
	.st31{fill:#FCFCFB;}
	.st32{fill:#B26EDA;}
	.st33{fill:#F1F17E;}
	.st34{fill:#EC5454;}
	.st35{fill:#79976B;}
	.st36{fill:#268636;}
	.st37{fill:#247D34;}
	.st38{fill:#81CAE9;}
	.st39{fill:#24B7EB;}
	.st40{fill:#49452A;}
	.st41{fill:#33190F;}
	.st42{fill:none;stroke:#A28840;stroke-miterlimit:10;}
	.st43{fill:#EE784E;}
	.st44{fill:#28848B;}
	.st45{fill:#A38040;}
	.st46{fill:#C8BDA9;}
	.st47{fill:none;stroke:#204921;stroke-miterlimit:10;}
	.st48{fill:#204921;}
	.st49{fill:#EFEFDA;}
	.st50{fill:#D19F69;}
	.st51{fill:#36663A;}
	.st52{fill:#D1BBA6;}
	.st53{fill:#349848;}
	.st54{fill:#79B72C;}
	.st55{fill:#B3D8BB;}
	.st56{fill:#6B7477;}
	.st57{fill:#A0A5AA;}
	.st58{fill:none;stroke:#31332B;stroke-miterlimit:10;}
	.st59{fill:#6864A9;}
	.st60{fill:#C7C7D3;}
	.st61{fill:#7D7CA5;}
	.st62{fill:#CFCEE8;stroke:#444360;stroke-width:0.5;stroke-miterlimit:10;}
	.st63{fill:#FDFDFC;stroke:#444360;stroke-width:0.5;stroke-miterlimit:10;}
	.st64{fill:#C688A6;stroke:#000000;stroke-width:0.25;stroke-miterlimit:10;}
	.st65{fill:#D79897;stroke:#000000;stroke-width:0.25;stroke-miterlimit:10;}
	.st66{fill:#D79897;}
	.st67{fill:#6B99B1;stroke:#000000;stroke-width:0.25;stroke-miterlimit:10;}
	.st68{fill:#A4C0D6;stroke:#000000;stroke-width:0.25;stroke-miterlimit:10;}
	.st69{fill:#A4C0D6;}
	.st70{fill:#C04136;}
	.st71{fill:#C37370;}
	.st72{fill:#31332B;}
	.st73{fill:#8A8D85;}
	.st74{fill:#C6CCBA;}
	.st75{fill:none;stroke:#465029;stroke-width:6;stroke-miterlimit:10;}
	.st76{fill:none;stroke:#465029;stroke-width:4;stroke-miterlimit:10;}
	.st77{fill:none;stroke:#465029;stroke-width:5;stroke-miterlimit:10;}
	.st78{fill:#EA9815;}
	.st79{fill:none;stroke:#6F8340;stroke-width:7;stroke-miterlimit:10;}
	.st80{fill:none;stroke:#6F8340;stroke-width:4;stroke-miterlimit:10;}
	.st81{fill:#465029;}
	.st82{fill:#E4AB57;}
	.st83{fill:#6F8340;}
</style>
<g id="Fond">
	<rect x="0.5" y="0.5" class="st0" width="1920" height="1080"/>
	<g id="Tâche" class="st1">
		<path class="st2" d="M1361.4,383.2c-73.6,181.3,2.3,409.5-442.3,409.5c-228.6,0-492.8-120-385.5-409.5
			C601.5,200,384-31.3,947.5,32.9C1174.4,58.7,1515.3,4.2,1361.4,383.2z"/>
	</g>
	<polyline class="st3" points="1920.5,1080.5 0.5,1080.5 1,760.4 1920,759.8 	"/>
</g>
<g id="Briques">
	<path class="st4" d="M310.9,174.2h75.7c4.9,0,8.9,4,8.9,8.9v17.5c0,4.9-4,8.9-8.9,8.9h-75.7c-4.9,0-8.9-4-8.9-8.9v-17.5
		C302,178.2,306,174.2,310.9,174.2z"/>
	<path class="st5" d="M332.7,222.4h75.7c4.9,0,8.9,4,8.9,8.9v17.5c0,4.9-4,8.9-8.9,8.9h-75.7c-4.9,0-8.9-4-8.9-8.9v-17.5
		C323.9,226.3,327.8,222.4,332.7,222.4z"/>
	<path class="st5" d="M1165.2,158.6h75.7c4.9,0,8.9,4,8.9,8.9V185c0,4.9-4,8.9-8.9,8.9h-75.7c-4.9,0-8.9-4-8.9-8.9v-17.5
		C1156.3,162.5,1160.3,158.6,1165.2,158.6z"/>
	<path class="st4" d="M1129.1,204.7h75.7c4.9,0,8.9,4,8.9,8.9v17.5c0,4.9-4,8.9-8.9,8.9h-75.7c-4.9,0-8.9-4-8.9-8.9v-17.5
		C1120.2,208.7,1124.2,204.7,1129.1,204.7z"/>
	<path class="st5" d="M1198.3,252.9h75.7c4.9,0,8.9,4,8.9,8.9v17.5c0,4.9-4,8.9-8.9,8.9h-75.7c-4.9,0-8.9-4-8.9-8.9v-17.5
		C1189.4,256.9,1193.4,252.9,1198.3,252.9z"/>
	<path class="st4" d="M1409.8,386h75.7c4.9,0,8.9,4,8.9,8.9v17.5c0,4.9-4,8.9-8.9,8.9h-75.7c-4.9,0-8.9-4-8.9-8.9v-17.5
		C1400.9,390,1404.9,386,1409.8,386z"/>
	<path class="st5" d="M1669.8,461.7h75.7c4.9,0,8.9,4,8.9,8.9v17.5c0,4.9-4,8.9-8.9,8.9h-75.7c-4.9,0-8.9-4-8.9-8.9v-17.5
		C1660.9,465.7,1664.9,461.7,1669.8,461.7z"/>
	<path class="st5" d="M1558.8,222.7h75.7c4.9,0,8.9,4,8.9,8.9v17.5c0,4.9-4,8.9-8.9,8.9h-75.7c-4.9,0-8.9-4-8.9-8.9v-17.5
		C1549.9,226.7,1553.9,222.7,1558.8,222.7z"/>
	<path class="st5" d="M148.8,654.7h75.7c4.9,0,8.9,4,8.9,8.9v17.5c0,4.9-4,8.9-8.9,8.9h-75.7c-4.9,0-8.9-4-8.9-8.9v-17.5
		C139.9,658.7,143.9,654.7,148.8,654.7z"/>
	<path class="st4" d="M74.8,419.7h75.7c4.9,0,8.9,4,8.9,8.9v17.5c0,4.9-4,8.9-8.9,8.9H74.8c-4.9,0-8.9-4-8.9-8.9v-17.5
		C65.9,423.7,69.9,419.7,74.8,419.7z"/>
	<path class="st4" d="M320.8,504.7h75.7c4.9,0,8.9,4,8.9,8.9v17.5c0,4.9-4,8.9-8.9,8.9h-75.7c-4.9,0-8.9-4-8.9-8.9v-17.5
		C311.9,508.7,315.9,504.7,320.8,504.7z"/>
	<path class="st4" d="M1655.8,654.7h75.7c4.9,0,8.9,4,8.9,8.9v17.5c0,4.9-4,8.9-8.9,8.9h-75.7c-4.9,0-8.9-4-8.9-8.9v-17.5
		C1646.9,658.7,1650.9,654.7,1655.8,654.7z"/>
	<path class="st5" d="M91.8,91.7h75.7c4.9,0,8.9,4,8.9,8.9v17.5c0,4.9-4,8.9-8.9,8.9H91.8c-4.9,0-8.9-4-8.9-8.9v-17.5
		C82.9,95.7,86.9,91.7,91.8,91.7z"/>
	<path class="st5" d="M526.1,91.7h75.7c4.9,0,8.9,4,8.9,8.9v17.5c0,4.9-4,8.9-8.9,8.9h-75.7c-4.9,0-8.9-4-8.9-8.9v-17.5
		C517.2,95.7,521.2,91.7,526.1,91.7z"/>
	<path class="st5" d="M1440,333.2h75.7c4.9,0,8.9,4,8.9,8.9v17.5c0,4.9-4,8.9-8.9,8.9H1440c-4.9,0-8.9-4-8.9-8.9v-17.5
		C1431.2,337.2,1435.1,333.2,1440,333.2z"/>
	<path class="st5" d="M448.9,304.9h75.7c4.9,0,8.9,4,8.9,8.9v17.5c0,4.9-4,8.9-8.9,8.9h-75.7c-4.9,0-8.9-4-8.9-8.9v-17.5
		C440,308.9,444,304.9,448.9,304.9z"/>
	<path class="st4" d="M414.7,350.6h75.7c4.9,0,8.9,4,8.9,8.9V377c0,4.9-4,8.9-8.9,8.9h-75.7c-4.9,0-8.9-4-8.9-8.9v-17.5
		C405.8,354.6,409.8,350.6,414.7,350.6z"/>
	<path class="st4" d="M1727.7,505.6h75.7c4.9,0,8.9,4,8.9,8.9V532c0,4.9-4,8.9-8.9,8.9h-75.7c-4.9,0-8.9-4-8.9-8.9v-17.5
		C1718.8,509.6,1722.8,505.6,1727.7,505.6z"/>
</g>
<g class="st1">
	<g id="Panier" class="st6">
		<path class="st7" d="M1000.2,497.2c0,0-12.8,18,0,37.9C1000.2,535.1,1015.2,514.3,1000.2,497.2z"/>
		<path class="st8" d="M1000.7,534.8c0,0,10-36.4,17.8-26.8C1018.5,508,1014.2,526.3,1000.7,534.8z"/>
		<path class="st8" d="M999.3,534.5c0,0-34.4-46.1-16-34.8L999.3,534.5z"/>
		<path class="st7" d="M1015,512.2c0,0-9.2,12.8,0,27C1015,539.2,1025.7,524.4,1015,512.2z"/>
		<path class="st8" d="M1015.4,539c0,0,7.1-26,12.7-19.1C1028.1,519.9,1025,533,1015.4,539z"/>
		<path class="st8" d="M1014.4,538.8c0,0-24.5-32.9-11.4-24.9L1014.4,538.8z"/>
		<path class="st9" d="M1046,544.6c0,0-28.3-4.8-10.3-39.3C1035.8,505.3,1061.2,517.5,1046,544.6z"/>
		<path class="st10" d="M1044.4,542.7c0,0-17.6-73.6-2.8-46.8C1041.6,495.9,1052.7,468,1044.4,542.7z"/>
		<path class="st8" d="M1044.4,544.6c0,0-20-24.3,8.1-47C1052.5,497.6,1069.8,525.4,1044.4,544.6z"/>
		<path class="st11" d="M985.3,534.5h71.7c6.6,0,12,5.4,12,12v29.6c0,6.6-5.4,12-12,12h-71.7c-6.6,0-12-5.4-12-12v-29.6
			C973.3,539.9,978.7,534.5,985.3,534.5z"/>
		<path class="st12" d="M975.4,539.2c0,0,6.6,16.9,15.2,0"/>
		<path class="st12" d="M990.6,539.2c0,0,6.6,16.9,15.2,0"/>
		<path class="st12" d="M1005.8,539.2c0,0,6.6,16.9,15.2,0"/>
		<path class="st12" d="M1021,539.2c0,0,6.6,16.9,15.2,0"/>
		<path class="st12" d="M1036.2,539.2c0,0,6.6,16.9,15.2,0"/>
		<path class="st12" d="M1051.4,539.2c0,0,6.6,16.9,15.2,0"/>
		<path class="st12" d="M973.3,553.8c0,0,7.6,16.9,17.4,0"/>
		<path class="st12" d="M990.7,553.8c0,0,6.6,16.9,15.2,0"/>
		<path class="st12" d="M1005.9,553.8c0,0,6.6,16.9,15.2,0"/>
		<path class="st12" d="M1021.1,553.8c0,0,6.6,16.9,15.2,0"/>
		<path class="st12" d="M1036.3,553.8c0,0,6.6,16.9,15.2,0"/>
		<path class="st12" d="M1051.6,553.8c0,0,7.6,15,17.4,0"/>
		<path class="st12" d="M973.3,569.6c3.7,8.3,10.2,12.3,17.5,0"/>
		<path class="st12" d="M990.8,569.6c3.2,8.3,8.9,12.3,15.2,0"/>
		<path class="st12" d="M1006,569.6c3.2,8.3,8.9,12.3,15.2,0"/>
		<path class="st12" d="M1021.2,569.6c3.2,8.3,8.9,12.3,15.2,0"/>
		<path class="st12" d="M1036.4,569.6c3.2,8.3,8.9,12.3,15.2,0"/>
		<path class="st12" d="M1051.6,569.6c3.1,6.9,9.4,13.8,17.4,0"/>
		<line class="st12" x1="990.6" y1="534.5" x2="990.6" y2="588.1"/>
		<line class="st12" x1="1005.8" y1="534.5" x2="1005.8" y2="588.1"/>
		<line class="st12" x1="1021" y1="534.5" x2="1021" y2="588.1"/>
		<line class="st12" x1="1036.2" y1="534.5" x2="1036.2" y2="588.1"/>
		<line class="st12" x1="1051.4" y1="535" x2="1051.4" y2="588.1"/>
		<path class="st13" d="M981.4,530.3h79.2c1.2,0,2.1,0.9,2.1,2.1l0,0c0,1.2-0.9,2.1-2.1,2.1h-79.2c-1.2,0-2.1-0.9-2.1-2.1l0,0
			C979.3,531.2,980.2,530.3,981.4,530.3z"/>
		<path class="st14" d="M1005.8,533.5c0,0,15.2-80.2,30.4,0"/>
	</g>
	<g id="Etabli" class="st6">
		<rect x="756" y="101.7" class="st15" width="359.8" height="377.2"/>
		<path class="st16" d="M1220,101.7"/>
		<path class="st16" d="M1115.8,101.7"/>
		<path class="st16" d="M1188.4,101.7"/>
		<path class="st16" d="M1115.8,177.4"/>
		<rect x="756" y="478.9" class="st15" width="16.6" height="280.9"/>
		<rect x="1099.3" y="478.9" class="st15" width="16.6" height="280.9"/>
		<rect x="772.6" y="704.5" class="st17" width="326.7" height="28.5"/>
		<rect x="772.6" y="587.8" class="st17" width="326.7" height="37.9"/>
		<rect x="756" y="210.1" class="st18" width="359.8" height="12.6"/>
		<rect x="756" y="455.2" class="st17" width="359.8" height="23.7"/>
		<rect x="1115.8" y="101.7" class="st15" width="104.2" height="9.6"/>
		<rect x="1115.8" y="101.7" class="st15" width="11.3" height="88.4"/>
		<rect x="929.8" y="102" class="st18" width="11.2" height="114"/>
		<polygon class="st15" points="1203.3,112.7 1128.1,180.2 1115.8,169.2 1191.1,101.7 		"/>
		<rect x="654.8" y="101.7" class="st15" width="104.2" height="9.6"/>
		<rect x="747.7" y="101.7" class="st15" width="11.3" height="88.4"/>
		<polygon class="st15" points="671.5,112.7 746.7,180.2 759,169.2 683.8,101.7 		"/>
		<rect x="756" y="258.7" class="st19" width="359.8" height="6.2"/>
		<rect x="756" y="320.9" class="st19" width="359.8" height="6.2"/>
		<rect x="756" y="383.1" class="st19" width="359.8" height="6.2"/>
	</g>
	<g id="Bottes" class="st6">
		<path class="st20" d="M799,626.9c0,0,47.6-9.2,58.3,0v94.3c0,0,23.3-23.3,34.7,25.6c0,0-59.2,6.4-85.3,0
			C806.7,746.8,824.6,740,799,626.9z"/>
		<polyline class="st21" points="806.7,746.8 806.7,758.5 892,758.5 892,746.8 		"/>
		<path class="st21" d="M800.6,633.9c0,0,52.5-9.5,56.8,0v-7c0,0-6-9.1-58.3,0L800.6,633.9z"/>
		<path class="st20" d="M764.4,626.9c0,0,47.6-9.2,58.3,0v94.3c0,0,23.2-23.3,34.6,25.6c0,0-59.2,6.4-85.3,0
			C772.1,746.8,790,740,764.4,626.9z"/>
		<polyline class="st21" points="772.1,746.8 772.1,758.5 857.3,758.5 857.3,746.8 		"/>
		<path class="st21" d="M766,633.9c0,0,52.5-9.5,56.8,0v-7c0,0-6-9.1-58.3,0L766,633.9z"/>
		<path class="st22" d="M858.9,726.5c0,0,9.1-8.4,12.1-7.1c0,0,9.4-4.4,15.8,25.9C886.8,745.3,880.4,715,858.9,726.5z"/>
		<path class="st22" d="M824.4,726.5c0,0,9.1-8.4,12.1-7.1c0,0,9.4-4.4,15.8,25.9C852.3,745.3,846,715,824.4,726.5z"/>
		<path class="st22" d="M814.7,631.5v85.1c0,0,8-3.8,8,6.3s0-89.2,0-89.2S821.6,631.2,814.7,631.5z"/>
		<path class="st22" d="M849.3,631.5v85.1c0,0,8-3.8,8,6.3s0-89.2,0-89.2S856.3,631.2,849.3,631.5z"/>
	</g>
	<g id="Calque_7" class="st6">
		<path class="st23" d="M802.5,502.1l5.8,46.4c0.4,2.9,2.9,5.2,5.8,5.2h22.1c3,0,5.5-2.3,5.8-5.2l5.1-46.2c0.1-1-0.6-1.8-1.5-1.9
			c-0.1,0-0.1,0-0.2,0h-41.3c-0.9,0-1.6,0.7-1.6,1.6C802.5,502,802.5,502.1,802.5,502.1z"/>
		<path class="st23" d="M802.4,518.3l5.8,46.4c0.4,2.9,2.9,5.2,5.8,5.2h22c3,0,5.5-2.3,5.8-5.2l5.2-46.3c0.1-0.9-0.5-1.7-1.4-1.8
			c-0.1,0-0.1,0-0.2,0H804c-0.9,0-1.6,0.7-1.6,1.5C802.4,518.1,802.4,518.2,802.4,518.3z"/>
		<path class="st23" d="M801.4,533.3l6.1,48.8c0.4,3.1,3,5.4,6.1,5.4h23.2c3.2,0,5.8-2.4,6.2-5.5l5.5-49.2c0.1-0.7-0.4-1.3-1.1-1.4
			h-0.1H803c-0.9,0-1.6,0.7-1.6,1.6C801.4,533.1,801.4,533.2,801.4,533.3z"/>
		<path class="st24" d="M802.2,536.6l3.9-2.2l2.4,1.1l3.2-1.1l2.2,1.1l4.2-2.5l2.8,1.8l4-1.8l1.9,3.6l3-1.8l4.4,0.8l1.2-2.6l2.8,1.8
			l2.6-1.8l2.9,1.8l1.9-1.8l2.7,1.8l0.2-1.8c0.1-0.7-0.4-1.4-1.2-1.5c-0.1,0-0.1,0-0.2,0H803c-0.8,0-1.4,0.7-1.4,1.5
			c0,0.1,0,0.2,0,0.3L802.2,536.6z"/>
		<path class="st24" d="M803.1,521.6l3.7-2.2l2.2,1.1l3-1.1l2.1,1.1l4-2.5l2.6,1.8l3.8-1.8l1.8,3.6l2.8-1.8l4.1,0.8l1.1-2.6l2.6,1.8
			l2.5-1.8l2.7,1.8l1.8-1.8l2.6,1.8l0.2-1.8c0.1-0.7-0.5-1.4-1.2-1.5h-0.1h-41.7c-0.8,0-1.4,0.6-1.4,1.4c0,0.1,0,0.2,0,0.3
			L803.1,521.6z"/>
		<path class="st24" d="M803.1,505.4l3.7-2.2l2.3,1.1l3-1.1l2.1,1.1l4-2.5l2.6,1.8l3.8-1.8l1.8,3.6l2.8-1.8l4.2,0.8l1.1-2.6l2.6,1.8
			l2.5-1.8l2.7,1.8l1.8-1.8l2.6,1.8l0.2-1.7c0.1-0.8-0.5-1.5-1.3-1.6c-0.1,0-0.1,0-0.2,0H804c-0.9,0-1.6,0.7-1.6,1.6
			c0,0.1,0,0.2,0,0.3L803.1,505.4z"/>
		<path class="st24" d="M839.5,575.2c0,0,0.9,8-5.9,9.6c1.6,1.6,4.3,1.6,5.9,0l0,0C839.6,584.8,843.3,584.1,839.5,575.2z"/>
	</g>
	<g id="Calque_8" class="st6">
		<path class="st25" d="M861.2,542l3.1,25.1c0.2,1.6,1.6,2.8,3.2,2.8h11.9c1.6,0,3-1.2,3.2-2.8l2.8-25c0-0.5-0.3-1-0.9-1
			c0,0,0,0-0.1,0H862C861.5,541.1,861.2,541.5,861.2,542L861.2,542z"/>
		<path class="st25" d="M861.1,550.8l3.1,25.1c0.2,1.6,1.6,2.8,3.2,2.8h11.9c1.6,0,3-1.2,3.2-2.8l2.8-25.1c0.1-0.5-0.3-0.9-0.7-1
			h-0.1H862c-0.5,0-0.9,0.3-0.9,0.8C861.1,550.6,861.1,550.7,861.1,550.8z"/>
		<path class="st25" d="M860.6,558.9l3.3,26.4c0.2,1.7,1.6,2.9,3.3,2.9h12.5c1.7,0,3.2-1.3,3.3-3l3-26.6c0-0.4-0.2-0.7-0.6-0.7
			c0,0,0,0-0.1,0h-23.9c-0.5,0-0.9,0.4-0.9,0.9C860.6,558.8,860.6,558.8,860.6,558.9z"/>
		<path class="st26" d="M861,560.6l2.1-1.2l1.3,0.6l1.7-0.6l1.2,0.6l2.3-1.3l1.5,1l2.2-1l1,1.9l1.6-1l2.4,0.4l0.6-1.4l1.5,1l1.4-1
			l1.6,1l1-1l1.5,1l0.1-1c0-0.4-0.2-0.8-0.6-0.8c0,0,0,0-0.1,0h-23.9c-0.4,0-0.8,0.4-0.8,0.8v0.1L861,560.6z"/>
		<path class="st26" d="M861.5,552.6l2-1.2l1.2,0.6l1.6-0.6l1.1,0.6l2.1-1.3l1.4,1l2.1-1l1,1.9l1.5-1l2.2,0.4l0.6-1.4l1.4,1l1.3-1
			l1.5,1l1-1l1.4,1l0.1-1c0-0.4-0.2-0.8-0.6-0.8c0,0,0,0-0.1,0h-22.5c-0.4,0-0.8,0.3-0.8,0.8v0.1L861.5,552.6z"/>
		<path class="st26" d="M861.5,543.8l2-1.2l1.2,0.6l1.6-0.6l1.1,0.6l2.1-1.3l1.4,1l2.1-1l1,1.9l1.5-1l2.2,0.4l0.6-1.4l1.4,1l1.3-1
			l1.5,1l1-1l1.4,1l0.1-0.9c0-0.4-0.3-0.8-0.7-0.9h-0.1H862c-0.5,0-0.9,0.4-0.9,0.9v0.1L861.5,543.8z"/>
		<path class="st26" d="M881.2,581.5c0,0,0.5,4.3-3.2,5.2c0.9,0.9,2.3,0.9,3.2,0C881.2,586.7,883.2,586.3,881.2,581.5z"/>
	</g>
	<g id="Livres" class="st6">
		<path class="st27" d="M780.5,119.6h3.5c2.2,0,3.9,1.7,3.9,3.9l0,0v84.8c0,0.2-0.1,0.3-0.3,0.3l0,0h-10.7c-0.2,0-0.3-0.1-0.3-0.3
			l0,0v-84.8C776.6,121.3,778.3,119.6,780.5,119.6L780.5,119.6L780.5,119.6z"/>
		<path class="st28" d="M791.2,138h2.9c1.8,0,3.3,1.5,3.3,3.3v67.1c0,0.2-0.1,0.3-0.3,0.3l0,0h-9c-0.2,0-0.3-0.1-0.3-0.3l0,0v-67.1
			C787.9,139.5,789.4,138,791.2,138z"/>
		<path class="st29" d="M809.8,138h2.9c1.8,0,3.3,1.5,3.3,3.3v67.1c0,0.2-0.1,0.3-0.3,0.3l0,0h-9c-0.2,0-0.3-0.1-0.3-0.3l0,0v-67.1
			C806.5,139.5,808,138,809.8,138z"/>
		<path class="st30" d="M800.8,152.2h2.9c1.8,0,3.3,1.5,3.3,3.3v52.8c0,0.2-0.1,0.3-0.3,0.3l0,0h-9c-0.2,0-0.3-0.1-0.3-0.3l0,0
			v-52.8C797.4,153.7,798.9,152.2,800.8,152.2L800.8,152.2z"/>
		<rect x="779.9" y="127" class="st31" width="4.1" height="73.4"/>
		<rect x="790.8" y="146.6" class="st31" width="3.3" height="49.2"/>
		<rect x="799.7" y="161.8" class="st31" width="5.3" height="3.8"/>
		<rect x="799.7" y="168.4" class="st31" width="5.3" height="32"/>
		<rect x="810.1" y="149.9" class="st31" width="2.8" height="52"/>
		<rect x="779.9" y="122.6" width="4.1" height="2.4"/>
		<rect x="790.8" y="142" width="3.3" height="3.3"/>
		<rect x="799.7" y="203.6" width="5.3" height="2.4"/>
		<rect x="810.1" y="146.6" width="3.4" height="1.5"/>
		<path class="st32" d="M1066.7,208.4h-10.6c-0.2,0-0.3-0.1-0.3-0.3v-84.8c0-2.2,1.7-3.9,3.9-3.9l0,0h3.5c2.2,0,3.9,1.7,3.9,3.9l0,0
			v84.8C1067,208.3,1066.9,208.4,1066.7,208.4L1066.7,208.4z"/>
		<path class="st33" d="M1055.4,208.4h-9c-0.2,0-0.3-0.1-0.3-0.3l0,0V141c0-1.8,1.5-3.3,3.3-3.3l0,0h2.9c1.8,0,3.3,1.5,3.3,3.3l0,0
			v67.1C1055.7,208.3,1055.6,208.4,1055.4,208.4L1055.4,208.4L1055.4,208.4z"/>
		<path class="st34" d="M1036.8,208.4h-9c-0.2,0-0.3-0.1-0.3-0.3l0,0V141c0-1.8,1.5-3.3,3.3-3.3l0,0h2.9c1.8,0,3.3,1.5,3.3,3.3l0,0
			v67.1C1037.1,208.3,1037,208.4,1036.8,208.4L1036.8,208.4L1036.8,208.4z"/>
		<path class="st30" d="M1045.9,208.5h-9c-0.2,0-0.3-0.1-0.3-0.3l0,0v-52.8c0-1.8,1.5-3.3,3.3-3.3l0,0h2.9c1.8,0,3.3,1.5,3.3,3.3
			l0,0v52.8C1046.2,208.3,1046,208.4,1045.9,208.5L1045.9,208.5L1045.9,208.5z"/>
		<rect x="1059.6" y="126.8" class="st31" width="4.1" height="73.4"/>
		<rect x="1049.5" y="146.4" class="st31" width="3.3" height="49.2"/>
		<rect x="1038.6" y="161.6" class="st31" width="5.3" height="3.8"/>
		<rect x="1038.6" y="168.2" class="st31" width="5.3" height="32"/>
		<rect x="1030.7" y="149.7" class="st31" width="2.8" height="52"/>
		<rect x="1059.6" y="122.4" width="4.1" height="2.4"/>
		<rect x="1049.5" y="141.8" width="3.3" height="3.3"/>
		<rect x="1038.6" y="203.5" width="5.3" height="2.4"/>
		<rect x="1030" y="146.4" width="3.4" height="1.5"/>
	</g>
	<g id="Pot_verre" class="st6">
		<path class="st8" d="M872.7,159.1c0,0,8.4-30.7,15-22.6C887.7,136.5,884.1,151.9,872.7,159.1z"/>
		<path class="st7" d="M872.3,127.4c0,0-10.8,15.2,0,32C872.3,159.4,884.9,141.9,872.3,127.4z"/>
		<path class="st8" d="M871.5,158.9c0,0-29-39-13.5-29.4L871.5,158.9z"/>
		<path class="st35" d="M862.7,117.6c0,0-8.9,8.3,6.2,35C868.9,152.6,877.8,130.1,862.7,117.6z"/>
		<path class="st7" d="M877.5,116c0,0,16.4,13.6-6.1,42.9C871.5,158.9,885.8,136.3,877.5,116z"/>
		<path class="st7" d="M860.7,117.4c0,0-12.6,17.2,16.3,40.2C877,157.5,857.6,139,860.7,117.4z"/>
		<path class="st36" d="M871.5,159.6c0,0-34.7-34-17.9-27L871.5,159.6z"/>
		<path class="st37" d="M872.9,158.6c0,0,16.9-27,20.9-17.3C893.8,141.2,885.9,155,872.9,158.6z"/>
		<rect x="870.6" y="157.5" class="st36" width="1.7" height="24.1"/>
		<path class="st38" d="M858.6,167.5l3.5,38.3c0.2,2.4,1.7,4.3,3.5,4.3H879c1.8,0,3.3-1.9,3.6-4.3l3.1-38.6c0-0.6-0.3-1.1-0.7-1.1
			h-25.5C859,166,858.5,166.7,858.6,167.5z"/>
		<path class="st39" d="M880.2,202.3c0,0,1.8,6.2-5.6,5l5.8-37.7L880.2,202.3z"/>
	</g>
	<g id="Oiseaux" class="st6">
		<path class="st40" d="M1208.2,159.7c0.7-1.1,2.1-1.5,3.2-0.9c0.3,0.2,0.6,0.5,0.8,0.8l0.4,0.6h0.6l1-7.2h-13.9l0.4,6.4
			c0.1,0.1,0.2,0.2,0.2,0.3l0.4,0.7l6.4-0.1L1208.2,159.7z"/>
		<path class="st40" d="M1183.1,266.3l7.3-0.1l0.4-0.6c1.4-1.6,3.8-1.7,5.4-0.3l0.1,0.1l0.6,0.7l8.7-0.1l0.5-0.6
			c1.5-1.5,3.9-1.6,5.4-0.1c0,0,0.1,0,0.1,0.1l0.5,0.6l8.7-0.1c1.5-1.5,3.9-1.5,5.4-0.1l7.8-0.1c1.1-6.4,1.2-14.7-0.4-25.5l-0.4,0.5
			c-1.4,1.5-3.9,1.6-5.4,0.2c-0.1-0.1-0.2-0.2-0.2-0.2l-1.2-1.7c-0.1-0.1-0.1-0.1-0.2-0.2l-5.4,0.1l-0.1,0.1l-1.3,1.9
			c-1.4,1.6-3.8,1.7-5.4,0.3c-0.1,0-0.1-0.1-0.2-0.1l-1.7-2l-6.5,0.1l-1.5,2c-1.5,1.5-3.9,1.6-5.4,0.1c0,0,0,0-0.1-0.1l-1.6-2
			l-6.6,0.1l-0.9,1.2c-1.4,1.6-3.8,1.7-5.4,0.3c-0.1-0.1-0.2-0.2-0.3-0.3l-0.8-1.1l0,0l-5.7,0.1c0,0,0,0.1-0.1,0.1l-0.8,1.4
			c-1,1.3-2.7,1.8-4.2,1.2c-0.7,3.9-1.1,7.8-1.1,11.8l5-0.1c1.1-1.7,4.5-1.8,5.7-0.1l7.4-0.1l0.4-0.6c1.4-1.6,3.8-1.7,5.4-0.3
			c0.1,0,0.1,0.1,0.2,0.1l0.6,0.7l8.7-0.1l0.5-0.6c1.5-1.5,3.9-1.6,5.4-0.1c0,0,0,0,0.1,0.1l0.5,0.6l8.7-0.1
			c1.5-1.5,3.9-1.5,5.4-0.1l8.6-0.1l-1.6,2.1c-1.4,1.5-3.8,1.6-5.4,0.2c-0.1-0.1-0.2-0.2-0.2-0.2l-1.2-1.7c0-0.1-0.1-0.1-0.2-0.2
			l-5.4,0.1l-0.1,0.1l-1.3,1.9c-1.4,1.6-3.8,1.7-5.4,0.3c-0.1,0-0.1-0.1-0.2-0.1l-1.7-2l-6.5,0.1l-1.5,2c-1.5,1.5-3.9,1.6-5.4,0.1
			c0,0,0,0-0.1-0.1l-1.6-2l-6.6,0.1l-0.9,1.2c-1.4,1.6-3.8,1.7-5.4,0.3c-0.1-0.1-0.2-0.2-0.3-0.3l-0.8-1.1l0,0l-5.7,0.1
			c0,0,0,0.1-0.1,0.1l-0.8,1.4c-1,1.3-2.6,1.8-4.1,1.3c0.1,3.4,0.6,6.7,1.6,10l4.6-0.1C1178.5,264.6,1181.8,264.5,1183.1,266.3z"/>
		<path class="st40" d="M1183.1,239.3l7.3-0.1l0.4-0.6c1.4-1.6,3.8-1.7,5.4-0.3c0.1,0,0.1,0.1,0.2,0.1l0.6,0.7l8.7-0.1l0.5-0.6
			c1.5-1.5,3.9-1.6,5.4-0.1l0,0l0.5,0.6l8.7-0.1c1.5-1.5,3.8-1.5,5.4-0.1l7.2-0.1c-0.5-2.9-1.1-6-1.8-9.3c-1.4,1.1-4.1,1-5.2-0.5
			l-1.2-1.7c-0.1-0.1-0.1-0.1-0.2-0.2l-5.4,0.1l-0.1,0.1l-1.3,1.9c-1.4,1.6-3.8,1.7-5.4,0.3c-0.1,0-0.1-0.1-0.2-0.1l-1.7-2l-6.5,0.1
			l-1.5,2c-1.5,1.5-3.9,1.6-5.5,0.1l0,0l-1.6-2l-6.6,0.1l-0.9,1.2c-1.4,1.6-3.8,1.7-5.4,0.3c-0.1-0.1-0.2-0.2-0.3-0.3l-0.8-1.1l0,0
			l-5.7,0.1l-0.1,0.1l-0.6,1.1c-1.1,3.6-2,7.2-2.7,10.7l4.6-0.1C1178.5,237.6,1181.8,237.5,1183.1,239.3z"/>
		<path class="st40" d="M1198.9,185.4l0.4,0.7l6.4-0.1l0.4-0.6c0.6-1.1,2.1-1.5,3.2-0.9c0.3,0.2,0.6,0.5,0.8,0.8l0.4,0.6l6.4-0.1
			c-1.4-3.3-2.9-6.7-4.5-10.2c-0.3-0.2-0.5-0.4-0.7-0.7l-1.2-2l-4.8,0.1l-1.2,2c-0.7,1.1-2.1,1.5-3.2,0.8c-0.3-0.2-0.6-0.4-0.8-0.7
			c-1.3,2.1-3.7,6-6.5,11.2h0.4l0.3-0.6c0.6-1.2,2-1.6,3.2-1C1198.4,184.7,1198.7,185,1198.9,185.4z"/>
		<path class="st40" d="M1194.8,200.2c0.6-1.2,2-1.6,3.2-1c0.4,0.2,0.7,0.5,0.9,0.8l0.4,0.7l6.4-0.1l0.4-0.6
			c0.6-1.1,2.1-1.5,3.2-0.9c0.3,0.2,0.6,0.5,0.8,0.8l0.4,0.6l6.4-0.1c0.7-1.1,2.1-1.5,3.2-0.8c0.3,0.2,0.6,0.5,0.8,0.8h1.8
			c-1.7-4.6-3.6-9.4-5.8-14.6l-0.1,0.1l-1,1.9c-0.6,1.2-2,1.6-3.2,1c-0.4-0.2-0.7-0.5-0.9-0.9l-1.2-2l-4.8,0.1l-1.2,2
			c-0.7,1.1-2.1,1.5-3.2,0.9c-0.3-0.2-0.6-0.5-0.8-0.8l-1.2-1.9l-4.9,0.1l-0.7,1.2c-0.2,0.4-0.5,0.8-0.9,1
			c-1.8,3.4-3.8,7.2-5.8,11.3c0.8,0,1.6,0.5,2,1.2l5.4-0.1L1194.8,200.2z"/>
		<path class="st40" d="M1181.9,227.5l7.3-0.1l0.4-0.6c1.4-1.6,3.8-1.7,5.4-0.3l0.1,0.1l0.6,0.7l8.7-0.1l0.5-0.6
			c1.5-1.5,3.9-1.6,5.4-0.1c0,0,0.1,0,0.1,0.1l0.5,0.6l8.7-0.1c1.5-1.5,3.8-1.5,5.4-0.1l6-0.1c-2-7.9-4.3-15.7-7.1-23.3
			c-0.8,0-1.6-0.5-1.9-1.2l-0.9-1.7c0-0.1-0.1-0.1-0.1-0.2l-4,0.1l-0.1,0.1l-1,1.9c-0.6,1.2-2,1.6-3.2,1c-0.4-0.2-0.7-0.5-0.9-0.9
			l-1.2-2l-4.8,0.1l-1.2,2c-0.7,1.1-2.1,1.5-3.2,0.9c-0.3-0.2-0.6-0.5-0.8-0.8l-1.2-2l-4.9,0.1l-0.7,1.2c-0.6,1.2-2,1.6-3.2,1
			c-0.4-0.2-0.8-0.6-1-1l-0.6-1.1l0,0h-2.6c-2.1,4.4-4.2,9.1-6.2,14l4.5-0.1c0.6-1.2,2-1.7,3.2-1.1c0.5,0.2,0.8,0.6,1.1,1l5.4-0.1
			l0.3-0.6c0.6-1.2,2-1.6,3.2-1c0.4,0.2,0.7,0.5,0.9,0.8l0.4,0.7l6.4-0.1l0.4-0.6c0.6-1.1,2.1-1.5,3.2-0.9c0.3,0.2,0.6,0.5,0.8,0.8
			l0.4,0.6l6.4-0.1c0.6-1.1,2.1-1.5,3.2-0.9c0.3,0.2,0.6,0.5,0.8,0.8l6.4-0.1l-1.2,2.1c-0.7,1.1-2.1,1.5-3.2,0.9
			c-0.4-0.2-0.7-0.6-0.9-0.9l-0.9-1.7c0-0.1-0.1-0.1-0.1-0.2l-4,0.1l-0.1,0.1l-1,1.9c-0.6,1.2-2,1.6-3.2,1c-0.4-0.2-0.7-0.5-0.9-0.9
			l-1.2-2l-4.8,0.1l-1.2,2c-0.6,1.1-2.1,1.5-3.2,0.9c-0.3-0.2-0.6-0.5-0.8-0.8l-1.2-2l-4.9,0.1l-0.7,1.2c-0.6,1.2-2,1.6-3.2,1
			c-0.4-0.2-0.8-0.6-1-1l-0.6-1.1l0,0l-4.2,0.1c0,0,0,0.1-0.1,0.1l-0.6,1.4c-0.5,1.2-1.9,1.7-3.1,1.2c-0.3-0.1-0.6-0.4-0.9-0.7
			l-0.4-0.5c-1.4,3.7-2.8,7.4-3.9,11.2h0.3c1.3-1.6,3.7-1.8,5.3-0.5C1181.6,227.2,1181.8,227.3,1181.9,227.5z"/>
		<path class="st40" d="M1210.2,172.1l0.4,0.6h0.9l1.6-11.8l-0.5-0.8l-4.8,0.1l-1.2,2c-0.6,1.1-2.1,1.5-3.2,0.9
			c-0.3-0.2-0.6-0.5-0.8-0.8l-1.2-1.9h-0.6l0.9,12.5l4.1-0.1l0.4-0.6c0.6-1.1,2.1-1.5,3.2-0.9C1209.7,171.5,1210,171.8,1210.2,172.1
			z"/>
		<path class="st40" d="M1225.9,283.2c1.4-1.3,2.5-2.8,3.5-4.4c-1.1,0.1-2.3-0.4-3-1.2l-1.2-1.7c0-0.1-0.1-0.1-0.2-0.2l-5.4,0.1
			l-0.1,0.1l-1.3,1.9c-1.4,1.6-3.8,1.7-5.4,0.3c-0.1,0-0.1-0.1-0.2-0.1l-1.7-2l-6.5,0.1l-1.5,2c-1.5,1.5-3.9,1.6-5.5,0.1l0,0l-1.6-2
			l-6.6,0.1l-0.9,1.2c-1.4,1.6-3.8,1.7-5.4,0.3c-0.1-0.1-0.2-0.2-0.3-0.3l-0.8-1.1l0,0h-4c2.8,3.3,6.4,6,10.4,7.7h2.1l0.4-0.6
			c1.4-1.6,3.9-1.7,5.4-0.3l0.1,0.1l0.6,0.7l8.7-0.1l0.5-0.6c1.5-1.5,3.9-1.6,5.4-0.1l0,0l0.5,0.6l8.7-0.1
			C1222.2,282.1,1224.4,282,1225.9,283.2z"/>
		<path class="st40" d="M1220.8,283.5l-0.1,0.1l-1.3,1.9c-0.2,0.2-0.4,0.5-0.7,0.6c1.5-0.3,3-0.6,4.5-1c0.9-0.5,1.7-1,2.4-1.7
			L1220.8,283.5z"/>
		<path class="st40" d="M1204.1,285.7c-0.5,0.6-1.1,0.9-1.8,1.1c4.4,0.3,8.7,0.3,13.1-0.2c-0.6-0.2-1.1-0.5-1.6-0.9l-1.7-2l-6.5,0.1
			L1204.1,285.7z"/>
		<path class="st40" d="M1189.9,284.6c0.4,0.2,0.9,0.4,1.4,0.5c2.8,0.6,5.6,1.1,8.4,1.4c-0.4-0.2-0.8-0.4-1.1-0.8l-1.6-2l-6.6,0.1
			L1189.9,284.6z"/>
		<path class="st40" d="M1189.7,275.5c1.4-1.6,3.8-1.7,5.4-0.3c0.1,0,0.1,0.1,0.2,0.1l0.6,0.7l8.7-0.1l0.5-0.6
			c1.5-1.5,3.9-1.6,5.4-0.1c0,0,0,0,0.1,0.1l0.5,0.6l8.7-0.1c1.5-1.5,3.8-1.5,5.4-0.1l6.1-0.1c1.2-2.8,2.1-5.6,2.7-8.6l-0.6,0.7
			c-1.4,1.5-3.9,1.6-5.4,0.2c-0.1-0.1-0.2-0.2-0.2-0.2l-1.2-1.7c-0.1-0.1-0.1-0.1-0.2-0.2l-5.4,0.1l-0.1,0.1l-1.3,1.9
			c-1.4,1.6-3.8,1.7-5.4,0.3l-0.1-0.1l-1.7-2l-6.5,0.1l-1.5,2c-1.5,1.5-3.9,1.6-5.4,0.1c0,0,0,0-0.1-0.1l-1.6-2l-6.6,0.1l-0.9,1.2
			c-1.4,1.6-3.8,1.7-5.4,0.3c-0.1-0.1-0.2-0.2-0.3-0.3l-0.8-1.1l0,0l-5.7,0.1l-0.1,0.1l-0.8,1.4c-0.6,0.9-1.7,1.4-2.8,1.4
			c0.9,2.2,2,4.3,3.4,6.2c1.6-0.8,3.5-0.5,4.7,0.8l7.3-0.1L1189.7,275.5z"/>
		<path class="st41" d="M1195.7,243.7h20.8l0,0v18.2c0,2-1.6,3.6-3.6,3.6l0,0h-21.3l0,0v-17.6
			C1191.4,245.6,1193.3,243.7,1195.7,243.7L1195.7,243.7z"/>
		<path class="st42" d="M1200.3,150.7l6.2-47.1c0-1.1,1-2,2.1-1.9c1.1,0,2,1,1.9,2.1l3.4,47.1c0.1,1.1-0.7,2.1-1.8,2.1
			c-0.1,0-0.1,0-0.2,0h-9.6c-1.1,0-2-0.9-2-2C1200.3,150.9,1200.3,150.8,1200.3,150.7z"/>
	</g>
	<g id="Calque_14" class="st6">
		<path class="st42" d="M801.8,286.7c0,0,4.9-69,10.2,0"/>
		<path class="st42" d="M882.8,286.7c0,0,4.9-69,10.2,0"/>
		<path class="st42" d="M986.8,286.7c0,0,4.9-69,10.2,0"/>
		<path class="st42" d="M1065.9,285.5c0,0,6.6-68.7,5.2,0.3"/>
	</g>
	<g id="Plante" class="st6">
		<path class="st42" d="M652.3,108.6L610,301.3l95.8,5.5l-40.2-199.9C662.4,98.7,654.7,99.7,652.3,108.6z"/>
		<path class="st43" d="M706.7,370.9h-92.6c-6.3,0-11.4-5.1-11.4-11.4l-16.3-59c0-6.3,5.1-11.4,11.4-11.4h123.3
			c6.3,0,11.4,5.1,11.4,11.4l-14.4,59C718.1,365.8,713,370.9,706.7,370.9z"/>
		<path class="st44" d="M583.6,278.6h151.7c4.6,0,8.3,3.7,8.3,8.3l0,0c0,4.6-3.7,8.3-8.3,8.3H583.6c-4.6,0-8.3-3.7-8.3-8.3l0,0
			C575.3,282.3,579,278.6,583.6,278.6z"/>
		<circle class="st45" cx="696.3" cy="319.6" r="9.4"/>
		<circle class="st46" cx="716.1" cy="310.2" r="6.1"/>
		<circle class="st45" cx="709" cy="336.2" r="7.1"/>
		<path class="st47" d="M626.8,278.7c0,0-47.8-35.6-66.1-0.9c-5.5,10.8-5.8,23.5-0.8,34.5c9.7,22.1,30.4,69.3,42.8,96.1
			c0,0,15.7,23.8-36.1,65.6"/>
		<path class="st48" d="M560.6,346.4c0,0,12.5-5.8,6.9-15"/>
		<path class="st48" d="M560.6,346.4c0,0-3.5-13.3,7.1-15"/>
		<path class="st48" d="M569.5,366.2c0,0,12.5-5.8,7-15"/>
		<path class="st48" d="M569.5,366.2c0,0-3.5-13.3,7.1-15"/>
		<path class="st48" d="M577.2,381.2c0,0,12.5-5.8,6.9-15"/>
		<path class="st48" d="M577.2,381.2c0,0-3.5-13.3,7.1-15"/>
		<path class="st48" d="M587.7,406.2c0,0,12.5-5.8,6.9-15"/>
		<path class="st48" d="M587.7,406.2c0,0-3.5-13.3,7.1-15"/>
		<path class="st48" d="M593,422.5c0,0,13.7-1.2,11.6-11.8"/>
		<path class="st48" d="M593,422.5c0,0,1.2-13.7,11.8-11.6"/>
		<path class="st48" d="M586.1,445.7c0,0,13.7,1.5,13.8-9.2"/>
		<path class="st48" d="M586.1,445.7c0,0,4-13.2,13.9-9"/>
		<path class="st48" d="M564.7,465.6c0,0,12.5,5.7,15.9-4.5"/>
		<path class="st48" d="M564.7,465.6c0,0,7.8-11.3,16-4.3"/>
		<path class="st48" d="M552.5,326.5c0,0,12.5-5.8,7-15"/>
		<path class="st48" d="M552.5,326.5c0,0-3.5-13.3,7.1-15"/>
		<path class="st48" d="M545.6,301.3c0,0,13.7-1,11.8-11.6"/>
		<path class="st48" d="M545.6,301.3c0,0,1.4-13.7,11.9-11.5"/>
		<path class="st48" d="M549.6,276c0,0,12.6,5.5,15.8-4.8"/>
		<path class="st48" d="M549.6,276c0,0,7.6-11.5,15.9-4.6"/>
		<path class="st48" d="M569.9,253.6c0,0,2.8,13.5,13.1,10.2"/>
		<path class="st48" d="M569.9,253.6c0,0,13.8-0.4,13,10.3"/>
		<path class="st48" d="M648,261.8c0,0-13.3,3.7-9.3,13.7"/>
		<path class="st48" d="M648,261.8c0,0,1.3,13.7-9.5,13.6"/>
		<path class="st48" d="M625.3,261.8c0,0,13.7-1,13.4,9.8"/>
		<path class="st48" d="M625.3,261.8c0,0,3.4,13.3,13.5,9.6"/>
		<path class="st48" d="M620.5,244.2c0,0,13.8-0.5,13,10.2"/>
		<path class="st48" d="M620.5,244.2c0,0,3,13.5,13.2,10"/>
		<path class="st48" d="M610.4,228c0,0,13.3-3.6,15,7"/>
		<path class="st48" d="M610.4,228c0,0,5.9,12.5,15.1,6.9"/>
		<path class="st48" d="M593.1,227.4c0,0-5.5-12.6,4.8-15.9"/>
		<path class="st48" d="M593.1,227.4c0,0,11.5-7.6,4.6-15.9"/>
		<path class="st48" d="M565.4,236.5c0,0-5.9-12.4,4.2-16"/>
		<path class="st48" d="M565.1,236.4c0,0,11.5-7.6,4.6-15.9"/>
		<path class="st48" d="M645.3,246.3c0,0-13.6,1.9-11.1,12.3"/>
		<path class="st48" d="M645.3,246.3c0,0-0.6,13.8-11.2,12.2"/>
		<path class="st48" d="M639.3,228.4c0,0-13.6,1.9-11.1,12.3"/>
		<path class="st48" d="M639.3,228.4c0,0-0.6,13.8-11.2,12.2"/>
		<path class="st48" d="M622,209.7c0,0-10.2,9.3-2.2,16.4"/>
		<path class="st48" d="M622,209.7c0,0,7.3,11.7-2.4,16.4"/>
		<path class="st48" d="M599.3,200.3c0,0-2.8,13.5,7.9,14.5"/>
		<path class="st48" d="M599.3,200.3c0,0,12.8,5.1,7.8,14.6"/>
		<path class="st48" d="M572.8,206.2c0,0,6.5,12.1,15.4,6.1"/>
		<path class="st48" d="M572.8,206.2c0,0,13.1-4.2,15.3,6.3"/>
		<path class="st48" d="M598.9,278.7c0,0-12.6-5.5-7.3-14.9"/>
		<path class="st48" d="M598.9,278.7c0,0,3.2-13.4-7.5-14.8"/>
		<path class="st48" d="M574,283.5c0,0-12.6-5.5-7.3-14.8"/>
		<path class="st48" d="M574,283.5c0,0,3.2-13.4-7.5-14.8"/>
		<path class="st48" d="M567.9,310.5c0,0-13.5-2.8-10.2-13"/>
		<path class="st48" d="M567.9,310.5c0,0,0.3-13.8-10.4-12.9"/>
		<path class="st48" d="M580.5,328.3c0,0-13.1,4.3-15.4-6.2"/>
		<path class="st48" d="M580.5,328.3c0,0-6.6-12.1-15.4-6"/>
		<path class="st48" d="M590.6,354.1c0,0-13.1,4.3-15.4-6.2"/>
		<path class="st48" d="M590.6,354.1c0,0-6.6-12.1-15.4-6"/>
		<path class="st48" d="M620.3,422.4c0,0-13.1,4.3-15.4-6.2"/>
		<path class="st48" d="M620.3,422.4c0,0-6.6-12.1-15.4-6"/>
		<path class="st48" d="M597.3,457.4c0,0-8.7-10.7,0.3-16.6"/>
		<path class="st48" d="M597.3,457.4c0,0,9-10.4,0.2-16.6"/>
		<path class="st48" d="M567.6,488.6c0,0-8.7-10.7,0.3-16.5"/>
		<path class="st48" d="M567.6,488.6c0,0,9-10.4,0.2-16.6"/>
		<path class="st48" d="M600.6,387.2c0,0-13.8-0.6-12.2-11.2"/>
		<path class="st48" d="M600.6,387.2c0,0-1.9-13.6-12.3-11.1"/>
		<path class="st47" d="M639.5,279.7c0,0-14.2-100.7-73-56.9"/>
		<path class="st47" d="M680,277.6c0,0,47.8-35.6,66.1-0.9c5.5,10.8,5.8,23.5,0.8,34.5c-9.7,22.1-30.4,69.3-42.8,96.2
			c0,0-15.8,23.8,36.1,65.6"/>
		<path class="st48" d="M746.2,345.3c0,0-12.5-5.8-6.9-15"/>
		<path class="st48" d="M746.2,345.3c0,0,3.5-13.3-7.1-15"/>
		<path class="st48" d="M737.3,365.1c0,0-12.5-5.8-7-15"/>
		<path class="st48" d="M737.3,365.1c0,0,3.5-13.3-7.1-15"/>
		<path class="st48" d="M729.6,380.1c0,0-12.5-5.8-6.9-15"/>
		<path class="st48" d="M729.6,380.1c0,0,3.5-13.3-7.1-15"/>
		<path class="st48" d="M719.1,405.1c0,0-12.5-5.8-7-15"/>
		<path class="st48" d="M719.1,405.1c0,0,3.5-13.3-7.1-15"/>
		<path class="st48" d="M713.8,421.4c0,0-13.7-1.2-11.6-11.8"/>
		<path class="st48" d="M713.8,421.4c0,0-1.2-13.7-11.8-11.6"/>
		<path class="st48" d="M720.8,444.6c0,0-13.7,1.5-13.8-9.2"/>
		<path class="st48" d="M720.8,444.6c0,0-4-13.2-13.9-9"/>
		<path class="st48" d="M742.1,464.5c0,0-12.5,5.7-15.9-4.5"/>
		<path class="st48" d="M742.1,464.5c0,0-7.8-11.3-16-4.3"/>
		<path class="st48" d="M754.3,325.4c0,0-12.5-5.8-7-15"/>
		<path class="st48" d="M754.3,325.4c0,0,3.5-13.3-7.1-15"/>
		<path class="st48" d="M761.2,300.2c0,0-13.7-1-11.8-11.6"/>
		<path class="st48" d="M761.2,300.2c0,0-1.4-13.7-11.9-11.5"/>
		<path class="st48" d="M757.2,274.9c0,0-12.6,5.5-15.8-4.8"/>
		<path class="st48" d="M757.2,274.9c0,0-7.6-11.5-15.9-4.6"/>
		<path class="st48" d="M736.9,252.5c0,0-2.8,13.5-13.1,10.2"/>
		<path class="st48" d="M736.9,252.5c0,0-13.8-0.4-13,10.3"/>
		<path class="st48" d="M659,263.3c0,0,13.3,3.7,9.3,13.7"/>
		<path class="st48" d="M659,263.3c0,0-1.3,13.7,9.5,13.6"/>
		<path class="st48" d="M684.5,261.6c0,0-13.7-1-13.4,9.8"/>
		<path class="st48" d="M684.5,261.6c0,0-3.4,13.3-13.5,9.6"/>
		<path class="st48" d="M700.1,253.5c0,0-10-9.5-16.5-0.9"/>
		<path class="st48" d="M700.1,253.5c0,0-11.1,8.1-16.5-1.1"/>
		<path class="st48" d="M722.3,248.5c0,0-5.3-12.7-14.8-7.5"/>
		<path class="st48" d="M722.3,248.5c0,0-13.5,3-14.7-7.7"/>
		<path class="st48" d="M748.9,259.2c0,0,5.5-12.6-4.8-15.9"/>
		<path class="st48" d="M748.9,259.2c0,0-11.5-7.6-4.6-15.9"/>
		<path class="st48" d="M667.6,245.1c0,0,13.6,1.9,11.1,12.3"/>
		<path class="st48" d="M667.6,245.1c0,0,0.6,13.8,11.2,12.2"/>
		<path class="st48" d="M690.1,230.1c0,0,13.7,1.9,11.1,12.3"/>
		<path class="st48" d="M690.1,230.1c0,0,0.6,13.8,11.2,12.2"/>
		<path class="st48" d="M777.8,264.6c0,0-13.7-1.6-11.3-12.1"/>
		<path class="st48" d="M777.8,264.6c0,0-0.9-13.8-11.5-11.9"/>
		<path class="st48" d="M767.6,237c0,0-2.6,13.5-12.9,10.4"/>
		<path class="st48" d="M767.6,237c0,0-13.8-0.1-12.8,10.6"/>
		<path class="st48" d="M799,259.7c0,0-10.8,8.5-16.5-0.6"/>
		<path class="st48" d="M799,259.7c0,0-10.3-9.1-16.6-0.4"/>
		<path class="st48" d="M738.1,232.8c0,0-6.5,12.1-15.4,6.1"/>
		<path class="st48" d="M738.1,232.8c0,0-13.1-4.3-15.3,6.3"/>
		<path class="st48" d="M707.9,277.5c0,0,12.6-5.5,7.3-14.8"/>
		<path class="st48" d="M707.9,277.5c0,0-3.1-13.4,7.5-14.8"/>
		<path class="st48" d="M732.8,282.4c0,0,12.6-5.5,7.3-14.8"/>
		<path class="st48" d="M732.8,282.4c0,0-3.2-13.4,7.5-14.8"/>
		<path class="st48" d="M739,309.4c0,0,13.5-2.8,10.2-13"/>
		<path class="st48" d="M739,309.4c0,0-0.3-13.8,10.4-12.9"/>
		<path class="st48" d="M726.3,327.1c0,0,13.1,4.3,15.4-6.2"/>
		<path class="st48" d="M726.3,327.1c0,0,6.6-12.1,15.4-6"/>
		<path class="st48" d="M716.2,353c0,0,13.1,4.3,15.4-6.2"/>
		<path class="st48" d="M716.2,353c0,0,6.6-12.1,15.4-6"/>
		<path class="st48" d="M686.5,421.2c0,0,13.1,4.3,15.4-6.2"/>
		<path class="st48" d="M686.5,421.2c0,0,6.6-12.1,15.4-6"/>
		<path class="st48" d="M709.5,456.3c0,0,8.7-10.7-0.3-16.6"/>
		<path class="st48" d="M709.5,456.3c0,0-9-10.4-0.2-16.6"/>
		<path class="st48" d="M739.2,487.5c0,0,8.7-10.7-0.3-16.6"/>
		<path class="st48" d="M739.2,487.5c0,0-9-10.4-0.2-16.6"/>
		<path class="st48" d="M706.2,386.1c0,0,13.8-0.6,12.2-11.2"/>
		<path class="st48" d="M706.2,386.1c0,0,1.9-13.6,12.3-11.1"/>
		<path class="st47" d="M668,278.7c0,0,14.8-75.4,120.7-16.1"/>
	</g>
	<g id="Crochets" class="st6">
		<circle class="st49" cx="807" cy="262" r="5"/>
		<circle class="st49" cx="888" cy="262" r="5"/>
		<circle class="st49" cx="992" cy="262" r="5"/>
		<circle class="st49" cx="1069" cy="262" r="5"/>
		<ellipse class="st49" cx="1208.5" cy="106" rx="2.5" ry="5"/>
		<ellipse class="st49" cx="660.5" cy="106" rx="2.5" ry="5"/>
	</g>
	<g id="Rateau" class="st6">
		<path class="st50" d="M804.6,274h4c3.3,0,5.9,2.6,5.9,5.9v121.4c0,3.3-2.6,5.9-5.9,5.9h-4c-3.3,0-5.9-2.6-5.9-5.9V279.9
			C798.7,276.6,801.3,274,804.6,274z"/>
		<path class="st51" d="M804,390.3h5.3c4.3,0,7.8,3.5,7.8,7.9V410c0,4.3-3.5,7.9-7.8,7.9H804c-4.3,0-7.8-3.5-7.8-7.9v-11.9
			C796.1,393.8,799.6,390.3,804,390.3z"/>
		<rect x="762.4" y="406.6" class="st51" width="89.9" height="21.5"/>
		<path class="st51" d="M764.4,416.3h1.3c1.1,0,2,0.9,2,2v19.6c0,1.1-0.9,2-2,2h-1.3c-1.1,0-2-0.9-2-2v-19.6
			C762.4,417.2,763.3,416.3,764.4,416.3z"/>
		<path class="st51" d="M848.9,417.4h1.3c1.1,0,2,0.9,2,2V439c0,1.1-0.9,2-2,2h-1.3c-1.1,0-2-0.9-2-2v-19.6
			C846.9,418.3,847.8,417.4,848.9,417.4z"/>
		<path class="st51" d="M824.1,417.4h1.3c1.1,0,2,0.9,2,2V439c0,1.1-0.9,2-2,2h-1.3c-1.1,0-2-0.9-2-2v-19.6
			C822.1,418.3,823,417.4,824.1,417.4z"/>
		<path class="st51" d="M836.6,417.4h1.3c1.1,0,2,0.9,2,2V439c0,1.1-0.9,2-2,2h-1.3c-1.1,0-2-0.9-2-2v-19.6
			C834.5,418.3,835.4,417.4,836.6,417.4z"/>
		<path class="st51" d="M811.4,417.4h1.3c1.1,0,2,0.9,2,2V439c0,1.1-0.9,2-2,2h-1.3c-1.1,0-2-0.9-2-2v-19.6
			C809.4,418.3,810.3,417.4,811.4,417.4z"/>
		<path class="st51" d="M788,417.4h1.3c1.1,0,2,0.9,2,2V439c0,1.1-0.9,2-2,2H788c-1.1,0-2-0.9-2-2v-19.6
			C786,418.3,786.9,417.4,788,417.4z"/>
		<path class="st51" d="M800.5,417.4h1.3c1.1,0,2,0.9,2,2V439c0,1.1-0.9,2-2,2h-1.3c-1.1,0-2-0.9-2-2v-19.6
			C798.5,418.3,799.4,417.4,800.5,417.4z"/>
		<path class="st51" d="M775.3,417.4h1.3c1.1,0,2,0.9,2,2V439c0,1.1-0.9,2-2,2h-1.3c-1.1,0-2-0.9-2-2v-19.6
			C773.3,418.3,774.2,417.4,775.3,417.4z"/>
		<path class="st52" d="M807.3,278.5c0,0,6.5-4.1,4.6,3.5l2.2,88.5L807.3,278.5z"/>
		<path class="st53" d="M817.1,419.2c0,0,39.9-5.1,32.5,4.9h-84.5L817.1,419.2z"/>
	</g>
	<g id="pt_pelle" class="st6">
		<path class="st54" d="M884.6,280.3h6.5c3.3,0,5.9,2.6,5.9,5.9v71.1c0,3.3-2.6,5.9-5.9,5.9h-6.5c-3.3,0-5.9-2.6-5.9-5.9v-71.1
			C878.7,283,881.3,280.3,884.6,280.3z"/>
		<path class="st55" d="M888.5,286.6c0,0,7.6-2.6,5.3,2.2l2.6,55.1L888.5,286.6z"/>
		<path class="st56" d="M887.7,424c0,0,43.4-60.5,0-57.1"/>
		<path class="st56" d="M888.7,424c0,0-43.4-60.5,0-57.1"/>
		<path class="st56" d="M886.8,358.2h2.7c0.6,0,1,0.5,1,1v37.4c0,0.6-0.5,1-1,1h-2.7c-0.6,0-1-0.5-1-1v-37.4
			C885.8,358.7,886.3,358.2,886.8,358.2z"/>
		<path class="st56" d="M879.3,356.7h16.9c1.2,0,2.1,1,2.1,2.1v2.3c0,1.2-1,2.1-2.1,2.1h-16.9c-1.2,0-2.1-1-2.1-2.1v-2.3
			C877.2,357.6,878.2,356.7,879.3,356.7z"/>
		<path class="st57" d="M884.2,371.5c0,0-24.6-4,2.9,43.2C887.1,414.7,865.6,373.1,884.2,371.5z"/>
		<path class="st57" d="M892.5,371.5c0,0,24.6-4-2.9,43.2C889.6,414.7,911,373.1,892.5,371.5z"/>
	</g>
	<g id="Cécateur" class="st6">
		<path class="st58" d="M1088,351.4c-1-0.6,2-5.8,0.9-6.4s-4.1,4.6-5.1,4s2-5.8,0.9-6.4s-4.1,4.6-5.1,4s2-5.8,0.9-6.4
			s-4.1,4.6-5.1,4s2-5.8,0.9-6.4s-4,4.6-5.1,4s2-5.8,0.9-6.4s-4.1,4.6-5.1,4s2-5.8,0.9-6.4s-4.1,4.6-5.1,4s2-5.8,0.9-6.4
			s-4.1,4.6-5.1,4s2-5.8,0.9-6.4s-4.1,4.6-5.1,4"/>
		<path class="st59" d="M1068.3,366.7L1068.3,366.7c-1.4-1.6-1.3-4,0.3-5.4l57.1-50.9c1.6-1.4,4-1.3,5.4,0.3l0,0
			c1.4,1.6,1.3,4-0.3,5.4l-57.1,50.9C1072.1,368.4,1069.7,368.3,1068.3,366.7z"/>
		<path class="st59" d="M1051.8,357.6L1051.8,357.6c-2.1-0.5-3.4-2.5-2.9-4.6l16.7-74.6c0.5-2.1,2.5-3.4,4.6-2.9l0,0
			c2.1,0.5,3.4,2.5,2.9,4.6l-16.7,74.6C1055.9,356.7,1053.9,358,1051.8,357.6z"/>
		<path class="st57" d="M1050.4,403.2c0,0,17.4-21.2,1.3-36.7l0.4-5.9l-3.7-5.6l4.4-3.1c0,0,4.2-2.8,11.1,9.9l-1.4,7
			C1062.5,368.8,1074,398.9,1050.4,403.2z"/>
		<path class="st57" d="M1020.8,378.2c0,0,16.6-6.8,25.2-19.1l22-1.6l4.4,5.1v6l-12.2-1.8C1060.3,366.8,1041.6,387.2,1020.8,378.2z"
			/>
		<path class="st60" d="M1025.3,378.2c0,0,15.4-6.5,21.2-15.1C1046.5,363.1,1044.6,378.1,1025.3,378.2z"/>
		<path class="st61" d="M1052.2,348.4l15-68.9C1067.2,279.5,1058,345.3,1052.2,348.4z"/>
		<polygon class="st62" points="1055.6,363.8 1058.3,365.4 1061.1,363.8 1061.1,360.7 1058.3,359.1 1055.6,360.7 		"/>
		<circle class="st63" cx="1058.3" cy="362.2" r="0.2"/>
	</g>
	<g id="Gros_pot" class="st6">
		<polygon class="st64" points="943.8,657.6 977.3,657.6 992.1,705.1 928.7,705.1 		"/>
		<polygon class="st65" points="930.7,698.7 928.7,705.1 992.1,705.1 990.1,698.7 		"/>
		<path class="st66" d="M974.2,659.3l12.3,37.5C986.6,696.9,972,679.6,974.2,659.3z"/>
		<polygon class="st67" points="943.5,636 977,636 991.8,683.6 928.4,683.6 		"/>
		<polygon class="st68" points="930.4,677.1 928.4,683.6 991.8,683.6 989.8,677.1 		"/>
		<path class="st69" d="M973.9,637.8l12.3,37.5C986.2,675.3,971.7,658,973.9,637.8z"/>
	</g>
	<g id="Hache" class="st6">
		<path class="st70" d="M996.5,385.1h-9.4c-2.5,0-4.5-2-4.5-4.5v-101c0-2.5,2-4.5,4.5-4.5h9.4c2.5,0,4.5,2,4.5,4.5v101
			C1001,383.1,999,385.1,996.5,385.1z"/>
		<path class="st71" d="M991,376.8c0,0-7.6,3.4-5.3-2.9l-2.6-73L991,376.8z"/>
		<rect x="970.1" y="368.8" class="st72" width="30.9" height="16.5"/>
		<polygon class="st72" points="982.4,384.5 944,402.9 944,332.4 982.4,369.8 		"/>
		<polygon class="st73" points="950.7,399.7 952.2,340.3 944,332.4 944,402.9 		"/>
		<path class="st74" d="M946.2,400.5v-63.2C946.2,337.3,948.4,398.1,946.2,400.5z"/>
	</g>
	<g id="Brouette" class="st6">
		<line class="st75" x1="1716.2" y1="547.2" x2="1774" y2="539"/>
		<line class="st76" x1="1377.5" y1="579.4" x2="1377.5" y2="651.7"/>
		<line class="st76" x1="1430" y1="692.7" x2="1472.1" y2="654.2"/>
		<polygon class="st77" points="1600.7,652.7 1655,755.7 1705,664.9 		"/>
		<polygon class="st78" points="1328.8,533 1730.1,533.7 1708.1,666.5 1453.8,689.8 		"/>
		<circle class="st79" cx="1377.5" cy="705.8" r="54.1"/>
		<line class="st80" x1="1377.5" y1="651.7" x2="1377.5" y2="759.8"/>
		<line class="st80" x1="1431.6" y1="705.8" x2="1323.5" y2="705.8"/>
		<circle class="st81" cx="1377.5" cy="705.8" r="11.4"/>
		<polygon class="st82" points="1328.8,533 1730.1,533.7 1727.7,548.6 1340.1,547.2 		"/>
		<path class="st82" d="M1353,552.4l105.4,128.2C1458.4,680.6,1963.3,655.5,1353,552.4z"/>
		<path class="st83" d="M1770.7,528.3l46.4-14.9c2.7-0.9,5.6,0.6,6.4,3.3l2.1,6.4c0.9,2.7-0.6,5.6-3.3,6.4l-46.4,14.9
			c-2.7,0.9-5.6-0.6-6.4-3.3l-2.1-6.4C1766.6,532,1768,529.2,1770.7,528.3z"/>
	</g>
</g>
</svg>
