<?xml version="1.0" encoding="utf-8"?>
<!-- Generator: Adobe Illustrator 25.0.0, SVG Export Plug-In . SVG Version: 6.00 Build 0)  -->
<svg version="1.1" id="Calque_1" xmlns="http://www.w3.org/2000/svg" xmlns:xlink="http://www.w3.org/1999/xlink" x="0px" y="0px"
	 viewBox="0 0 1921 1081" style="enable-background:new 0 0 1921 1081;" xml:space="preserve">
<style type="text/css">
	.st0{clip-path:url(#SVGID_2_);}
	.st1{fill:#C59C3A;}
	.st2{fill:#33290D;}
	.st3{fill:#B4A3CC;}
	.st4{fill:#E2E24B;}
	.st5{fill:#96962A;}
	.st6{fill:#60A587;}
	.st7{fill:#FFFFFF;}
	.st8{fill:#688182;}
	.st9{font-family:'ArialMT';}
	.st10{font-size:14px;}
	.st11{fill:#94C2E5;}
	.st12{fill:#564117;}
	.st13{fill:none;stroke:#33290D;stroke-miterlimit:10;}
	.st14{fill:#685027;}
	.st15{fill:#B98FCC;stroke:#000000;stroke-miterlimit:10;}
	.st16{fill:#C1DBD9;}
	.st17{fill:#F4F1ED;}
	.st18{fill:#E0ADC7;}
	.st19{fill:#9FB3C9;}
	.st20{fill:#9E7A3A;}
	.st21{fill:#ECEFB9;}
	.st22{fill:#739354;}
	.st23{fill:#DDE293;}
	.st24{fill:#72AED3;}
	.st25{fill:#F6FCED;}
	.st26{fill:#D8DCCD;stroke:#D8DCCD;stroke-miterlimit:10;}
	.st27{fill:none;}
	.st28{fill:#F2DB91;}
	.st29{opacity:0.57;fill:#DFD6B8;enable-background:new    ;}
	.st30{fill:#443B32;}
	.st31{fill:#D8DCCD;}
	.st32{fill:#503B1C;}
	.st33{fill:none;stroke:#503B1C;stroke-miterlimit:10;}
	.st34{fill:#83B1C9;}
	.st35{fill:#BDD2C9;}
	.st36{fill:#9EBDAC;}
	.st37{fill:none;stroke:#968127;stroke-width:3;stroke-miterlimit:10;}
	.st38{fill:#DFD6B8;}
	.st39{fill:#C4B27F;}
	.st40{fill:#CCC3AC;}
	.st41{fill:#A39478;}
	.st42{fill:none;stroke:#33290D;stroke-width:12;stroke-miterlimit:10;}
	.st43{fill:#493E24;}
	.st44{fill:none;stroke:#493E24;stroke-miterlimit:10;}
	.st45{fill:#8E6729;}
	.st46{fill:#33290D;stroke:#33290D;stroke-miterlimit:10;}
	.st47{fill:none;stroke:#000000;stroke-width:4;stroke-miterlimit:10;}
	.st48{fill:#E0DCD3;}
</style>
<g>
	<defs>
		<rect id="SVGID_1_" width="1921" height="1081.2"/>
	</defs>
	<clipPath id="SVGID_2_">
		<use xlink:href="#SVGID_1_"  style="overflow:visible;"/>
	</clipPath>
	<g class="st0">
		<g id="Calque_1_1_">
			<rect class="st1" width="1921" height="1081"/>
			<rect x="1411.8" y="719.9" class="st2" width="509.2" height="42"/>
			<rect y="719.9" class="st2" width="565.8" height="42"/>
			<rect x="149.8" y="381.9" class="st3" width="81" height="15"/>
			
				<rect x="236.1" y="339.5" transform="matrix(0.9677 -0.2521 0.2521 0.9677 -90.3499 74.3294)" class="st4" width="17.6" height="100.6"/>
			
				<rect x="254.1" y="346.5" transform="matrix(0.9677 -0.2521 0.2521 0.9677 -91.5322 79.0934)" class="st5" width="17.6" height="100.6"/>
			
				<rect x="267.4" y="356.1" transform="matrix(0.9684 -0.2496 0.2496 0.9684 -91.2139 81.6166)" class="st6" width="17.6" height="88.8"/>
			<rect x="207.3" y="210.4" class="st7" width="79" height="94"/>
			<path d="M285.8,210.9v93h-78v-93H285.8 M286.8,209.9h-80v95h80V209.9z"/>
			<rect x="213.8" y="216.9" class="st8" width="66" height="82"/>
			<text transform="matrix(1 0 0 1 215.4061 263.9954)" class="st9 st10">Family</text>
			<rect x="348.8" y="379.9" class="st11" width="59" height="10"/>
			<rect x="352.8" y="389.9" class="st11" width="50" height="2"/>
		</g>
		<g id="Calque_41">
			<path class="st12" d="M1844.8,506.9c0,0,13.6-132.5-57.5-188.5C1787.3,318.4,1827.8,400.9,1844.8,506.9z"/>
			<path class="st12" d="M1596.8,509.9c0,0-17.6-135.5,53.5-191.5C1650.3,318.4,1613.8,403.9,1596.8,509.9z"/>
		</g>
		<g id="Calque_40">
			<rect x="1579.8" y="576.9" class="st2" width="19" height="184"/>
			<rect x="1842.8" y="581.9" class="st2" width="19" height="184"/>
			<path class="st12" d="M1598.8,576.9c0,0,86.5-9.5,118.5,33.5c0,0,21-45,125.5-28.5h42.9l2.6-55.5h-339v50.5H1598.8z"/>
			<rect x="1660.3" y="539.4" class="st13" width="113" height="28"/>
			<rect x="1582.3" y="495.4" class="st12" width="275" height="18"/>
			<ellipse class="st12" cx="1717.3" cy="373.4" rx="84" ry="109"/>
			<rect x="1842.8" y="507.9" class="st12" width="5" height="21"/>
			<rect x="1593.8" y="509.9" class="st12" width="5" height="21"/>
			<polygon class="st12" points="1845.8,581.9 1858.8,581.9 1856.4,761.5 1849.9,761.5 			"/>
			<polygon class="st12" points="1582.8,573.9 1595.8,573.9 1593.4,760.9 1586.9,760.9 			"/>
			<path class="st14" d="M1590.8,509.9h263c0,0,26.5-19.1-258.5,1.9"/>
			<path class="st14" d="M1563.8,532.4l-11.5,41C1552.4,573.4,1552.3,529.4,1563.8,532.4z"/>
		</g>
		<g id="Calque_44">
			<ellipse class="st14" cx="1716.3" cy="552.4" rx="46.5" ry="10.5"/>
		</g>
		<g id="Calque_45">
			<circle class="st15" cx="1716.8" cy="552.9" r="6.5"/>
		</g>
		<g id="Calque_43">
			<ellipse class="st16" cx="1717.3" cy="372.4" rx="72" ry="97"/>
		</g>
		<g id="Calque_42">
			<path class="st17" d="M1704.3,301.4c0,0-6,69-38,98C1666.3,399.4,1718.3,362.4,1704.3,301.4z"/>
			<path class="st17" d="M1711,334.9c0,0-4.5,48.9-28.7,69.5C1682.3,404.4,1721.5,378.2,1711,334.9z"/>
		</g>
		<g id="Calque_39">
			<rect x="139.8" y="412.9" class="st18" width="91" height="17"/>
			<rect x="149.8" y="396.9" class="st19" width="72" height="16"/>
		</g>
		<g id="Calque_2_1_">
			<rect x="649.8" y="164.9" class="st11" width="623" height="597"/>
		</g>
		<g id="Calque_3">
			<polyline class="st20" points="1920.5,761.5 0.5,762.1 0,1080.9 1921,1080.9 			"/>
		</g>
		<g id="Calque_37">
			<circle class="st21" cx="681.3" cy="268.4" r="108.5"/>
			<path class="st22" d="M616.8,662.9c0,0,66.7-107.9,160.3,10.4c0,0,40.5-119.7,226.2,9.6c0,0,28.8-115.6,207.6,0l0,0
				c0,0,69.2-111.7,128,7.9v55.1l-722-17.5V662.9z"/>
		</g>
		<g id="Calque_30">
			<path d="M1237.8,545.9c7.2,0,13,5.8,13,13s-5.8,13-13,13s-13-5.8-13-13S1230.6,545.9,1237.8,545.9L1237.8,545.9 M1237.8,540.9
				c-9.9,0-18,8.1-18,18s8.1,18,18,18s18-8.1,18-18S1247.7,540.9,1237.8,540.9z"/>
			<path d="M681.8,545.9c7.2,0,13,5.8,13,13s-5.8,13-13,13s-13-5.8-13-13S674.6,545.9,681.8,545.9L681.8,545.9 M681.8,540.9
				c-9.9,0-18,8.1-18,18s8.1,18,18,18s18-8.1,18-18S691.7,540.9,681.8,540.9z"/>
			<path d="M719.3,546c1.7,1.3,5.9,8.2,9.4,28c3.3,18.2,5.1,42,5.1,66.8s-1.8,48.6-5.1,66.8c-3.6,19.8-7.7,26.7-9.4,28
				c-1.7-1.3-5.9-8.2-9.4-28c-3.3-18.2-5.1-41.9-5.1-66.8s1.8-48.6,5.1-66.8C713.4,554.2,717.6,547.4,719.3,546 M719.3,540.9
				c-10.8,0-19.5,44.8-19.5,100s8.7,100,19.5,100s19.5-44.8,19.5-100S730,540.9,719.3,540.9L719.3,540.9z"/>
			<path d="M797.3,546c1.7,1.3,5.9,8.2,9.4,28c3.3,18.2,5.1,42,5.1,66.8s-1.8,48.6-5.1,66.8c-3.6,19.8-7.7,26.7-9.4,28
				c-1.7-1.3-5.9-8.2-9.4-28c-3.3-18.2-5.1-41.9-5.1-66.8s1.8-48.6,5.1-66.8C791.4,554.2,795.6,547.4,797.3,546 M797.3,540.9
				c-10.8,0-19.5,44.8-19.5,100s8.7,100,19.5,100s19.5-44.8,19.5-100S808,540.9,797.3,540.9L797.3,540.9z"/>
			<path d="M880.3,546c1.7,1.3,5.9,8.2,9.4,28c3.3,18.2,5.1,42,5.1,66.8s-1.8,48.6-5.1,66.8c-3.6,19.8-7.7,26.7-9.4,28
				c-1.7-1.3-5.9-8.2-9.4-28c-3.3-18.2-5.1-41.9-5.1-66.8s1.8-48.6,5.1-66.8C874.4,554.2,878.6,547.4,880.3,546 M880.3,540.9
				c-10.8,0-19.5,44.8-19.5,100s8.7,100,19.5,100s19.5-44.8,19.5-100S891,540.9,880.3,540.9L880.3,540.9z"/>
			<path d="M961.3,546c1.7,1.3,5.9,8.2,9.4,28c3.3,18.2,5.1,42,5.1,66.8s-1.8,48.6-5.1,66.8c-3.6,19.8-7.7,26.7-9.4,28
				c-1.7-1.3-5.9-8.2-9.4-28c-3.3-18.2-5.1-41.9-5.1-66.8s1.8-48.6,5.1-66.8C955.4,554.2,959.6,547.4,961.3,546 M961.3,540.9
				c-10.8,0-19.5,44.8-19.5,100s8.7,100,19.5,100s19.5-44.8,19.5-100S972,540.9,961.3,540.9L961.3,540.9z"/>
			<path d="M1045.3,546c1.7,1.3,5.9,8.2,9.4,28c3.3,18.2,5.1,41.9,5.1,66.8s-1.8,48.6-5.1,66.8c-3.6,19.8-7.7,26.7-9.4,28
				c-1.7-1.3-5.9-8.2-9.4-28c-3.3-18.2-5.1-41.9-5.1-66.8s1.8-48.6,5.1-66.8C1039.4,554.2,1043.6,547.4,1045.3,546 M1045.3,540.9
				c-10.8,0-19.5,44.8-19.5,100s8.7,100,19.5,100s19.5-44.8,19.5-100S1056,540.9,1045.3,540.9z"/>
			<path d="M1123.3,546c1.7,1.3,5.9,8.2,9.4,28c3.3,18.2,5.1,41.9,5.1,66.8s-1.8,48.6-5.1,66.8c-3.6,19.8-7.7,26.7-9.4,28
				c-1.7-1.3-5.9-8.2-9.4-28c-3.3-18.2-5.1-41.9-5.1-66.8s1.8-48.6,5.1-66.8C1117.4,554.2,1121.6,547.4,1123.3,546 M1123.3,540.9
				c-10.8,0-19.5,44.8-19.5,100s8.7,100,19.5,100s19.5-44.8,19.5-100S1134,540.9,1123.3,540.9z"/>
			<path d="M1199.3,546c1.7,1.3,5.9,8.2,9.4,28c3.3,18.2,5.1,41.9,5.1,66.8s-1.8,48.6-5.1,66.8c-3.6,19.8-7.7,26.7-9.4,28
				c-1.7-1.3-5.9-8.2-9.4-28c-3.3-18.2-5.1-41.9-5.1-66.8s1.8-48.6,5.1-66.8C1193.4,554.2,1197.6,547.4,1199.3,546 M1199.3,540.9
				c-10.8,0-19.5,44.8-19.5,100s8.7,100,19.5,100s19.5-44.8,19.5-100S1210,540.9,1199.3,540.9z"/>
		</g>
		<g id="Calque_46">
			<rect x="352.8" y="385.9" class="st11" width="50" height="44"/>
			<ellipse class="st23" cx="377.8" cy="409.4" rx="11" ry="14.5"/>
		</g>
		<g id="Calque_48">
			<polygon class="st1" points="383.6,414.2 379.1,413.2 375.7,416.4 375.2,411.8 371.2,409.6 375.4,407.7 376.2,403.2 379.3,406.6 
				383.9,406 381.6,410 			"/>
		</g>
		<g id="Calque_47">
			<rect x="352.8" y="389.9" class="st24" width="50" height="2"/>
		</g>
		<g id="Rebords">
			<rect x="649.8" y="164.9" class="st25" width="32" height="597"/>
			<rect x="1247.8" y="164.9" class="st25" width="25" height="597"/>
		</g>
		<g id="Calque_7">
			<polygon class="st26" points="650.3,164.4 537.3,132.9 537.3,811.3 567.3,823.9 650.3,760.1 			"/>
		</g>
		<g id="Calque_8">
			<line class="st27" x1="1404.8" y1="823.9" x2="1272.8" y2="751.9"/>
		</g>
		<g id="Calque_38">
			<rect x="108.8" y="429.9" class="st28" width="326" height="22"/>
			<rect x="149.8" y="304.9" class="st28" width="244" height="23"/>
		</g>
		<g id="Calque_33">
			<polyline class="st29" points="1256.1,767.4 1413.1,890.6 1440.9,761.4 			"/>
		</g>
		<g id="Calque_9">
			<polyline class="st30" points="567.5,824.1 551,789.1 559.2,139.2 537.5,133.1 537.5,811.5 567.5,824.1 			"/>
		</g>
		<g id="Calque_10">
			<path class="st31" d="M1102.8,112.9"/>
			<polygon class="st31" points="1272.8,163.7 1392.1,132.9 1406.1,142.4 1417.1,853.9 1260.1,767.4 1272.6,751.4 			"/>
		</g>
		<g id="Calque_11">
			<polyline class="st32" points="1392.1,132.9 1406.1,142.4 1417.1,853.9 1417.1,853.9 1392.1,840.1 1404.6,824.1 1392.1,132.9 			
				"/>
		</g>
		<g id="Calque_6">
			<line class="st33" x1="552.6" y1="789.5" x2="651.6" y2="734.5"/>
			<line class="st33" x1="1404.3" y1="824.4" x2="1272.3" y2="751.4"/>
		</g>
		<g id="Calque_13">
			<polygon class="st34" points="569.3,171.4 569.3,655.9 634.3,634.6 634.3,190.6 			"/>
		</g>
		<g id="Calque_24">
			<polygon class="st35" points="634.3,190.6 627.8,358.9 586.8,502.9 586.8,650.2 569.3,655.9 569.3,171.4 			"/>
		</g>
		<g id="Calque_25">
			<path class="st36" d="M569.3,171.4l25,8c0,0,8.5,80.8-24,132.1l0,0L569.3,171.4z"/>
		</g>
		<g id="Calque_14">
			<path class="st31" d="M731.8,89.4c0.8,0,1.5-0.7,1.5-1.5s-0.7-1.5-1.5-1.5s-1.5,0.7-1.5,1.5S730.9,89.4,731.8,89.4z"/>
			<polygon class="st31" points="570.3,571.9 633.8,557 633.8,548.9 570.3,562.8 			"/>
			<polygon class="st31" points="570.3,488.9 633.8,474.5 633.8,466.9 570.3,480.4 			"/>
			<polygon class="st31" points="570.3,402.9 633.8,389.3 633.8,381.9 570.3,394.7 			"/>
			<polygon class="st31" points="570.3,318.9 633.8,306.5 633.8,299.9 570.3,311.5 			"/>
			<polygon class="st31" points="570.3,245.9 634.3,243 634.3,235.9 570.3,238 			"/>
		</g>
		<g id="Calque_16">
			<polygon class="st34" points="1370.7,176.9 1370.7,674 1297.8,652.2 1297.8,196.6 			"/>
		</g>
		<g id="Calque_26">
			<path class="st35" d="M1297.8,196.6c0,0,46.5,118.3,71.7,103.3l0,0l1.1-123"/>
		</g>
		<g id="Calque_28">
			<polygon class="st36" points="1298.6,316.8 1369.8,407.3 1370.7,674 1297.8,652.2 			"/>
			<path d="M756.8,545.9c7.2,0,13,5.8,13,13s-5.8,13-13,13s-13-5.8-13-13S749.6,545.9,756.8,545.9L756.8,545.9 M756.8,540.9
				c-9.9,0-18,8.1-18,18s8.1,18,18,18s18-8.1,18-18S766.7,540.9,756.8,540.9z"/>
			<path d="M836.8,545.9c7.2,0,13,5.8,13,13s-5.8,13-13,13s-13-5.8-13-13S829.6,545.9,836.8,545.9L836.8,545.9 M836.8,540.9
				c-9.9,0-18,8.1-18,18s8.1,18,18,18s18-8.1,18-18S846.7,540.9,836.8,540.9z"/>
			<path d="M923.8,545.9c7.2,0,13,5.8,13,13s-5.8,13-13,13s-13-5.8-13-13S916.6,545.9,923.8,545.9L923.8,545.9 M923.8,540.9
				c-9.9,0-18,8.1-18,18s8.1,18,18,18s18-8.1,18-18S933.7,540.9,923.8,540.9z"/>
			<path d="M1003.8,545.9c7.2,0,13,5.8,13,13s-5.8,13-13,13s-13-5.8-13-13S996.6,545.9,1003.8,545.9L1003.8,545.9 M1003.8,540.9
				c-9.9,0-18,8.1-18,18s8.1,18,18,18s18-8.1,18-18S1013.7,540.9,1003.8,540.9z"/>
			<path d="M1086.8,545.9c7.2,0,13,5.8,13,13s-5.8,13-13,13s-13-5.8-13-13S1079.6,545.9,1086.8,545.9L1086.8,545.9 M1086.8,540.9
				c-9.9,0-18,8.1-18,18s8.1,18,18,18s18-8.1,18-18S1096.7,540.9,1086.8,540.9z"/>
			<path d="M1159.8,545.9c7.2,0,13,5.8,13,13s-5.8,13-13,13s-13-5.8-13-13S1152.6,545.9,1159.8,545.9L1159.8,545.9 M1159.8,540.9
				c-9.9,0-18,8.1-18,18s8.1,18,18,18s18-8.1,18-18S1169.7,540.9,1159.8,540.9z"/>
		</g>
		<g id="Calque_27">
			<polygon class="st31" points="1369.8,589.1 1298.6,573.9 1298.6,565.5 1369.8,579.8 			"/>
			<polygon class="st31" points="1369.8,504 1298.6,489.2 1298.6,481.4 1369.8,495.3 			"/>
			<polygon class="st31" points="1369.8,415.7 1298.3,404.8 1298.3,397.2 1369.8,407.3 			"/>
			<polygon class="st31" points="1369.8,329.5 1298.3,322.8 1298.3,316 1369.8,322 			"/>
			<polygon class="st31" points="1369.8,254.6 1297.3,251.4 1297.3,244.1 1369.8,246.5 			"/>
			<polygon class="st31" points="1343.5,185.2 1338.7,666.6 1318.8,660.5 1329.5,189.7 			"/>
		</g>
		<g id="Calque_15">
			<polygon class="st31" points="594.3,179.4 598.3,646.4 616.3,640.4 606.3,182.4 			"/>
		</g>
		<g id="Calque_12">
			<polygon class="st37" points="566.8,665.9 638.3,641.9 638.3,725.7 566.3,761.7 			"/>
		</g>
		<g id="Calque_17">
			<rect x="681.8" y="730.9" class="st25" width="566" height="31"/>
		</g>
		<g id="Calque_32">
			<polygon class="st38" points="685.8,761.6 1443.1,1080.9 1620.6,1080.9 1234.8,761.4 			"/>
		</g>
		<g id="Calque_21">
			<path class="st39" d="M650.3,145.4l623,10L650.3,145.4c0,0,45.5-151.5,168-144.5h285c0,0,145.5,1,170,154.5"/>
		</g>
		<g id="Calque_22">
			<path class="st40" d="M650.3,145.4l31.5,0.5c0,0,31.3-122,156.1-121h279.9c0,0,80.4-1,120.2,120.5h35.3c0,0-51.5-145.5-170-144.5
				h-285C818.3,0.9,691.8-2.1,650.3,145.4"/>
		</g>
		<g id="Calque_23">
			<path class="st41" d="M681.8,145.9c0,0,386.8-2.9,483.4-105c0,0-13.8-34.5-376.6-9.2C788.6,31.7,698.8,63.9,681.8,145.9"/>
		</g>
		<g id="Calque_20">
			<ellipse class="st42" cx="961.8" cy="75.4" rx="111" ry="81.5"/>
			<circle class="st42" cx="963.8" cy="101.9" r="49"/>
			<line class="st42" x1="925.8" y1="132.9" x2="694.8" y2="52.9"/>
			<line class="st42" x1="791.8" y1="-6.1" x2="964.8" y2="146.9"/>
			<line class="st27" x1="961.8" y1="-3.1" x2="963.8" y2="52.9"/>
			<line class="st42" x1="953.8" y1="151.9" x2="1121.8" y2="-3.1"/>
			<line class="st42" x1="1001.8" y1="132.9" x2="1239.8" y2="70.9"/>
			<line class="st42" x1="963.8" y1="52.9" x2="961.8" y2="-3.1"/>
			<path class="st43" d="M961.8-6.1c0,0,89.4-6,106.7,59c0,0,19.3,64-42.7,89.1c0,0,61.5-30.6,35.5-94.6
				C1061.3,47.4,1063.3,10.4,961.8-6.1z"/>
			<path class="st43" d="M962.3-6.1c0,0-89.4-6-106.7,59c0,0-19.3,64,42.7,89.1c0,0-61.5-30.6-35.5-94.6
				C862.8,47.4,860.8,10.4,962.3-6.1z"/>
			<line class="st44" x1="1009.3" y1="130.4" x2="1231.3" y2="70.4"/>
			<line class="st44" x1="964.3" y1="146.4" x2="1121.3" y2="-2.6"/>
			<line class="st44" x1="964.3" y1="146.4" x2="791.3" y2="-5.6"/>
			<line class="st44" x1="925.3" y1="133.4" x2="694.3" y2="53.4"/>
		</g>
		<g id="Calque_35">
			<path class="st45" d="M20.8,998.7c22.5-63.7,70.1-139.9,168.1-131.6c3.4,0.3,6.8,1.3,10.1,3c34.3,17.6,250.2,124.4,406.3,103.8
				c0,0,230.3-20.5,429.3-5.3c48.7,3.7,46.8,112.3-2,112.3L54,1081.2C25.7,1081.2,7.5,1036.1,20.8,998.7z"/>
		</g>
		<g id="Calque_18">
			<rect x="650.3" y="145.4" class="st46" width="623" height="18"/>
			<path class="st2" d="M649.9,31.9l0.4,113.5c0,0,39.5-144.5,168-144.5H680.8c-17,0-30.9,13.8-30.9,30.8
				C649.9,31.8,649.9,31.8,649.9,31.9z"/>
			<path class="st2" d="M1273.7,29.7l-0.4,125.7c0,0-40-154.5-170-154.5H1245C1260.8,0.9,1273.7,13.7,1273.7,29.7
				C1273.7,29.6,1273.7,29.6,1273.7,29.7z"/>
		</g>
		<g id="Calque_29">
			<line class="st47" x1="681.8" y1="540.9" x2="1247.8" y2="540.9"/>
			<line class="st47" x1="681.8" y1="730.9" x2="1247.8" y2="730.9"/>
			<line class="st47" x1="733.8" y1="576.9" x2="782.8" y2="576.9"/>
			<line class="st47" x1="810.8" y1="576.9" x2="865.8" y2="576.9"/>
			<line class="st47" x1="895.8" y1="576.9" x2="946.8" y2="576.9"/>
			<line class="st47" x1="976.8" y1="576.9" x2="1034.8" y2="576.9"/>
			<line class="st47" x1="1108.8" y1="576.9" x2="1060.8" y2="576.9"/>
			<line class="st47" x1="1137.8" y1="576.9" x2="1188.8" y2="576.9"/>
			<line class="st47" x1="1213.8" y1="576.9" x2="1247.8" y2="576.9"/>
			<line class="st47" x1="704.8" y1="576.9" x2="681.8" y2="576.9"/>
		</g>
		<g id="Calque_34">
			<polyline class="st48" points="685.8,761.9 782.7,762.3 1443,1081.2 			"/>
			<path class="st48" d="M909.1,785.2c0,0,153.3,8.8,108.4,38.7h-33c0,0,20,45.6-92.9,0c0,0-24-27.6,34.1-13
				C925.7,810.9,875.7,780.9,909.1,785.2z"/>
		</g>
	</g>
</g>
<polygon class="st37" points="1367.1,775.5 1295,742 1295,664.1 1366.6,686.4 "/>
</svg>
