<?xml version="1.0" encoding="utf-8"?>
<!-- Generator: Adobe Illustrator 25.0.0, SVG Export Plug-In . SVG Version: 6.00 Build 0)  -->
<svg version="1.1" id="Calque_1" xmlns="http://www.w3.org/2000/svg" xmlns:xlink="http://www.w3.org/1999/xlink" x="0px" y="0px"
	 viewBox="0 0 370.4 1199.6" style="enable-background:new 0 0 370.4 1199.6;" xml:space="preserve">
<style type="text/css">
	.st0{fill:#AB5D19;}
	.st1{opacity:0.61;fill:#7F4214;enable-background:new    ;}
	.st2{fill:#6DCACC;}
	.st3{fill:#C38F31;}
	.st4{opacity:0.67;fill:#9ACCCA;enable-background:new    ;}
	.st5{opacity:0.54;fill:#E1F3F5;enable-background:new    ;}
	.st6{opacity:0.52;}
	.st7{fill:#4D8C89;}
	.st8{opacity:0.25;}
</style>
<g id="Calque_1_1_">
	<path class="st0" d="M174.3,0.5h22.6c12.1,0,21.9,9.8,21.9,21.9V788l0,0h-66.4l0,0V22.4C152.4,10.3,162.2,0.5,174.3,0.5z"/>
	<path class="st1" d="M191.9,0.5c0,0,27,2.3,27,27V603C218.9,603,204.2,0.5,191.9,0.5z"/>
</g>
<g id="Calque_3">
	<path class="st2" d="M232.2,795.7c0,0,61,45.6,136.5,30.7c0,0,29,288.9-200.3,372.6c0,0-230.9-130.9-151.1-391.9
		c0,0,60.9,24.7,125.2-7.5L232.2,795.7z"/>
	<path class="st3" d="M170.4,20.8h8.4c4.1,0,7.5,3.4,7.5,7.5v606.4c0,4.1-3.4,7.5-7.5,7.5h-8.4c-4.1,0-7.5-3.4-7.5-7.5V28.3
		C162.9,24.2,166.2,20.8,170.4,20.8z"/>
</g>
<g id="Calque_2_1_">
	<path class="st2" d="M159.5,971.5c-9.4,0-17.1-7.6-17.1-17.1V615.6h83.9v338.8c0,9.4-7.7,17.1-17.1,17.1H159.5z"/>
</g>
<g id="Calque_5">
	<path class="st4" d="M247.2,840.9l99.7,8.6c0,0-15.4,291-174.7,305.1c0,0-206.1-97.8-140.8-313.7h92c0,0-30,128.6,50.6,144.6
		C173.9,985.5,269.9,1002.7,247.2,840.9z"/>
	<path class="st5" d="M168.7,633.6h4.3c5.2,0,9.5,4.3,9.5,9.5v294.4c0,2.7-2.2,4.9-4.9,4.9l0,0h-8.9c-5.2,0-9.5-4.3-9.5-9.5V643.1
		C159.1,637.8,163.4,633.6,168.7,633.6L168.7,633.6z"/>
</g>
<g id="Calque_6">
	<g class="st6">
		<path class="st7" d="M186.2,615.1l19.7,35.7v250.7c0,18.3-9.6,35.3-25.3,44.8l-38.7,3.6l0,0c-1.5,9,13,22.1,22.2,22.1h41.1
			c0,0,21,1.6,21.6-35.8s0-321,0-321L186.2,615.1z"/>
	</g>
</g>
<g id="Calque_7">
	<g class="st8">
		<path class="st7" d="M182.5,972c0,0,16-2.5-14.2,227c0,0-231.5-131-151.1-391.9c0,0,61.1,27.5,125.2-7.5l-0.5,150.2
			c0,0-0.5,3,0.5,6.9C144.3,964.8,152.2,976.6,182.5,972z"/>
	</g>
</g>
<g id="Calque_8">
	<path class="st4" d="M31.3,840.9c0,0-90.4,92,87.6,321.3c0,0-167.3-127.5-101.7-355.1c0,0,46.7,16.6,101.7,2.8L31.3,840.9z"/>
</g>
</svg>
