<?xml version="1.0" encoding="utf-8"?>
<!-- Generator: Adobe Illustrator 25.0.0, SVG Export Plug-In . SVG Version: 6.00 Build 0)  -->
<svg version="1.1" id="Calque_1" xmlns="http://www.w3.org/2000/svg" xmlns:xlink="http://www.w3.org/1999/xlink" x="0px" y="0px"
	 viewBox="0 0 839.8 608.3" style="enable-background:new 0 0 839.8 608.3;" xml:space="preserve">
<style type="text/css">
	.st0{fill:none;stroke:#6B99B1;stroke-width:40;stroke-miterlimit:10;}
	.st1{fill:#6B99B1;}
	.st2{fill:#84A2AF;}
	.st3{fill:#4F91AF;}
	.st4{opacity:0.5;fill:#303263;enable-background:new    ;}
	.st5{fill:#398DAA;}
	.st6{opacity:0.56;fill:#84A2AF;enable-background:new    ;}
	.st7{fill:#28778C;}
</style>
<g id="Calque_3">
	<path class="st0" d="M696.8,184.4c66.1,0,139.6,88,119.6,191.5c-18.1,93.9-129.8,116.7-119.7,191.5"/>
</g>
<g id="Calque_4">
	<path class="st1" d="M343.8,304.4c0,0-113.6-145.1-241.5-216l-29.5,33.1c0,0,181.2,74.5,292.2,472.7L343.8,304.4z"/>
	<path class="st1" d="M1.7,129.5c35.7,31.2,90,27.6,121.2-8.2c31.2-35.7,27.6-90-8.2-121.2c-0.1,0-0.1-0.1-0.2-0.1L1.7,129.5z"/>
</g>
<g id="Calque_7">
	<path class="st2" d="M114.6,0L1.7,129.5C1.7,129.5,91.4,111.9,114.6,0z"/>
	<path class="st3" d="M64.6,104.8c6.2,4.1,16.4,9.1,28.1,8.8c4.8-0.2,8.8,3.5,9,8.2c0.1,2.8-1.2,5.5-3.4,7.2
		c-15.1,11.6-38.2,20.1-71.3,10.6c-7.9-2.3-8.4-13.4-0.6-16.3c9.5-3.5,19.9-9,27.2-17.1C56.4,103.1,61.1,102.5,64.6,104.8z"/>
</g>
<g id="Calque_8">
	<path class="st2" d="M742.8,178.1c0,0,151,89,64,227.7C806.8,405.8,901.8,348.1,742.8,178.1z"/>
</g>
<g id="Calque_9">
	<path class="st3" d="M721.1,486.9c0,0,124.6-89,71.7-205.8C792.8,281.1,871.5,366.7,721.1,486.9"/>
</g>
<g id="Calque_1_1_">
	<path class="st1" d="M348.5,159.1h360.6c6.6,0,12,5.4,12,12v372.7c0,35.6-28.8,64.5-64.5,64.5H401c-35.6,0-64.5-28.9-64.5-64.5
		V171.1C336.5,164.5,341.9,159.1,348.5,159.1z"/>
	<path class="st3" d="M348.8,509.5c0,0-14,89,32,84.5l298.1,0.2c0,0,38.6-1.6,18.9-78.5c-0.6-2.4-3-3.8-5.4-3.2
		c-0.5,0.1-0.9,0.3-1.3,0.6C660.2,533.6,524.8,634.1,348.8,509.5"/>
	<circle class="st4" cx="101.8" cy="25.1" r="2"/>
	<circle class="st4" cx="89.8" cy="36.1" r="2"/>
	<circle class="st4" cx="87.8" cy="51.1" r="2"/>
	<circle class="st4" cx="43.8" cy="96.1" r="2"/>
	<circle class="st4" cx="70.8" cy="59.1" r="2"/>
	<circle class="st4" cx="57.8" cy="75.1" r="2"/>
	<circle class="st4" cx="61.8" cy="90.1" r="2"/>
	<circle class="st4" cx="74.8" cy="75.1" r="2"/>
	<circle class="st4" cx="29.8" cy="107.1" r="2"/>
</g>
<g id="Calque_11">
	<ellipse class="st5" cx="510.3" cy="175.1" rx="161.5" ry="16"/>
	<path class="st6" d="M671.8,196.1L671.8,196.1c6.6,0,12,5.4,12,12v351c0,6.6-5.4,12-12,12l0,0c-6.6,0-12-5.4-12-12v-351
		C659.8,201.5,665.1,196.1,671.8,196.1z"/>
</g>
<g id="Calque_6">
	<path class="st2" d="M328.2,294.9c0,0-136.2-149.6-205.3-173.7C122.9,121.2,194.6,169.8,328.2,294.9z"/>
</g>
<g id="Calque_10">
	<path class="st7" d="M622.8,176.6c0,4.1-60.2,7.5-134.5,7.5s-134.5-3.4-134.5-7.5s57-17.5,134.5-7.5
		C561.9,178.6,622.8,172.5,622.8,176.6z"/>
</g>
</svg>
