<?xml version="1.0" encoding="utf-8"?>
<!-- Generator: Adobe Illustrator 25.0.0, SVG Export Plug-In . SVG Version: 6.00 Build 0)  -->
<svg version="1.1" id="Calque_1" xmlns="http://www.w3.org/2000/svg" xmlns:xlink="http://www.w3.org/1999/xlink" x="0px" y="0px"
	 viewBox="0 0 611 690.6" style="enable-background:new 0 0 611 690.6;" xml:space="preserve">
<style type="text/css">
	.st0{fill:#A9CCA2;}
	.st1{fill:#A9CCA2;stroke:#000000;stroke-miterlimit:10;}
	.st2{opacity:0.13;}
	.st3{fill:#0E540E;}
	.st4{fill:#584521;}
	.st5{fill:#3F3218;}
	.st6{fill:#6D562B;}
	.st7{fill:#785E2F;}
	.st8{fill:#7D6233;}
	.st9{fill:#463619;}
	.st10{fill:#54401D;}
	.st11{fill:#3D2F16;}
	.st12{fill:#664E21;}
	.st13{fill:#3C2D16;}
	.st14{fill:#865724;}
	.st15{fill:#292113;}
	.st16{fill:#493719;}
	.st17{fill:#543F1C;}
	.st18{fill:#2E2313;}
	.st19{fill:#382A16;}
	.st20{fill:#271E12;}
	.st21{fill:#443216;}
</style>
<g id="Calque_1_1_">
	<path class="st0" d="M561.9,99.2v567.9c0,10.5-8.5,18.9-18.9,18.9h-213l4.2-10l-80.5-1.6L244,686l0,0H98.1
		C83.7,686,72,674.3,72,660V91.7c19.3-0.9,36.4-6,50.7-15.2c7.8-5,15.2-10.8,21.9-17.2l5.8,0.3c7.3,0.4,14.8,0.7,22.2,0.7
		c6.6,0.1,13.2-0.3,19.8-1.1c1.1,0,2.3,0.1,3.5,0.1c12,0,23.9-2.4,34.9-7.1H277c13,3.1,26.5,3.2,39.6,0.3c0.9,0,1.8-0.1,2.8-0.2
		l0.8-0.1h29.3l0.7,0.3c4.1,1.9,8.3,3.6,12.6,5c8.7,2.8,17.8,4.2,26.9,4.2c6.5,0,12.9-0.7,19.2-2.2c6.1-0.3,12.1-1.2,17.9-2.7
		c9.2,5.6,19.1,9.9,29.4,12.8c5.3,2.2,11.1,2.8,16.7,3.4c9.3,2.2,18.9,3.3,28.5,3.3c2.7,0,5.5-0.1,8.1-0.3c4.1,3.2,8.3,6.1,12.8,8.7
		C534.5,91.7,547.9,96.7,561.9,99.2z"/>
	<polygon class="st0" points="334.1,676 329.9,686 244,686 244,686 253.6,674.4 	"/>
</g>
<g id="Calque_2_1_">
	<path class="st1" d="M273.2,504.3c0,0-348.3-28.5,0-28H491"/>
	<path class="st1" d="M208.4,591.8c0,0-140.9-17.8,14.6-35.7l152.3-17.8"/>
	<path class="st1" d="M293.1,591.8c0,0,64.4,14.6,82.2,0"/>
	<path class="st1" d="M449.8,612.8c0,0,52.1,13,74.7,0"/>
	<path class="st1" d="M242.4,407.1c0,0,138.1,25.9,194.6,0"/>
	<path class="st1" d="M507.6,219c0,0,10.2,30.9-33.5,39"/>
	<path class="st1" d="M75.4,111.2c0,0,97.8,140.1,258.8,107.8l0,0"/>
	<path class="st1" d="M449.8,191.2c0,0-17.3,39.3-89.7,66.8"/>
	<path class="st1" d="M360.1,510.3c0,0,111.8,36.8,148.5,0"/>
	<path d="M342.9,108.5c3.5,2.9,6.6,6.2,9.3,9.9c3.4,4.3,6.5,8.8,9.7,13.2c6.2,8.6,12.9,17.9,22.2,23.4c4.5,2.8,9.7,4.1,15,3.6
		c1.9-0.2,1.9-3.2,0-3c-9.8,1.2-17.9-5.4-24.1-12.2c-7.4-8.1-13.2-17.4-19.9-26c-3.2-4.1-6.5-8.2-10.7-11.4
		C342.8,104.8,341.3,107.4,342.9,108.5L342.9,108.5z"/>
</g>
<g id="Calque_4">
	<g class="st2">
		<path class="st3" d="M242.5,402.6c48.9,25.7,106.8,17.2,159.5,12.5c14.9-1.3,29.8-2.4,44.8-2.5c7.7,0,7.7-12,0-12
			c-33.8,0.1-67.3,5.3-100.9,7c-32.9,1.6-67.5,0.3-97.3-15.4C241.7,388.7,235.6,399,242.5,402.6L242.5,402.6z"/>
	</g>
	<g class="st2">
		<path class="st3" d="M122.4,489.4c19.7,13.6,46.8,12,69.5,15.6c24.9,3.8,51.3,12.4,76.5,6.1l-4.6-11
			c-48.2,22.6-96.9-5.3-144.1-16.1c-7.5-1.7-10.7,9.8-3.2,11.6c25.7,5.9,50.2,16.2,76,21.8c26.4,5.7,52.6,4.7,77.3-6.8
			c6.3-3,1.8-12.6-4.6-11c-23.3,5.8-48.3-2.9-71.3-6.3c-11.4-1.7-22.8-2.4-34.2-4.2c-10.7-1.6-22.1-3.7-31.2-10
			C122.1,474.6,116.1,485,122.4,489.4L122.4,489.4z"/>
	</g>
	<g class="st2">
		<path class="st3" d="M164,580.5c19.4-4.5,38.7-9.3,58.1-13.5c18.3-3.9,36.7-6.4,55.2-9.3c31.3-4.8,63.5-22.2,95.8-15.4l-4.2-4.2
			c-0.3-2.1-0.2,0.9,0-1.1c0,0.5,0,1.9,0.1,0.2c0,0.5-1.3,1.5,0,0.3c-0.4,0.4-0.7,0.8-1.1,1.2c-1.2,1,0.3-0.1-0.5,0.5
			c-0.5,0.4-1.1,0.7-1.7,1.1c-0.8,0.5-3.4,1.7-3.3,1.6c-7.9,3.3-16.6,4.9-25,6.3c-21.5,3.6-43.5,5-65.2,6.2
			c-14.9,0.8-29.9,1.1-44.8,2.5c-10.7,1.1-21.6,2-32.1,4.5c-9.2,2.2-19.7,7-18.3,18.3c1.3,11,15,13.1,23.8,14
			c9.4,0.9,18.7,0.1,28.1,0.1c7.7-0.1,7.7-12.1,0-12s-15.6,0.7-23.4,0.3c-4.3-0.1-8.5-0.7-12.7-1.8c-1.2-0.3-2.4-0.8-3.5-1.5
			c0.3,0.2-1.4-0.9-0.4-0.3c-0.4-0.2-0.1-0.3-0.1-0.3c0.2-0.7,0.5-1.3,0.8-1.9c-0.5,0.5,1.3-0.7,1.6-0.9c0.8-0.4,1.6-0.7,2.5-1
			c5.5-1.7,11.1-2.9,16.8-3.5c7.2-1,14.5-1.8,21.8-2.3c37.9-2.8,76.1-2.4,113.6-9.6c12-2.3,37.1-6.7,34.6-23.8
			c-0.5-2.1-2.1-3.7-4.2-4.2c-33.8-7.1-66.4,9.2-99.2,14.9c-18.8,3.3-37.6,5.4-56.3,9.4c-20.1,4.2-40,9.2-60,13.9
			C153.2,570.6,156.4,582.2,164,580.5L164,580.5z"/>
	</g>
	<g class="st2">
		<path class="st3" d="M369.5,517.7c43.7,16.3,94.1,24,137.6,3.1c7-3.3,0.9-13.7-6-10.4c-40.5,19.4-88,10.8-128.4-4.3
			C365.4,503.4,362.3,515,369.5,517.7L369.5,517.7z"/>
	</g>
	<g class="st2">
		<path class="st3" d="M288.6,602c12.3,8,28.3,6.5,42.1,4.4c14.5-2.2,28.7-6.9,43.3-8.7c7.7-0.9,7.7-11.1,0-12
			c-11.5-1.3-22.8,1.7-34.3,1.4c-7.7-0.2-7.7,11.8,0,12c11.5,0.3,22.8-2.8,34.3-1.4v-12c-13.8,1.7-27.2,5.7-40.8,8.2
			c-12.1,2.2-27.4,4.9-38.4-2.2C288.2,587.5,282.1,597.9,288.6,602L288.6,602z"/>
	</g>
	<g class="st2">
		<path class="st3" d="M459.7,612.1c25.1,0,50.2,1.8,75.3,1.8v-12c-10.4,0.6-20.6,2.8-31,3.7c-7.7,0.6-7.7,12.6,0,12
			c10.4-0.8,20.6-3.1,31-3.7c7.7-0.4,7.8-12,0-12c-25.1-0.1-50.2-1.8-75.3-1.8C452,600.1,452,612.1,459.7,612.1z"/>
	</g>
	<g class="st2">
		<path class="st3" d="M77.9,127c16.4,10,27.5,24.2,39.9,37.9c12.2,13.3,27.2,24.5,44,32.8c17.9,9,37.1,16.8,56,23.8
			c17.4,6.5,35,9,53.7,9.7c17.4,0.7,37.5,1.7,53.7-5c4.6-1.9,3.1-8.4-1.4-9.5c-16.8-4-33.9-1.7-51-1.4c-18.3,0.3-35.2-4.3-52-10.3
			c-27.9-9.9-56.4-19.7-81.4-35c-13.7-8.5-26.1-18.7-36.8-30.3c-4.8-5.1-12.9,2.3-8.1,7.4c19.4,20.8,43.6,36.4,70.7,48
			c14.2,6.1,28.9,11.3,43.5,16.7c16.9,6.2,33.9,12.3,52.2,13.7c19.9,1.6,40.2-3.3,59.9,1.3l-1.4-9.5c-6,2.5-13.3,3.1-19.8,3.5
			c-8,0.5-16.1,0.6-24.2,0.3c-17.9-0.5-34.7-2.5-51.5-8.4c-18.4-6.5-36.3-14.1-53.7-22.6c-16.6-8.1-31.2-18.2-43.3-31.4
			c-13.5-14.7-25.4-29.7-43.2-40.6C77.5,114.2,71.8,123.2,77.9,127z"/>
	</g>
	<g class="st2">
		<path class="st3" d="M442.6,191.9c-12.9,15-27.6,28.3-45.1,37.5s-37.3,14-57.1,16.7c-5.1,0.7-5.8,8.8-1.4,11
			c5.6,2.8,11.2,3.7,17.4,4.2c7.7,0.6,7.7-11.4,0-12c-4-0.3-7.7-0.7-11.3-2.5l-1.4,11c20.8-2.8,41.3-8,59.9-17.9
			c18.4-9.7,34-23.8,47.6-39.4C456.1,194.6,447.7,186.1,442.6,191.9L442.6,191.9z"/>
	</g>
	<g class="st2">
		<path class="st3" d="M467.1,261.2c9.8,0.3,21.2,1.4,30.2-3.3c8.9-4.6,13.5-14.6,17.5-23.2h-10.4c2,4.5,1.2,9-0.6,13.4
			c-3,7.1,8.7,10.2,11.6,3.2c3.2-7.6,2.7-15.2-0.6-22.7c-1.8-4-8.6-3.9-10.4,0c-3,6.4-6.3,15.7-13.2,18.9s-16.7,1.9-24.1,1.7
			C459.4,249,459.4,261,467.1,261.2z"/>
	</g>
</g>
<g id="Calque_8">
	<path class="st4" d="M469.7,56.8c0,0,4.5-14.8-34.8-32.9s-48.4,13.9-48.4,13.9s1.3-13.8-19.9-31.1s-52.5,10.7-52.5,10.7
		C279.8-2.7,254,42.3,254,42.3c-31.5-40-84.9-0.7-84.9-0.7c-54.1-14.9-67.4,41.5-67.4,41.5c-13.3-0.7-20.7,3.3-28,11.2
		c26.7,50.2,118.7,91.2,231.9,94.8c122.4,3.7,224.5-35.6,243.2-90.5C535,80.7,510,75.3,510,75.3C497.8,52.6,469.8,56.8,469.7,56.8
		L469.7,56.8z"/>
	<path class="st5" d="M470.9,57.2c3.9-17-28.4-30.2-35.6-33.8c-15-7.4-39.1-11-48.6,10.4c-1.4,3.1-1,2.9-0.3,2.6
		c0.5-0.2,1.1-0.3,1.2,1c-0.4-5.2-2.3-8.9-4.4-13.2c-6-12.1-17.2-20-27.8-23.3c-9.5-3-20.3,2.2-29,6.6c-4.6,2.5-8.9,5.5-12.8,8.8
		c1.7-1.3-15.2-4.5-13.2-4.5c-12.2-0.6-22.1,3.3-32.4,11.7c-4.6,3.7-8.5,8.7-12.1,13.7c-4.9,6.6-5.5-1.7-11.7-5.4
		c-22.9-13.5-47.1-7.7-69.5,5c-5.8,3.3-10.9,2.6-16.4,2c-3.5-0.6-7.1-0.7-10.6-0.3c-12.3,1.5-22.5,6-32.1,16
		c-6.3,6.4-10.9,15.8-14.1,25.1c-0.7,2-7.2,2.8-14,5.1c-5.9,2-11.8,5.3-14.4,7.7l1.3,3.9c13.7,31,50.3,51.4,81.2,64.2
		c48.3,20,107.9,46.5,158.5,48.5c52.9,2.1,98.6-23.7,149.7-41.5c30.9-10.7,74.7-30.8,89.8-70.2l0,0c-13.1-14.5-33.9-16-46.7-28.3
		c-11-10.6-24-14.6-37.8-13c-1.2,0.2,0.9,1.5,1.5,1.4c15.8-1.9,27.7,15.1,42.7,19.2c13.1,3.6,40.6,12.3,28.8,33.6
		c-4.2,7.6-10,13.6-15.7,19.2c-38.2,37.8-94.2,48.1-140.6,54.8c-64,9.2-129.9,4.3-192.9-12.6c-27.1-7.3-52.1-19-77-34.6
		c-9.6-6-17.6-13.1-26-21.5c-3.5-3.6-6.7-7.4-9.7-11.5C67.7,87.7,101,83.8,102.2,83.8l0.7-0.3c9.2-36.5,39.1-47.2,66.5-41.2
		c2.6,0.6,8.2-4.8,10.5-6c23.7-13.5,51.9-17.4,73.3,6.2l2,0.4c3.3-5.2,7-10.1,11.3-14.5c16.4-17.9,25.4-10.9,48.2-10.2
		c4,0.1,10-7.1,13.8-9.4c18-10.9,57.6-2.5,57,28.7l2.3,0.8c3.5-11.2,12.3-16.5,21.2-18.8c-6.3,1.6,65.9,10,59.7,37L470.9,57.2
		L470.9,57.2z"/>
	<path class="st6" d="M172.4,52.4c0,0-43.6-9.7-52,19.8s-36.6,13.5-18.5,39s46.2,26.7,58.9,13s17.2-33.3,42.3-30.6
		s9.5-22.9-5.4-23.2s12.9-24.2,24.9-25.9S196.9,25.8,172.4,52.4L172.4,52.4z"/>
	<path class="st6" d="M281.3,81.6c0,0-9.9-15.2-39.4-16.1s-12.7,14.3-14,21.5s18.2,21.5,18.2,21.5S254.4,83.5,281.3,81.6z"/>
	<path class="st6" d="M268.4,46.9c-3-0.2,18.2-29.5,39.8-20.4c9.8,4.1,19,1,27.7-2c10.5-3.7,20.4-7.4,29.8,1.6
		c17.3,16.4,9.6,30,9.6,30s-54.7-0.7-60,29.7C315.2,85.8,298.8,49.5,268.4,46.9L268.4,46.9z"/>
	<path class="st6" d="M413.2,81.2c-0.5,0.2-5-0.8-11.5-1.8c-17.9-2.7-51.7-5.5-63.6,15.9c0,0-6.7,6.3,6.2,19.9s22.4,17.5,22.1,34.4
		c0,0,17.5-48.8,85.7-27.6s75.9-16.1,62.1-26.7s-41.4,4.2-41.4,4.2S462.2,66.7,413.2,81.2L413.2,81.2z"/>
	<path class="st7" d="M453,53.7c0,0-14.9-22.6-35.2-17.4S458.7,77.1,453,53.7z"/>
	<path class="st6" d="M331.9,139.7c0,0-22.3-22.5-51.5-11.8c0,0-2.5,36.6-9.2,36s-17.5-53.4-52.8-49s-51,22.8-36.4,38
		s84.2,33.7,126.4,29.2S342.4,153.9,331.9,139.7L331.9,139.7z"/>
	<path class="st6" d="M424.5,138.7c0,0-29.2-4.6-42.5,17.7s47.7,17.8,69.4,4.8S427.8,139,424.5,138.7z"/>
	<path class="st8" d="M173,63.3c-0.9-2.2-12.6-11.7-34.3-1.1s-9.5,25,7,21.7S176.1,71.1,173,63.3L173,63.3z"/>
	<path class="st8" d="M257.1,72c0,0-14.9-3.7-12.3,4.1S272.1,75.6,257.1,72z"/>
	<path class="st8" d="M370.4,46.5c0,0-5.8-23.1-24.4-19.7S369.6,60.5,370.4,46.5z"/>
	<path class="st8" d="M465.8,99.2c0,0-35.5-23.4-35.5-1.1S479.1,115.3,465.8,99.2z"/>
	<path class="st9" d="M370.4,167.2l-2.3,0.3c0.4,0.1,0.8,0.2,1.2,0.2c0.2,0,0.5,0,0.7,0S370.2,167.5,370.4,167.2L370.4,167.2z"/>
	<path class="st4" d="M159,71.8c0,0-16-19-33.3,2.3s-8.5,40.3,9.8,38S177.3,90.4,159,71.8L159,71.8z"/>
	<path class="st5" d="M160.1,71.5c-6.5-7.5-15.9-9.7-24.2-6.6c-11.5,4.2-27.5,26.3-17.8,41.5c7.7,12,24.7,5.8,33.8,0.7
		c5.8-3.3,11.6-8.6,14.2-16.3S164.4,76.2,160.1,71.5l-2.1,0.6c9.8,10.7,6.6,22.5-3.2,30.8c-9.4,8-28.3,15.1-35.8,0.4
		c-6.9-13.8,8.4-31.7,16.7-36.6c7.3-4.4,16.5-1.3,22.3,5.4L160.1,71.5L160.1,71.5z"/>
	<path class="st10" d="M162.7,79.5c-0.5,2.1-1.2,4.1-2.3,6c1.2,0.1,2.4,0.4,3.5,0.9C164,84.1,163.6,81.7,162.7,79.5L162.7,79.5z"/>
	<path class="st11" d="M163.1,77c-0.1,0.9-0.2,1.7-0.4,2.5c0.9,2.2,1.3,4.6,1.2,6.9c0.6,0.3,1.2,0.6,1.7,1
		C165.9,83.8,165,80.1,163.1,77L163.1,77z"/>
	<path class="st10" d="M117.3,94.2c-0.3,3.1,0.3,6.3,1.7,9.1c3.1,6.2,8.4,8.5,14,8.5c4.8,0,9.9-1.7,14.4-4
		c-1.9-3.8-1.4-8.2,0.4-12.2c-0.9,0.3-1.9,0.6-2.8,0.8c0,0-7.9,5.5-15.2,5.5c-1.8,0-3.6-0.4-5.2-1.2
		C120.2,98.5,117.9,96.7,117.3,94.2L117.3,94.2z"/>
	<path class="st11" d="M119.4,84.1c-7.4,15.8-0.3,28.2,13.2,28.2c1,0,1.9-0.1,2.9-0.2c4.2-0.6,8.4-1.9,12.2-3.8
		c-0.1-0.2-0.2-0.3-0.3-0.5c-4.5,2.4-9.6,4-14.4,4c-5.7,0-10.9-2.3-14-8.5c-1.4-2.8-2-6-1.7-9.1c-0.6-2.2,0.2-5.1,2.4-9.2
		L119.4,84.1L119.4,84.1z"/>
	<path class="st12" d="M144.7,69c-10.3,0-18.5,13.3-18.5,13.3c-1.6,2.8-2.3,4.8-2.3,6.1c0,1.9,1.3,2.7,3.2,2.7c3.8,0,9.7-2.8,12-4.7
		c3.2-2.7,14.9-7.3,14.9-11.9c0-1.5-1.2-2.9-4.3-4.3C148.2,69.4,146.5,69,144.7,69L144.7,69z"/>
	<path class="st4" d="M167.4,90.2c0,0-8.1-10-16,1.5s-3.2,21.5,5.5,20.2S176.6,100,167.4,90.2L167.4,90.2z"/>
	<path class="st5" d="M168.5,90c-2.9-3.4-7.6-5.5-11.4-4c-6.8,2.5-14.6,15-8.8,23.4C156.1,120.7,180.3,104.1,168.5,90l-2.1,0.5
		c10.9,13-11.2,28.2-16.9,16.6c-3.1-6.2,2.2-14.5,5.7-18.1s8.2-2.1,11.2,1.5L168.5,90L168.5,90z"/>
	<path class="st4" d="M485.7,108.1c0,0-15.9-18.9-33.3,2.4s-8.5,40.3,9.8,38S504,126.8,485.7,108.1z"/>
	<path class="st5" d="M486.6,108c-6.1-7-14.7-9.7-22.6-7.7c-12.1,3.1-29.1,26.4-19.1,42c7.9,12.2,24.5,6.5,33.8,1.3
		c5.8-3.3,11.5-8.5,14.1-16.2S490.9,112.7,486.6,108c-0.5-0.5-2.8-0.9-1.9,0.2c23.3,25.6-30,55.7-39.7,30.5
		c-5.1-13.3,7.9-28.8,15.7-34.4c7.6-5.5,17.7-3.5,24,3.9C485.2,108.7,487.6,109.1,486.6,108L486.6,108z"/>
	<path class="st10" d="M474.4,132c-0.9,0.3-1.8,0.6-2.7,0.8c0,0-8,5.5-15.3,5.5c-0.6,0-1.1,0-1.7-0.1c-2.3,1-5,2-8.2,3.1
		c2.9,4.7,7.9,6.8,13.4,6.8c5-0.1,9.9-1.4,14.3-3.8C471.8,140.6,472.5,136,474.4,132z M489.4,115.5c-0.4,2.2-1.2,4.3-2.3,6.2
		c1.2,0.2,2.4,0.5,3.5,1.1C490.8,120.3,490.4,117.8,489.4,115.5L489.4,115.5z"/>
	<path class="st11" d="M446.4,141.4l-0.9,0.3c2.7,4.3,7.5,6.9,13.7,6.9c1,0,2-0.1,3-0.2c4.3-0.6,8.4-1.9,12.2-3.8c0,0,0,0,0,0
		c-0.1-0.1-0.2-0.2-0.2-0.3c-4.4,2.4-9.4,3.7-14.4,3.8C454.3,148.1,449.4,146.1,446.4,141.4L446.4,141.4z M489.8,113.3
		c-0.1,0.7-0.2,1.5-0.3,2.2c0.9,2.3,1.3,4.8,1.2,7.3c0.6,0.3,1.1,0.6,1.7,1C492.6,120.1,491.7,116.5,489.8,113.3L489.8,113.3z"/>
	<path class="st12" d="M471.4,105.3c-1.7,0-3.4,0.4-5,1c4.3,2.6,6.6,6.3,4,12.3c-0.2,0.5-0.5,1.1-0.7,1.6c4.6-2.7,11-6.1,11-9.5
		c0-1.5-1.2-2.9-4.3-4.3C474.9,105.7,473.2,105.3,471.4,105.3L471.4,105.3z"/>
	<path class="st4" d="M494.1,126.5c0,0-8.1-10-15.9,1.5s-3.2,21.5,5.5,20.2S503.3,136.3,494.1,126.5z"/>
	<path class="st5" d="M495.2,126.4c-2.8-3.3-7.6-5.7-11.4-4.3c-5.8,2.1-14.9,14.5-9.4,22.5C482.8,156.9,507.1,140.6,495.2,126.4
		l-2.2,0.2c11,13.1-11.4,28.1-16.9,16.9c-2.5-5,0.8-11.4,3.2-15.2c3.5-5.6,9.6-6.7,13.7-1.8L495.2,126.4L495.2,126.4z"/>
	<path class="st13" d="M246.1,108.5c0,0-19.6-14.3-18.2-21.5c1.3-7-14.5-21.5,11.6-21.5c0.8,0,1.6,0,2.4,0
		c29.5,0.9,39.4,16.1,39.4,16.1C254.4,83.4,246.1,108.4,246.1,108.5L246.1,108.5z M246.1,111.6c3.3,0,6.4-3,6.4-3
		c8.3-14.9,41.2-8.2,38.6-23.6s-50.6-34.7-50.6-34.7c1.9-0.2,3.8-0.2,5.7-0.2c46.8,0,70.8,49.5,70.8,49.5
		c9.2-23.1,36.3-29.2,48.7-29.2c7.4,0,9.5,2.2-0.9,4.2c-27.6,5.4-37.6,34.7-37.6,34.7c21.4,7.9,37.4,41,30.3,41
		c-2.2,0-6.5-3.1-13.5-11c-15.2-17.1-38.5-21.9-56.3-21.9c-17.3,0-29.3,4.6-23.2,7c12.4,4.9,8,34,8,34c-3.6-29-39-47.4-39-47.4
		c-6.7-2-13.7-3-20.7-3.1c-14,0-23.6,5-30.2,11.1c-5.2,6.6-9.5,13.9-13,21.5c2.3-8.2,6.8-15.7,13-21.5
		c11.2-14.1,22.8-18.4,32.9-18.4c14.9,0,26.4,9.4,28.4,10.5c0.7,0.4,1.5,0.6,2.4,0.6L246.1,111.6z M276.5,35.4
		c-6,0.1-12,0.8-17.9,2.1c-1.2,1.7-2.5,3.5-3.6,5.3l-2-0.4c-0.9-1-1.9-2-2.8-2.9c-18.4,5-37.2,13.5-51.7,19.9
		c-5.6,5.7-7.8,10.9-0.9,11c14.1,0.2,28.9,23.4,8.9,23.4c-1.2,0-2.3-0.1-3.5-0.2c-1.6-0.2-3.1-0.2-4.5-0.2
		c-21.2,0-25.9,17.9-37.8,30.8c-2.2,2.4-4.9,4.4-7.9,5.8c2.7,2.9,5.8,5.5,9.1,7.7c7.5,5.2,12.6,8.6,17.3,11.7
		c-9.3-14.4,6.5-30.5,39.2-34.5c1.4-0.2,2.7-0.2,4.1-0.2c32.1,0,42.2,48.8,48.7,49.3c0.1,0,0.1,0,0.2,0c6.6,0,9-36,9-36
		c5.1-1.9,10.5-2.9,16-2.9c20.9,0,35.5,14.7,35.5,14.7c8.7,11.7,15.8,30-6,38.5c5.1-1.3,10.4-2.9,15.9-4.6
		c8.6-2.8,17.4-4.8,26.3-6.2c-8.4-2.6,1.9-34.2,38.4-43.2c5.8-1.4,11.7-2.1,17.6-2.1c6.4,0,12.7,0.9,18.9,2.6c0.5-1.6,1-3.2,1.7-4.7
		c-8-2.1-16.2-3.2-24.4-3.2c-42,0-53.8,32.9-53.8,32.9c0.3-16.9-9.1-20.8-22.1-34.4s-6.2-19.9-6.2-19.9
		c7.9-14.2,25.4-17.8,41.6-17.8c7.4,0.1,14.8,0.7,22.1,1.8c6,0.9,10.3,1.8,11.3,1.8h0.2c3.2-1,6.5-1.8,9.8-2.4
		c-15.8-6.5-40.5-12.1-43.8-22.9c-0.5-1.7-1.4-3.3-2.5-4.7c-0.2,1.7-0.7,3.4-1.5,4.9h-0.3c-4.5,0-54.6,0.7-59.6,29.7
		c0,0-16.4-36.3-46.9-38.9C267,46.9,270.4,41.1,276.5,35.4L276.5,35.4z"/>
	<path class="st14" d="M255,38.3c-1.2,0.3-2.4,0.6-3.6,0.9l0.1,0.1c0.3,0.3,0.7,0.4,1.2,0.4C253.6,39.6,254.5,39.1,255,38.3z"/>
	<path class="st13" d="M208.3,166.9c0.4,0.3,0.9,0.5,1.3,0.8c8.4,4.9,19,7.2,30.3,8.3C229.2,173.7,218.7,170.6,208.3,166.9
		L208.3,166.9z M251.4,39.2L251.4,39.2C251.4,39.3,251.4,39.3,251.4,39.2L251.4,39.2L251.4,39.2z"/>
	<path class="st15" d="M258.6,37.5l-3.7,0.8c-0.5,0.8-1.4,1.3-2.3,1.4c-0.4,0-0.8-0.2-1.2-0.4c0,0-0.1,0-0.1-0.1l-1.1,0.3
		c1,0.9,1.9,1.9,2.8,2.9l2,0.4C256.2,40.9,257.4,39.2,258.6,37.5L258.6,37.5z"/>
	<path class="st16" d="M198.6,59.4c-4.1,1.8-7.8,3.4-11,4.7c-23.4,9.4,0.3,15.6-17.4,28.3c5.6,10.2-5.5,20.7-14.5,20.7
		c-2.5,0.1-4.9-0.9-6.6-2.7c-3.5,6.7-2.1,13.2,3.7,19.6c3-1.4,5.6-3.4,7.9-5.8c11.9-12.9,16.6-30.8,37.8-30.8c1.4,0,2.9,0.1,4.5,0.2
		c1.2,0.1,2.3,0.2,3.5,0.2c20.1,0,5.3-23.1-8.9-23.4C190.8,70.3,193,65.1,198.6,59.4L198.6,59.4z"/>
	<path class="st16" d="M251.9,79.2c-3.1,0-5.9-0.9-6.7-3.2c-1.3-4,2-4.9,5.5-4.9c2.3,0.1,4.6,0.3,6.8,0.9
		C268,74.5,259.1,79.2,251.9,79.2L251.9,79.2z M240,65.4c-26.1,0-10.3,14.5-11.6,21.5c-1.4,7.2,18.2,21.5,18.2,21.5
		s8.3-25,35.2-26.9c0,0-9.9-15.2-39.4-16.1C241.6,65.5,240.8,65.5,240,65.4L240,65.4z"/>
	<path class="st16" d="M276.8,35.4h-0.3c-6.1,5.6-9.5,11.4-8.2,11.5c30.5,2.6,46.9,38.9,46.9,38.9c5-29,55.1-29.7,59.6-29.7h0.3
		c0.8-1.6,1.3-3.2,1.5-4.9c-1.7-1.9-3.9-3.3-6.3-4c-0.4,2.1-1.9,3-4,3c-2.7,0-6.4-1.4-10.2-3.5c-2.8,0.4-5.6,1.1-8.3,2
		c-13.6-5.5-24.2,2.7-53.5-10C288.9,36.4,282.9,35.3,276.8,35.4L276.8,35.4z"/>
	<path class="st16" d="M222.5,114.6c-1.4,0-2.7,0.1-4.1,0.2c-32.7,4-48.5,20.1-39.2,34.5c7.7,5,14.5,9,29.1,17.5
		c10.3,3.7,20.9,6.8,31.6,9.2c22.3,2.2,47-0.2,61.7,3.5c2.8,0.7,5.6,1,8.5,1c5.3-0.1,10.7-0.9,15.8-2.3c21.8-8.5,14.7-26.8,6-38.5
		c0,0-14.5-14.7-35.5-14.7c-5.5,0-10.9,1-16,2.9c0,0-2.4,36-9,36c-0.1,0-0.1,0-0.2,0C264.8,163.5,254.6,114.7,222.5,114.6
		L222.5,114.6z"/>
	<path class="st17" d="M250.3,71.1c-3.5,0-6.8,1-5.5,4.9c0.8,2.3,3.6,3.2,6.7,3.2c7.2,0,16.1-4.7,5.7-7.2
		C254.9,71.4,252.6,71.2,250.3,71.1L250.3,71.1z"/>
	<path class="st17" d="M362.9,46.1c-2.2,0-4.5,0.2-6.7,0.5c3.8,2.1,7.5,3.5,10.2,3.5c2.1,0,3.7-0.9,4-3
		C367.9,46.4,365.4,46.1,362.9,46.1L362.9,46.1z"/>
	<path class="st17" d="M436.3,88.8c-3.6,0.8-6,3.5-6,9.4c0,9.6,9,14.1,18.3,14.8c2.7-4,6.1-7.4,10-10.1
		c-10.5-3.3-23.4-5.1-22.2-12.5C436.4,89.9,436.4,89.3,436.3,88.8L436.3,88.8z"/>
	<path class="st18" d="M183.5,118.9c-6.2,5.9-10.7,13.3-13,21.5C173.9,132.7,178.3,125.5,183.5,118.9z M247.3,50.1
		c-1.9,0-3.7,0.1-5.7,0.2c0,0,48,19.4,50.6,34.7c2.6,15.3-30.3,8.8-38.6,23.6c0,0-3.1,3-6.4,3c-0.8,0-1.6-0.2-2.4-0.6
		c-2-1.2-13.5-10.5-28.4-10.5c-10.1,0-21.7,4.3-32.9,18.4c6.6-6.1,16.2-11.1,30.2-11.1c7,0.1,14,1.1,20.7,3.1c0,0,35.4,18.5,39,47.4
		c0,0,4.4-29.1-8-34c-6.1-2.4,5.9-7,23.2-7c17.8,0,41.1,4.9,56.3,21.9c7,7.9,11.4,11,13.5,11c7.1,0-9-33.1-30.3-41
		c0,0,9.9-29.3,37.6-34.7c10.4-2,8.3-4.2,0.9-4.2c-12.3,0-39.4,6.1-48.7,29.2C317.9,99.5,294,50,247.3,50.1L247.3,50.1z"/>
	<path class="st13" d="M431,132.9c-44.1,0-57.5,30.5-60.5,34.3c2.9-0.3,5.8-0.5,8.8-0.5c0.7,0,1.5,0,2.2,0h0.8
		c-2.5-2.5-2.8-5.9-0.2-10.4c9.4-15.8,26.8-18.1,36.1-18.1c2.1,0,4.3,0.1,6.4,0.4c5.8,1,11.6,2.4,17.2,4.3l3-1.1
		c-1.6-2.6-2.5-5.5-2.7-8.5C438.3,133,434.6,132.8,431,132.9L431,132.9z"/>
	<path class="st16" d="M418.1,138.3c-9.4,0-26.8,2.3-36.1,18.1c-2.7,4.5-2.3,8,0.2,10.4c0.7,0,1.4,0,2,0c29.3,0,30.6-13.9,52.1-21.9
		c1.9-0.7,3.7-1.3,5.4-1.9c-5.6-1.9-11.4-3.3-17.2-4.3C422.4,138.4,420.3,138.3,418.1,138.3L418.1,138.3z"/>
	<path class="st18" d="M424.1,122.1c-5.9,0-11.8,0.7-17.6,2.2c-36.5,9-46.8,40.6-38.4,43.2l2.3-0.3c3-3.8,16.5-34.3,60.5-34.3
		c3.7,0,7.4,0.2,11.1,0.6c-0.2-3,0.1-6,0.9-8.8C436.8,123,430.4,122.1,424.1,122.1z"/>
	<path class="st13" d="M168.4,93.6c-0.7,0.5-1.4,0.9-2.2,1.3c-7.7,4.5-12.9,9-15.9,13.4c1.3,1.8,3.5,2.8,5.8,2.8
		C163.2,111.2,172.3,102.4,168.4,93.6L168.4,93.6z"/>
	<path class="st15" d="M170.2,92.4c-0.6,0.4-1.1,0.8-1.8,1.2c3.9,8.8-5.1,17.5-12.4,17.5c-2.3,0.1-4.4-0.9-5.8-2.8
		c-0.4,0.6-0.8,1.3-1.2,1.9c1.7,1.8,4.1,2.8,6.6,2.7C164.7,113.1,175.7,102.6,170.2,92.4L170.2,92.4z"/>
	<path class="st13" d="M461.3,103.9l-0.5,0.4c-6.2,4.5-15.9,15.4-16.8,26.4c0.7,2.4,3,4.2,7.1,6.5c1.1,0.6,2.3,1,3.6,1.1
		c6.8-3.1,10.2-6.9,15.1-18.1c-1.4,0.7-2.7,1.5-3.9,2.4c-2.3,1.9-8.2,4.8-12,4.8c-1.9,0-3.2-0.7-3.2-2.7c0-1.4,0.7-3.3,2.3-6.1
		c0,0,5.7-9.2,13.5-12.3C464.8,105.3,463.1,104.5,461.3,103.9L461.3,103.9z"/>
	<path class="st15" d="M458.5,102.9c-3.9,2.7-7.3,6.1-10,10.1c-1.5,2.2-2.8,4.5-3.9,6.9c-0.7,1.5-1.2,3.1-1.7,4.7
		c-0.8,2.9-1.1,5.9-0.9,8.8c0.2,3,1.2,5.9,2.7,8.5c0.3-0.1,0.5-0.2,0.8-0.3c-3.2-5.1-3.5-12.7,0.5-21.3l0.3,0.9
		c-2.2,4.3-3,7.1-2.3,9.4c0.9-11,10.5-21.9,16.8-26.4l0.5-0.4C460.4,103.6,459.4,103.3,458.5,102.9L458.5,102.9z"/>
	<path class="st19" d="M444,130.7c-0.3,2.7,0.1,5.4,1.1,8c0.4,1,0.8,1.9,1.3,2.7c3.3-1.1,6-2.1,8.2-3.1c-1.2-0.2-2.5-0.6-3.6-1.2
		C447,134.8,444.7,133,444,130.7L444,130.7z"/>
	<path class="st20" d="M446.1,120.4c-4,8.5-3.8,16.1-0.5,21.3l0.9-0.3c-0.5-0.9-1-1.8-1.3-2.7c-1-2.6-1.3-5.3-1.1-8
		c-0.7-2.3,0.2-5.1,2.3-9.4L446.1,120.4L446.1,120.4z"/>
	<path class="st21" d="M466.5,106.3c-7.8,3.1-13.5,12.3-13.5,12.3c-1.6,2.7-2.3,4.7-2.3,6.1c0,1.9,1.3,2.7,3.2,2.7
		c3.7,0,9.7-2.8,12-4.8c1.2-0.9,2.5-1.7,3.9-2.4c0.2-0.5,0.5-1,0.7-1.6C473.1,112.6,470.8,108.9,466.5,106.3L466.5,106.3z"/>
</g>
<g>
	<g>
		<path d="M203.4,292.3c-5.4,0-10.8-0.1-16.3-0.1c0-2,0-3.9,0-5.9c13.2,0,26.4,0.1,39.6,0.4c0,2,0,3.9,0,5.9
			c-5.4-0.1-10.9-0.2-16.3-0.2c0,15.9,0,31.7,0,47.6c-2.3,0-4.7,0-7-0.1C203.4,324,203.4,308.2,203.4,292.3z"/>
		<path d="M236.3,322.5c0.2,9.4,6.2,13.5,13.2,13.6c5,0.1,8-0.7,10.6-1.7c0.4,1.7,0.8,3.4,1.2,5c-2.5,1-6.7,2.2-12.8,2
			c-11.8-0.3-18.9-8.2-18.9-19.8c0-11.6,6.8-20.6,18-20.3c12.5,0.3,15.9,11.5,15.9,18.5c0,1.4-0.2,2.5-0.2,3.2
			C254.3,322.9,245.3,322.7,236.3,322.5z M256.8,318c0.1-4.4-1.8-11.4-9.7-11.6c-7.1-0.2-10.2,6.3-10.7,11.1
			C243.2,317.6,250,317.8,256.8,318z"/>
		<path d="M272.1,314.9c0-4.5-0.1-8.4-0.3-12c2,0.1,4.1,0.1,6.1,0.2c0.1,2.5,0.2,5,0.2,7.5c0.1,0,0.2,0,0.3,0
			c1.7-5.1,6-8.2,10.6-8.1c0.8,0,1.3,0.1,2,0.3c0,2.2,0,4.4,0,6.6c-0.7-0.2-1.4-0.3-2.4-0.3c-4.9-0.2-8.4,3.5-9.4,8.7
			c-0.2,0.9-0.3,2.1-0.3,3.2c0,6.8,0,13.6,0,20.5c-2.3-0.1-4.6-0.1-6.9-0.2C272.1,332.5,272.1,323.7,272.1,314.9z"/>
		<path d="M298.1,315.7c0-4.5-0.1-8.4-0.3-12c2,0.1,4.1,0.1,6.1,0.2c0.1,2.5,0.2,5,0.2,7.5c0.1,0,0.2,0,0.3,0
			c1.7-5.1,6-8.2,10.6-8.1c0.8,0,1.3,0.1,2,0.3c0,2.2,0,4.4,0,6.6c-0.7-0.2-1.4-0.3-2.4-0.3c-4.9-0.2-8.4,3.5-9.4,8.7
			c-0.2,0.9-0.3,2.1-0.3,3.2c0,6.8,0,13.6,0,20.5c-2.3-0.1-4.6-0.2-6.9-0.2C298.1,333.3,298.1,324.5,298.1,315.7z"/>
		<path d="M327.9,325.2c0.2,9.4,6.2,13.5,13.2,13.7c5,0.2,8-0.6,10.6-1.7c0.4,1.7,0.8,3.4,1.2,5c-2.5,1-6.7,2.2-12.8,2
			c-11.8-0.4-18.9-8.4-18.9-20c0-11.6,6.8-20.5,18-20.1c12.5,0.4,15.9,11.5,15.9,18.6c0,1.4-0.2,2.5-0.2,3.2
			C345.9,325.8,336.9,325.5,327.9,325.2z M348.4,320.8c0.1-4.4-1.8-11.4-9.7-11.6c-7.1-0.2-10.2,6.2-10.7,11
			C334.8,320.4,341.6,320.6,348.4,320.8z"/>
		<path d="M385.1,344.7c-0.2-1.6-0.4-3.2-0.6-4.9c-0.1,0-0.2,0-0.2,0c-2.1,3-6.3,5.6-11.7,5.4c-7.8-0.2-11.7-5.8-11.7-11.3
			c0-9.3,8.3-14.1,23.1-13.7c0-0.3,0-0.5,0-0.8c0-3.2-0.9-8.9-8.7-9.1c-3.6-0.1-7.3,0.9-10,2.6c-0.5-1.5-1.1-3.1-1.6-4.6
			c3.2-2,7.8-3.2,12.6-3.1c11.7,0.3,14.6,8.3,14.6,16c0,4.8,0,9.6,0,14.4c0,3.3,0.2,6.6,0.6,9.2
			C389.3,344.8,387.2,344.8,385.1,344.7z M384,325.1c-7.6-0.3-16.3,0.8-16.3,8.3c0,4.5,3,6.7,6.6,6.8c5,0.1,8.2-3,9.3-6.2
			c0.2-0.7,0.4-1.5,0.4-2.2C384,329.5,384,327.3,384,325.1z"/>
		<path d="M434.2,334.8c0,4,0.1,7.5,0.3,10.5c-2.1,0-4.1,0-6.2,0c-0.1-2.1-0.3-4.2-0.4-6.3c-0.1,0-0.1,0-0.2,0
			c-1.8,3.1-5.9,7.1-12.7,7.1c-6-0.1-13.3-3.5-13.3-17c0-7.5,0-15,0-22.5c2.3,0,4.7,0.1,7,0.1c0,7.1,0,14.2,0,21.3
			c0,7.3,2.2,12.3,8.6,12.3c4.7,0,7.9-3.2,9.2-6.3c0.4-1,0.6-2.3,0.6-3.6c0-7.9,0-15.7,0-23.6c2.3,0,4.7,0,7,0
			C434.2,316.2,434.2,325.5,434.2,334.8z"/>
	</g>
</g>
</svg>
