<?xml version="1.0" encoding="utf-8"?>
<!-- Generator: Adobe Illustrator 25.0.0, SVG Export Plug-In . SVG Version: 6.00 Build 0)  -->
<svg version="1.1" id="Calque_1" xmlns="http://www.w3.org/2000/svg" xmlns:xlink="http://www.w3.org/1999/xlink" x="0px" y="0px"
	 viewBox="0 0 370.4 1199.6" style="enable-background:new 0 0 370.4 1199.6;" xml:space="preserve">
<style type="text/css">
	.st0{fill:#AB5D19;}
	.st1{opacity:0.61;fill:#7F4214;enable-background:new    ;}
	.st2{fill:#6DCACC;}
	.st3{fill:#C38F31;}
	.st4{opacity:0.67;fill:#9ACCCA;enable-background:new    ;}
	.st5{opacity:0.54;fill:#E1F3F5;enable-background:new    ;}
	.st6{opacity:0.52;}
	.st7{fill:#4D8C89;}
	.st8{opacity:0.25;}
	.st9{fill:#584521;}
	.st10{fill:#3F3218;}
	.st11{fill:#6D562B;}
	.st12{fill:#785E2F;}
	.st13{fill:#7D6233;}
	.st14{fill:#463619;}
	.st15{fill:#54401D;}
	.st16{fill:#3D2F16;}
	.st17{fill:#664E21;}
	.st18{fill:#865724;}
	.st19{fill:#3C2D16;}
	.st20{fill:#292113;}
	.st21{fill:#493719;}
	.st22{fill:#543F1C;}
	.st23{fill:#382A16;}
	.st24{fill:#271E12;}
	.st25{fill:#443216;}
</style>
<g id="Calque_1_1_">
	<path class="st0" d="M174.3,0.5h22.6c12.1,0,21.9,9.8,21.9,21.9V788l0,0h-66.4l0,0V22.4C152.4,10.3,162.2,0.5,174.3,0.5z"/>
	<path class="st1" d="M191.9,0.5c0,0,27,2.3,27,27V603C218.9,603,204.2,0.5,191.9,0.5z"/>
</g>
<g id="Calque_3">
	<path class="st2" d="M232.2,795.7c0,0,61,45.6,136.5,30.7c0,0,29,288.9-200.3,372.6c0,0-230.9-130.9-151.1-391.9
		c0,0,60.9,24.7,125.2-7.5L232.2,795.7z"/>
	<path class="st3" d="M170.4,20.8h8.4c4.1,0,7.5,3.4,7.5,7.5v606.4c0,4.1-3.4,7.5-7.5,7.5h-8.4c-4.1,0-7.5-3.4-7.5-7.5V28.3
		C162.9,24.2,166.2,20.8,170.4,20.8z"/>
</g>
<g id="Calque_2_1_">
	<path class="st2" d="M159.5,971.5c-9.4,0-17.1-7.6-17.1-17.1V615.6h83.9v338.8c0,9.4-7.7,17.1-17.1,17.1L159.5,971.5L159.5,971.5z"
		/>
</g>
<g id="Calque_5">
	<path class="st4" d="M247.2,840.9l99.7,8.6c0,0-15.4,291-174.7,305.1c0,0-206.1-97.8-140.8-313.7h92c0,0-30,128.6,50.6,144.6
		C173.9,985.5,269.9,1002.7,247.2,840.9z"/>
	<path class="st5" d="M168.7,633.6h4.3c5.2,0,9.5,4.3,9.5,9.5v294.4c0,2.7-2.2,4.9-4.9,4.9l0,0h-8.9c-5.2,0-9.5-4.3-9.5-9.5V643.1
		C159.1,637.8,163.4,633.6,168.7,633.6L168.7,633.6z"/>
</g>
<g id="Calque_6">
	<g class="st6">
		<path class="st7" d="M186.2,615.1l19.7,35.7v250.7c0,18.3-9.6,35.3-25.3,44.8l-38.7,3.6l0,0c-1.5,9,13,22.1,22.2,22.1h41.1
			c0,0,21,1.6,21.6-35.8s0-321,0-321L186.2,615.1z"/>
	</g>
</g>
<g id="Calque_7">
	<g class="st8">
		<path class="st7" d="M182.5,972c0,0,16-2.5-14.2,227c0,0-231.5-131-151.1-391.9c0,0,61.1,27.5,125.2-7.5l-0.5,150.2
			c0,0-0.5,3,0.5,6.9C144.3,964.8,152.2,976.6,182.5,972z"/>
	</g>
</g>
<g id="Calque_8">
	<path class="st4" d="M31.3,840.9c0,0-90.4,92,87.6,321.3c0,0-167.3-127.5-101.7-355.1c0,0,46.7,16.6,101.7,2.8L31.3,840.9z"/>
</g>
<g>
	<path class="st9" d="M166.2,824.4c0,0-18.7-9.8-50.2,17.1c-31.6,26.8,9.3,47.6,9.3,47.6s-18.1-6.6-45,4.8
		c-26.9,11.5,4.3,49.8,4.3,49.8c-33.1,21.7,21.9,62.1,21.9,62.1c-59,11.3-16.9,73.3-16.9,73.3c-29.9,41.1,42.4,75.1,42.4,75.1
		c-3.4,11.2,0.5,19.3,9.6,28.7c71.6-3,143.3-66.4,169.2-163.2c28-104.7-5.2-209-74.5-247.1c-26.3,4.8-38.1,24.4-38.1,24.4
		C165.9,798.4,166.2,824.4,166.2,824.4L166.2,824.4z"/>
	<path class="st10" d="M167,823.5c-21.8-10.2-45.4,12.6-51.6,17.3c-12.6,10-21.8,29.5,4.7,46.3c3.8,2.4,3.6,2,3.4,1.3
		c-0.1-0.5-0.2-1.1,1.5-0.7c-6.9-1.7-12.2-1.6-18.4-1.4c-17.2,0.4-29.7,7-36.1,14.8c-5.7,7.1-0.9,18.5,3.3,27.8
		c2.2,4.9,5.7,9.8,9.3,14.7c-1.5-2.1-8.9,11.4-8.3,9.7c-3.1,10.3,0.3,20.5,9.5,32.8c4,5.5,10,10.8,16,16c7.8,6.9-3.3,4-9.4,8
		c-22.2,14.5-19.1,37.7-6.3,62.3c3.3,6.3,1.5,10.5-0.4,15c-1.1,2.7-2.3,5.6-2.4,9c-0.2,11.2,3.8,21.9,15.1,34.3
		c7.3,8,18.9,15.7,30.7,22.2c2.5,1.3,2.4,7.4,4.2,14.2c1.5,5.9,4.8,12.4,7.5,15.6l5.4,0.4c43.7,0.6,77.6-23.1,100.5-44.7
		c35.8-33.9,54.8-75.9,66.9-118.9c12.7-45,14.2-94.2,0.2-145.5c-8.5-31.1-25.5-73.4-75-102.3h-0.8c-21.7,5.6-28.2,19.4-47,25.6
		c-16.1,5.3-23.9,15-24.3,27.6c0,1.2,2.1-0.1,2.1-0.7c0.4-14.4,25.2-18.1,33.5-29.3c7.2-9.9,24-30.2,50-11.5
		c9.3,6.7,16.2,14.1,22.6,21.3c43,48.3,46.3,101,46.4,144c0.3,59.2-18.5,114.5-52.8,162.3c-14.8,20.6-34.9,37.7-60.3,53
		c-9.7,5.9-20.7,10.1-33.4,14c-5.5,1.5-10.9,2.9-17.1,3.8c-24.2,4-23.1-26.4-23-27.5l-0.3-0.7c-46.8-22.6-55.4-52.8-42.2-74.1
		c1.3-2-4.8-9.1-6.1-11.6c-13.5-26-13.4-52,21.8-61.1l0.9-1.6c-6.6-5-12-10.3-17.2-15.6c-20.8-21.4-9.7-26.4-4.5-45.9
		c0.9-3.4-7.5-11.5-9.8-15.7c-11-20,7.5-50.9,48.7-38l1.5-1.7c-14.2-7.5-19.6-17.3-20.9-25.9c1,6.1,25.6-53.1,60.3-36.9L167,823.5
		L167,823.5z"/>
	<path class="st11" d="M104.7,1080.6c0,0-21.1,33.9,16.5,53s11.2,37.2,48.4,31.7s44.1-29.3,28.2-45.8s-41-28.2-32.8-49
		c8.4-20.7-28.6-17.4-31.8-4.6c-3.1,12.8-29.8-20.8-29.8-31.9C103.5,1022.7,74,1048.7,104.7,1080.6L104.7,1080.6z"/>
	<path class="st11" d="M163.9,997.7c0,0-22.1,2.4-28.8,27.7c-6.7,25.2,16.6,16.7,25.9,20.8c9.3,4,32-7.2,32-7.2
		S161.3,1021.8,163.9,997.7L163.9,997.7z"/>
	<path class="st11" d="M115.4,995.1c-0.9,2.5-35.8-27.5-19.7-42.6c7.3-6.8,4.9-16,2.5-24.8c-2.9-10.6-6-20.6,7.7-25.3
		c25-8.5,41.6,3.7,41.6,3.7s-11.2,47.2,28.2,63.9C175.8,969.9,124.5,969.7,115.4,995.1L115.4,995.1z"/>
	<path class="st11" d="M188,883.2c0.1,0.5-2,3.9-4.5,9.2c-7,14.4-16.9,42.6,9.2,61.5c0,0,7,8.3,27.5,2.5S247.7,944,270,951
		c0,0-61.5-34.7-20.5-85.3s-7.2-72.4-23.9-64.6c-16.7,7.8-2.2,37.6-2.2,37.6S177.9,834.8,188,883.2L188,883.2z"/>
	<path class="st12" d="M158.8,837.6c0,0-32.8,3.9-29.7,23.6C132.3,881,191,842.1,158.8,837.6z"/>
	<path class="st12" d="M206,976.1c0,0-32.8,3.9-29.7,23.6C179.4,1019.4,238.2,980.4,206,976.1z"/>
	<path class="st12" d="M293.8,959.6c0,0-23.9-1.8-20.1,6.6C277.5,974.8,317.9,964.9,293.8,959.6z"/>
	<path class="st11" d="M250.5,977.2c0,0-34.1,10.3-25.3,39.9c0,0,48.1,16.8,46,22.4c-2,5.6-74.2-6.2-75,26.2
		c-0.9,32.3,20.8,53.4,43.7,46.8c22.9-6.5,60.4-59.5,62.3-98C304.3,976,271.3,973.7,250.5,977.2L250.5,977.2z"/>
	<path class="st11" d="M266.5,896.4c0,0-11.6,23.5,15.5,44c27.1,20.3,32.6-34.2,19.3-58.3C288.1,858,267.6,893.6,266.5,896.4
		L266.5,896.4z"/>
	<path class="st13" d="M119.4,1084.4c-3.2-0.1-17.9,6.2-7.9,29.3s31.5,18.3,30.2,2.6C140.3,1100.6,130.3,1084.8,119.4,1084.4
		L119.4,1084.4z"/>
	<path class="st13" d="M146.6,1014.9c0,0-7.7,11.5,3,12.3S154.1,1003.3,146.6,1014.9L146.6,1014.9z"/>
	<path class="st13" d="M133.9,906.4c0,0-31.8-4.3-30.7,13.3C104.3,937.2,152.3,912.7,133.9,906.4L133.9,906.4z"/>
	<path class="st13" d="M221.8,844.8c0,0-37.7,21.5-8.1,30.4C243.3,884.1,245.6,839.7,221.8,844.8L221.8,844.8z"/>
	<path class="st14" d="M294.1,954.7c0,0.8,0,1.4-0.1,2.2c0.3-0.3,0.4-0.6,0.5-1c0.1-0.2,0.1-0.4,0-0.6
		C294.7,955.2,294.4,955,294.1,954.7L294.1,954.7z"/>
	<path class="st9" d="M128,1099.8c0,0-28.2,6.2-3.1,29.9c25.1,23.6,51.9,23.5,52.4,6.7C177.5,1119.8,156.2,1091.5,128,1099.8
		L128,1099.8z"/>
	<path class="st10" d="M127.8,1098.9c-11.2,2.7-15.8,9.9-13.3,18.3c3.4,11.6,29.9,34.4,51.7,32c17.4-1.9,12.4-19.1,7.2-29
		c-3.3-6.3-9.2-13.5-19-18.8C144.8,1096,134.8,1097,127.8,1098.9l0.4,2.1c16.1-4.2,31.1,3.2,40.4,15.2c8.8,11.4,14.8,30.6-6.2,31.2
		c-19.5,0.5-40.5-20-45.6-29.1c-4.4-8,1.3-14.9,11.4-17.2L127.8,1098.9L127.8,1098.9z"/>
	<path class="st15" d="M138.9,1099.8c2,0.9,4.7,2.4,7.5,4.4c0.4-1,1-1.9,1.9-2.6C145.3,1100.5,142.2,1099.9,138.9,1099.8
		L138.9,1099.8z"/>
	<path class="st16" d="M135.6,1098.4c0,0,1.3,0.5,3.3,1.3c3.3,0.2,6.5,0.7,9.4,1.7c0.4-0.4,1-0.7,1.6-1.1
		C145.5,1098.9,140.7,1098,135.6,1098.4L135.6,1098.4z"/>
	<path class="st15" d="M150,1145.1c4.1,1.4,8.2,2.3,12.4,2.2c8.8-0.2,13-3.8,14-8.7c0.8-4.1-0.4-9.3-2.7-14.1
		c-5.4,0.1-11.1-2.1-16.1-5.2c0.3,0.9,0.5,1.9,0.6,2.8c0,0,5.8,9.1,4.4,15.5c-0.4,1.6-1.2,3-2.7,4.1
		C156.2,1144.2,153.3,1145.5,150,1145.1L150,1145.1z"/>
	<path class="st16" d="M136.9,1139.2c19.6,12.7,37.4,11.5,39.9-0.1c0.2-0.8,0.3-1.7,0.3-2.6c0.1-3.7-0.9-7.9-2.7-12.1
		c-0.2,0.1-0.5,0.1-0.8,0c2.3,4.9,3.6,10,2.7,14.1c-1.1,5-5.1,8.5-14,8.7c-4.1,0.1-8.3-0.7-12.4-2.2c-3.1-0.4-6.7-2.3-11.8-5.7
		L136.9,1139.2L136.9,1139.2z"/>
	<path class="st17" d="M121.5,1111.1c-1.9,9,14.2,21.4,14.2,21.4c3.4,2.5,5.9,3.8,7.7,4.4c2.6,0.8,3.8,0,4.1-1.8
		c0.7-3.2-1.9-9.5-4-12.3c-3-3.9-7-15.8-13-17.6c-2-0.6-4.1,0-6.5,2C122.7,1108.4,121.9,1109.7,121.5,1111.1L121.5,1111.1z"/>
	<path class="st9" d="M153.9,1099.9c0,0-14.8,3-1,14.4s28,11.4,27.8,3.3C180.6,1109.6,168.7,1095.9,153.9,1099.9L153.9,1099.9z"/>
	<path class="st10" d="M153.9,1099c-5.1,1.1-8.7,4.4-7.5,8.3c2,6.9,17.2,18.6,29.4,17C192.3,1122,174.8,1094.3,153.9,1099l0.2,2
		c19.3-4.3,35.4,21,19,21.4c-8.8,0.2-18.8-7.7-22.9-12.2c-4.1-4.5-1.2-8,4.1-9.1L153.9,1099L153.9,1099z"/>
	<path class="st9" d="M237.2,831c0,0-28.1,6.2-3.1,29.9c25.1,23.6,51.9,23.5,52.2,6.7C286.9,850.8,265.4,822.7,237.2,831L237.2,831z
		"/>
	<path class="st10" d="M237.4,830.2c-10.4,2.5-15.7,8.9-14.4,16.5c1.9,11.7,29.7,35.8,52.1,33.3c17.6-1.9,13.2-18.7,8-28.7
		c-3.3-6.4-9.2-13.4-18.9-18.7C254.5,827.3,244.3,828.4,237.4,830.2c-0.8,0.2-1.8,2-0.2,1.7c38.4-10,68.3,48.4,33,46.6
		c-18.5-0.9-36.6-18.3-42.7-27.4c-5.9-8.8-1.2-16.7,9.7-19.3C238,831.7,239,829.8,237.4,830.2L237.4,830.2z"/>
	<path class="st15" d="M266.9,850.4c0.2,0.8,0.5,1.7,0.5,2.7c0,0,5.8,9.1,4.4,15.5c0,0.5-0.2,1-0.5,1.4c0.9,2.4,1.7,5.1,2.6,8.3
		c6.8-0.7,10.4-4.2,11.4-8.9c0.8-4-0.1-9-2.5-14C277.8,856.1,271.9,853.7,266.9,850.4L266.9,850.4z M247.7,830.8
		c2,0.9,4.9,2.4,7.8,4.5c0.4-1,1.1-1.8,2.1-2.6C254.5,831.6,251.2,830.9,247.7,830.8L247.7,830.8z"/>
	<path class="st16" d="M274.1,878.5c0.1,0.3,0.2,0.6,0.3,0.9c6.3-0.6,10.6-3.7,11.8-9.1c0.2-0.8,0.3-1.7,0.2-2.6
		c0.1-3.7-0.9-7.9-2.7-12.1c0,0,0,0-0.1,0.1c-0.1,0-0.3,0.1-0.5,0.1c2.3,5,3.3,10,2.5,14C284.6,874.3,281,877.8,274.1,878.5
		L274.1,878.5z M245,829.7c0,0,1.1,0.4,2.9,1.2c3.4,0.2,6.8,0.8,9.9,1.9c0.5-0.3,1-0.7,1.6-1.1C254.9,830,250.1,829.2,245,829.7
		L245,829.7z"/>
	<path class="st17" d="M230.9,842.3c-0.3,1.5-0.1,3.1,0.5,4.7c4.3-2.7,9.6-3.1,17.1,1.4c0.7,0.4,1.4,0.8,2,1.2
		c-2.7-5.1-6-11.9-10.6-13.3c-2-0.6-4-0.1-6.5,2C232,839.6,231.1,840.9,230.9,842.3L230.9,842.3z"/>
	<path class="st9" d="M263.3,831.1c0,0-14.8,3-1,14.4c13.8,11.4,28,11.3,27.9,3.3C289.9,840.7,278,827,263.3,831.1L263.3,831.1z"/>
	<path class="st10" d="M263.4,830.2c-4.9,1.1-9,4.3-7.9,8.2c1.7,6,16.6,18.8,28.1,17.2C301.6,853.1,284.3,825.5,263.4,830.2
		l-0.1,1.9c19.5-4.3,35.2,21.1,19.3,21.4c-7.1,0.1-15-5.3-19.6-8.8c-6.7-5.3-7-11,0.3-12.6L263.4,830.2L263.4,830.2z"/>
	<path class="st18" d="M101.5,1003.3c0.2,1.1,0.4,2.3,0.5,3.5c0,0,0.1-0.1,0.1,0c0.5-0.2,0.7-0.5,0.8-0.8
		C103,1005.3,102.5,1004.4,101.5,1003.3L101.5,1003.3z"/>
	<path class="st19" d="M263.6,1095.2c0.4-0.3,0.8-0.5,1.3-0.9c8-5.3,13.1-13.6,16.7-22.9C275.9,1080.3,269.7,1088.5,263.6,1095.2
		L263.6,1095.2z M102,1006.8L102,1006.8C102.1,1006.9,102.1,1006.7,102,1006.8C102,1006.7,102,1006.7,102,1006.8L102,1006.8z"/>
	<path class="st20" d="M101,999.7c0.1,1.2,0.3,2.4,0.4,3.6c1.1,1.2,1.5,2,1.4,2.5c0,0.3-0.3,0.6-0.8,0.8l-0.1,0.1
		c0.1,0.3,0.2,0.7,0.2,1.1c1.4-0.4,2.9-0.9,4.4-1.3l0.9-1.6C105.1,1003.2,103.1,1001.5,101,999.7L101,999.7z"/>
	<path class="st21" d="M118.9,1060.6c1.6,4.3,3,8.1,4.2,11.4c8.1,24.1,20.7,6,34.3,26.4c14.5-0.8,26.4,13,24.8,20.8
		c-0.5,2.1-2,4-4.8,4.7c8.2,5.7,17.2,7.1,26.8,4.6c-1.4-3.2-3.4-6.3-6.2-9.1c-14.9-15.4-37.9-26.7-33.9-45.1
		c0.3-1.2,0.7-2.5,1.1-3.9c0.4-1,0.8-2,1-3c3.7-17.4-29.7-13.9-32.7-1.7C132,1071.7,125.5,1067.7,118.9,1060.6L118.9,1060.6z"/>
	<path class="st21" d="M155.2,1022.3c-0.6,2.7-2.3,4.7-5.5,4.5c-5.5-0.4-6.2-3.7-5.5-6.8c0.6-2.9,2.5-5.6,2.5-5.6
		C151.9,1006.4,156.5,1016,155.2,1022.3L155.2,1022.3z M134.6,1027.1c-4.9,22.6,17.3,14.7,26.4,18.7c9.3,4,32-7.2,32-7.2
		s-31.7-17.2-29.1-41.3c0,0-22.1,2.4-28.8,27.7C135,1025.8,134.8,1026.4,134.6,1027.1L134.6,1027.1z"/>
	<path class="st21" d="M101.7,983.2c-0.1,0.1-0.1,0.2-0.1,0.2c6.3,7.5,13.4,12.8,13.8,11.7c9.2-25.4,60.4-25.1,60.4-25.1
		c-37.6-16-29.1-59.6-28.3-63.6c0.1-0.2,0-0.3,0-0.3s-2.3-1.7-6.3-3.3c-2.9,0.7-5,2.1-6.6,3.8c2.8,1.1,3.7,2.9,3.2,4.7
		c-0.5,2.3-3.1,5-6.5,7.4c0.1,4.4,1.1,7.9,1.1,7.9c-9.8,9.6-1,22.1-23.3,42.4C105.2,972.8,102.9,977.6,101.7,983.2L101.7,983.2z"/>
	<path class="st22" d="M144.1,1020.4c-0.6,3,0.1,6.3,5.5,6.8c3.2,0.2,4.9-1.8,5.5-4.5c1.3-6.3-3.3-15.9-8.5-7.8
		C146.6,1014.9,144.7,1017.6,144.1,1020.4L144.1,1020.4z"/>
	<path class="st22" d="M132,912.8c-0.4,2.1-0.6,4.2-0.5,6c3.5-2.4,6.1-5.1,6.5-7.4c0.4-1.9-0.4-3.6-3.2-4.7
		C133.3,908.5,132.4,910.6,132,912.8L132,912.8z"/>
	<path class="st22" d="M202.3,866.2c0.4,3.5,3.5,6.6,11.4,9c12.7,3.9,20.4-2.1,23.1-9.9c-5-4.2-9.1-8.7-11.6-12.7
		c-6.4,7.8-11.1,18.2-20.8,14.2C203.8,866.6,203.1,866.3,202.3,866.2L202.3,866.2z"/>
	<path class="st19" d="M158.7,1100.5c0.5,0.8,0.9,1.6,1.3,2.5c4.5,8.5,9.5,14.9,14.8,19.2c2.9-0.5,4.3-2,4.8-3.9
		C181,1111.9,171.2,1100.6,158.7,1100.5L158.7,1100.5z"/>
	<path class="st20" d="M157.4,1098.4c0.4,0.6,0.9,1.3,1.3,2.1c12.5,0.1,22.3,11.5,20.9,17.8c-0.4,1.9-1.9,3.4-4.8,3.9
		c0.8,0.6,1.5,1.2,2.3,1.7c2.9-0.8,4.4-2.5,4.8-4.7C183.8,1111.5,172,1097.7,157.4,1098.4L157.4,1098.4z"/>
	<path class="st19" d="M227.1,850.6c0.1,0.2,0.3,0.4,0.4,0.6c4.9,7.3,17.5,19.9,31.9,25.1c3.3,0.4,6.1-0.9,9.9-3.5
		c1-0.7,1.7-1.6,2.1-2.7c-2.8-7.2-7.2-11.6-21.2-20.4c0.9,1.8,1.8,3.4,2.5,4.4c2.1,2.8,4.8,9,4.1,12.3c-0.3,1.7-1.6,2.5-4.1,1.8
		c-1.8-0.6-4.3-1.9-7.7-4.4c0,0-11.2-8.6-13.9-16.6C229.8,847.9,228.4,849.2,227.1,850.6L227.1,850.6z"/>
	<path class="st20" d="M225.3,852.6c2.4,4,6.5,8.4,11.6,12.7c2.6,2.1,5.4,4.2,8.4,6.1c2,1.2,3.9,2.3,5.9,3.4
		c3.7,1.9,7.6,3.4,11.6,4.4c4,0.9,8,1.4,11.8,1c-0.2-0.3-0.2-0.6-0.2-0.8c-7.5,0.8-17.6-2.1-28.2-9l1.2,0.1c5.3,3.6,8.8,5.4,12,5.8
		c-14.4-5.1-27.1-17.8-31.9-25.1c-0.1-0.2-0.3-0.4-0.4-0.6C226.5,851.2,226,851.9,225.3,852.6L225.3,852.6z"/>
	<path class="st23" d="M259.4,876.2c3.5,1.3,7.2,2.1,10.8,2.3c1.4,0,2.7,0,3.9,0c-0.8-3.3-1.7-6-2.6-8.3c-0.4,1-1.1,1.9-2.1,2.7
		C265.6,875.3,262.7,876.6,259.4,876.2L259.4,876.2z"/>
	<path class="st24" d="M246.2,870.3c10.5,6.9,20.7,9.7,28.2,9c-0.1-0.3-0.2-0.6-0.3-0.9c-1.2,0.2-2.4,0.1-3.9,0
		c-3.6-0.2-7.2-1-10.8-2.3c-3.2-0.3-6.8-2.2-12-5.8H246.2L246.2,870.3z"/>
	<path class="st25" d="M231.3,847c2.7,8.1,13.9,16.6,13.9,16.6c3.4,2.5,5.8,3.8,7.7,4.4c2.6,0.8,3.8-0.1,4.1-1.8
		c0.7-3.2-2-9.6-4.1-12.3c-0.8-1-1.6-2.6-2.5-4.4c-0.7-0.4-1.2-0.8-2-1.2C240.9,843.9,235.6,844.3,231.3,847L231.3,847z"/>
</g>
</svg>
