<?xml version="1.0" encoding="utf-8"?>
<!-- Generator: Adobe Illustrator 25.0.0, SVG Export Plug-In . SVG Version: 6.00 Build 0)  -->
<svg version="1.1" id="Calque_1" xmlns="http://www.w3.org/2000/svg" xmlns:xlink="http://www.w3.org/1999/xlink" x="0px" y="0px"
	 viewBox="0 0 205 373.8" style="enable-background:new 0 0 205 373.8;" xml:space="preserve">
<style type="text/css">
	.st0{fill:#285037;}
	.st1{fill:#1A3926;}
	.st2{fill:#9DCEA5;}
	.st3{fill:#386D4D;}
	.st4{fill:#6D562B;}
	.st5{fill:#3F3218;}
	.st6{fill:#584521;}
	.st7{fill:#7D6233;}
</style>
<g>
	<g id="Plantes_2_">
		<g id="Plantes_3_">
			<path class="st0" d="M170.1,164.3c-5.8,1.9-10.4,5.9-14.8,10.2c-5,4.9-9.9,9.8-14.3,15.2c-7.9,9.7-15.3,20.4-20.1,32
				c-2.6,6.2-8,20.5-7.8,21.4c0.1,0.6,3,0.9,3.1,0.3c0.1-0.6,7.6-24.4,13.3-34.5c6.3-11.2,14.3-21.1,23.4-30.2
				c5.2-5.2,10.4-10.7,17.5-13.1C171.2,165.3,170.9,164,170.1,164.3z"/>
			<path class="st1" d="M166.9,165.9c-2.1,2.6-5.4,4.2-6.9,4.3c-2.3,0.2-4.6-3.8-3.9-9.5c0.7-5.3,4.3-15.6,4.5-17.3
				c0-0.1,0-0.2,0-0.2c0.4,0.5,7.7,10.6,8.3,16.7C169.1,162.2,168.2,164.3,166.9,165.9z"/>
			<path class="st1" d="M144,154.4c0,0-2.1,9.6-4.2,14.3c-2.1,4.7,1.6,18.4,6.1,15.5s8.6-4.9,7.5-12.5
				C152.2,164.1,144,154.4,144,154.4z"/>
			<path class="st1" d="M145.6,186.5c0,0-1.2-2.1,6-1.9c7.1,0.2,11.6,6,14,6.1s8.7-1,8.7-1s-11.7,14-20,9.1
				C146,194,143.8,190.8,145.6,186.5z"/>
			<path class="st1" d="M154.5,177.1c0,0,1.8-2.4,6-2.7c4.1-0.3,7.3,2.9,10.4,2.7c3.1-0.2,6.3-1.4,6.3-1.4s2.9,3.8-6.3,7.5
				s-20.7-0.7-18.9-4C153.8,176,154.5,177.1,154.5,177.1z"/>
			<path class="st1" d="M163.3,168.1c0,0,4-0.9,7.6,0s11.4,1.4,11.4,1.4s-4.5,3.3-11.4,3.9C164,174,163.3,168.1,163.3,168.1z"/>
			<path class="st1" d="M168.9,165c0,0,2-0.5,5.4-3.4s3.6-5.4,12.9-4.9s11.9,1.9,11.9,1.9s-9,8.1-12.1,8.3
				C183.7,167,168.9,165,168.9,165z"/>
			<path class="st1" d="M137.2,196.9c0,0,12.8,1.6,15.3,7.1c2.6,5.6,0.9,6.7,2.4,8.6c1.6,1.9,6.1,1.1,6.1,1.1s-5.2,5.7-12,4.3
				C142.5,216.5,133.5,204,137.2,196.9z"/>
			<path class="st1" d="M128.9,210c0,0,2,1.5,5.4,3c3.4,1.4,5,4.3,4.8,8.4c-0.2,4.1,4.9,5.7,4.9,5.7s-4.1,4.7-8.7,0
				S128.9,210,128.9,210z"/>
			<path class="st2" d="M166.9,165.9c-1.9,1.5-3.6,2.3-3.6,2.3l-2.7-24.8v-0.2l0,0l0,0c0.4,0.5,7.7,10.6,8.3,16.7
				C169.1,162.2,168.2,164.3,166.9,165.9z"/>
			<path class="st0" d="M128.1,208c0,1.1-0.3,2-0.8,2c-0.4,0-0.8-0.9-0.8-2s0.4-2,0.8-2C127.8,206,128.1,206.9,128.1,208z"/>
			<path class="st0" d="M136.3,195c0,1-0.4,1.9-0.8,1.9s-0.8-0.8-0.8-1.9s0.4-1.9,0.8-1.9S136.3,194,136.3,195z"/>
		</g>
		<g>
			<path class="st0" d="M102.6,226.8L102.6,226.8c0-0.4-0.1-0.7-0.2-1.1l0,0c-1-5.5-2.4-10.9-4.1-15.5c-0.1-0.3-0.3-0.8-0.5-1.2
				c-2.3-5.2-8-16-11-21.4c-0.8-1.4-1.4-2.5-1.6-2.9c-1.8-3.2-4-5.9-5.9-8.9l0,0c-0.1-0.1-0.1-0.2-0.1-0.2c0.3,0,0.7,0,1-0.1h0.1
				c0.3-0.1,0.6-0.2,0.8-0.3h0.1c1.2-0.6,2.3-1.6,3-2.5c1.7-2,2.6-4.4,3.1-6.9c0.1-0.6,0.2-1.3,0.3-1.9c0.4-2.8,0.3-5.6,0.1-8.5
				c0-0.1,0-0.1,0-0.2c0.3-2.1-1.5-7.5-3.6-10.6l0,0c-1-1.5-2-2.5-2.9-2.2c-0.2,0.1-0.5,0.4-0.9,0.8l0,0c-1.3,1.6-3,5-3.9,6.7
				c-0.1,0.2-0.2,0.4-0.3,0.6c-1,1.9-2.2,3.8-3,5.9c-0.4,1-0.7,2.1-0.8,3.1c-0.4,3.2,0.5,6.4,1.7,9.3c-2.2-3.5-4.4-6.9-6.8-10.3
				c-2-2.8-4-5.5-6.1-8.2c1.4,0.2,2.8-0.5,4-1.4c0.2-0.2,0.4-0.3,0.6-0.5c0.9-0.8,1.7-1.8,2.3-2.8c0.6-1,1.1-2.1,1.5-3.2
				c0.6-1.9,1-3.8,1-5.8c0.2-6-2.2-11.6-4.6-17c0.1-0.1-1.5-3.4-1.5-3.9c-3.5,2.9-6.3,10.7-7.6,15c-1.4,4.4-1.5,9.3-0.2,13.7
				c0,0.1,0.1,0.3,0.1,0.4c-3.3-3.9-6.6-7.8-9.9-11.7l0,0c5-2.3,6.8-8.2,6-13.4c-0.5-3.5-1.9-6.8-3.4-10c-1.6-3.5-6.2-11.4-6.4-11.1
				c-4.6,10-4.2,21.8,1.1,31.4c-4.7-5.5-9.4-11-14.1-16.6c2.2-0.6,1.4-4.4,1.4-6c0.1-6.1,0.8-12.6-3.2-17.7
				c-3.1-4-12.1-8.6-12.2-8.7c-0.1-0.5-0.6-1-1.2-0.7c-0.9,0.4-0.4,1.9-0.3,2.6c0.5,3.5,1.3,7,2.3,10.4c1.4,4.4,3.1,9.1,5.5,13.2
				l0,0c0.8,1.3,1.6,2.6,2.5,3.8c0.9,1.2,2.3,2.7,3.9,3l5.7,6.7l0.2,0.2l9.3,11l1,1.2l3.4,4c1.8,2.2,7,8.5,11.6,14.4
				c0.6,0.7,1.2,1.5,1.7,2.2c3,3.8,5.6,7.2,6.7,8.9c1.4,2.1,2.9,4.3,4.2,6.5l0,0c0.4,0.7,0.8,1.3,1.2,2l0,0c1.2,2,2.4,3.9,3.6,5.9
				c1.4,2.4,2.8,4.8,4.2,7.2c0.4,0.8,0.9,1.5,1.3,2.3c0.4,0.7,0.8,1.4,1.2,2.1c0.2,0.3,0.4,0.7,0.6,1c4.2,7.3,7.6,15.2,10.1,23.3
				l0,0c0.3,0.8,0.5,1.7,0.7,2.5l0,0c2.8,9.9,4.7,20.4,4.3,30.8c0.4,0.1,0.3-0.2,0.6-0.4c0.4-0.3,1.1-0.7,1.9-1
				c0.4-0.2,0.9-0.3,1.3-0.3C104,238.6,103.6,232.6,102.6,226.8z M26.8,111.1c-0.4-0.4-0.8-0.8-1.1-1.3
				C26.1,110.2,26.4,110.7,26.8,111.1z M64.4,115.8C64.4,115.8,64.5,115.8,64.4,115.8L64.4,115.8z"/>
			<path class="st0" d="M83.1,184.5c0,0-0.5-0.4-1.3-0.9c-1.8-1.1-5.4-3.1-9.5-4.9l0,0c-5.7-2.4-12.5-4.3-17.3-2.8
				c-1.5,0.5-5,1.3-4.9,3.4c0,1.1,1.2,1.9,1.9,2.6c1,0.9,2,1.8,3.1,2.6c4.5,3.3,10,5.3,15.6,5.8c3,0.3,6.4,0.3,9.3-0.8
				c0.8-0.3,1.5-0.8,2-1.3c0.6-0.6,1.1-1.4,1.2-2.3C83.3,185.5,83.2,185,83.1,184.5z"/>
			<path class="st3" d="M74,169.4c0,0-0.4-0.3-1.2-0.8l0,0c-4.1-2.5-18.5-10.4-26.9-7.7c-1.5,0.5-5,1.3-4.9,3.4
				c0,1.1,1.2,1.9,1.9,2.6c1,0.9,2,1.8,3.1,2.6c4.5,3.3,10,5.3,15.6,5.8c3,0.3,6.4,0.3,9.3-0.7c1.7-0.7,3.1-2.2,3.3-3.9l0,0
				C74.1,170.2,74.1,169.8,74,169.4z"/>
			<path class="st3" d="M61.8,152c0,0-0.6-0.5-1.6-1.1c-4.6-2.8-18.4-10.1-26.5-7.5c-1.5,0.5-5,1.3-4.9,3.4c0,1.1,1.2,1.9,1.9,2.6
				c1,0.9,2,1.8,3.1,2.6c4.6,3.3,10,5.3,15.6,5.8c3,0.3,6.4,0.3,9.3-0.7c1.7-0.7,3.2-2.2,3.3-4C61.9,152.8,61.9,152.4,61.8,152z"/>
			<path class="st3" d="M44.9,131.8c0,0-5.7-2.9-13.8-1.8c-8.1,1.2-13.4,5.9-13.4,5.9s18.1,17.2,27.4-3.3L44.9,131.8z"/>
			<path class="st3" d="M34.8,120.3c0,0-9.3-4.9-15.5-3.3c-6.1,1.6-10.4,3-10.4,3S26.7,135.5,34.8,120.3z"/>
			<path class="st3" d="M28.9,113.5c0,0,0.1-0.1-5.1-5.7s-17.5-5.6-17.5-5.6s3.2,14.4,10.9,13.4C25,114.5,28.9,113.5,28.9,113.5z"/>
		</g>
		<g>
			<path d="M156.3,5.3c-0.1-0.9-0.1-3-1.4-3.2c-0.1,0-0.2,0-0.2,0c-0.1,0-0.2,0-0.2,0c-0.1,0-0.1,0-0.2,0.1c-0.1,0-0.1,0.1-0.2,0.1
				L154,2.4l0,0c-0.2,0.3-0.3,0.6-0.3,1c0,0-1.9,1.8-4.2,4.4c-0.3,0.4-0.7,0.7-1,1.1c-0.9,1-1.8,2-2.6,3.1c-0.3,0.4-0.7,0.9-1,1.3
				c-0.3,0.4-0.6,0.9-0.9,1.3c-0.3,0.4-0.5,0.8-0.8,1.1c-0.1,0.2-0.2,0.4-0.3,0.6s-0.2,0.4-0.3,0.6s-0.2,0.4-0.3,0.5
				c-0.1,0.2-0.2,0.4-0.3,0.5c-0.2,0.4-0.3,0.7-0.5,1c-3.2,7.9,0,16,2.4,23.7c0,0.1,0.1,0.3,0.1,0.4c0.1,0.2,0.1,0.5,0.2,0.7
				c0,0.2,0.1,0.3,0.1,0.5s0.1,0.4,0.1,0.6c0,0.2,0.1,0.4,0.1,0.6c0,0.2,0.1,0.3,0.1,0.5c0.1,0.2,0.1,0.5,0.2,0.7
				c0.1,0.2,0.1,0.4,0.2,0.6c0.1,0.2,0.2,0.4,0.2,0.5c0.1,0.2,0.2,0.3,0.3,0.5s0.2,0.3,0.4,0.5c0.1,0.1,0.2,0.2,0.3,0.3
				s0.2,0.2,0.3,0.3l0.1,0.1l0.1,0.1c0.1,0,0.2,0.1,0.2,0.1c0.1,0,0.2,0.1,0.3,0.1s0.3,0,0.5,0h0.1c-3.9,8.7-7.9,17.5-11.8,26.2
				c3.2-14-0.6-29.3-10.1-40.2l0,0l0,0l0,0c0,0-0.1,0.1-0.1,0.2c0,0,0,0.1-0.1,0.2c-0.1,0.2-0.2,0.4-0.2,0.7
				c-0.1,0.2-0.1,0.4-0.2,0.6c-0.7,2.3-1.8,6.5-2.5,10.2c0,0.2-0.1,0.4-0.1,0.6c0,0.1,0,0.2-0.1,0.3c0,0.2-0.1,0.4-0.1,0.6
				c-0.2,0.8-0.3,1.6-0.4,2.2c0,0.1,0,0.3-0.1,0.4c0,0.1,0,0.3-0.1,0.4c-0.6,4.6-1.2,9.3-0.6,13.9c0.1,0.5,0.2,1.1,0.3,1.6
				c0,0.2,0.1,0.4,0.1,0.5c0.2,1,0.6,2.1,1,3.1c0.1,0.3,0.2,0.5,0.3,0.8c0.1,0.2,0.2,0.5,0.3,0.7c0.1,0.2,0.2,0.5,0.4,0.7v0.1
				c0.1,0.2,0.2,0.4,0.3,0.6c0.3,0.4,0.6,0.9,0.9,1.3c0.2,0.2,0.3,0.4,0.5,0.6s0.3,0.4,0.5,0.6s0.3,0.4,0.5,0.5
				c0.3,0.3,0.6,0.6,0.9,0.9c0.2,0.2,0.5,0.4,0.8,0.6s0.5,0.4,0.8,0.5c0.2,0.1,0.4,0.2,0.5,0.3c0.2,0.1,0.4,0.2,0.6,0.3
				c0.4,0.2,0.8,0.4,1.2,0.5c0.4,0.2,0.8,0.3,1.2,0.4s0.9,0.2,1.3,0.3c0,0,0,0,0,0.1c-0.6,1.2-1.1,2.5-1.7,3.7l0,0
				c-2.2,4.9-4.4,9.8-6.6,14.8c0-0.2,0-0.3,0-0.5c0.1-6.1-1.8-12.2-5.2-17.3c-0.9-1.4-2.1-3.1-3.5-4.9c-0.1-0.2-0.3-0.4-0.5-0.6
				s-0.3-0.4-0.5-0.6c-0.3-0.3-0.5-0.7-0.8-1c-1-1.3-2.1-2.6-3.2-3.7c-0.3-0.3-0.6-0.7-1-1c-0.6-0.6-1.1-1.1-1.7-1.6
				c-0.2-0.2-0.4-0.3-0.5-0.5c-0.2-0.2-0.5-0.4-0.7-0.6c-0.2-0.1-0.3-0.3-0.5-0.4s-0.3-0.2-0.5-0.4c-0.2-0.1-0.4-0.2-0.6-0.4
				c-0.2-0.1-0.3-0.2-0.5-0.3c-0.2-0.1-0.3-0.2-0.5-0.3c-0.1-0.1-0.2-0.1-0.3-0.2c0,0.2,0,0.6,0,1.2c0,0.2,0,0.5-0.1,0.8
				c0,0.1,0,0.2,0,0.3c0,0.2,0,0.4-0.1,0.5c0,0.3-0.1,0.7-0.1,1c-0.1,0.5-0.1,0.9-0.2,1.2c0,0.1,0,0.1,0,0.2c0,0.2,0,0.3,0,0.3
				c-1,7.7-2,15.7,0.4,23.2c1.8,5.7,5.6,11.2,11.3,13.6c1.4,0.6,3,0.9,4.5,0.7c0.4-0.1,0.7-0.2,1-0.3c-0.8,2.1-1.7,4.2-2.5,6.3
				c-0.8,2.1-1.6,4.2-2.3,6.3c-1.1,3.2-2.2,6.4-3.1,9.7c-0.3,1-0.6,1.9-0.9,2.9s-0.6,2-0.8,2.9l0,0c0-0.3,0.1-0.7,0.1-1
				c0-0.5,0.1-0.9,0.1-1.3c0-0.2,0-0.5,0-0.7c0.1-2.4-0.1-4.8-0.7-7.1c0-0.2-0.1-0.4-0.2-0.6s-0.1-0.5-0.2-0.7
				c-0.1-0.3-0.3-0.7-0.4-1c-1.7-4-5.3-7-8.2-10l-0.2-0.2c-0.5-0.5-1.2-1.3-2.1-2.2c-0.2-0.2-0.4-0.4-0.6-0.6
				c-1.7-1.7-3.6-3.6-5-4.6c-0.1-0.1-0.2-0.1-0.3-0.2c-0.3-0.2-0.5-0.3-0.8-0.5c-0.1,0-0.1-0.1-0.2-0.1s-0.1,0-0.2-0.1H93
				c-0.1,0-0.3,0-0.4,0h-0.1c0,0-0.1,0-0.2,0.1c0,0-0.1,0-0.1,0.1l-0.1,0.1c-0.1,0.1-0.2,0.2-0.3,0.2c-0.1,0.1-0.2,0.2-0.2,0.2
				c0,0.1-0.1,0.1-0.1,0.2c-0.1,0.1-0.1,0.1-0.2,0.2c-0.1,0.2-0.2,0.3-0.3,0.5c-0.1,0.1-0.1,0.2-0.2,0.3c-0.1,0.2-0.2,0.4-0.3,0.7
				c0,0.1-0.1,0.2-0.1,0.4c0,0.1-0.1,0.3-0.1,0.4s-0.1,0.2-0.1,0.3c-0.2,0.7-0.4,1.5-0.6,2.3c-0.1,0.5-0.2,0.9-0.3,1.4
				c-0.1,0.3-0.1,0.6-0.1,0.9c-0.6,4.3-0.5,9,0.4,10.6c0.9,4.6,2.2,9,4.3,13.1c0.2,0.4,0.4,0.7,0.6,1.1c0.4,0.7,0.9,1.4,1.4,2.1
				c0.2,0.3,0.5,0.7,0.8,1s0.5,0.6,0.8,0.9c0.2,0.2,0.3,0.3,0.4,0.5c0.2,0.2,0.4,0.4,0.6,0.5c0.2,0.2,0.3,0.3,0.5,0.5
				c0.4,0.4,0.9,0.7,1.3,1c0.2,0.1,0.4,0.3,0.6,0.4c1.5,0.9,3.5,1.7,5.3,1.7c0.8,0,1.6-0.2,2.3-0.5c0.2-0.1,0.5-0.3,0.7-0.4
				c0,0,0,0,0.1-0.1c-1.1,4.4-2.2,8.8-3.3,13.2c-0.2,0.7-0.3,1.3-0.5,2c0,0.2-0.1,0.4-0.1,0.5c-0.1,0.5-0.2,1-0.3,1.4l0,0
				c-0.7,3-1.5,6.1-2.2,9.2c-0.8-0.2-1.6-0.3-2.4-0.4c-0.4,0-0.8-0.1-1.2-0.1c-0.3,0-0.6,0-0.9,0h-0.3c-0.6,0-1.3,0-2,0.1l0,0
				c-0.6,0-1.1,0.1-1.7,0.2c-0.6,0.1-1.2,0.2-1.7,0.2l0,0c-0.9,0.2-1.9,0.3-2.8,0.5l0,0c-0.7,0.2-1.5,0.3-2.2,0.5l0,0
				c-0.6,0.1-1.1,0.3-1.7,0.5c-1.1,0.3-2.2,0.7-3.3,1c-0.5,0.2-1,0.3-1.5,0.5c-0.3,0.1-0.7,0.2-1,0.4c-0.3,0.1-0.6,0.2-0.9,0.3
				c-0.4,0.2-0.8,0.3-1.2,0.5c-0.3,0.1-0.4,0.2-0.5,0.2s-0.1,0-0.2,0.1c-1.1,0.4-2.1,0.9-3.1,1.3c-0.5,0.2-0.9,0.4-1.2,0.5
				c-0.3,0.1-0.6,0.3-0.9,0.4l0,0c-0.3,0.1-0.5,0.2-0.8,0.4c-2.6,1.2-4.6,2.2-5.7,2.9c-0.2,0.1-0.3,0.2-0.5,0.3
				c-0.6,0.3-0.9,0.5-0.9,0.6c4.9,4.1,11.2,5.7,17.4,5.4c0.8,0,1.6-0.1,2.4-0.2c0.6-0.1,1.2-0.1,1.7-0.2c0.3,0,0.5-0.1,0.8-0.1
				c6-1.1,12.9-4.2,15-10c-1.6,7.9-2.9,15.8-3.6,23.8c-0.2,2.5-0.4,5-0.4,7.6c0,1.5-0.1,3-0.1,4.4l0,0c0,0.7,0,1.5,0,2.2
				c0.2,9.7,1.7,19.3,4.7,28.6c0.4-0.2,0.9-0.3,1.3-0.3c0.7-0.1,1.4,0,2,0.3c1.2,0.5,1.6,1.3,2.5,1.4c-2.1-6-3.2-12.6-4.4-18.8
				c-0.2-1-0.4-2-0.5-2.9c-1.5-8.9-2.1-18-1.8-27l0,0c0-0.9,0.1-1.8,0.1-2.7c0.1-1.5,0.2-2.9,0.3-4.4c0.1-0.8,0.1-1.5,0.2-2.2
				c0.1-0.9,0.2-1.8,0.3-2.6c0.1-0.9,0.2-1.7,0.3-2.6l0,0c0.1-0.5,0.1-0.9,0.2-1.4c0.1-1,0.3-2,0.4-2.9c0.6-4.2,1.5-8.3,2.5-12.4
				c0.4-1.5,0.7-3,1.1-4.5c0.3-1.2,0.6-2.3,0.8-3.5c1.6-6.5,3.2-13,5-19.4c0.3-1,0.6-2,0.9-3c1-3.3,2-6.6,3-9.8
				c0.8-2.5,2.9-7.8,5.3-13.8c0.5-1.1,0.9-2.3,1.4-3.4c3.8-9.2,8-19,9.5-22.5l2.8-6.3l0.8-1.9l0,0l7.8-17.4l0.2-0.4l4.8-10.6
				c1.9-1,3.1-3.4,3.8-5.3c0.7-1.8,1.3-3.7,1.8-5.7l0,0c1.5-6.1,2.1-12.7,2.2-18.8C157.2,14.6,157,9.9,156.3,5.3z M152.1,43.3
				c-0.3,0.7-0.6,1.4-0.9,2.1C151.5,44.7,151.8,44,152.1,43.3z M105,65.1C105.1,65.1,105.1,65.1,105,65.1
				C105.1,65.1,105.1,65.1,105,65.1z"/>
			<path class="st3" d="M106.5,159.2L106.5,159.2C106.5,159.1,106.5,159.1,106.5,159.2C106.5,159.1,106.5,159.1,106.5,159.2
				c-0.1-0.1-0.2-0.2-0.3-0.3c-0.9-0.9-4-3.5-8.2-6.5c-0.3-0.2-0.7-0.5-1-0.7c-3.5-2.4-7.6-4.9-11.8-6.8l0,0h-0.1
				c-0.2-0.1-0.3-0.2-0.5-0.2c-0.1,0-0.2-0.1-0.3-0.1l0,0c-0.6-0.2-1.2-0.5-1.8-0.7c-0.2-0.1-0.4-0.2-0.6-0.2l0,0
				c-0.2-0.1-0.5-0.2-0.7-0.2c-0.2-0.1-0.4-0.1-0.6-0.2h-0.1c-0.3-0.1-0.5-0.2-0.8-0.2c-0.3-0.1-0.6-0.2-0.9-0.2
				c-0.3-0.1-0.6-0.1-0.9-0.2l0,0c-0.1,0-0.2,0-0.3-0.1c-0.2,0-0.3-0.1-0.5-0.1l0,0c-0.1,0-0.3,0-0.4-0.1c-0.2,0-0.3,0-0.4-0.1
				c-0.2,0-0.5-0.1-0.7-0.1h-0.1c-0.3,0-0.5,0-0.8-0.1c-0.3,0-0.5,0-0.8,0c-0.4,0-0.7,0-1.1,0c-0.2,0-0.4,0-0.6,0s-0.3,0-0.5,0.1
				c-0.1,0-0.2,0-0.2,0c-0.1,0-0.2,0-0.3,0c-0.1,0-0.1,0-0.2,0s-0.3,0-0.4,0.1c-0.3,0-0.7,0.1-1.1,0.2c-0.2,0-0.5,0.1-0.7,0.1
				c-0.3,0.1-0.6,0.1-0.9,0.2c-0.3,0.1-0.5,0.2-0.8,0.2c-0.1,0-0.2,0.1-0.3,0.1c-0.7,0.3-1.3,0.6-1.7,1.1l0,0
				c-0.1,0.1-0.1,0.2-0.2,0.2c-0.1,0.1-0.1,0.2-0.2,0.3l0,0c0,0.1-0.1,0.2-0.1,0.3s-0.1,0.2-0.1,0.4c-0.2,1,0.5,2,1.2,2.9
				c0.2,0.3,0.5,0.6,0.7,0.9c0.3,0.4,0.6,0.7,0.8,1.1c0.6,0.7,1.2,1.4,1.8,2c0.3,0.3,0.6,0.6,0.9,1c1.1,1,2.2,2,3.3,3
				c4.3,3.4,9.2,6,14.4,7.5c0.4,0.1,0.9,0.2,1.3,0.4c3.8,1,8.3,1.8,12.2,1c0.2,0,0.3-0.1,0.5-0.1c0.1,0,0.3-0.1,0.4-0.1
				c0.2,0,0.3-0.1,0.5-0.2c0.1-0.1,0.3-0.1,0.4-0.2c0.1-0.1,0.3-0.2,0.4-0.2c0.1-0.1,0.3-0.2,0.4-0.2c0.1-0.1,0.3-0.2,0.4-0.3
				s0.2-0.2,0.4-0.3c0.1-0.1,0.2-0.2,0.3-0.3c0.1-0.1,0.2-0.2,0.3-0.3l0,0c0.1-0.1,0.2-0.3,0.3-0.4c0.1-0.1,0.2-0.3,0.2-0.4
				c0.1-0.1,0.2-0.3,0.2-0.4c0.1-0.1,0.1-0.3,0.2-0.4c0.1-0.3,0.2-0.6,0.2-0.9l0,0c0-0.1,0-0.2,0-0.4c0-0.1,0-0.3,0-0.4
				C106.5,159.4,106.5,159.3,106.5,159.2z"/>
			<path class="st1" d="M103.3,178.1c0,0,20-1.7,29.4-5.4c9.4-3.6,9.4-3.6,9.4-3.6s-2.1,18.8-17.1,20.8
				C109.9,191.8,99.6,184.3,103.3,178.1z"/>
			<path class="st1" d="M101.3,193.9c0,0,15,10.9,25.3,5.8c10.3-5.1,11.4-5.8,11.4-5.8s-3.9,13.9-13.3,16.9
				C115.3,213.8,101.8,206.5,101.3,193.9z"/>
			<path class="st0" d="M156.3,5.3c-0.1-0.9-0.1-3-1.4-3.2c-0.1,0-0.2,0-0.2,0c-0.1,0-0.2,0-0.2,0c-0.1,0-0.1,0-0.2,0.1
				c-0.1,0-0.1,0.1-0.2,0.1L154,2.4l0,0c-0.2,0.3-0.3,0.6-0.3,1c0,0-1.9,1.8-4.2,4.4c-0.3,0.4-0.7,0.7-1,1.1c-0.9,1-1.8,2-2.6,3.1
				c-0.3,0.4-0.7,0.9-1,1.3c-0.3,0.4-0.6,0.9-0.9,1.3c-0.3,0.4-0.5,0.8-0.8,1.1c-0.1,0.2-0.2,0.4-0.3,0.6s-0.2,0.4-0.3,0.6
				s-0.2,0.4-0.3,0.5c-0.1,0.2-0.2,0.4-0.3,0.5c-0.2,0.4-0.3,0.7-0.5,1c-3.2,7.9,0,16,2.4,23.7c0,0.1,0.1,0.3,0.1,0.4
				c0.1,0.2,0.1,0.5,0.2,0.7c0,0.2,0.1,0.3,0.1,0.5s0.1,0.4,0.1,0.6c0,0.2,0.1,0.4,0.1,0.6c0,0.2,0.1,0.3,0.1,0.5
				c0.1,0.2,0.1,0.5,0.2,0.7c0.1,0.2,0.1,0.4,0.2,0.6c0.1,0.2,0.2,0.4,0.2,0.5c0.1,0.2,0.2,0.3,0.3,0.5s0.2,0.3,0.4,0.5
				c0.1,0.1,0.2,0.2,0.3,0.3s0.2,0.2,0.3,0.3l0.1,0.1l0.1,0.1c0.1,0,0.2,0.1,0.2,0.1c0.1,0,0.2,0.1,0.3,0.1s0.3,0,0.5,0h0.1
				c-3.9,8.7-7.9,17.5-11.8,26.2c3.2-14-0.6-29.3-10.1-40.2l0,0l0,0l0,0l0,0c0,0-0.1,0.1-0.1,0.2c0,0,0,0.1-0.1,0.2
				c-0.1,0.2-0.2,0.4-0.2,0.7c-0.1,0.2-0.1,0.4-0.2,0.6c-0.7,2.3-1.8,6.5-2.5,10.2c0,0.2-0.1,0.4-0.1,0.6c0,0.1,0,0.2-0.1,0.3
				c0,0.2-0.1,0.4-0.1,0.6c-0.2,0.8-0.3,1.6-0.4,2.2c0,0.1,0,0.3-0.1,0.4c0,0.1,0,0.3-0.1,0.4c-0.6,4.6-1.2,9.3-0.6,13.9
				c0.1,0.5,0.2,1.1,0.3,1.6c0,0.2,0.1,0.4,0.1,0.5c0.2,1,0.6,2.1,1,3.1c0.1,0.3,0.2,0.5,0.3,0.8c0.1,0.2,0.2,0.5,0.3,0.7
				c0.1,0.2,0.2,0.5,0.4,0.7v0.1c0.1,0.2,0.2,0.4,0.3,0.6c0.3,0.4,0.6,0.9,0.9,1.3c0.2,0.2,0.3,0.4,0.5,0.6s0.3,0.4,0.5,0.6
				s0.3,0.4,0.5,0.5c0.3,0.3,0.6,0.6,0.9,0.9c0.2,0.2,0.5,0.4,0.8,0.6s0.5,0.4,0.8,0.5c0.2,0.1,0.4,0.2,0.5,0.3
				c0.2,0.1,0.4,0.2,0.6,0.3c0.4,0.2,0.8,0.4,1.2,0.5c0.4,0.2,0.8,0.3,1.2,0.4s0.9,0.2,1.3,0.3c0,0,0,0,0,0.1
				c-0.6,1.2-1.1,2.5-1.7,3.7c-2.2,4.9-4.4,9.8-6.6,14.8c0-0.2,0-0.3,0-0.5c0.1-6.1-1.8-12.2-5.2-17.3c-0.9-1.4-2.1-3.1-3.5-4.9
				c-0.1-0.2-0.3-0.4-0.5-0.6s-0.3-0.4-0.5-0.6c-0.3-0.3-0.5-0.7-0.8-1c-1-1.3-2.1-2.6-3.2-3.7c-0.3-0.3-0.6-0.7-1-1
				c-0.6-0.6-1.1-1.1-1.7-1.6c-0.2-0.2-0.4-0.3-0.5-0.5c-0.2-0.2-0.5-0.4-0.7-0.6c-0.2-0.1-0.3-0.3-0.5-0.4s-0.3-0.2-0.5-0.4
				c-0.2-0.1-0.4-0.2-0.6-0.4c-0.2-0.1-0.3-0.2-0.5-0.3c-0.2-0.1-0.3-0.2-0.5-0.3c-0.1-0.1-0.2-0.1-0.3-0.2c0,0.2,0,0.6,0,1.2
				c0,0.2,0,0.5-0.1,0.7l0,0c0,0.1,0,0.2,0,0.3c0,0.2,0,0.4-0.1,0.5c0,0.3-0.1,0.7-0.1,1c-0.1,0.5-0.1,0.9-0.2,1.2
				c0,0.1,0,0.1,0,0.2c0,0.2,0,0.3,0,0.3c-1,7.7-2,15.7,0.4,23.2c1.8,5.7,5.6,11.2,11.3,13.6c1.4,0.6,3,0.9,4.5,0.7
				c0.4-0.1,0.7-0.2,1-0.3c-0.8,2.1-1.7,4.2-2.5,6.3c-0.8,2.1-1.6,4.2-2.3,6.3c-1.1,3.2-2.2,6.4-3.1,9.7c-0.3,1-0.6,1.9-0.9,2.9
				s-0.6,1.9-0.8,2.9c0-0.3,0.1-0.7,0.1-1c0-0.5,0.1-0.9,0.1-1.3c0-0.2,0-0.5,0-0.7c0.1-2.4-0.1-4.8-0.7-7.1c0-0.2-0.1-0.4-0.2-0.6
				s-0.1-0.5-0.2-0.7c-0.1-0.3-0.3-0.7-0.4-1c-1.7-4-5.3-7-8.2-10l-0.2-0.2c-0.5-0.5-1.2-1.3-2.1-2.2c-0.2-0.2-0.4-0.4-0.6-0.6
				c-1.7-1.7-3.6-3.6-5-4.6c-0.1-0.1-0.2-0.1-0.3-0.2c-0.3-0.2-0.5-0.3-0.8-0.5c-0.1,0-0.1-0.1-0.2-0.1s-0.1,0-0.2-0.1H93
				c-0.1,0-0.2,0-0.3,0h-0.1l0,0h-0.1c0,0-0.1,0-0.2,0.1c0,0-0.1,0-0.1,0.1l-0.1,0.1c-0.1,0.1-0.2,0.2-0.3,0.2
				c-0.1,0.1-0.2,0.2-0.2,0.2c0,0.1-0.1,0.1-0.1,0.2c-0.1,0.1-0.1,0.1-0.2,0.2c-0.1,0.2-0.2,0.3-0.3,0.5c-0.1,0.1-0.1,0.2-0.2,0.3
				c-0.1,0.2-0.2,0.4-0.3,0.7c0,0.1-0.1,0.2-0.1,0.4c0,0.1-0.1,0.3-0.1,0.4s-0.1,0.2-0.1,0.3c-0.2,0.7-0.4,1.5-0.6,2.3
				c-0.1,0.5-0.2,0.9-0.3,1.4c-0.1,0.3-0.1,0.6-0.1,0.9c-0.6,4.3-0.5,9,0.4,10.6c0.9,4.6,2.2,9,4.3,13.1c0.2,0.4,0.4,0.7,0.6,1.1
				c0.4,0.7,0.9,1.4,1.4,2.1c0.2,0.3,0.5,0.7,0.8,1s0.5,0.6,0.8,0.9c0.2,0.2,0.3,0.3,0.4,0.5c0.2,0.2,0.4,0.4,0.6,0.5
				c0.2,0.2,0.3,0.3,0.5,0.5c0.4,0.4,0.9,0.7,1.3,1c0.2,0.1,0.4,0.3,0.6,0.4c1.5,0.9,3.5,1.7,5.3,1.7c0.8,0,1.6-0.2,2.3-0.5
				c0.2-0.1,0.5-0.3,0.7-0.4c0,0,0,0,0.1-0.1c-1.1,4.4-2.2,8.8-3.3,13.2c-0.2,0.7-0.3,1.3-0.5,2c0,0.2-0.1,0.4-0.1,0.5
				c-0.1,0.5-0.2,1-0.3,1.4l0,0c-0.7,3-1.5,6.1-2.2,9.2c-0.8-0.2-1.6-0.3-2.4-0.4c-0.4,0-0.8-0.1-1.2-0.1c-0.4,0-0.8,0-1.2,0
				c-0.6,0-1.3,0-2,0.1l0,0c-0.6,0-1.1,0.1-1.7,0.2c-0.6,0.1-1.2,0.2-1.7,0.2l0,0c-0.9,0.2-1.9,0.3-2.8,0.5l0,0
				c-0.7,0.2-1.5,0.3-2.2,0.5l0,0c-0.6,0.1-1.1,0.3-1.7,0.5c-1.1,0.3-2.2,0.7-3.3,1c-0.5,0.2-1.1,0.4-1.6,0.6
				c-0.3,0.1-0.6,0.2-0.8,0.3c-0.3,0.1-0.7,0.2-1,0.4c-0.4,0.2-0.8,0.3-1.2,0.5c-0.3,0.1-0.4,0.2-0.5,0.2s-0.1,0-0.2,0.1
				c-1.1,0.4-2.1,0.9-3.1,1.3c-0.5,0.2-0.9,0.4-1.2,0.5c-0.3,0.1-0.6,0.3-0.9,0.4l0,0c-0.3,0.1-0.5,0.2-0.8,0.4
				c-2.6,1.2-4.6,2.2-5.7,2.9c-0.2,0.1-0.3,0.2-0.5,0.3c-0.6,0.3-0.9,0.5-0.9,0.6c4.9,4.1,11.2,5.7,17.4,5.4c0.8,0,1.6-0.1,2.4-0.2
				c0.6-0.1,1.2-0.1,1.7-0.2c0.3,0,0.5-0.1,0.8-0.1c6-1.1,12.9-4.2,15-10c-1.6,7.9-2.9,15.8-3.6,23.8c-0.2,2.5-0.4,5-0.4,7.6
				c0,1.5-0.1,3-0.1,4.4l0,0c0,0.7,0,1.5,0,2.2c0.2,9.7,1.7,19.3,4.7,28.6c0.4-0.2,0.9-0.3,1.3-0.3c0.7-0.1,1.4,0,2,0.3
				c1.2,0.5,1.6,1.5,2.5,1.6c-2.1-6-3.2-12.8-4.4-18.9c-0.2-1-0.4-2-0.5-2.9c-1.5-8.9-2.1-18-1.8-27l0,0c0-0.9,0.1-1.8,0.1-2.7
				c0.1-1.5,0.2-2.9,0.3-4.4c0.1-0.8,0.1-1.5,0.2-2.2c0.1-0.9,0.2-1.8,0.3-2.6c0.1-0.9,0.2-1.8,0.3-2.6l0,0c0.1-0.5,0.1-0.9,0.2-1.4
				c0.1-1,0.3-2,0.4-2.9c0.6-4.2,1.5-8.3,2.5-12.4c0.4-1.5,0.7-3,1.1-4.5c0.3-1.2,0.6-2.3,0.8-3.5c1.6-6.5,3.2-13,5-19.4
				c0.3-1,0.6-2,0.9-3c1-3.3,2-6.6,3-9.8c0.8-2.5,2.9-7.8,5.3-13.8c0.5-1.1,0.9-2.3,1.4-3.4c3.8-9.2,8-19,9.5-22.5l2.8-6.3l0.8-1.9
				l0,0l7.8-17.4l0.2-0.4l4.8-10.6c1.9-1,3.1-3.4,3.8-5.3c0.7-1.8,1.3-3.7,1.8-5.7l0,0c1.5-6.1,2.1-12.7,2.2-18.8
				C157.2,14.6,157,9.9,156.3,5.3z M152.1,43.3c-0.3,0.7-0.6,1.4-0.9,2.1C151.5,44.7,151.8,44,152.1,43.3z M105,65.1
				C105.1,65.1,105.1,65.1,105,65.1C105.1,65.1,105.1,65.1,105,65.1z"/>
			<path class="st1" d="M146.6,140.6c-0.7-2.6-5.5-2.5-7.5-2.5c-11.5-0.3-26.7,14.6-31.2,19.5c-0.8,0.9-1.3,1.5-1.3,1.6l0,0l0,0l0,0
				l0,0c0,0.2,0,0.4,0.1,0.6l0,0c0.1,0.4,0.2,0.8,0.4,1.1c0.9,2,3.1,3.2,5.4,3.4c4,0.4,8.4-1,12-2.4c6.9-2.7,13.1-7.2,17.6-13
				c1.1-1.4,2.1-2.9,3-4.4C145.8,143.4,147,141.9,146.6,140.6z"/>
			<path class="st1" d="M152.6,118c-0.7-2.6-5.5-2.5-7.5-2.5c-11.6-0.3-27,14.9-31.4,19.7c-0.8,0.9-1.2,1.4-1.2,1.4
				c0,0.6,0.1,1.1,0.3,1.6c0.9,2.1,3.2,3.5,5.6,3.7c4,0.4,8.4-1,12-2.4c6.9-2.7,13.1-7.2,17.6-13c1.1-1.4,2.1-2.9,3-4.4
				C151.8,120.9,153,119.4,152.6,118z"/>
			<path class="st1" d="M161.8,91.5c-0.7-2.6-5.5-2.5-7.5-2.5c-11.2-0.3-25.9,13.9-30.9,19.1c-1.1,1.2-1.7,1.9-1.7,2
				c0,0.5,0.1,1,0.3,1.4c0.8,2.2,3.2,3.6,5.6,3.8c4,0.4,8.4-1,12-2.4c6.9-2.7,13-7.2,17.6-13c1.1-1.4,2.1-2.9,3-4.4
				C161.1,94.4,162.2,92.9,161.8,91.5z"/>
			<path class="st1" d="M135.8,78.2c0,0,6.1-5.8,16.9-7.3c10.8-1.5,19.1,2.6,19.1,2.6s-16.7,28.5-36,5.9V78.2z"/>
			<path class="st1" d="M144.4,60c0,0,10.1-9.6,18.4-9.9c8.4-0.2,14.4,0,14.4,0S160.2,76.3,144.4,60z"/>
			<path class="st1" d="M149.4,49.2c0,0-0.1-0.1,4.4-9.1s20.1-13.5,20.1-13.5s1.3,19.5-9,21C154.7,49.1,149.4,49.2,149.4,49.2z"/>
			<path class="st2" d="M106.5,146.7c-2.1,0-4.4-1.1-5.9-2.1c-2.8-1.9-4.9-4.7-6.4-7.7c-2.1-4-3.4-8.5-4.3-13.1
				c-1.9-3.3-0.3-19.2,3.4-18.9h0.1L106.5,146.7L106.5,146.7z"/>
			<path class="st2" d="M105.1,65.1L105.1,65.1L105.1,65.1z"/>
			<path class="st2" d="M121.9,107.7L121.9,107.7c-1.7,0.8-3.8,0.4-5.6-0.3c-5.7-2.4-9.5-7.9-11.3-13.6c-2.4-7.5-1.4-15.5-0.4-23.2
				c-0.1,0,0.7-4.9,0.5-5.5c0.1,0,0.2,0.1,0.3,0.1L121.9,107.7z"/>
			<path class="st2" d="M132.1,84.5c0.6-1.2,1.1-2.5,1.7-3.7c0,0,0,0,0-0.1c-7.2-1.1-11.6-7.9-12.5-14.8c-0.6-4.6,0-9.3,0.6-13.9
				c0.7-4.9,3.5-15.8,4-16.4C129.8,51.8,137.5,83.8,132.1,84.5z"/>
			<path class="st2" d="M154,2.4c-0.1,19.1-1.2,45.7-6.1,47.3c-2.9,0.1-3.4-5.1-4-7.1c-2.4-7.7-5.6-15.7-2.4-23.7
				c2.5-6.1,12.2-15.4,12.2-15.5C153.6,3,153.7,2.6,154,2.4z"/>
			<path class="st2" d="M106.5,160.4c-2.4,3.8-32.6-12.2-41.3-16.1c1.4-1.6,4.9-1.9,6.6-2.1c13.4-2,34.6,16.5,34.8,17l0,0
				C106.7,159.7,106.7,160.1,106.5,160.4z"/>
			<path class="st0" d="M97.6,213.1c0.8,1,0.9,2.1,0.4,2.6c-0.6,0.4-1.6,0-2.4-1s-0.9-2.1-0.4-2.6C95.7,211.7,96.8,212.2,97.6,213.1
				z"/>
		</g>
	</g>
	<g>
		<g>
			<g>
				<path class="st4" d="M47.4,291.7c7.2-4.8,14.6-4.2,23-3.9c0.4,0,1.3,0.9,0.6,1.1c-3.2,1.4-7.4,0.3-10.9,0.4
					c-4.4,0.1-8.4,1.2-12.4,2.9C47.5,292.4,47.1,291.9,47.4,291.7z"/>
				<path class="st5" d="M46.9,292.1c-0.1-0.3,0-0.6,0.3-0.8c5.5-3.7,11.1-4.2,16.4-4.2c1.6,0,3.2,0.1,4.9,0.1l1.9,0.1
					c0.5,0,1.2,0.6,1.3,1.1c0.1,0.4-0.1,0.7-0.5,0.9c-1.2,0.5-2.6,0.8-4.4,0.8c-1.1,0-2.2-0.1-3.3-0.2c-1.2-0.1-2.3-0.2-3.4-0.2
					c-4,0.1-8,1-12.2,2.9c-0.1,0-0.2,0.1-0.3,0.1l0,0C47.3,292.7,47,292.5,46.9,292.1z M63.6,289c1.1,0.1,2.1,0.2,3.2,0.2
					c1.6,0,2.9-0.2,3.9-0.6c-0.1-0.1-0.3-0.3-0.4-0.3l-1.9-0.1c-1.7-0.1-3.3-0.1-4.9-0.1c-4.6,0-9.5,0.4-14.2,3
					c3.6-1.4,7.2-2.1,10.8-2.2c0.1,0,0.3,0,0.4,0C61.5,288.9,62.6,288.9,63.6,289z"/>
			</g>
			<g>
				<path class="st4" d="M67.3,308c5.1-3.3,8.9-8.8,11.5-14.1c1.9-3.9,1.9-8.8,5-12c0.5-0.5,1.7,0.5,1.3,1.1
					c-2.8,4.7-3.6,10.1-6.4,14.8c-2.6,4.4-6.4,8.5-11,10.9C67.5,308.8,67,308.3,67.3,308z"/>
				<path class="st5" d="M66.8,308.5c-0.1-0.3,0-0.6,0.3-0.8c4.3-2.8,8.2-7.5,11.4-13.9c0.7-1.4,1.2-3.1,1.6-4.7
					c0.7-2.7,1.5-5.4,3.5-7.4c0.2-0.2,0.4-0.3,0.7-0.3c0.6,0,1.1,0.4,1.3,0.9c0.2,0.4,0.2,0.8,0,1.1c-1.4,2.3-2.3,4.8-3.2,7.3
					c-0.9,2.5-1.8,5.1-3.3,7.5c-3,4.9-6.9,8.8-11.2,11c-0.1,0.1-0.2,0.1-0.3,0.1C67.2,309.2,66.9,308.8,66.8,308.5z M84.2,282.2
					c-1.8,1.9-2.5,4.4-3.2,7c-0.5,1.6-0.9,3.3-1.7,4.9c-3,6-6.5,10.5-10.5,13.4c3.6-2.2,7-5.7,9.6-10c1.4-2.3,2.3-4.9,3.2-7.3
					c0.9-2.5,1.8-5.1,3.2-7.4c0,0,0-0.1-0.1-0.3C84.5,282.3,84.3,282.2,84.2,282.2L84.2,282.2z"/>
			</g>
			<g>
				<path class="st4" d="M150.5,285.8c9,2.8,23.1,7.9,25.8,18.4c0.1,0.4-0.4,0.2-0.5,0c-4.6-9.9-14.6-11.2-23.3-16
					C152.2,288,150,285.6,150.5,285.8z"/>
				<path class="st5" d="M175.4,304.3c-3.3-7.1-9.4-9.7-15.9-12.4c-2.4-1-4.8-2-7.2-3.3c0,0-2.5-2.2-2.3-2.9
					c0.1-0.3,0.4-0.4,0.7-0.3c9.9,3.1,23.4,8.4,26.1,18.7c0.1,0.3,0,0.5-0.1,0.6s-0.3,0.2-0.5,0.2l0,0
					C175.8,304.8,175.5,304.6,175.4,304.3z M152.7,287.7c2.3,1.3,4.7,2.3,7.1,3.3c5.6,2.4,11,4.6,14.6,9.7
					c-4.2-7.2-14.5-11.5-22.8-14.1C152.1,287.1,152.6,287.6,152.7,287.7z"/>
			</g>
			<g>
				<path class="st4" d="M127.6,275.2c0.5,0.2,1,0.5,1.5,0.9c0.1,0,0.2,0,0.3,0.1c2.7,1.8,3.7,4.4,4.3,7.4c0.3,1.1,0.6,2.2,0.8,3.4
					c1.5,7.7,3.5,13.7,9,19.4c0.6,0.6,0,1.2-0.6,0.6c-0.2-0.2-0.4-0.4-0.5-0.5c-3.8-2.5-6.3-6.3-8.3-10.4
					c-3.1-6.4-2.9-14.1-7.1-19.9C126.6,275.6,126.9,274.9,127.6,275.2z"/>
				<path class="st5" d="M142.6,307.3c-0.1-0.1-0.2-0.2-0.3-0.3l-0.1-0.2c-3.4-2.2-6-5.5-8.5-10.5c-1.4-2.8-2.1-5.9-2.8-8.8
					c-0.9-3.8-1.9-7.8-4.2-11c-0.3-0.4-0.3-0.9-0.1-1.3c0.2-0.5,0.8-0.6,1.4-0.4c0.5,0.2,1,0.5,1.5,0.9c0.1,0,0.2,0.1,0.3,0.1
					c3.1,2.1,4,5.2,4.5,7.6c0.3,1,0.6,2.1,0.8,3.4c1.5,7.7,3.5,13.6,8.9,19.2c0.3,0.4,0.4,0.8,0.3,1.1c-0.1,0.3-0.4,0.5-0.8,0.5l0,0
					C143.2,307.7,142.9,307.6,142.6,307.3z M128.8,276.5c-0.4-0.4-0.9-0.6-1.4-0.8c-0.1,0-0.1,0-0.2,0c0,0-0.1,0.2,0.1,0.3
					c2.4,3.4,3.4,7.4,4.3,11.3c0.7,2.9,1.4,5.9,2.8,8.6c2.4,4.9,4.9,8,8.2,10.2l0,0c-5.2-5.7-7.2-11.6-8.6-19.1
					c-0.2-1.3-0.5-2.3-0.8-3.4c-0.6-3.4-1.9-5.6-4-7.1C129.1,276.6,128.9,276.5,128.8,276.5z"/>
			</g>
			<g>
				<path class="st4" d="M74.9,275.8c6.8-6.2,17.3-3,23.7-9.4c0.3-0.3,0.9,0.3,0.8,0.6c-1.3,2.7-3.3,3.9-6.2,4.5
					c-6.2,1.4-12.3,0.9-17.6,4.8C75.2,276.7,74.6,276.1,74.9,275.8z"/>
				<path class="st5" d="M74.4,276.3c-0.1-0.3-0.1-0.6,0.2-0.8c3.4-3.1,7.8-3.9,12.1-4.7c4.4-0.8,8.5-1.5,11.6-4.7
					c0.4-0.4,1.1-0.2,1.4,0.3c0.2,0.3,0.2,0.6,0.1,0.8c-1.2,2.6-3.2,4.1-6.5,4.8c-1.8,0.4-3.7,0.7-5.4,0.9c-4.3,0.6-8.4,1.1-12,3.8
					c-0.1,0.1-0.3,0.1-0.4,0.1C74.9,277,74.5,276.7,74.4,276.3z M86.8,271.7c-3.9,0.7-7.9,1.4-11.1,4c3.7-2.5,7.7-3.1,12-3.6
					c1.8-0.2,3.6-0.5,5.4-0.9c3.1-0.7,4.8-1.9,5.9-4.2l-0.1-0.1C95.5,270.2,91,271,86.8,271.7z"/>
			</g>
			<g>
				<path class="st4" d="M62.8,317c8.7-2.9,18.7,0,27.5-1.4c0.3-0.1-0.5,0.5-0.8,0.8c-2.4,2.4-6,1.5-9,1c-5.9-0.9-11.5-0.9-17.4,0
					C62.8,317.5,62.5,317,62.8,317z"/>
				<path class="st5" d="M81.1,318l-0.8-0.1c-5.8-0.9-11.3-0.9-17.2,0H63l0,0c-0.4,0-0.8-0.4-0.8-0.7c-0.1-0.3,0.1-0.6,0.4-0.7
					c2.8-0.9,6-1.4,10-1.4c2,0,4,0.1,5.9,0.2s3.9,0.2,5.8,0.2c2.3,0,4.1-0.1,5.8-0.4c0.2,0,0.5,0.1,0.6,0.3c0.1,0.4-0.1,0.6-0.6,1
					c-0.1,0.1-0.2,0.2-0.3,0.3c-1.2,1.2-2.7,1.7-4.7,1.7C83.7,318.5,82.4,318.2,81.1,318z M84.3,316.5c-1.9,0-3.9-0.1-5.8-0.2
					s-3.9-0.2-5.9-0.2c-2.5,0-4.6,0.2-6.6,0.5c4.9-0.5,9.5-0.4,14.4,0.4l0.8,0.1c1.2,0.2,2.5,0.4,3.7,0.4c1.7,0,3-0.4,4-1.3
					C87.6,316.4,86.1,316.5,84.3,316.5z"/>
			</g>
			<g>
				<path class="st4" d="M63.3,335.2c1.4-3.4,1.7-6.9,4.6-9.3c0.3-0.3,2.2,0,1.9,0.3c-5.3,6.1-6,15.3-12.5,20.4
					C57.1,346.8,61.6,339.4,63.3,335.2z"/>
				<path class="st5" d="M56.9,346.9c-0.2-0.3-0.2-0.3,0.9-2.2c1.3-2.4,3.8-6.8,5.1-9.7c0.4-0.9,0.7-1.9,1-2.8
					c0.8-2.5,1.6-4.8,3.7-6.7c0.2-0.1,0.4-0.2,0.9-0.2c0.2,0,1.5,0,1.8,0.6c0.1,0.2,0.1,0.4-0.1,0.6c-2.2,2.6-3.7,5.9-5.1,9
					c-1.8,4.2-3.7,8.5-7.5,11.5c-0.1,0.1-0.2,0.1-0.3,0.1C57.2,347.1,57,347,56.9,346.9z M68.5,326.2c-0.2,0-0.3,0-0.3,0
					c-2,1.7-2.7,3.9-3.4,6.2c-0.3,0.9-0.6,1.9-1,2.9c-1.1,2.6-3.2,6.4-4.6,8.9c2.3-2.6,3.7-5.8,5.2-9.1c1.3-3.1,2.7-6.2,4.9-8.9
					C69,326.3,68.7,326.2,68.5,326.2z"/>
			</g>
			<g>
				<path class="st4" d="M46.5,342.1c1.2-1.7,2.2-3.3,3.1-5.1c0.8-1.7,1.3-3.5,2.3-5.1c0.2-0.4,0.8,0.1,0.8,0.4
					C51.6,338.1,46.3,342.3,46.5,342.1z"/>
				<path class="st5" d="M46,342.3c-0.1-0.2-0.1-0.4,0-0.5c1.3-1.8,2.2-3.4,3-5.1c0.3-0.7,0.6-1.4,0.9-2c0.4-1,0.8-2.1,1.4-3.1
					c0.3-0.5,1-0.5,1.4,0c0.2,0.2,0.3,0.5,0.2,0.7c-0.9,5.6-6,10.2-6.6,10.2l0,0C46.3,342.6,46.1,342.5,46,342.3z M50.8,335
					c-0.3,0.7-0.6,1.4-0.9,2.1c-0.2,0.5-0.5,0.9-0.7,1.4c1.2-1.7,2.5-3.8,2.9-6.2l0,0C51.6,333.1,51.2,334.1,50.8,335z"/>
			</g>
			<g>
				<path class="st4" d="M73.7,366.6c2.2-4.8,3.4-9.8,4.1-15.1c0.5-3.6,0.8-7,3.4-9.7c0.3-0.3,0.8,0.3,0.7,0.6
					c-3.4,8.3-2,17.2-7.6,24.8C74.1,367.3,73.6,366.8,73.7,366.6z"/>
				<path class="st5" d="M73.4,367.1c-0.2-0.2-0.2-0.5-0.1-0.7c2-4.3,3.2-9.1,4-15l0.1-0.7c0.4-3.3,0.9-6.7,3.4-9.3
					c0.1-0.1,0.3-0.2,0.5-0.2c0.4,0,0.6,0.2,0.8,0.5c0.2,0.3,0.2,0.6,0.1,0.8c-1.4,3.3-1.9,6.8-2.5,10.2c-0.8,5-1.7,10.1-5.1,14.7
					c-0.1,0.2-0.3,0.3-0.5,0.3l0,0C73.8,367.6,73.5,367.3,73.4,367.1z M81.4,342.2c-2.2,2.4-2.6,5.4-3,8.6l-0.1,0.7
					c-0.7,5.6-1.9,10.2-3.7,14.4c2.7-4.2,3.5-8.7,4.3-13.4C79.4,349.1,80,345.6,81.4,342.2L81.4,342.2z"/>
			</g>
			<g>
				<path class="st4" d="M122.7,333.9c0.1-2.1,0.5-4.2,1.1-6.2c0.8-3.1,0.8-5.6,0.9-8.8c0-0.4,1.1,0.5,1.2,0.7
					c1.4,3.5,0.8,5.7-0.3,9.3c-1.5,5.1-2.1,9.5-1.2,14.8c0.1,0.6-0.7,0.3-0.8-0.1C122.4,340.6,122.6,337,122.7,333.9z"/>
				<path class="st5" d="M123.1,343.8c-1.2-3.1-1-6.9-0.9-9.9c0.1-2.3,0.6-4.6,1.1-6.3c0.8-3.1,0.8-5.7,0.9-8.6
					c0-0.3,0.2-0.6,0.6-0.6c0.5,0,1.4,0.8,1.5,1.1c1.5,3.7,0.7,6.2-0.2,9.6c-1.6,5.7-2,9.9-1.1,14.6c0.1,0.3,0,0.5-0.1,0.6
					c-0.1,0.2-0.3,0.2-0.5,0.2l0,0C123.8,344.5,123.3,344.1,123.1,343.8z M124.2,327.8c-0.4,1.7-0.9,3.9-1,6.1
					c-0.1,2.8-0.3,6.2,0.6,9c-0.7-4.5-0.3-8.7,1.3-14.1c1-3.4,1.6-5.6,0.3-8.9c0-0.1-0.2-0.2-0.3-0.3
					C125.1,322.3,125,324.8,124.2,327.8z"/>
			</g>
			<g>
				<path class="st4" d="M119.1,310.1c0.1,0,0.1,0,0.2,0c9.7,6.2,26.4,5.8,32.3,17c0.2,0.4-0.3,0.5-0.6,0.3c-1.8-2.1-3.8-3.7-6-5
					c-1.1-0.6-2.2-1.1-3.3-1.6c-0.7-0.3-1.5-0.7-2.2-0.9c-2.5-0.9-5.1-1.6-7.8-2.2c-4.6-1.1-10.4-2.3-13.2-6.5
					C117.9,310.3,118.5,309.9,119.1,310.1z"/>
				<path class="st5" d="M150.6,327.6c-1.7-1.9-3.6-3.5-5.9-4.9c-0.9-0.5-1.9-0.9-2.8-1.4l-0.5-0.2c-0.6-0.3-1.3-0.6-2.2-0.9
					c-2.7-1-5.6-1.7-7.8-2.2l-0.3-0.1c-4.6-1.1-10.3-2.4-13.1-6.6c-0.4-0.6-0.3-1.1-0.2-1.3c0.2-0.4,0.7-0.6,1.2-0.5l0,0
					c0.1,0,0.3,0,0.4,0.1c3.5,2.3,7.9,3.6,12.6,5c7.9,2.4,16,4.9,19.8,12.1c0.2,0.4,0.1,0.6,0,0.7c-0.1,0.2-0.4,0.3-0.7,0.3l0,0
					C151,328,150.8,327.8,150.6,327.6z M119,310.5c-0.1,0-0.1,0-0.2,0s-0.1,0-0.1,0s0,0.2,0.1,0.4c2.6,4,8.1,5.2,12.5,6.3l0.3,0.1
					c2.2,0.5,5.1,1.2,7.9,2.2c0.9,0.3,1.6,0.7,2.3,1l0.5,0.2c0.9,0.4,1.9,0.9,2.8,1.4c2,1.2,3.7,2.5,5.2,4.1
					c-3.9-6-11.3-8.2-18.5-10.4c-4.5-1.4-9.2-2.8-12.8-5.1C119.1,310.5,119,310.5,119,310.5z"/>
			</g>
			<g>
				<path class="st4" d="M137.3,278.6c0,0,0.1,0,0.2,0c8.5,1.5,19.9-3.8,27.3,2.3c0.3,0.2-0.1,0.5-0.3,0.3c-1.8-0.9-3.7-1.4-5.6-1.7
					c-0.9-0.1-1.8-0.1-2.7-0.1c-0.6,0-1.2,0-1.8,0c-2,0.1-4,0.4-6,0.8c-3.5,0.6-7.9,1.5-11-0.6C136.5,279.1,136.8,278.7,137.3,278.6
					z"/>
				<path class="st5" d="M164.1,281.6c-1.7-0.8-3.5-1.4-5.4-1.6c-0.8-0.1-1.6-0.1-2.3-0.1H156c-0.6,0-1.2,0-1.8,0
					c-2.1,0.1-4.2,0.5-6,0.8h-0.3c-1.7,0.3-3.7,0.7-5.6,0.7c-2.2,0-4-0.5-5.4-1.4c-0.6-0.4-0.6-0.8-0.6-1.1c0.1-0.3,0.4-0.6,0.8-0.7
					c0.1-0.1,0.3-0.1,0.4-0.1c1,0.2,2.2,0.3,3.5,0.3c2.1,0,4.5-0.2,6.7-0.5c2.3-0.2,4.7-0.5,7-0.5c4.5,0,7.7,1,10.3,3.1
					c0.3,0.2,0.3,0.5,0.2,0.7c-0.1,0.3-0.4,0.5-0.7,0.5C164.4,281.7,164.3,281.6,164.1,281.6z M156,278.9h0.4c0.8,0,1.6,0.1,2.4,0.1
					c1.3,0.2,2.5,0.4,3.6,0.8c-2.1-1.1-4.6-1.6-7.7-1.6c-2.3,0-4.6,0.3-6.9,0.5c-2.3,0.2-4.6,0.5-6.8,0.5c-1.3,0-2.5-0.1-3.5-0.3
					h-0.1l0,0c0,0,0.1,0,0.1,0.1c1.3,0.9,2.9,1.3,4.9,1.3c1.9,0,3.8-0.3,5.5-0.6h0.3c1.8-0.3,3.9-0.7,6.1-0.8c0.3,0,0.7,0,1,0
					C155.5,278.9,155.7,278.9,156,278.9z"/>
			</g>
			<g>
				<path class="st4" d="M108.7,254.7c0,0,0.8,0.3,1.2,1.2c0.3,0.8,2.8,10.7,10.4,15.1s25.6,9.6,35.2,18.1s10.1,16.7,10.1,16.7
					s0,1-0.5,0.5c-0.5-0.6-2.7-12.8-17.2-20.6c-14.5-7.8-31.5-10.5-37.5-21.1C110.4,264.5,105.4,253.9,108.7,254.7z"/>
				<path class="st5" d="M164.7,306.6c-0.1-0.1-0.2-0.3-0.4-0.9c-2.8-8.5-8.4-15.1-16.7-19.6c-4.8-2.6-9.9-4.6-14.8-6.6
					c-9.7-3.9-18.8-7.5-22.9-14.7c-0.6-1.4-3.7-8.2-2.6-10c0.2-0.3,0.6-0.5,1-0.5c0.1,0,0.3,0,0.5,0.1c0,0,1,0.4,1.4,1.4
					c0,0.1,0.1,0.3,0.2,0.6c2.2,6.9,5.6,11.8,10,14.3c2.6,1.5,6.3,3,10.6,4.8c8.2,3.4,18.3,7.7,24.7,13.3
					c9.6,8.6,10.3,16.7,10.3,17.1c0,1-0.5,1.1-0.7,1.1l0,0C165,306.9,164.8,306.7,164.7,306.6z M108.2,255.3c-0.6,1,1.2,5.9,2.6,9.1
					c3.9,6.9,12.9,10.5,22.4,14.3c4.9,2,10,4,14.9,6.6c7.9,4.3,13.5,10.5,16.5,18.4c-0.8-3-3.2-8.5-9.5-14.2
					c-6.3-5.6-16.3-9.8-24.4-13.2c-4.3-1.8-8.1-3.4-10.7-4.9c-4.6-2.7-8.1-7.6-10.4-14.8c-0.1-0.3-0.1-0.4-0.2-0.5
					c-0.3-0.6-0.9-0.9-0.8-0.9C108.3,255.1,108.2,255.2,108.2,255.3z"/>
			</g>
			<g>
				<path class="st4" d="M107.3,283.9c0.8-0.6,1.3,0.2,1.5,1.5c0.2,2.7-1.2,8.8,5.8,17.8c5.3,6.8,24.1,23.3,18.8,43.4
					c0,0-0.5,1.2-0.9,0.6c-0.5-0.6,4.3-10.1-7.8-27.4s-17.4-20.1-18.4-28.7c-0.2-2.1-0.7-4.9,0.7-6.7
					C107,284.1,107.2,284,107.3,283.9z"/>
				<path class="st5" d="M132.1,347.4c-0.2-0.3-0.1-0.6,0-1.3c0.5-2.9,2.2-11.8-7.9-26.1c-4.2-6-7.5-10.2-10.2-13.6
					c-5.1-6.4-7.6-9.6-8.3-15.3v-0.4c-0.2-2-0.6-4.8,0.9-6.6c0.2-0.2,0.3-0.4,0.5-0.5c0.3-0.2,0.5-0.3,0.8-0.3
					c0.8,0,1.3,0.8,1.4,2.1c0,0.5,0,1,0,1.6c0,3.2-0.1,8.6,5.7,16c0.8,1,1.9,2.3,3.2,3.7c7.1,8,20.2,22.8,15.6,40.1
					c-0.1,0.2-0.5,1-1.1,1l0,0C132.5,347.7,132.3,347.7,132.1,347.4z M107.6,284.2c-0.1,0.1-0.2,0.2-0.3,0.3
					c-1.2,1.5-0.9,3.9-0.7,5.9l0.1,0.4c0.7,5.5,3.1,8.6,8.1,14.9c2.7,3.4,6.1,7.6,10.3,13.6c10,14.3,8.6,23.4,8,26.6
					c4.1-16.6-8.2-30.5-15.5-38.8c-1.3-1.5-2.4-2.7-3.2-3.8c-6-7.7-5.9-13.5-5.9-16.6c0-0.6,0-1.1,0-1.5c-0.1-0.9-0.3-1.2-0.5-1.2
					C107.8,284.1,107.7,284.1,107.6,284.2z"/>
			</g>
			<g>
				<path class="st4" d="M101.6,310.6c0,0,0.6,1.3,1.2,3.3c0.6,2.1,1.7,4.5,3.8,7.4c2.1,2.9,4.2,10.5,3.2,12.7c0,0-0.2,1-0.6-0.2
					c-0.3-1.3,0.7-4.8-3.5-10.3c-4.2-5.4-5.5-5.4-5.6-9S101.6,310.6,101.6,310.6z"/>
				<path class="st5" d="M108.8,333.9c-0.1-0.3-0.1-0.7-0.1-1.3c0-1.8-0.1-4.7-3.3-8.8c-1.3-1.7-2.3-2.8-3.1-3.8
					c-1.8-2-2.6-2.9-2.6-5.5c-0.1-3.9,1.7-4.3,1.9-4.4c0.2,0,0.4,0.1,0.5,0.3c0,0.1,0.6,1.3,1.2,3.4c0.6,2.2,1.8,4.6,3.7,7.2
					c2.1,2.9,4.3,10.7,3.3,13.1c-0.1,0.5-0.4,0.8-0.7,0.8l0,0C109.1,334.8,108.9,334.2,108.8,333.9z M100.6,314.5
					c0.1,2.3,0.7,3,2.4,4.9c0.8,0.9,1.8,2.1,3.1,3.8c1.5,2,2.4,3.8,2.9,5.3c-0.6-2.6-1.7-5.4-2.8-6.9c-2-2.7-3.2-5.2-3.9-7.5
					c-0.4-1.3-0.7-2.3-0.9-2.8C101.1,311.6,100.5,312.4,100.6,314.5z"/>
			</g>
			<g>
				<path class="st4" d="M100.8,255.3c0,0,0.7,5.4-5.1,15.3c-5.8,9.9-13.8,12.2-28.2,18.7s-19.4,14.3-19.3,15
					c0.1,0.7,0.8-0.2,0.8-0.2c8.5-12.8,32.6-16.6,42.4-25.9s11.4-16.8,11.6-21.2c0.2-4.4-1.7-8.3-1.7-8.3s-1-1.7-0.9,1.8
					C100.6,254.1,100.8,255.3,100.8,255.3z"/>
				<path class="st5" d="M47.8,304.4c-0.2-1.2,5.6-9.2,19.5-15.5c2-0.9,3.9-1.7,5.7-2.5c10.9-4.7,17.5-7.6,22.4-16
					c5.6-9.6,5-15,5-15c0-0.1-0.2-1.3-0.4-4.9c-0.1-1.8,0.2-2.3,0.4-2.5c0.1-0.1,0.3-0.2,0.5-0.2c0.5,0,0.8,0.4,0.9,0.7
					c0.1,0.2,2,4.1,1.8,8.5c-0.4,7.2-4.3,14.4-11.8,21.5c-4.2,4-11,7-18.2,10.2c-9.5,4.2-19.4,8.5-24.2,15.7c-0.2,0.3-0.6,0.7-1,0.7
					C48.2,305,47.9,304.9,47.8,304.4z M100.9,250.5c0.1,3.5,0.3,4.8,0.3,4.8c0,0.2,0.6,5.7-5.1,15.6c-5,8.7-11.7,11.6-22.8,16.4
					c-1.8,0.8-3.7,1.6-5.7,2.5c-6.1,2.7-10.5,5.7-13.5,8.2c5.3-4.1,12.2-7.2,19-10.2c7.1-3.1,13.8-6,17.9-10
					c7.3-6.9,11.1-14,11.5-20.9c0.2-4.2-1.7-8-1.7-8l0,0C101,249.1,100.9,249.6,100.9,250.5z"/>
			</g>
			<g>
				<path class="st4" d="M96.7,320.6c0,0-1.2,7.1-6.7,14.4s-17.5,11.9-20.1,23.5c0,0-0.3,0.9-0.8,0.1S72,349,78.2,344
					c6.2-5.1,15.1-16.9,18.9-30.3C97.1,313.7,97.4,317.6,96.7,320.6z"/>
				<path class="st5" d="M68.7,358.9c-0.7-1.1,3.1-10.2,9.2-15.2c6.6-5.4,15.2-17.4,18.8-30.1c0.1-0.2,0.3-0.4,0.5-0.3
					c0.2,0,0.4,0.2,0.4,0.4c0,0.2,0.2,4-0.5,7c-0.1,0.3-1.2,7.3-6.8,14.6c-2,2.6-4.7,4.8-7.6,7.1c-5.3,4.3-10.8,8.8-12.4,16.3
					c0,0.1-0.3,0.7-0.9,0.7l0,0C69.2,359.4,68.9,359.2,68.7,358.9z M69.5,358.2c0.1-0.4,0.2-0.9,0.3-1.3
					C69.7,357.5,69.5,358,69.5,358.2z M78.5,344.4c-2.1,1.7-3.9,3.9-5.3,6.1c2.6-3.5,5.9-6.2,9-8.7c2.8-2.3,5.5-4.5,7.4-7
					c5.4-7.1,6.6-14.1,6.6-14.2c0.3-1.2,0.4-2.6,0.5-3.8C92.7,328.4,84.7,339.3,78.5,344.4z"/>
			</g>
			<g>
				<path class="st4" d="M95.2,333.9c0-1.2,0-2.4,0.2-3.6c0-0.4,0.5,0,0.5,0.2c0.2,4.9,1.2,9.1,3.8,13.3c2,3.2,4.8,6,7.1,9
					c0.4,0.6,0.9,1.1,1.3,1.7c3.2,2.3,6.3,4.7,8.6,8c2,2.8,3.7,7.6,2,10.8c-0.1,0.2-0.3-0.1-0.3-0.2c0.1-6.9-3.8-11-8.2-15
					c1.3,2.9,1.8,6,0.7,9.2c-0.1,0.3-0.6-0.1-0.6-0.3c0-0.5,0-0.9,0-1.4c-0.6-3.4-1.2-6.5-3.2-9.6c-2.3-3.4-5.9-6-8.6-9.1
					c-3-3.4-4.1-8.5-4.1-12.8C94.5,333.7,94.9,333.8,95.2,333.9z"/>
				<path class="st5" d="M118.2,373.6c-0.1-0.1-0.2-0.3-0.2-0.5c0.1-5.9-2.8-9.7-6.6-13.3c0.8,2.7,0.8,5.2,0,7.6
					c-0.1,0.3-0.3,0.4-0.6,0.4l0,0c-0.2,0-0.4-0.1-0.6-0.3c-0.1-0.1-0.3-0.3-0.3-0.6c0-0.4,0-0.9,0-1.2v-0.1
					c-0.6-3.3-1.1-6.3-3.1-9.3c-1.4-2.1-3.3-3.9-5.2-5.6c-1.1-1.1-2.3-2.2-3.4-3.4c-3.8-4.2-4.2-10.6-4.2-13.1
					c0-0.5,0.3-0.8,0.7-0.8c0-1,0.1-2.1,0.2-3.1c0.1-0.4,0.3-0.6,0.6-0.6c0.4,0,0.8,0.4,0.9,0.8c0.3,5.5,1.4,9.4,3.7,13
					c1.4,2.2,3.2,4.3,4.9,6.3c0.7,0.9,1.5,1.7,2.2,2.6c0.4,0.5,0.9,1.1,1.3,1.7c3.1,2.2,6.2,4.7,8.6,8.1c2.2,3.1,3.8,8,2,11.3
					c-0.1,0.2-0.3,0.3-0.5,0.3C118.5,373.8,118.3,373.7,118.2,373.6z M95.6,333.9c0,0.2-0.1,0.3-0.2,0.4s-0.3,0.1-0.4,0
					c0,2.5,0.4,8.4,3.9,12.3c1,1.1,2.2,2.2,3.3,3.3c1.9,1.8,3.9,3.6,5.3,5.8c2.1,3.1,2.7,6.3,3.3,9.6v0.2c0,0,0,0.1,0,0.2
					c0.5-2.3,0.1-4.8-1-7.5c-0.1-0.2,0-0.4,0.1-0.6c0.2-0.1,0.4-0.1,0.6,0c4.3,3.9,7.9,7.7,8.3,13.9c0.7-3-1-6.8-2.4-8.9
					c-2.3-3.3-5.5-5.7-8.5-7.9l-0.1-0.1c-0.4-0.6-0.8-1.2-1.3-1.7c-0.7-0.9-1.4-1.7-2.2-2.6c-1.7-2-3.5-4.2-5-6.4
					c-2.1-3.3-3.3-7-3.7-11.6C95.6,333,95.6,333.4,95.6,333.9z"/>
			</g>
			<g>
				<path class="st4" d="M96.1,346.1c0.1-0.5,0.8,0,0.8,0.3c0,5-2.2,8.9-4.9,13c-2.9,4.3-5.1,8.5-6.7,13.4c-0.1,0.3-0.5-0.1-0.5-0.3
					C85.9,362.5,95.1,356.1,96.1,346.1z"/>
				<path class="st5" d="M84.6,373.1c-0.2-0.2-0.2-0.4-0.2-0.6c0.6-5.1,3.2-9.3,5.7-13.4c2.5-4,5.1-8.1,5.6-13.1
					c0-0.4,0.4-0.6,0.7-0.6c0.3,0,0.6,0.2,0.7,0.3c0.2,0.2,0.3,0.5,0.3,0.7c0,4.9-1.9,8.7-4.9,13.2c-3,4.6-5.1,8.8-6.7,13.3
					c-0.1,0.3-0.3,0.4-0.6,0.4l0,0C84.9,373.4,84.7,373.1,84.6,373.1z M90.9,359.6c-2.2,3.5-4.4,7-5.3,11.1
					c1.5-3.9,3.5-7.6,6.1-11.6c2.8-4.2,4.6-7.7,4.8-11.9C95.7,351.9,93.2,355.8,90.9,359.6z"/>
			</g>
			<g>
				<path class="st4" d="M62.6,356.6c2.9-3.9,8-6.8,12.1-9.2c0.4-0.2-0.1,1.5-0.5,1.8c-3,2.3-5.8,3-8.7,6.1c-3,3.2-5.8,8.9-6.9,13.1
					c-0.1,0.3-0.5-0.1-0.5-0.3C58.4,363.8,60,360,62.6,356.6z"/>
				<path class="st5" d="M57.8,368.7c-0.2-0.2-0.2-0.4-0.2-0.6c0.3-4.2,1.8-8.1,4.6-11.8c2.8-3.7,7.3-6.4,11.4-8.8l0.8-0.5
					c0.1-0.1,0.2-0.1,0.3-0.1c0.2,0,0.4,0.2,0.5,0.4c0.2,0.5-0.3,1.9-0.7,2.2c-1.2,0.9-2.3,1.6-3.4,2.2c-1.8,1-3.4,2-5.2,3.9
					c-3.1,3.3-5.8,9-6.8,12.9c-0.1,0.3-0.3,0.4-0.6,0.4l0,0C58.2,369,57.9,368.8,57.8,368.7z M74,348.3c-4,2.3-8.4,5-11.1,8.5
					c-2.2,3-3.6,6-4.1,9.3c1.3-3.7,3.7-8.3,6.4-11.1c1.8-2,3.7-3,5.4-4c1.1-0.6,2.2-1.3,3.3-2.1c0.1-0.1,0.2-0.3,0.3-0.6L74,348.3z"
					/>
			</g>
			<g>
				<path class="st4" d="M40.3,344.4c3.8-13.3,20.2-16.3,31.4-20.4c7.2-2.7,14.5-5.3,20.3-10.6c5.8-5.2,8-12.1,9.8-19.3
					c0.1-0.2,0.4,0.1,0.4,0.2c-0.4,14.1-8.9,23.3-21.5,28.5c-13.9,5.8-33.2,6.3-39.9,22C40.8,345.2,40.3,344.7,40.3,344.4z"/>
				<path class="st5" d="M40.1,345c-0.2-0.2-0.2-0.5-0.2-0.7c3.2-11.3,15.3-15.3,25.9-18.7c2-0.7,4-1.3,5.8-2
					c7.1-2.6,14.4-5.3,20.2-10.5s8-12.3,9.7-19.1c0.1-0.3,0.3-0.4,0.5-0.4c0.3,0,0.5,0.2,0.6,0.3c0.1,0.1,0.2,0.3,0.2,0.5
					c-0.4,13.2-7.9,23.2-21.8,28.9c-3.7,1.5-7.9,2.7-11.9,3.9c-11.3,3.2-22.9,6.5-27.7,17.9c-0.1,0.3-0.3,0.4-0.6,0.4l0,0
					C40.5,345.4,40.3,345.3,40.1,345z M92.4,313.9c-5.9,5.3-13.3,8-20.5,10.6c-1.8,0.7-3.7,1.3-5.8,2c-9.9,3.2-21.1,6.9-24.8,16.6
					c5.4-10.4,16.6-13.6,27.5-16.7c4.2-1.2,8.1-2.3,11.8-3.8c12.6-5.2,19.9-14.1,21-25.8C100,302.9,97.7,309.1,92.4,313.9z"/>
			</g>
			<g>
				<path class="st4" d="M103.6,279.5c0.1-0.4,0.6,0.1,0.7,0.3c1.9,11-14.8,13.5-16.8,23.7c-0.1,0.5-0.8,0-0.8-0.3
					C87.3,292.5,100.4,288.9,103.6,279.5z"/>
				<path class="st5" d="M86.5,303.8c-0.2-0.2-0.3-0.5-0.3-0.7c0.4-6.1,4.7-10,8.8-13.7c3.3-2.9,6.7-6,8.1-10.1
					c0.1-0.3,0.3-0.5,0.6-0.5c0.4,0,0.9,0.5,1,0.8c1.1,6.3-3.7,9.9-8.3,13.5c-3.8,2.9-7.6,5.9-8.5,10.4c-0.1,0.4-0.3,0.6-0.7,0.6
					l0,0C87,304.1,86.7,304,86.5,303.8z M95.7,290.1c-4.1,3.7-8,7.1-8.5,12.5c1.2-4.4,5-7.3,8.7-10.2c4.5-3.5,8.8-6.8,8-12.4
					C102.3,284.2,98.9,287.2,95.7,290.1z"/>
			</g>
		</g>
		<g>
			<path class="st4" d="M100.8,247.7c-0.4-2.1-0.7-4.1-1.1-6.1c2.6,0.5,5.3,0,7.2-1.4c0.8,4.1,1.5,7.9,2.1,11.3
				c2.3,13.7,1.2,22.9-2.6,42.4c-3.8,19.5-10.5,34.1-10.3,42c0.2,7.8,4.3,21.4,0.5,29.1c0,0,1.4-8.5-0.6-18.1
				c-2-9.7-3.4-16.4,2.3-37.5C103.9,288.3,105.3,272.3,100.8,247.7z"/>
			<path class="st5" d="M99.3,241.7c0-0.2,0-0.3,0.1-0.4c0.1-0.1,0.3-0.2,0.4-0.1c0.6,0.1,1.3,0.2,1.9,0.2c1.9,0,3.7-0.5,4.9-1.5
				c0.1-0.1,0.3-0.1,0.4-0.1c0.1,0.1,0.3,0.2,0.3,0.3c0.7,3.8,1.5,7.8,2,11.3c2.3,13.5,1.3,22.5-2.6,42.6
				c-1.8,9.2-4.3,17.5-6.3,24.2c-2.3,7.6-4.1,13.6-4,17.7c0,2.4,0.5,5.3,0.9,8.5c1,7.2,2.2,15.4-0.5,20.8c-0.1,0.2-0.2,0.3-0.4,0.3
				h-0.1c-0.2-0.1-0.3-0.3-0.3-0.5c0-0.1,1.3-8.5-0.6-18c-2-9.6-3.4-16.5,2.3-37.7c5.2-19.3,7.3-35.5,2.6-61.4 M100.3,242.2l1,5.5
				c4.7,26.1,2.6,42.4-2.6,61.9c-5.7,21-4.3,27.8-2.3,37.3c1.1,5.4,1.2,10.5,1,13.9c0.8-4.8-0.1-10.8-0.8-16.1
				c-0.5-3.2-0.9-6.1-0.9-8.6c-0.1-4.2,1.7-10.3,4-17.9c2-6.6,4.5-14.9,6.3-24.1c3.9-20,4.9-28.9,2.6-42.3c-0.6-3.3-1.2-7-1.9-10.6
				C104.9,242,102.6,242.4,100.3,242.2z"/>
		</g>
		<path class="st6" d="M106.7,273.4c-0.3,11.3-3.1,22-6.2,32.7c-2.8,9.5-5.1,19-6.3,28.8c-0.2-6,0.7-13.4,4-25.6
			c5.7-21.1,7.1-37,2.6-61.6c-0.4-2.1-0.7-4.1-1.1-6.1c1.2,0.2,2.5,0.2,3.7,0C105.6,252.1,107,262.7,106.7,273.4z"/>
		<path class="st7" d="M107,246c0.5,4.2,1.7,8.2,2,12.4c0.4,4.8,0.1,9.7-0.2,14.5c0,0.2-0.3,0-0.3-0.1c0-5.4,0-10.8-0.5-16.3
			c-0.3-3.5-1.4-7.1-1.4-10.6C106.7,245.7,107,245.8,107,246z"/>
		<path class="st7" d="M130.7,279.1c1.7,2.7,2.1,5.5,2.7,8.5c1.1,5.5,3.2,10.2,5.8,15.2c0.1,0.2-0.2,0.2-0.3,0
			c-1.9-3.5-4-7.1-5.2-10.9c-1.3-4.1-1.4-8.8-3.3-12.7C130.3,278.9,130.6,279,130.7,279.1z"/>
		<path class="st7" d="M124.8,316.7c2.1,2.9,4,6.1,5.4,9.4c0.1,0.3-0.3,0.3-0.4,0.1c-1.9-3-3.4-6.3-5.3-9.4
			C124.4,316.5,124.7,316.5,124.8,316.7z"/>
		<path class="st7" d="M86.1,336.5c2-2.1,3.5-4.6,5.3-6.9c0.1-0.1,0.4,0.1,0.3,0.2c-1.5,2.6-2.8,5.3-5.3,7
			C86.3,337,86,336.7,86.1,336.5z"/>
		<path class="st7" d="M84.9,319.6c1.7-1,3.4-1.9,5-3.1c0.1-0.1,0.4,0.2,0.3,0.3c-1.5,1.3-3.2,2.4-5,3.2
			C85,320,84.7,319.7,84.9,319.6z"/>
		<path class="st7" d="M92.9,293.5c1.3-1.2,2.7-2.3,4-3.3c1.4-1,2.6-2.3,3.9-3.3c0.1-0.1,0.4,0.1,0.3,0.3c-2.6,2.4-4.9,4.9-8,6.7
			C93,293.9,92.7,293.7,92.9,293.5z"/>
	</g>
	<g>
		<g>
			<g>
				<path class="st4" d="M141.1,275.6c-3.5-3.3-7.7-3.7-12.3-4.3c-0.2,0-0.8,0.4-0.5,0.6c1.7,1.1,4.1,0.9,6,1.2
					c2.4,0.5,4.5,1.4,6.5,2.8C141,276,141.2,275.8,141.1,275.6z"/>
				<path class="st5" d="M140.8,276.2L140.8,276.2c0,0-0.1,0-0.1-0.1c-2.1-1.4-4.2-2.3-6.4-2.7c-0.6-0.1-1.2-0.2-1.9-0.2
					c-0.6-0.1-1.2-0.1-1.8-0.2c-1-0.2-1.7-0.4-2.4-0.8c-0.2-0.1-0.3-0.3-0.2-0.5c0.1-0.3,0.5-0.5,0.8-0.5l1.1,0.1
					c0.9,0.1,1.8,0.3,2.7,0.4c2.9,0.5,6,1.3,8.7,3.8c0.1,0.1,0.2,0.3,0.1,0.4C141.2,276.1,141,276.2,140.8,276.2z M134.1,272.8
					c0.1,0,0.2,0,0.2,0c2,0.4,3.9,1.1,5.7,2.2c-2.4-1.9-5-2.6-7.6-3c-0.9-0.1-1.8-0.3-2.7-0.4l-1.1-0.1c-0.1,0-0.2,0.1-0.2,0.1
					c0.5,0.3,1.2,0.6,2.1,0.7c0.6,0.1,1.2,0.2,1.8,0.2C133,272.7,133.5,272.7,134.1,272.8z"/>
			</g>
			<g>
				<path class="st4" d="M128.6,282.8c-2.5-2.3-4.1-5.7-5-8.9c-0.7-2.3-0.2-5-1.6-7.1c-0.2-0.3-1,0.1-0.8,0.5c1.1,2.8,1,5.9,2.2,8.8
					c1,2.7,2.8,5.3,5,7C128.4,283.2,128.7,282.9,128.6,282.8z"/>
				<path class="st5" d="M128.3,283.4c-0.1,0-0.1,0-0.2-0.1c-2.1-1.6-4-4.2-5.1-7.1c-0.6-1.5-0.8-3-1.1-4.4
					c-0.2-1.4-0.5-2.9-1.1-4.3c-0.1-0.2,0-0.4,0.1-0.6c0.2-0.2,0.5-0.4,0.8-0.4c0.1,0,0.3,0.1,0.3,0.2c0.9,1.3,1.1,2.9,1.2,4.4
					c0.1,0.9,0.2,1.9,0.5,2.7c1.2,3.9,2.8,6.8,5,8.7c0.1,0.1,0.2,0.3,0.1,0.5C128.7,283.3,128.5,283.4,128.3,283.4z M121.7,267
					c-0.1,0-0.2,0-0.3,0.1c-0.1,0.1-0.1,0.1-0.1,0.1c0.6,1.4,0.8,3,1.1,4.4c0.3,1.4,0.5,2.9,1.1,4.3c1,2.6,2.6,4.8,4.4,6.4
					c-1.9-2-3.4-4.8-4.5-8.4c-0.3-0.9-0.4-1.9-0.5-2.8C122.6,269.6,122.5,268.2,121.7,267L121.7,267z"/>
			</g>
			<g>
				<path class="st4" d="M84.7,262.7c-5.2,0.7-13.5,2.2-15.9,7.7c-0.1,0.2,0.2,0.1,0.3,0c3.5-5,9.1-4.8,14.3-6.6
					C83.6,263.8,85,262.7,84.7,262.7z"/>
				<path class="st5" d="M68.8,270.8L68.8,270.8c-0.1,0-0.2-0.1-0.2-0.2s-0.1-0.2,0-0.3c2.4-5.4,10.4-7.1,16.1-7.9
					c0.1,0,0.3,0.1,0.3,0.3c0,0.4-1.5,1.4-1.5,1.4c-1.4,0.5-2.9,0.8-4.3,1.2c-3.8,0.9-7.5,1.8-9.9,5.4
					C69.2,270.8,69,270.9,68.8,270.8z M84,263.1c-4.8,0.7-10.9,2.1-13.9,5.7c2.5-2.5,5.6-3.2,8.9-4c1.4-0.3,2.8-0.7,4.2-1.2
					C83.4,263.6,83.7,263.3,84,263.1z"/>
			</g>
			<g>
				<path class="st4" d="M98.3,259c-0.3,0.1-0.6,0.2-0.9,0.4c0,0-0.1,0-0.2,0c-1.6,0.7-2.5,2.1-3,3.7c-0.3,0.6-0.5,1.2-0.8,1.8
					c-1.5,4.1-3.2,7.2-6.8,9.9c-0.4,0.3-0.1,0.7,0.3,0.4c0.1-0.1,0.2-0.2,0.4-0.2c2.3-1,4.1-2.9,5.6-4.9c2.3-3.2,2.9-7.5,5.7-10.3
					C98.9,259.4,98.8,258.9,98.3,259z"/>
				<path class="st5" d="M86.6,275.5L86.6,275.5c-0.2,0-0.3-0.2-0.4-0.3c-0.1-0.2,0-0.4,0.3-0.6c3.5-2.6,5.2-5.7,6.7-9.8
					c0.3-0.7,0.5-1.3,0.8-1.8c0.5-1.3,1.3-2.9,3.2-3.8c0.1,0,0.1,0,0.2-0.1c0.3-0.2,0.6-0.3,0.9-0.3c0.3-0.1,0.6,0.1,0.7,0.3
					c0.1,0.2,0,0.5-0.2,0.7c-1.6,1.6-2.5,3.7-3.3,5.7c-0.7,1.6-1.4,3.2-2.4,4.6c-1.8,2.6-3.6,4.1-5.7,5l-0.1,0.1
					c-0.1,0-0.1,0.1-0.2,0.1C86.9,275.5,86.7,275.5,86.6,275.5z M97.4,259.6c-1.3,0.6-2.2,1.7-2.9,3.5c-0.3,0.5-0.5,1.1-0.8,1.8
					c-1.5,4-3.2,7.1-6.6,9.8l0,0c2-0.9,3.7-2.4,5.5-4.9c1-1.4,1.7-3,2.3-4.5c0.9-2.1,1.8-4.2,3.4-5.9c0.1-0.1,0.1-0.2,0.1-0.2h-0.1
					c-0.3,0.1-0.6,0.2-0.8,0.3C97.5,259.6,97.4,259.7,97.4,259.6z"/>
			</g>
			<g>
				<path class="st4" d="M127.4,264.3c-3.2-4-9.3-3.3-12.2-7.4c-0.1-0.2-0.5,0.1-0.5,0.3c0.5,1.6,1.5,2.5,3,3.1
					c3.3,1.3,6.7,1.6,9.3,4.3C127.2,264.8,127.5,264.5,127.4,264.3z"/>
				<path class="st5" d="M127,264.9c-0.1,0-0.2-0.1-0.2-0.1c-1.8-1.8-4-2.5-6.3-3.2c-1-0.3-1.9-0.6-2.9-1c-1.8-0.7-2.7-1.7-3.2-3.3
					c0-0.2,0-0.3,0.1-0.5c0.2-0.3,0.6-0.3,0.8,0c1.4,2,3.6,2.8,6,3.7c2.3,0.8,4.6,1.7,6.2,3.7c0.1,0.1,0.1,0.3,0,0.5
					C127.5,264.8,127.3,264.9,127,264.9z M115,257.1C115,257.2,115,257.2,115,257.1c0.3,1.4,1.2,2.3,2.8,2.9c0.9,0.4,1.9,0.7,2.9,1
					c2.3,0.7,4.4,1.4,6.3,3.1c-1.5-1.7-3.7-2.5-5.7-3.2C118.9,260.1,116.6,259.3,115,257.1z"/>
			</g>
			<g>
				<path class="st4" d="M130.2,288.1c-4.6-2.4-10.3-1.7-15-3.3c-0.2-0.1,0.2,0.3,0.4,0.5c1.1,1.5,3.2,1.4,4.9,1.4
					c3.3,0,6.4,0.6,9.6,1.6C130.1,288.4,130.4,288.2,130.2,288.1z"/>
				<path class="st5" d="M117.8,286.9c-1.1-0.2-1.9-0.6-2.5-1.4c0-0.1-0.1-0.1-0.2-0.2c-0.2-0.3-0.4-0.4-0.3-0.6
					c0.1-0.1,0.2-0.2,0.4-0.1c0.9,0.3,1.9,0.6,3.2,0.8c1,0.2,2.1,0.3,3.2,0.4s2.2,0.3,3.3,0.4c2.2,0.4,4,0.9,5.4,1.7
					c0.2,0.1,0.2,0.2,0.2,0.4c-0.1,0.2-0.3,0.4-0.5,0.3l0,0c0,0,0,0-0.1,0c-3.2-1.1-6.2-1.6-9.5-1.6H120
					C119.3,287,118.5,287,117.8,286.9z M115.8,285.3c0.5,0.6,1.1,0.9,2.1,1.1c0.7,0.1,1.4,0.1,2.1,0.1h0.5c2.8,0,5.3,0.4,8,1.1
					c-1-0.4-2.2-0.7-3.6-0.9c-1.1-0.2-2.2-0.3-3.2-0.4c-1.1-0.1-2.2-0.3-3.2-0.4C117.4,285.7,116.6,285.5,115.8,285.3z"/>
			</g>
			<g>
				<path class="st4" d="M128.2,298.1c-0.5-2-0.3-4-1.7-5.6c-0.1-0.2-1.2-0.2-1.1,0c2.3,3.9,1.9,9,5,12.4
					C130.6,305.1,128.8,300.6,128.2,298.1z"/>
				<path class="st5" d="M130.4,305.3c0,0-0.1,0-0.2-0.1c-1.8-2-2.5-4.6-3.1-7c-0.5-1.9-1-3.8-2-5.5c-0.1-0.1-0.1-0.2,0-0.3
					c0.2-0.3,1-0.2,1.1-0.2c0.2,0,0.4,0.1,0.5,0.2c1,1.2,1.2,2.6,1.4,4c0.1,0.5,0.2,1.1,0.3,1.6c0.4,1.7,1.4,4.4,1.9,5.8
					c0.4,1.2,0.4,1.2,0.3,1.3C130.6,305.2,130.5,305.3,130.4,305.3z M125.8,292.7c0.9,1.7,1.4,3.5,1.9,5.3c0.5,2,1,3.9,2,5.5
					c-0.5-1.5-1.3-3.8-1.7-5.3c-0.1-0.6-0.2-1.1-0.3-1.7c-0.2-1.4-0.4-2.7-1.3-3.8c0,0,0,0-0.2,0
					C126.1,292.7,125.9,292.7,125.8,292.7z"/>
			</g>
			<g>
				<path class="st4" d="M136.9,303.5c-0.5-1-0.9-2-1.2-3.1c-0.3-1-0.4-2.1-0.8-3c-0.1-0.2-0.5,0-0.5,0.2
					C134.4,300.8,137,303.7,136.9,303.5z"/>
				<path class="st5" d="M136.8,303.8L136.8,303.8c-0.3-0.1-2.7-3-2.7-6.2c0-0.1,0.1-0.3,0.2-0.4c0.3-0.2,0.7-0.2,0.8,0.1
					c0.2,0.6,0.4,1.2,0.5,1.8c0.1,0.4,0.2,0.8,0.3,1.2c0.3,1,0.7,2,1.2,3.1c0,0.1,0,0.2,0,0.3C137,303.7,136.9,303.8,136.8,303.8z
					 M134.7,297.6L134.7,297.6c0,1.4,0.5,2.7,1,3.7c-0.1-0.3-0.2-0.6-0.3-0.8c-0.1-0.4-0.2-0.8-0.3-1.2
					C135,298.7,134.9,298.1,134.7,297.6z"/>
			</g>
			<g>
				<path class="st4" d="M119.6,314.5c-0.8-2.9-0.9-5.7-0.8-8.7c0.1-2,0.2-4-1-5.7c-0.1-0.2-0.5,0.1-0.4,0.2
					c1.1,4.9-0.5,9.7,1.9,14.4C119.3,314.8,119.6,314.6,119.6,314.5z"/>
				<path class="st5" d="M119.2,315L119.2,315c-0.1,0-0.2-0.1-0.3-0.2c-1.4-2.9-1.4-5.8-1.4-8.6c0-1.9,0-3.9-0.4-5.8
					c0-0.1,0-0.3,0.1-0.4s0.3-0.2,0.5-0.2c0.1,0,0.2,0.1,0.3,0.2c1.2,1.7,1.1,3.6,1,5.4v0.4c-0.1,3.3,0.1,6.1,0.8,8.6
					c0,0.1,0,0.3-0.1,0.4S119.4,315,119.2,315z M117.6,300.3c0.4,2,0.4,4,0.4,5.9c0,2.7,0,5.3,1.1,7.8c-0.6-2.5-0.8-5.1-0.7-8.3
					v-0.4C118.6,303.5,118.6,301.8,117.6,300.3L117.6,300.3z"/>
			</g>
			<g>
				<path class="st4" d="M95.6,291.9c0.1-1.2,0.1-2.3,0-3.5c-0.2-1.8,0.1-3.2,0.3-4.9c0-0.2-0.7,0.2-0.7,0.3c-1.1,1.8-1,3.1-0.7,5.2
					c0.3,2.9,0.3,5.4-0.7,8.3c-0.1,0.3,0.4,0.2,0.5,0C95.1,295.6,95.4,293.6,95.6,291.9z"/>
				<path class="st5" d="M93.8,297.6L93.8,297.6c-0.1,0-0.2-0.1-0.3-0.2c0-0.1-0.1-0.2,0-0.4c0.9-2.5,1.1-4.9,0.7-8.1
					c-0.2-2-0.4-3.4,0.8-5.3c0.1-0.2,0.7-0.5,0.9-0.4c0.2,0,0.3,0.2,0.3,0.4c-0.3,1.7-0.5,3.1-0.3,4.9c0.1,1,0.2,2.3,0,3.6
					c-0.2,1.7-0.5,3.8-1.4,5.4C94.3,297.5,94,297.6,93.8,297.6z M95.6,283.7c-0.1,0-0.2,0.1-0.2,0.1c-1,1.7-0.9,3-0.7,5
					c0.4,3.2,0.2,5.5-0.6,7.9c0.8-1.5,1-3.4,1.2-4.9c0.2-1.3,0.1-2.5,0-3.5C95.2,286.7,95.4,285.3,95.6,283.7z"/>
			</g>
			<g>
				<path class="st4" d="M99.8,279.1L99.8,279.1c-6,2.5-15.2,0.7-19.5,6.4c-0.2,0.2,0.1,0.3,0.3,0.2c1.2-1,2.4-1.7,3.8-2.2
					c0.6-0.2,1.3-0.4,2-0.6c0.4-0.1,0.9-0.2,1.3-0.3c1.5-0.3,3-0.4,4.5-0.5c2.6-0.2,6-0.3,7.9-2.4C100.4,279.3,100.2,279,99.8,279.1
					z"/>
				<path class="st5" d="M80.3,285.9L80.3,285.9c-0.2,0-0.3-0.1-0.3-0.2s-0.1-0.2,0.1-0.4c2.8-3.7,7.5-4.3,12.1-4.9
					c2.7-0.4,5.3-0.7,7.4-1.6c0.1,0,0.2,0,0.2,0l0,0c0.3,0,0.6,0.1,0.6,0.4c0.1,0.2,0.1,0.4-0.2,0.7c-1.9,2.1-5.2,2.3-7.9,2.4h-0.2
					c-1.3,0.1-2.9,0.2-4.5,0.5c-0.5,0.1-0.9,0.2-1.3,0.3l-0.3,0.1c-0.5,0.1-1.1,0.3-1.7,0.5c-1.4,0.5-2.6,1.2-3.7,2.1
					C80.7,285.9,80.5,286,80.3,285.9z M99.8,279.3c-2.2,0.9-4.9,1.3-7.5,1.6c-4.2,0.5-8.5,1.1-11.2,4c1-0.7,2.1-1.3,3.3-1.8
					c0.6-0.2,1.1-0.3,1.7-0.5l0.3-0.1c0.4-0.1,0.8-0.2,1.3-0.3c1.6-0.3,3.3-0.4,4.5-0.5h0.2c2.5-0.1,5.7-0.3,7.5-2.3
					c0.1-0.1,0.1-0.2,0.1-0.2s0,0-0.1,0C99.9,279.3,99.9,279.3,99.8,279.3L99.8,279.3z"/>
			</g>
			<g>
				<path class="st4" d="M92.7,260L92.7,260c-4.9,0-10.7-4-15.3-1.3c-0.2,0.1,0,0.3,0.2,0.2c1.1-0.3,2.2-0.4,3.3-0.4
					c0.5,0,1,0.1,1.5,0.2c0.3,0,0.7,0.1,1,0.2c1.1,0.2,2.2,0.6,3.3,1c1.9,0.7,4.2,1.5,6.1,0.7C93.1,260.3,93,260.1,92.7,260z"/>
				<path class="st5" d="M77.4,259.2c-0.2,0-0.3-0.2-0.4-0.3c0-0.1,0-0.3,0.2-0.4c1.6-0.9,3.5-1.2,6-0.7c1.3,0.2,2.6,0.6,3.8,0.9
					c1.2,0.3,2.5,0.7,3.7,0.9c0.7,0.1,1.3,0.2,1.9,0.2c0.1,0,0.2,0,0.2,0.1c0.2,0.1,0.4,0.3,0.4,0.5c0,0.1,0,0.4-0.4,0.5
					c-0.9,0.4-1.9,0.5-3.1,0.3c-1.1-0.2-2.1-0.6-3.1-0.9l-0.1-0.1c-0.9-0.3-2.1-0.7-3.2-1c-0.3-0.1-0.7-0.1-1-0.2h-0.2
					c-0.4-0.1-0.9-0.1-1.3-0.2c-1.1,0-2.1,0.1-3.2,0.4C77.5,259.2,77.5,259.2,77.4,259.2z M82.8,258.5c0.2,0,0.4,0.1,0.6,0.1
					c1.2,0.3,2.3,0.7,3.3,1l0.1,0.1c0.9,0.3,1.9,0.7,3,0.9c1.1,0.2,2.1,0.1,2.8-0.2c0,0,0,0,0.1,0l0,0c0,0,0,0-0.1,0
					c-0.6,0-1.2-0.1-2-0.2c-1.2-0.2-2.5-0.6-3.7-0.9c-1.2-0.4-2.5-0.7-3.8-0.9c-1.7-0.3-3.2-0.2-4.4,0.2c0.7-0.1,1.3-0.1,2.1-0.1
					c0.5,0,0.9,0.1,1.3,0.2h0.2C82.5,258.5,82.6,258.5,82.8,258.5z"/>
			</g>
			<g>
				<path class="st4" d="M110.7,249.5c0,0-0.5,0.1-0.7,0.5c-0.3,0.4-2.5,5.7-7.1,7.4c-4.6,1.7-15,2.9-21.1,6.7
					c-6.1,3.8-7.2,8.3-7.2,8.3s-0.1,0.6,0.2,0.3c0.3-0.3,2.7-6.8,11.4-9.8s18.3-2.9,22.6-8.1C108.8,254.8,112.6,249.4,110.7,249.5z"
					/>
				<path class="st5" d="M74.6,273L74.6,273c-0.1,0-0.4-0.1-0.3-0.7c0-0.2,1.2-4.6,7.3-8.5c4-2.5,10-3.9,14.9-5.1
					c2.5-0.6,4.7-1.1,6.3-1.7c2.7-1,5-3.3,6.8-7c0.1-0.2,0.1-0.3,0.2-0.3c0.3-0.5,0.9-0.6,0.9-0.6c0.1,0,0.2,0,0.3,0
					c0.2,0,0.4,0.2,0.5,0.4c0.5,1.1-1.9,4.6-2.4,5.3c-2.9,3.6-8.3,4.8-14,6c-2.9,0.6-5.9,1.3-8.8,2.2c-5,1.7-8.7,4.8-11,9.3
					c-0.2,0.3-0.2,0.4-0.3,0.5C74.9,272.9,74.8,273.1,74.6,273z M110.7,249.8c0,0-0.4,0.1-0.5,0.4c0,0-0.1,0.1-0.1,0.3
					c-1.9,3.7-4.3,6.2-7.1,7.2c-1.6,0.6-3.8,1.1-6.3,1.7c-4.8,1.1-10.7,2.5-14.7,5c-4.1,2.5-5.9,5.4-6.6,7c2.4-4.1,6.1-7,10.8-8.6
					c2.9-1,5.9-1.6,8.8-2.3c5.6-1.2,10.9-2.3,13.7-5.8c1.1-1.6,2.6-4.2,2.3-4.8C110.9,249.8,110.9,249.8,110.7,249.8z"/>
			</g>
			<g>
				<path class="st4" d="M108.7,265.7c-0.4-0.4-0.8,0-0.9,0.7c-0.4,1.5-0.2,5-4.9,9.3c-3.6,3.3-15.4,10.6-14.4,22.2
					c0,0,0.1,0.7,0.5,0.4c0.3-0.3-1.4-6,6.9-14.4s11.5-9.4,12.9-14.1c0.3-1.1,0.8-2.7,0.2-3.8C108.9,265.9,108.8,265.8,108.7,265.7z
					"/>
				<path class="st5" d="M88.8,298.6L88.8,298.6c-0.3-0.1-0.5-0.5-0.5-0.7c-0.9-10,7.7-16.9,12.4-20.7c0.8-0.7,1.6-1.3,2.1-1.8
					c3.9-3.6,4.4-6.5,4.6-8.3c0.1-0.3,0.1-0.6,0.2-0.9c0.2-0.7,0.5-1.1,1-1c0.1,0,0.3,0.1,0.4,0.2s0.2,0.2,0.2,0.3
					c0.6,1.1,0.2,2.6-0.1,3.7l-0.1,0.2c-0.9,3.1-2.6,4.6-6,7.7c-1.8,1.6-4,3.6-6.9,6.5c-6.9,7-6.8,12-6.8,13.7c0,0.4,0,0.6-0.1,0.7
					C89,298.6,88.9,298.6,88.8,298.6z M108.4,265.8c-0.1,0-0.3,0.2-0.4,0.6c-0.1,0.2-0.1,0.5-0.2,0.8c-0.3,1.7-0.8,4.9-4.8,8.6
					c-0.5,0.5-1.3,1.1-2.1,1.8c-4.8,3.9-12.9,10.4-12.2,20c0-1.8,0.1-7,6.9-13.9c2.9-2.9,5.1-4.9,6.9-6.6c3.3-3,5-4.5,5.9-7.4
					l0.1-0.2c0.3-1.1,0.7-2.4,0.2-3.3c-0.1-0.1-0.1-0.2-0.2-0.2C108.5,265.8,108.5,265.8,108.4,265.8z"/>
			</g>
			<g>
				<path class="st4" d="M109.4,281c0,0-0.4,0.6-0.9,1.7s-1.4,2.3-2.8,3.7c-1.4,1.4-3.3,5.4-3,6.7c0,0,0,0.6,0.3-0.1
					s0.1-2.7,2.9-5.3c2.8-2.6,3.6-2.5,4-4.4C110.2,281.3,109.4,281,109.4,281z"/>
				<path class="st5" d="M102.7,293.6L102.7,293.6c-0.2,0-0.3-0.2-0.3-0.5c-0.3-1.4,1.6-5.5,3-6.9c1.3-1.3,2.2-2.5,2.7-3.6
					s1-1.7,1-1.8c0.1-0.1,0.2-0.1,0.3-0.1c0.1,0,1,0.5,0.6,2.6c-0.3,1.4-0.8,1.8-2,2.8c-0.5,0.4-1.2,1-2.1,1.8
					c-2.1,2-2.4,3.6-2.6,4.6c-0.1,0.3-0.1,0.5-0.2,0.7C103.2,293.3,103,293.7,102.7,293.6z M109.4,281.4c-0.2,0.3-0.5,0.8-0.8,1.5
					c-0.6,1.2-1.5,2.5-2.8,3.8c-0.7,0.7-1.6,2.2-2.2,3.6c0.4-0.8,1-1.7,2.1-2.6c0.9-0.8,1.6-1.4,2.1-1.8c1.1-0.9,1.5-1.2,1.8-2.5
					C109.8,282.1,109.6,281.6,109.4,281.4z"/>
			</g>
			<g>
				<path class="st4" d="M115,250.6c0,0-0.9,2.9,1.4,8.9s6.5,8,13.8,12.9c7.3,4.9,9.4,9.7,9.2,10.1c-0.1,0.4-0.4-0.2-0.4-0.2
					c-3.5-7.9-16.5-12.2-21-18.3c-4.5-6.1-4.7-10.4-4.4-12.8c0.3-2.4,1.7-4.4,1.7-4.4s0.7-0.9,0.3,1.1
					C115.2,249.9,115,250.6,115,250.6z"/>
				<path class="st5" d="M139.2,282.9c-0.2,0-0.4-0.3-0.5-0.5c-2-4.4-7-7.7-11.9-10.9c-3.7-2.4-7.1-4.7-9.1-7.3c-3.4-4.6-5-9-4.5-13
					c0.3-2.5,1.7-4.5,1.8-4.5c0.1-0.1,0.3-0.3,0.6-0.3c0.1,0,0.2,0.1,0.3,0.2c0.1,0.2,0.2,0.4,0,1.4c-0.4,2-0.6,2.6-0.7,2.7
					c0,0-0.8,2.9,1.4,8.8c1.9,5.1,5.3,7.3,10.8,10.9c0.9,0.6,1.9,1.2,2.9,1.9c7.1,4.8,9.6,9.7,9.3,10.4
					C139.6,282.8,139.4,282.9,139.2,282.9z M115.5,247L115.5,247c0,0-1.4,1.9-1.7,4.3c-0.4,3.9,1,8.1,4.4,12.6
					c1.9,2.6,5.3,4.8,9,7.2c3.5,2.3,7,4.6,9.5,7.4c-1.4-1.7-3.5-3.7-6.7-5.8c-1-0.7-2-1.3-2.9-1.9c-5.7-3.7-9.1-5.9-11-11.2
					c-2.3-6-1.4-9-1.4-9.1c0,0,0.3-0.7,0.6-2.6C115.5,247.4,115.5,247.1,115.5,247z"/>
			</g>
			<g>
				<path class="st4" d="M111.2,287c0,0,0,4.1,2.3,8.6c2.4,4.5,8.6,8.2,8.9,14.8c0,0,0.1,0.5,0.4,0.1s-0.7-5.6-3.7-8.9
					c-3-3.4-6.8-10.8-7.6-18.5C111.6,283.1,111.1,285.2,111.2,287z"/>
				<path class="st5" d="M122.6,310.9L122.6,310.9c-0.3-0.1-0.4-0.4-0.4-0.5c-0.2-4.3-2.8-7.3-5.3-10.1c-1.4-1.6-2.7-3-3.5-4.6
					c-2.4-4.5-2.4-8.5-2.4-8.7c-0.1-1.7,0.4-3.8,0.4-3.9s0.1-0.2,0.3-0.2c0.1,0,0.2,0.1,0.2,0.2c0.8,7.3,4.4,14.8,7.5,18.4
					c2.9,3.3,4.1,8.7,3.7,9.3C122.9,310.9,122.7,311,122.6,310.9z M122.6,309.5c0,0.2,0.1,0.5,0.1,0.8
					C122.7,310.1,122.6,309.9,122.6,309.5z M111.5,284.8c-0.1,0.7-0.1,1.5-0.1,2.2c0,0.1,0,4.1,2.3,8.5c0.8,1.6,2.1,3,3.4,4.5
					c1.5,1.7,3.1,3.5,4.2,5.7c-0.6-1.3-1.4-2.7-2.4-3.8C116,298.4,112.7,291.7,111.5,284.8z"/>
			</g>
			<g>
				<path class="st4" d="M110.8,294.5c0.1-0.6,0.2-1.3,0.2-2c0-0.2-0.3,0-0.3,0.1c-0.6,2.7-1.5,4.9-3.3,7c-1.4,1.6-3.2,2.9-4.8,4.3
					c-0.3,0.3-0.6,0.5-0.9,0.8c-2,1-3.9,2-5.5,3.6c-1.3,1.4-2.7,3.8-2.1,5.8c0,0.1,0.2,0,0.2-0.1c0.6-3.8,3.1-5.7,5.9-7.5
					c-1,1.5-1.5,3.2-1.2,5c0,0.2,0.3,0,0.3-0.1c0-0.3,0.1-0.5,0.1-0.8c0.7-1.8,1.3-3.5,2.7-5c1.6-1.7,3.8-2.8,5.6-4.2
					c2-1.6,3-4.3,3.4-6.7C111.1,294.4,111,294.4,110.8,294.5z"/>
				<path class="st5" d="M94.1,314.3c-0.1,0-0.2-0.1-0.2-0.2c-0.7-2,0.7-4.5,2.2-6c1.6-1.7,3.6-2.7,5.5-3.6c0.3-0.3,0.6-0.6,0.9-0.8
					c0.5-0.4,1-0.8,1.5-1.2c1.1-1,2.3-1.9,3.3-3c1.6-1.8,2.6-3.8,3.3-6.8c0-0.2,0.3-0.4,0.6-0.4c0.1,0,0.3,0.1,0.3,0.4
					c0,0.6-0.1,1.2-0.2,1.7c0.2,0.1,0.3,0.2,0.3,0.5c-0.2,1.4-1,4.9-3.5,6.8c-0.7,0.5-1.4,1-2.2,1.5c-1.2,0.8-2.4,1.6-3.4,2.6
					c-1.4,1.4-2,3.1-2.6,4.8v0.1c0,0.2-0.1,0.4-0.1,0.7c0,0.2-0.1,0.3-0.2,0.3c-0.1,0.1-0.3,0.1-0.4,0.1l0,0c-0.1,0-0.3-0.1-0.3-0.3
					c-0.2-1.4,0-2.8,0.7-4.2c-2.4,1.6-4.4,3.4-4.9,6.7c0,0.1-0.1,0.2-0.2,0.3C94.3,314.3,94.2,314.3,94.1,314.3z M110.6,293.6
					c-0.7,2.5-1.6,4.4-3.1,6c-1,1.1-2.2,2.1-3.3,3.1c-0.5,0.4-1,0.8-1.4,1.2c-0.3,0.3-0.6,0.5-0.9,0.8c0,0,0,0-0.1,0.1
					c-1.9,0.9-3.8,2-5.4,3.6c-1,1-2.3,3-2.2,4.7c0.8-3.4,3.1-5.1,5.9-6.9c0.1-0.1,0.2-0.1,0.3,0c0.1,0.1,0.1,0.2,0,0.3
					c-0.9,1.3-1.3,2.7-1.3,4v-0.1v-0.1c0.6-1.8,1.3-3.5,2.7-5c1-1.1,2.3-1.9,3.5-2.7c0.7-0.5,1.5-1,2.1-1.5c2.3-1.8,3.1-5,3.3-6.4
					c-0.1,0-0.2,0-0.2-0.1c-0.1-0.1-0.1-0.2-0.1-0.2C110.6,294.1,110.6,293.9,110.6,293.6z"/>
			</g>
			<g>
				<path class="st4" d="M109.1,301.1c0-0.3-0.4-0.1-0.5,0.1c-0.4,2.8,0.4,5.1,1.5,7.6c1.2,2.6,2,5.2,2.5,8c0,0.2,0.3,0,0.3-0.1
					C113.2,311.1,108.7,306.7,109.1,301.1z"/>
				<path class="st5" d="M112.6,317.2L112.6,317.2c-0.1,0-0.2-0.1-0.3-0.3c-0.4-2.6-1.2-5.2-2.4-8c-1.2-2.8-1.9-5.1-1.5-7.8
					c0-0.1,0.1-0.3,0.2-0.4c0.1,0,0.2-0.2,0.4-0.1c0.2,0,0.3,0.2,0.3,0.4c-0.2,2.8,0.9,5.3,1.9,7.7c1,2.5,2.1,5,1.9,7.9
					c0,0.1-0.1,0.2-0.2,0.3C112.9,317.1,112.8,317.2,112.6,317.2z M108.8,301.7c-0.3,2.4,0.4,4.5,1.5,7c1.1,2.4,1.8,4.7,2.3,7
					c-0.1-2.4-1-4.5-1.9-6.6C109.8,306.7,108.8,304.3,108.8,301.7z"/>
			</g>
			<g>
				<path class="st4" d="M126.7,310c-1.2-2.4-3.8-4.5-5.8-6.2c-0.2-0.2-0.1,0.8,0.1,1c1.4,1.5,2.9,2.2,4.2,4.2
					c1.4,2.1,2.4,5.4,2.6,7.9c0,0.2,0.3,0,0.3-0.1C128.3,314.4,127.7,312.2,126.7,310z"/>
				<path class="st5" d="M127.8,317.2L127.8,317.2c-0.2,0-0.3-0.1-0.3-0.3c-0.2-2.2-1.1-5.6-2.5-7.7c-0.8-1.2-1.6-1.9-2.5-2.6
					c-0.6-0.5-1.1-0.9-1.7-1.5c-0.2-0.2-0.3-1.1-0.2-1.3c0.1-0.1,0.2-0.2,0.3-0.2c0.1,0,0.1,0,0.2,0.1l0.4,0.4
					c2,1.7,4.3,3.6,5.4,5.9c1.2,2.3,1.6,4.6,1.4,6.9c0,0.1-0.1,0.2-0.2,0.3C128.1,317.2,127.9,317.3,127.8,317.2z M121,304.3
					c0,0.2,0.1,0.3,0.1,0.4c0.5,0.6,1.1,1,1.6,1.5c0.9,0.7,1.8,1.5,2.6,2.7c1.2,1.8,2.1,4.6,2.5,6.7c0-1.9-0.5-3.7-1.4-5.5
					C125.3,307.9,123.1,306,121,304.3L121,304.3z"/>
			</g>
			<g>
				<path class="st4" d="M140,305.4c-0.8-7.7-9.6-10.9-15.4-14.2c-3.8-2.1-7.5-4.3-10.2-7.7c-2.7-3.4-3.3-7.4-3.6-11.6
					c0-0.1-0.2,0-0.3,0.1c-1.1,7.8,2.7,13.7,9.2,17.7c7.1,4.5,17.7,6.6,19.9,15.8C139.7,305.8,140.1,305.5,140,305.4z"/>
				<path class="st5" d="M139.7,305.9L139.7,305.9c-0.1,0-0.3-0.1-0.3-0.3c-1.6-6.7-7.7-9.6-13.6-12.4c-2.1-1-4.3-2.1-6.2-3.2
					c-7.1-4.4-10.3-10.7-9.3-18c0-0.1,0.1-0.2,0.2-0.3c0.1,0,0.2-0.1,0.3-0.1c0.1,0,0.2,0.1,0.3,0.3c0.3,3.9,0.8,8,3.6,11.5
					c2.7,3.4,6.5,5.6,10.1,7.7c0.9,0.5,1.9,1.1,3,1.6c5.5,2.9,11.8,6.2,12.6,12.8c0,0.1,0,0.3-0.2,0.4
					C140,305.9,139.9,305.9,139.7,305.9z M110.7,273.3c-0.4,6.5,2.7,12.1,9.2,16.2c1.9,1.2,3.9,2.2,6.1,3.2
					c5.7,2.7,11.6,5.6,13.6,11.8c-1.2-5.7-7-8.7-12.1-11.4c-1.1-0.6-2.1-1.1-3-1.6c-3.7-2.1-7.5-4.3-10.3-7.8
					C111.7,280.5,111,276.9,110.7,273.3z"/>
			</g>
			<g>
				<path class="st4" d="M111.2,263.6c0-0.2-0.4,0-0.4,0.1c-2.1,5.9,6.9,8.8,7.1,14.6c0,0.3,0.4,0.1,0.5-0.1
					C119,272.3,112.1,269.1,111.2,263.6z"/>
				<path class="st5" d="M117.9,278.8L117.9,278.8c-0.2,0-0.3-0.2-0.3-0.4c-0.1-2.5-1.9-4.6-3.7-6.5c-2.2-2.4-4.5-4.9-3.3-8.2
					c0.1-0.2,0.4-0.4,0.6-0.4s0.3,0.1,0.3,0.3c0.4,2.4,2,4.4,3.5,6.3c2,2.5,4,5,3.6,8.4c0,0.1-0.1,0.3-0.2,0.4
					C118.2,278.7,118.1,278.8,117.9,278.8z M111,263.9c-1,3,1.1,5.2,3.2,7.6c1.8,1.9,3.6,3.9,3.8,6.4c0.2-3-1.6-5.3-3.5-7.7
					C113.1,268.3,111.5,266.3,111,263.9z"/>
			</g>
		</g>
		<g>
			<path class="st4" d="M115.7,246.4c0.4-1.1,0.8-2.2,1.2-3.3c-1.5,0-2.9-0.5-3.8-1.4c-0.8,2.2-1.6,4.2-2.2,6.1
				c-2.5,7.3-2.8,12.5-2.5,23.7c0.3,11.1,2.6,19.8,1.8,24.1c-0.8,4.3-4.4,11.4-3,16c0,0,0-4.8,2-10s3.4-8.8,2.2-20.9
				C110.2,268.5,110.9,259.5,115.7,246.4z"/>
			<path class="st5" d="M115.9,246.5c-5,13.9-5.4,23-4.3,34.1c1.2,12.2-0.3,15.9-2.2,21c-2,5.1-2,9.8-2,9.9s-0.1,0.2-0.2,0.3h-0.1
				c-0.1,0-0.2-0.1-0.2-0.2c-1-3.3,0.4-7.7,1.7-11.5c0.5-1.7,1-3.3,1.3-4.6c0.4-2.2,0-5.7-0.6-10.1c-0.5-3.9-1.1-8.7-1.2-14
				c-0.3-11.5,0-16.5,2.5-23.7c0.7-1.9,1.4-4,2.2-6.1c0-0.1,0.1-0.1,0.2-0.2c0.1,0,0.2,0,0.2,0.1c0.6,0.6,1.5,1.1,2.6,1.3
				c0.3,0.1,0.7,0.1,1.1,0.1c0.1,0,0.2,0,0.2,0.1c0.1,0.1,0.1,0.2,0,0.2 M113.1,242.1c-0.7,1.9-1.4,3.9-2.1,5.7
				c-2.5,7.2-2.8,12.2-2.5,23.6c0.1,5.2,0.7,10,1.2,13.9c0.5,4.4,1,8,0.5,10.3c-0.3,1.3-0.8,2.9-1.3,4.6c-0.9,2.9-2,6.1-2,8.8
				c0.2-1.9,0.7-4.7,1.9-7.6c2-5,3.4-8.7,2.2-20.8c-1.1-11.2-0.7-20.4,4.3-34.4l1.1-2.9C115.2,243.3,114,242.8,113.1,242.1z"/>
		</g>
		<path class="st6" d="M110.1,260c-0.9,6.3-0.4,12.4,0.4,18.6c0.6,5.5,1,10.9,0.8,16.5c0.7-3.3,0.8-7.4,0.2-14.5
			c-1.2-12.2-0.4-21.1,4.3-34.3c0.4-1.1,0.8-2.2,1.2-3.3c-0.7,0-1.4-0.1-2-0.3C112.7,248.3,110.9,254.1,110.1,260z"/>
		<path class="st7" d="M112.5,244.8c-0.7,2.3-1.7,4.4-2.3,6.6c-0.7,2.6-1,5.3-1.2,8c0,0.1,0.1,0,0.2,0c0.5-3,1-6,1.8-8.9
			c0.5-1.9,1.4-3.8,1.8-5.7C112.7,244.7,112.5,244.8,112.5,244.8z"/>
		<path class="st7" d="M96.3,260.9c-1.2,1.3-1.7,2.8-2.3,4.5c-1.1,2.9-2.7,5.3-4.6,7.8c-0.1,0.1,0.1,0.1,0.2,0
			c1.4-1.8,2.9-3.5,3.9-5.6c1.1-2.2,1.6-4.7,3-6.7C96.5,260.8,96.3,260.8,96.3,260.9z"/>
		<path class="st7" d="M96,282.2c-1.5,1.4-2.8,3-3.8,4.7c-0.1,0.2,0.1,0.2,0.2,0.1c1.3-1.5,2.5-3.2,3.8-4.7
			C96.3,282.1,96.1,282.1,96,282.2z"/>
		<path class="st7" d="M115.5,296.7c-0.9-1.4-1.5-2.9-2.3-4.3c0-0.1-0.2,0-0.2,0.1c0.6,1.6,1,3.2,2.3,4.4
			C115.4,297,115.6,296.8,115.5,296.7z"/>
		<path class="st7" d="M117.8,287.5c-0.8-0.7-1.7-1.4-2.4-2.2c-0.1-0.1-0.2,0-0.2,0.1c0.7,0.8,1.5,1.6,2.4,2.2
			C117.7,287.7,117.9,287.6,117.8,287.5z"/>
		<path class="st7" d="M115.8,272.4c-0.6-0.8-1.3-1.5-1.9-2.2c-0.7-0.7-1.2-1.5-1.8-2.2c-0.1-0.1-0.2,0-0.2,0.1
			c1.2,1.5,2.3,3.2,3.8,4.5C115.7,272.6,115.9,272.5,115.8,272.4z"/>
	</g>
</g>
</svg>
