<?xml version="1.0" encoding="utf-8"?>
<!-- Generator: Adobe Illustrator 25.0.0, SVG Export Plug-In . SVG Version: 6.00 Build 0)  -->
<svg version="1.1" id="Calque_1" xmlns="http://www.w3.org/2000/svg" xmlns:xlink="http://www.w3.org/1999/xlink" x="0px" y="0px"
	 viewBox="0 0 205 365" style="enable-background:new 0 0 205 365;" xml:space="preserve">
<style type="text/css">
	.st0{fill:#EEF1C5;}
	.st1{fill:#AA6C28;}
	.st2{fill:#2D1111;}
	.st3{fill:#62350F;}
	.st4{fill:#7D4317;}
	.st5{fill:#703C16;}
	.st6{fill:#522B12;}
	.st7{fill:#6F3C14;}
	.st8{fill:#7C4111;}
	.st9{fill:#532E11;}
	.st10{fill:#5D3519;}
	.st11{fill:#584521;}
	.st12{fill:#3F3218;}
	.st13{fill:#6D562B;}
	.st14{fill:#785E2F;}
	.st15{fill:#7D6233;}
	.st16{fill:#463619;}
	.st17{fill:#54401D;}
	.st18{fill:#3D2F16;}
	.st19{fill:#664E21;}
	.st20{fill:#3C2D16;}
	.st21{fill:#865724;}
	.st22{fill:#292113;}
	.st23{fill:#493719;}
	.st24{fill:#543F1C;}
	.st25{fill:#2E2313;}
	.st26{fill:#382A16;}
	.st27{fill:#271E12;}
	.st28{fill:#443216;}
	.st29{fill:#285037;}
	.st30{fill:#1A3926;}
	.st31{fill:#9DCEA5;}
	.st32{fill:#386D4D;}
</style>
<g id="Pot_8_">
	<path class="st0" d="M154.5,323.9l-2,15.1c-0.1,4.7-5.1,8.8-13,11.7c-7.9,2.9-18.9,4.7-31,4.7c-0.6,0-1.2,0-1.9,0
		c-12.5-0.2-23.8-2.2-32-5.4c-8.2-3.2-13.3-7.4-13.4-12.3l0,0l0,0l0-0.1l-1.3-8.8c-6.5,3.7-10.3,8.1-10.3,12.8
		c0,12.9,28.4,23.4,63.4,23.4c35,0,63.5-10.5,63.5-23.4C176.6,334.5,168,328.2,154.5,323.9L154.5,323.9z"/>
	<path class="st1" d="M161.5,270.4l-9.3,68.6c-0.1,9.3-20.5,16.5-45.6,16.1c-25-0.4-45.2-8.2-45.1-17.5l-10.8-73.2L161.5,270.4
		L161.5,270.4z"/>
	<path class="st2" d="M161.5,270.4l-0.3,0l-9.3,68.6l0,0c0,4.3-4.8,8.3-12.6,11.2c-7.8,2.9-18.7,4.6-30.8,4.6c-0.6,0-1.2,0-1.9,0
		c-12.4-0.2-23.7-2.2-31.8-5.3c-8.1-3.1-13-7.3-13-11.7v-0.1l0,0l-10.7-72.8l110.3,6L161.5,270.4l-0.3,0L161.5,270.4l0-0.3l-110.7-6
		l-0.2,0.1l-0.1,0.2l10.8,73.2l0.3,0l-0.3,0l0,0.1c0,4.8,5.2,9.1,13.4,12.3c8.2,3.2,19.5,5.2,32,5.4c0.6,0,1.3,0,1.9,0
		c12.1,0,23-1.8,31-4.7c7.9-2.9,12.9-7,13-11.7l-0.3,0l0.3,0l9.3-68.6l-0.1-0.2l-0.2-0.1L161.5,270.4L161.5,270.4z"/>
	<path class="st3" d="M161.5,270.4l-9.3,68.6c-0.1,9.3-20.5,16.5-45.6,16.1c-25-0.4-45.2-8.2-45.1-17.5l-10.8-73.2L161.5,270.4
		L161.5,270.4z"/>
	<path class="st4" d="M161.5,270.4l-0.3,0l-9.3,68.6l0,0c0,4.3-4.8,8.3-12.6,11.2c-7.8,2.9-18.7,4.6-30.8,4.6c-0.6,0-1.2,0-1.9,0
		c-12.4-0.2-23.7-2.2-31.8-5.3c-8.1-3.1-13-7.3-13-11.7v-0.1l0,0l-10.7-72.8l110.3,6L161.5,270.4l-0.3,0L161.5,270.4l0-0.3l-110.7-6
		l-0.2,0.1l-0.1,0.2l10.8,73.2l0.3,0l-0.3,0l0,0.1c0,4.8,5.2,9.1,13.4,12.3c8.2,3.2,19.5,5.2,32,5.4c0.6,0,1.3,0,1.9,0
		c12.1,0,23-1.8,31-4.7c7.9-2.9,12.9-7,13-11.7l-0.3,0l0.3,0l9.3-68.6l-0.1-0.2l-0.2-0.1L161.5,270.4L161.5,270.4z"/>
	<path class="st5" d="M63.2,283.7l6.8,48.2c0,0,2.9,15.1,21.5,19.2c2.1,0.5,4.2,0.7,6.3,0.7c15.9,0,29.2-13.1,30.3-28.5
		c1.4-18.6,1.4-34.4,1.4-34.4s-11.2,1.8-25.6,1.8C90.9,290.6,75.5,289.1,63.2,283.7L63.2,283.7z"/>
	<path class="st6" d="M160.6,274.9c-3.2,2.8-7.6,5.3-13.1,7.4c-4.6,1.7-9.8,3.2-15.6,4.3c1.5,0.2,3.5,0.3,5.8,0.3
		c3.1,0,6.8-0.2,11-0.9c0,0,0.4-0.3,0.8-0.3c0.7,0,1.6,0.8,1.6,4.8c0.1,6.6-6.1,46.4-6.1,46.4s-1.2,10.3-15.5,14.1
		c-4.8,1.3-12.6,2.3-21.2,2.3c-17,0-37.7-4-46.7-17.9l0.3,2.1l0,0v0.1c0,4.4,4.9,8.6,13,11.7c8.1,3.1,19.3,5.2,31.8,5.3
		c0.6,0,1.2,0,1.9,0c12.1,0,22.9-1.8,30.8-4.6c7.9-2.9,12.6-6.9,12.6-11.2l0,0L160.6,274.9L160.6,274.9z"/>
	<path class="st7" d="M160.9,274.6c-0.1,0.1-0.2,0.2-0.3,0.3l-8.6,64l0,0c0,4.3-4.8,8.3-12.6,11.2c-7.8,2.9-18.7,4.6-30.8,4.6
		c-0.6,0-1.2,0-1.9,0c-12.4-0.2-23.7-2.2-31.8-5.3c-8.1-3.1-13-7.3-13-11.7v-0.1l0,0l-0.3-2.1c-0.1-0.2-0.3-0.4-0.4-0.6l0.4,2.8
		c-0.1,9.3,20,17.1,45.1,17.5c0.6,0,1.2,0,1.9,0c24.2,0,43.6-7.1,43.7-16.1L160.9,274.6L160.9,274.6z"/>
	<path class="st3" d="M48.3,251.5l10.7,0.4c10.6-6,28.1-9.9,48-9.9c22.2,0,41.4,4.9,51.4,12.1c4.1-1.3,8.3-2.6,8.3-2.6l-1.2,14.9
		l0,0c-1.5,12.3-27.1,22.1-58.5,22.1c-31.7,0-57.6-10-58.5-22.6l-0.2-0.2V252l0,0L48.3,251.5L48.3,251.5z"/>
	<path class="st4" d="M48.3,251.5l0,0.3l10.7,0.4l0.2,0c10.5-6,28-9.9,47.8-9.9c22.1,0,41.3,4.9,51.2,12l0.3,0
		c4.1-1.3,8.3-2.6,8.3-2.6l-0.1-0.3l-0.3,0l-1.2,14.9l0.3,0V266l0,0l-0.3,0.3c-0.7,6-7.4,11.5-17.8,15.4c-10.5,4-24.7,6.4-40.3,6.4
		c-15.8,0-30.2-2.5-40.7-6.6c-10.5-4.1-17.1-9.7-17.5-15.7l-0.1-0.2l-0.1-0.1V252h-0.3l-0.3,0.1l0,0l0.3,0.2l0.3-0.3l0-0.6
		L48.3,251.5l0,0.3L48.3,251.5l-0.3,0l0,0.6l0.3,0l0.3-0.1l0,0l-0.3-0.2L48,252v13.7l0.1,0.2l0.2,0.2l0.2-0.2l-0.3,0
		c0.5,6.5,7.3,12.1,17.9,16.2c10.6,4.1,25,6.6,40.9,6.6c15.7,0,30-2.5,40.6-6.5c10.5-4,17.4-9.6,18.2-15.9l-0.3,0v0.3l0,0l0.3-0.3
		l1.2-14.9l-0.1-0.2l-0.3,0c0,0-4.2,1.3-8.3,2.6l0.1,0.3l0.2-0.2c-10-7.3-29.3-12.1-51.5-12.1c-19.9,0-37.5,3.9-48.1,10l0.1,0.2
		l0-0.3l-10.7-0.4l-0.2,0.1l-0.1,0.2L48.3,251.5L48.3,251.5z"/>
	<path class="st8" d="M48.3,251.5c0,12.9,26.5,23.4,59.2,23.4c32.7,0,59.2-10.5,59.2-23.4c0-12.9-26.5-23.4-59.2-23.4
		C74.8,228.1,48.3,238.5,48.3,251.5L48.3,251.5z"/>
	<path class="st4" d="M48.3,251.5H48c0,6.7,6.8,12.6,17.5,16.8c10.8,4.3,25.6,6.9,42,6.9c16.4,0,31.2-2.6,42-6.9
		c10.7-4.3,17.5-10.1,17.5-16.8c0-6.7-6.8-12.6-17.5-16.8c-10.8-4.3-25.6-6.9-42-6.9c-16.4,0-31.2,2.6-42,6.9
		C54.8,238.9,48,244.8,48,251.5H48.3h0.3c0-6.2,6.5-12.1,17.2-16.3c10.7-4.2,25.4-6.8,41.7-6.8s31.1,2.6,41.7,6.8
		c10.7,4.2,17.2,10,17.2,16.3c0,6.2-6.5,12.1-17.2,16.3c-10.7,4.2-25.4,6.8-41.7,6.8s-31.1-2.6-41.7-6.8
		c-10.7-4.2-17.2-10-17.2-16.3H48.3L48.3,251.5z"/>
	<path class="st9" d="M50.1,251c0,11.7,25.6,21.2,57.2,21.2c31.6,0,57.2-9.5,57.2-21.2c0-11.7-25.6-21.2-57.2-21.2
		C75.7,229.9,50.1,239.3,50.1,251L50.1,251z"/>
	<path class="st4" d="M50.1,251h-0.3c0,6.1,6.6,11.4,16.9,15.2c10.4,3.8,24.7,6.2,40.5,6.2c15.8,0,30.1-2.4,40.5-6.2
		c10.4-3.8,16.9-9.2,16.9-15.2c0-6.1-6.6-11.4-16.9-15.2c-10.4-3.8-24.7-6.2-40.5-6.2c-15.8,0-30.1,2.4-40.5,6.2
		c-10.4,3.8-16.9,9.2-16.9,15.2H50.1h0.3c0-5.6,6.2-10.9,16.6-14.7c10.3-3.8,24.6-6.2,40.3-6.2c15.8,0,30,2.4,40.3,6.2
		c10.3,3.8,16.6,9.1,16.6,14.7c0,5.6-6.2,10.9-16.6,14.7c-10.3,3.8-24.6,6.2-40.3,6.2c-15.8,0-30-2.4-40.3-6.2
		c-10.3-3.8-16.6-9.1-16.6-14.7H50.1L50.1,251z"/>
	<path class="st10" d="M110.6,231.7c-25.7,0-44.7,7-44.7,7c-3.7,2-0.3,4.8,4.9,4.8c2.3,0,4.9-0.5,7.4-2c2.1-1.2,4-1.6,5.8-1.6
		c1.8,0,3.4,0.4,4.8,0.8c1.4,0.4,2.7,0.8,3.8,0.8c1,0,1.8-0.3,2.5-1.2c1.4-1.9,4.1-2.4,6.5-2.4c2.8,0,5.2,0.6,5.2,0.6s0.6-2.5,8-2.5
		c0.4,0,0.8,0,1.2,0c8.6,0.3,9.7,4.4,9.7,4.4c0.7-2.6,6.8-2.5,7.8-4.8c0.9-2.3-2.6-2.5-2.6-2.5C123.9,232.1,117.1,231.7,110.6,231.7
		L110.6,231.7z"/>
	<path class="st6" d="M164.5,260.3c-2.8,12.9-26.8,23.4-26.8,23.4s13.7-4.5,19.1-7.7c5.4-3.2,7-9.2,7-9.2L164.5,260.3L164.5,260.3z"
		/>
	<path class="st5" d="M50.8,261.1c0,0,0,6,0.6,7.4c0.6,1.4,2.3,3.7,2.3,3.7c15,11.5,38.6,13.8,55.1,13.8c10.6,0,18.4-0.9,19.2-1
		c2.1-0.1,1.3-9.2,1.3-9.2c-8.6,0.9-16.2,1.2-23.1,1.2C61.3,277,50.8,261.1,50.8,261.1L50.8,261.1z"/>
</g>
<path class="st11" d="M144.1,247.9c0,0,1.1-2.7-8.2-6c-9.2-3.3-11.3,2.5-11.3,2.5s0.3-2.5-4.7-5.7c-5-3.2-12.3,2-12.3,2
	c-8-3.7-14.1,4.6-14.1,4.6c-7.4-7.3-19.9-0.1-19.9-0.1c-12.7-2.7-15.8,7.6-15.8,7.6c-3.1-0.1-4.8,0.6-6.6,2.1
	c6.2,9.2,27.8,16.8,54.3,17.4c28.7,0.7,52.6-6.5,57-16.6c-3.2-3.3-9.1-4.3-9.1-4.3C150.6,247.1,144.1,247.9,144.1,247.9L144.1,247.9
	z"/>
<path class="st12" d="M144.4,248c0.9-3.1-6.6-5.5-8.3-6.2c-3.5-1.4-9.2-2-11.4,1.9c-0.3,0.6-0.2,0.5-0.1,0.5c0.1,0,0.3-0.1,0.3,0.2
	c-0.1-1-0.5-1.6-1-2.4c-1.4-2.2-4-3.7-6.5-4.3c-2.2-0.5-4.8,0.4-6.8,1.2c-1.1,0.4-2.1,1-3,1.6c0.4-0.2-3.6-0.8-3.1-0.8
	c-2.9-0.1-5.2,0.6-7.6,2.1c-1.1,0.7-2,1.6-2.8,2.5c-1.1,1.2-1.3-0.3-2.7-1c-5.4-2.5-11-1.4-16.3,0.9c-1.4,0.6-2.6,0.5-3.8,0.4
	c-0.8-0.1-1.6-0.1-2.5-0.1c-2.9,0.3-5.3,1.1-7.5,2.9c-1.5,1.2-2.6,2.9-3.3,4.6c-0.2,0.4-1.7,0.5-3.3,0.9c-1.4,0.4-2.8,1-3.4,1.4
	l0.3,0.7c3.2,5.7,11.8,9.4,19,11.8c11.3,3.7,23.4,5,35.3,5.4c12.4,0.4,24.9-0.8,36.9-4.1c7.2-2,16.7-5.4,20.2-12.6l-0.1-0.1
	c-3.1-2.7-7.1-3.1-10.1-5.4c-2.6-1.9-5.6-2.7-8.8-2.4C143.6,247.8,144.1,248,144.4,248c3.6-0.3,6.4,2.8,9.9,3.6
	c3.1,0.7,9.5,2.3,6.7,6.2c-1,1.4-2.4,2.5-3.7,3.5c-9,6.9-22.1,8.8-32.9,10.1c-15,1.7-30.4,0.8-45.2-2.3c-6.4-1.3-12.2-3.5-18-6.3
	c-2.2-1.1-4.1-2.4-6.1-3.9c-0.8-0.7-1.6-1.3-2.3-2.1c-2.8-3,4.9-3.7,5.2-3.7l0.2-0.1c2.2-6.7,9.2-8.7,15.6-7.6
	c0.6,0.1,1.9-0.9,2.5-1.1c5.6-2.5,12.2-3.2,17.2,1.1l0.5,0.1c0.8-1,1.7-1.8,2.6-2.7c3.8-3.3,6-2,11.3-1.9c0.9,0,2.3-1.3,3.2-1.7
	c4.2-2,13.5-0.5,13.3,5.3l0.5,0.1c0.8-2.1,2.9-3,5-3.4c-1.5,0.3,15.4,1.8,14,6.8L144.4,248L144.4,248z"/>
<path class="st13" d="M74.5,247.1c0,0-10.2-1.8-12.2,3.6c-2,5.4-8.6,2.5-4.3,7.2c4.2,4.7,10.8,4.9,13.8,2.4c3-2.5,4-6.1,9.9-5.6
	c5.9,0.5,2.2-4.2-1.3-4.3c-3.5-0.1,3-4.4,5.8-4.8C89,245.3,80.2,242.2,74.5,247.1L74.5,247.1z"/>
<path class="st13" d="M100,252.4c0,0-2.3-2.8-9.2-3c-6.9-0.2-3,2.6-3.3,3.9c-0.3,1.3,4.3,4,4.3,4S93.7,252.8,100,252.4L100,252.4z"
	/>
<path class="st13" d="M96.9,246.1c-0.7,0,4.3-5.4,9.3-3.7c2.3,0.8,4.4,0.2,6.5-0.4c2.5-0.7,4.8-1.4,7,0.3c4.1,3,2.3,5.5,2.3,5.5
	s-12.8-0.1-14,5.4C107.9,253.2,104.1,246.5,96.9,246.1L96.9,246.1z"/>
<path class="st13" d="M130.8,252.4c-0.1,0-1.2-0.2-2.7-0.3c-4.2-0.5-12.1-1-14.9,2.9c0,0-1.6,1.2,1.5,3.6c3,2.5,5.3,3.2,5.2,6.3
	c0,0,4.1-9,20.1-5.1c16,3.9,17.8-3,14.5-4.9c-3.2-1.9-9.7,0.8-9.7,0.8S142.3,249.7,130.8,252.4L130.8,252.4z"/>
<path class="st14" d="M140.2,247.3c0,0-3.5-4.1-8.2-3.2C127.1,245.1,141.5,251.6,140.2,247.3z"/>
<path class="st13" d="M111.8,263.1c0,0-5.2-4.1-12-2.2c0,0-0.6,6.7-2.2,6.6c-1.6-0.1-4.1-9.8-12.4-9c-8.3,0.8-11.9,4.2-8.5,7
	c3.4,2.8,19.7,6.2,29.6,5.4C116.2,270,114.3,265.7,111.8,263.1L111.8,263.1z"/>
<path class="st13" d="M133.5,262.9c0,0-6.8-0.8-10,3.2c-3.1,4.1,11.2,3.3,16.2,0.9C144.9,264.6,134.3,263,133.5,262.9L133.5,262.9z"
	/>
<path class="st15" d="M74.6,249.1c-0.2-0.4-3-2.1-8-0.2c-5.1,1.9-2.2,4.6,1.6,4C72.1,252.2,75.3,250.5,74.6,249.1L74.6,249.1z"/>
<path class="st15" d="M94.3,250.7c0,0-3.5-0.7-2.9,0.7C92,252.8,97.8,251.3,94.3,250.7L94.3,250.7z"/>
<path class="st15" d="M120.8,246c0,0-1.3-4.2-5.7-3.6C110.7,243,120.6,248.5,120.8,246L120.8,246z"/>
<path class="st15" d="M143.2,255.7c0,0-8.3-4.3-8.3-0.2C134.8,259.6,146.3,258.6,143.2,255.7L143.2,255.7z"/>
<path class="st16" d="M120.8,268.1c-0.2,0-0.4,0-0.5,0c0.1,0,0.2,0,0.3,0c0.1,0,0.1,0,0.2,0C120.8,268.2,120.8,268.2,120.8,268.1
	L120.8,268.1z"/>
<path class="st11" d="M71.3,250.6c0,0-3.7-3.5-7.8,0.4c-4.1,3.9-2,7.4,2.3,7C70.1,257.6,75.6,254.1,71.3,250.6L71.3,250.6z"/>
<path class="st12" d="M71.6,250.6c-1.5-1.4-3.7-1.8-5.7-1.2c-2.7,0.8-6.4,4.8-4.2,7.6c1.8,2.2,5.8,1.1,7.9,0.1
	c1.4-0.6,2.7-1.6,3.3-3C73.6,252.7,72.6,251.4,71.6,250.6l-0.5,0.1c2.3,2,1.5,4.1-0.8,5.7c-2.2,1.5-6.6,2.8-8.4,0.1
	c-1.6-2.5,2-5.8,3.9-6.7c1.7-0.8,3.9-0.2,5.2,1L71.6,250.6L71.6,250.6z"/>
<path class="st17" d="M72.2,252c-0.1,0.3-0.2,0.7-0.5,1.1c0.3,0,0.6,0.1,0.8,0.2C72.5,252.9,72.4,252.5,72.2,252L72.2,252z"/>
<path class="st18" d="M72.3,251.6c0,0,0,0.2-0.1,0.5c0.2,0.4,0.3,0.9,0.3,1.3c0.1,0,0.3,0.1,0.4,0.2
	C72.9,252.9,72.8,252.2,72.3,251.6L72.3,251.6z"/>
<path class="st17" d="M61.6,254.7c-0.1,0.6,0.1,1.1,0.4,1.7c0.7,1.1,2,1.6,3.3,1.6c1.1,0,2.3-0.3,3.4-0.7c-0.4-0.7-0.3-1.5,0.1-2.2
	c-0.2,0.1-0.4,0.1-0.7,0.2c0,0-1.9,1-3.6,1c-0.4,0-0.9-0.1-1.2-0.2C62.2,255.5,61.7,255.2,61.6,254.7L61.6,254.7z"/>
<path class="st18" d="M62,252.9c-1.7,2.9-0.1,5.2,3.1,5.2c0.2,0,0.5,0,0.7,0c0.9-0.1,1.9-0.3,2.9-0.7c0,0,0-0.1-0.1-0.1
	c-1.1,0.4-2.3,0.7-3.4,0.7c-1.3,0-2.6-0.4-3.3-1.6c-0.3-0.5-0.4-1.1-0.4-1.7c-0.1-0.4,0.1-0.9,0.6-1.7L62,252.9L62,252.9z"/>
<path class="st19" d="M68,250.1c-2.4,0-4.3,2.4-4.3,2.4c-0.4,0.5-0.5,0.9-0.5,1.1c0,0.4,0.3,0.5,0.8,0.5c0.9,0,2.3-0.5,2.8-0.9
	c0.8-0.5,3.5-1.3,3.5-2.2c0-0.3-0.3-0.5-1-0.8C68.8,250.2,68.4,250.1,68,250.1L68,250.1z"/>
<path class="st11" d="M73.3,254c0,0-1.9-1.8-3.7,0.3c-1.8,2.1-0.7,4,1.3,3.7C72.9,257.7,75.4,255.8,73.3,254L73.3,254z"/>
<path class="st12" d="M73.5,254c-0.7-0.6-1.8-1-2.7-0.7c-1.6,0.5-3.4,2.8-2.1,4.3C70.6,259.6,76.3,256.5,73.5,254L73,254
	c2.6,2.4-2.6,5.2-4,3.1c-0.7-1.1,0.5-2.7,1.3-3.3c0.8-0.7,1.9-0.4,2.6,0.3L73.5,254L73.5,254z"/>
<path class="st11" d="M147.8,257.3c0,0-3.7-3.5-7.8,0.4c-4.1,3.9-2,7.4,2.3,7C146.6,264.3,152.1,260.7,147.8,257.3L147.8,257.3z"/>
<path class="st12" d="M148,257.3c-1.4-1.3-3.4-1.8-5.3-1.4c-2.8,0.6-6.8,4.9-4.5,7.7c1.8,2.2,5.7,1.2,7.9,0.2c1.4-0.6,2.7-1.6,3.3-3
	C150.1,259.4,149,258.1,148,257.3c-0.1-0.1-0.7-0.2-0.4,0c5.5,4.7-7,10.2-9.3,5.6c-1.2-2.4,1.8-5.3,3.7-6.3c1.8-1,4.1-0.6,5.6,0.7
	C147.7,257.4,148.3,257.5,148,257.3L148,257.3z"/>
<path class="st17" d="M145.2,261.7c-0.2,0.1-0.4,0.1-0.6,0.1c0,0-1.9,1-3.6,1c-0.1,0-0.3,0-0.4,0c-0.5,0.2-1.2,0.4-1.9,0.6
	c0.7,0.9,1.8,1.2,3.1,1.2c1.1,0,2.3-0.3,3.4-0.7C144.6,263.3,144.7,262.4,145.2,261.7L145.2,261.7z M148.7,258.6
	c-0.1,0.3-0.2,0.7-0.5,1.1c0.3,0,0.5,0.1,0.8,0.2C149,259.6,148.9,259.1,148.7,258.6L148.7,258.6z"/>
<path class="st18" d="M138.6,263.4c-0.1,0-0.1,0-0.2,0.1c0.6,0.8,1.8,1.3,3.2,1.3c0.2,0,0.5,0,0.7,0c0.9-0.1,1.9-0.3,2.9-0.7
	c0,0,0,0,0,0c0,0,0,0-0.1-0.1c-1.1,0.4-2.3,0.7-3.4,0.7C140.5,264.6,139.3,264.3,138.6,263.4L138.6,263.4z M148.8,258.2
	c0,0,0,0.2-0.1,0.4c0.2,0.5,0.3,0.9,0.3,1.3c0.1,0.1,0.3,0.1,0.4,0.2C149.4,259.6,149.3,258.9,148.8,258.2L148.8,258.2z"/>
<path class="st19" d="M144.5,256.8c-0.4,0-0.8,0.1-1.2,0.2c1,0.5,1.5,1.2,0.9,2.3c-0.1,0.1-0.1,0.2-0.2,0.3c1.1-0.5,2.6-1.1,2.6-1.7
	c0-0.3-0.3-0.5-1-0.8C145.3,256.8,144.9,256.8,144.5,256.8L144.5,256.8z"/>
<path class="st11" d="M149.8,260.7c0,0-1.9-1.8-3.7,0.3c-1.8,2.1-0.7,4,1.3,3.7C149.4,264.4,151.9,262.5,149.8,260.7L149.8,260.7z"
	/>
<path class="st12" d="M150,260.7c-0.7-0.6-1.8-1-2.7-0.8c-1.4,0.4-3.5,2.7-2.2,4.1C147.1,266.3,152.8,263.3,150,260.7l-0.5,0
	c2.6,2.4-2.7,5.2-4,3.1c-0.6-0.9,0.2-2.1,0.7-2.8c0.8-1,2.3-1.2,3.2-0.3L150,260.7L150,260.7z"/>
<path class="st20" d="M91.7,257.4c0,0-4.6-2.6-4.3-4c0.3-1.3-3.4-4,2.7-4c0.2,0,0.4,0,0.6,0c6.9,0.2,9.2,3,9.2,3
	C93.7,252.8,91.7,257.4,91.7,257.4L91.7,257.4z M91.7,257.9c0.8,0,1.5-0.5,1.5-0.5c1.9-2.7,9.7-1.5,9-4.3
	c-0.6-2.8-11.8-6.4-11.8-6.4c0.4,0,0.9,0,1.3,0c11,0,16.6,9.1,16.6,9.1c2.2-4.2,8.5-5.4,11.4-5.4c1.7,0,2.2,0.4-0.2,0.8
	c-6.5,1-8.8,6.4-8.8,6.4c5,1.4,8.8,7.5,7.1,7.5c-0.5,0-1.5-0.6-3.2-2c-3.6-3.1-9-4-13.2-4c-4,0-6.9,0.8-5.4,1.3
	c2.9,0.9,1.9,6.2,1.9,6.2c-0.8-5.3-9.1-8.7-9.1-8.7c-1.8-0.4-3.4-0.6-4.8-0.6c-3.3,0-5.5,0.9-7.1,2c-1,1-2.1,2.3-3,4
	c0,0,0.7-2.2,3-4c2.6-2.6,5.3-3.4,7.7-3.4c3.5,0,6.2,1.7,6.7,1.9C91.4,257.9,91.5,257.9,91.7,257.9L91.7,257.9z M98.8,243.9
	c-1.3,0-2.7,0.1-4.2,0.4c-0.3,0.3-0.6,0.6-0.8,1l-0.5-0.1c-0.2-0.2-0.4-0.4-0.7-0.5c-4.3,0.9-8.7,2.5-12.1,3.6c-1.3,1.1-1.8,2-0.2,2
	c3.3,0,6.8,4.3,2.1,4.3c-0.3,0-0.5,0-0.8,0c-0.4,0-0.7,0-1.1,0c-5,0-6.1,3.3-8.9,5.7c-0.5,0.4-1.1,0.8-1.8,1.1
	c0.5,0.5,1.3,0.9,2.1,1.4c1.8,0.9,2.9,1.6,4.1,2.1c-2.2-2.7,1.5-5.6,9.2-6.3c0.3,0,0.6,0,1,0c7.5,0,9.9,9,11.4,9c0,0,0,0,0,0
	c1.5,0,2.1-6.6,2.1-6.6c1.3-0.4,2.6-0.5,3.7-0.5c4.9,0,8.3,2.7,8.3,2.7c2,2.2,3.7,5.5-1.4,7.1c1.2-0.2,2.4-0.5,3.7-0.8
	c1.9-0.5,4-0.9,6.1-1.1c-2-0.5,0.4-6.3,9-7.9c1.5-0.3,2.8-0.4,4.1-0.4c1.6,0,3.1,0.2,4.4,0.5c0.1-0.3,0.2-0.6,0.4-0.9
	c-2.1-0.4-4-0.6-5.7-0.6c-9.8,0-12.6,6-12.6,6c0.1-3.1-2.1-3.8-5.2-6.3c-3-2.5-1.5-3.6-1.5-3.6c1.9-2.6,6-3.3,9.7-3.3
	c1.9,0,3.8,0.2,5.2,0.3c1.4,0.2,2.4,0.3,2.6,0.3c0,0,0,0,0,0c0.8-0.2,1.6-0.3,2.3-0.4c-3.7-1.2-9.5-2.2-10.2-4.2
	c-0.1-0.4-0.3-0.6-0.6-0.9c-0.1,0.6-0.3,0.9-0.3,0.9s0,0-0.1,0c-1.1,0-12.8,0.1-14,5.4c0,0-3.8-6.7-11-7.1
	C96.6,246,97.4,245,98.8,243.9L98.8,243.9z"/>
<path class="st21" d="M93.8,244.5c-0.3,0.1-0.6,0.1-0.8,0.2c0,0,0,0,0,0c0.1,0,0.2,0.1,0.3,0.1C93.4,244.7,93.6,244.7,93.8,244.5
	L93.8,244.5z"/>
<path class="st20" d="M82.9,268.1c0.1,0,0.2,0.1,0.3,0.1c2,0.9,4.5,1.3,7.1,1.5C87.6,269.3,85,268.7,82.9,268.1L82.9,268.1z
	 M93,244.6C93,244.6,93,244.6,93,244.6C93,244.7,93,244.7,93,244.6C93,244.7,93,244.7,93,244.6L93,244.6z"/>
<path class="st22" d="M94.7,244.3c-0.3,0.1-0.6,0.1-0.9,0.2c-0.2,0.2-0.4,0.3-0.5,0.3c-0.1,0-0.2,0-0.3-0.1c0,0,0,0,0,0
	c-0.1,0-0.2,0-0.3,0.1c0.2,0.2,0.4,0.3,0.7,0.5l0.5,0.1C94.1,245,94.4,244.6,94.7,244.3L94.7,244.3z"/>
<path class="st23" d="M80.6,248.3c-1,0.3-1.8,0.6-2.6,0.9c-5.5,1.7,0.1,2.9-4.1,5.2c1.3,1.9-1.3,3.8-3.4,3.8c-0.6,0-1.1-0.1-1.6-0.5
	c-0.8,1.2-0.5,2.4,0.9,3.6c0.7-0.3,1.3-0.6,1.8-1.1c2.8-2.4,3.9-5.7,8.9-5.7c0.3,0,0.7,0,1.1,0c0.3,0,0.6,0,0.8,0
	c4.7,0,1.2-4.2-2.1-4.3C78.8,250.4,79.3,249.4,80.6,248.3L80.6,248.3z"/>
<path class="st23" d="M93.1,252c-0.7,0-1.4-0.2-1.6-0.6c-0.3-0.7,0.5-0.9,1.3-0.9c0.8,0,1.6,0.2,1.6,0.2
	C96.8,251.1,94.8,252,93.1,252L93.1,252z M90.3,249.5c-6.1,0-2.4,2.7-2.7,4c-0.3,1.3,4.3,4,4.3,4s1.9-4.6,8.2-4.9c0,0-2.3-2.8-9.2-3
	C90.7,249.5,90.5,249.5,90.3,249.5L90.3,249.5z"/>
<path class="st23" d="M98.9,243.9C98.9,243.9,98.9,243.9,98.9,243.9c-1.5,1-2.3,2.1-2,2.1c7.2,0.5,11,7.1,11,7.1
	c1.2-5.3,12.9-5.4,14-5.4c0,0,0.1,0,0.1,0s0.2-0.3,0.3-0.9c-0.4-0.4-0.9-0.6-1.5-0.7c-0.1,0.4-0.4,0.6-0.9,0.6
	c-0.6,0-1.5-0.3-2.4-0.6c-1.1,0.1-1.9,0.4-1.9,0.4c-3.2-1-5.7,0.5-12.5-1.8C101.8,244.1,100.4,243.9,98.9,243.9L98.9,243.9z"/>
<path class="st23" d="M86.2,258.5c-0.3,0-0.6,0-1,0c-7.7,0.7-11.4,3.7-9.2,6.3c1.8,0.9,3.4,1.7,6.8,3.2c2.2,0.6,4.7,1.2,7.4,1.7
	c5.2,0.4,11,0,14.4,0.6c0.6,0.1,1.3,0.2,2,0.2c1.2,0,2.4-0.2,3.7-0.4c5.1-1.6,3.4-4.9,1.4-7.1c0,0-3.4-2.7-8.3-2.7
	c-1.2,0-2.4,0.2-3.7,0.5c0,0-0.6,6.6-2.1,6.6c0,0,0,0,0,0C96.1,267.4,93.7,258.5,86.2,258.5L86.2,258.5z"/>
<path class="st24" d="M92.7,250.5c-0.8,0-1.6,0.2-1.3,0.9c0.2,0.4,0.8,0.6,1.6,0.6c1.7,0,3.8-0.9,1.3-1.3
	C94.3,250.7,93.5,250.5,92.7,250.5L92.7,250.5z"/>
<path class="st24" d="M119.1,245.9c-0.5,0-1.1,0-1.6,0.1c0.9,0.4,1.7,0.6,2.4,0.6c0.5,0,0.9-0.2,0.9-0.6
	C120.3,246,119.7,245.9,119.1,245.9L119.1,245.9z"/>
<path class="st24" d="M136.3,253.8c-0.8,0.1-1.4,0.6-1.4,1.7c0,1.8,2.1,2.6,4.3,2.7c0.7-0.8,1.5-1.4,2.3-1.8
	c-2.5-0.6-5.5-0.9-5.2-2.3C136.3,253.9,136.3,253.8,136.3,253.8L136.3,253.8z"/>
<path class="st25" d="M76.8,259.3c-2.4,1.7-3,4-3,4C74.8,261.6,75.8,260.3,76.8,259.3L76.8,259.3z M91.8,246.6c-0.4,0-0.9,0-1.3,0
	c0,0,11.2,3.6,11.8,6.4c0.6,2.8-7.1,1.6-9,4.3c0,0-0.7,0.5-1.5,0.5c-0.2,0-0.4,0-0.6-0.1c-0.5-0.2-3.2-1.9-6.7-1.9
	c-2.4,0-5.1,0.8-7.7,3.4c1.5-1.1,3.8-2,7.1-2c1.4,0,3,0.2,4.8,0.6c0,0,8.3,3.4,9.1,8.7c0,0,1-5.3-1.9-6.2c-1.4-0.4,1.4-1.3,5.4-1.3
	c4.2,0,9.6,0.9,13.2,4c1.6,1.5,2.7,2,3.2,2c1.7,0-2.1-6.1-7.1-7.5c0,0,2.3-5.4,8.8-6.4c2.4-0.4,1.9-0.8,0.2-0.8
	c-2.9,0-9.2,1.1-11.4,5.4C108.3,255.7,102.7,246.6,91.8,246.6L91.8,246.6z"/>
<path class="st20" d="M135,261.8c-10.3,0-13.5,5.6-14.2,6.3c0.7-0.1,1.4-0.1,2-0.1c0.2,0,0.3,0,0.5,0c0.1,0,0.1,0,0.2,0
	c-0.6-0.5-0.7-1.1,0-1.9c2.2-2.9,6.3-3.3,8.5-3.3c0.9,0,1.5,0.1,1.5,0.1c0.3,0,2.2,0.3,4,0.8c0.2-0.1,0.5-0.1,0.7-0.2
	c-0.4-0.5-0.6-1-0.6-1.6C136.7,261.9,135.8,261.8,135,261.8L135,261.8z"/>
<path class="st23" d="M132,262.8c-2.2,0-6.3,0.4-8.5,3.3c-0.6,0.8-0.5,1.5,0,1.9c0.2,0,0.3,0,0.5,0c6.9,0,7.2-2.6,12.2-4
	c0.5-0.1,0.9-0.2,1.3-0.4c-1.8-0.5-3.7-0.8-4-0.8C133.5,262.9,132.9,262.8,132,262.8L132,262.8z"/>
<path class="st25" d="M133.4,259.9c-1.3,0-2.7,0.1-4.1,0.4c-8.5,1.7-11,7.5-9,7.9c0.2,0,0.4,0,0.5,0c0.7-0.7,3.9-6.3,14.2-6.3
	c0.8,0,1.7,0,2.6,0.1c-0.1-0.5,0-1.1,0.2-1.6C136.5,260,135,259.9,133.4,259.9L133.4,259.9z"/>
<path class="st20" d="M73.5,254.6c-0.2,0.1-0.3,0.2-0.5,0.2c-1.8,0.8-3,1.6-3.7,2.5c0.3,0.4,0.8,0.5,1.3,0.5
	C72.3,257.9,74.4,256.3,73.5,254.6L73.5,254.6z"/>
<path class="st22" d="M73.9,254.4c-0.1,0.1-0.3,0.2-0.4,0.2c0.9,1.6-1.2,3.2-2.9,3.2c-0.5,0-1-0.1-1.3-0.5c-0.1,0.1-0.2,0.2-0.3,0.4
	c0.4,0.4,1,0.5,1.6,0.5C72.7,258.2,75.2,256.3,73.9,254.4L73.9,254.4z"/>
<path class="st20" d="M142.1,256.5c0,0-0.1,0-0.1,0.1c-1.5,0.8-3.7,2.8-3.9,4.8c0.2,0.4,0.7,0.8,1.7,1.2c0.3,0.1,0.5,0.2,0.8,0.2
	c1.6-0.6,2.4-1.3,3.5-3.3c-0.4,0.2-0.7,0.3-0.9,0.4c-0.5,0.3-1.9,0.9-2.8,0.9c-0.4,0-0.8-0.1-0.8-0.5c0-0.3,0.2-0.6,0.5-1.1
	c0,0,1.3-1.7,3.2-2.3C143,256.8,142.6,256.6,142.1,256.5L142.1,256.5z"/>
<path class="st22" d="M141.4,256.3c-0.8,0.4-1.7,1.1-2.3,1.8c-0.3,0.4-0.7,0.8-0.9,1.3c-0.2,0.3-0.3,0.6-0.4,0.9
	c-0.2,0.5-0.3,1.1-0.2,1.6c0.1,0.5,0.3,1.1,0.6,1.6c0.1,0,0.1,0,0.2,0c-0.8-0.9-0.8-2.3,0.1-3.9l0.1,0.2c-0.5,0.8-0.7,1.3-0.5,1.7
	c0.2-2,2.5-4,3.9-4.8c0,0,0.1,0,0.1-0.1C141.9,256.5,141.7,256.4,141.4,256.3L141.4,256.3z"/>
<path class="st26" d="M138.1,261.4c-0.1,0.5,0,1,0.2,1.5c0.1,0.2,0.2,0.4,0.3,0.5c0.8-0.2,1.4-0.4,1.9-0.6c-0.3,0-0.6-0.1-0.8-0.2
	C138.8,262.2,138.2,261.9,138.1,261.4L138.1,261.4z"/>
<path class="st27" d="M138.5,259.6c-0.9,1.6-0.9,3-0.1,3.9c0.1,0,0.1,0,0.2-0.1c-0.1-0.1-0.2-0.3-0.3-0.5c-0.2-0.5-0.3-1-0.2-1.5
	c-0.2-0.4,0-0.9,0.5-1.7L138.5,259.6L138.5,259.6z"/>
<path class="st28" d="M143.3,257c-1.8,0.6-3.2,2.3-3.2,2.3c-0.4,0.5-0.5,0.9-0.5,1.1c0,0.4,0.3,0.5,0.8,0.5c0.9,0,2.3-0.5,2.8-0.9
	c0.2-0.1,0.5-0.3,0.9-0.4c0.1-0.1,0.1-0.2,0.2-0.3C144.9,258.1,144.3,257.4,143.3,257L143.3,257z"/>
<g id="Plantes_1_">
	<g id="Plantes">
		<path class="st29" d="M174.5,173.1c-6.2,2.1-11.1,6.3-15.7,10.8c-5.3,5.2-10.5,10.5-15.2,16.2c-8.4,10.4-16.3,21.7-21.4,34
			c-2.8,6.6-8.5,21.8-8.3,22.8c0.1,0.7,3.2,0.9,3.3,0.3c0.2-0.7,8.1-25.9,14.2-36.7c6.7-11.9,15.2-22.5,24.9-32.1
			c5.5-5.5,11.1-11.4,18.6-14C175.7,174.1,175.3,172.8,174.5,173.1z"/>
		<path class="st30" d="M171.1,174.7c-2.3,2.8-5.8,4.4-7.3,4.6c-2.5,0.3-4.9-4-4.1-10.1c0.7-5.7,4.6-16.7,4.7-18.4
			c0-0.1,0-0.2,0-0.2c0.4,0.5,8.2,11.2,8.8,17.8C173.4,170.9,172.4,173,171.1,174.7z"/>
		<path class="st30" d="M146.7,162.5c0,0-2.2,10.2-4.5,15.2c-2.3,5,1.7,19.6,6.5,16.5c4.8-3.1,9.2-5.2,8-13.3
			C155.4,172.9,146.7,162.5,146.7,162.5z"/>
		<path class="st30" d="M148.4,196.6c0,0-1.2-2.3,6.4-2c7.6,0.3,12.3,6.3,14.9,6.5c2.6,0.2,9.3-1.1,9.3-1.1s-12.5,14.9-21.3,9.7
			C148.8,204.6,146.4,201.2,148.4,196.6z"/>
		<path class="st30" d="M157.8,186.7c0,0,2-2.6,6.4-2.9c4.4-0.3,7.8,3.1,11.1,2.9c3.3-0.2,6.7-1.5,6.7-1.5s3.1,4-6.7,8
			c-9.7,4-22-0.7-20.1-4.3C157.2,185.5,157.8,186.7,157.8,186.7z"/>
		<path class="st30" d="M167.2,177.1c0,0,4.3-0.9,8.1,0c3.8,0.9,12.1,1.5,12.1,1.5s-4.8,3.6-12.1,4.2
			C168,183.4,167.2,177.1,167.2,177.1z"/>
		<path class="st30" d="M173.2,173.8c0,0,2.1-0.6,5.7-3.6c3.6-3,3.8-5.7,13.7-5.2c9.9,0.5,12.6,2,12.6,2s-9.6,8.7-12.9,8.8
			C189,175.9,173.2,173.8,173.2,173.8z"/>
		<path class="st30" d="M139.5,207.7c0,0,13.6,1.7,16.3,7.6c2.7,5.9,0.9,7.1,2.6,9.1c1.7,2,6.5,1.2,6.5,1.2s-5.5,6.1-12.7,4.6
			C145,228.7,135.5,215.3,139.5,207.7z"/>
		<path class="st30" d="M130.6,221.7c0,0,2.1,1.6,5.7,3.2c3.6,1.5,5.4,4.6,5.1,9c-0.2,4.4,5.2,6.1,5.2,6.1s-4.4,5-9.2,0
			C132.6,234.9,130.6,221.7,130.6,221.7z"/>
		<path class="st31" d="M171.1,174.7c-2.1,1.6-3.8,2.4-3.8,2.4l-2.9-26.4l0-0.2c0,0,0,0,0,0c0,0,0,0,0,0c0.4,0.5,8.2,11.2,8.8,17.8
			C173.4,170.9,172.4,173,171.1,174.7z"/>
		<path class="st29" d="M129.8,219.5c0,1.2-0.4,2.2-0.8,2.2c-0.5,0-0.8-1-0.8-2.2c0-1.2,0.4-2.1,0.8-2.1
			C129.4,217.4,129.8,218.4,129.8,219.5z"/>
		<path class="st29" d="M138.5,205.7c0,1.1-0.4,2-0.9,2s-0.9-0.9-0.9-2c0-1.1,0.4-2,0.9-2S138.5,204.6,138.5,205.7z"/>
	</g>
	<g>
		<path class="st29" d="M102.7,239.6C102.7,239.6,102.7,239.6,102.7,239.6c0-0.4-0.1-0.8-0.2-1.1c0,0,0,0,0,0
			c-1-5.9-2.5-11.6-4.4-16.5c-0.1-0.4-0.3-0.8-0.5-1.3c-2.4-5.6-8.6-17.1-11.7-22.8c-0.8-1.5-1.4-2.6-1.7-3.1
			c-2-3.4-4.2-6.3-6.2-9.5l0,0c-0.1-0.1-0.1-0.2-0.1-0.2c0.4,0,0.7,0,1.1-0.1c0,0,0.1,0,0.1,0c0.3-0.1,0.6-0.2,0.9-0.3
			c0,0,0.1,0,0.1,0c1.3-0.6,2.5-1.7,3.2-2.6c1.8-2.1,2.7-4.7,3.3-7.4c0.1-0.7,0.2-1.4,0.3-2c0.4-3,0.4-6,0.1-9c0-0.1,0-0.2,0-0.2
			c0.3-2.2-1.6-8-3.8-11.3c0,0,0,0,0,0c-1.1-1.6-2.2-2.7-3.1-2.3c-0.2,0.1-0.6,0.4-0.9,0.9c0,0,0,0,0,0c-1.3,1.7-3.2,5.3-4.1,7.1
			c-0.1,0.2-0.2,0.4-0.3,0.6c-1.1,2-2.4,4.1-3.2,6.3c-0.4,1.1-0.8,2.2-0.9,3.3c-0.5,3.4,0.5,6.8,1.8,10c-2.3-3.7-4.7-7.4-7.2-10.9
			c-2.1-3-4.3-5.8-6.5-8.7c1.5,0.2,3-0.5,4.2-1.5c0.2-0.2,0.4-0.3,0.6-0.5c1-0.9,1.8-1.9,2.5-3c0.6-1.1,1.2-2.2,1.6-3.4
			c0.7-2,1-4.1,1.1-6.2c0.2-6.3-2.4-12.3-4.9-18c0.1-0.1-1.6-3.6-1.6-4.1c-3.7,3.1-6.7,11.4-8.1,16c-1.5,4.7-1.6,9.9-0.2,14.6
			c0,0.1,0.1,0.3,0.1,0.4c-3.5-4.2-7-8.3-10.5-12.5c0,0,0,0,0,0c5.4-2.5,7.2-8.7,6.4-14.2c-0.6-3.7-2.1-7.2-3.6-10.6
			c-1.7-3.8-6.7-12.1-6.8-11.8c-4.9,10.6-4.4,23.2,1.2,33.4c-5-5.9-10-11.8-15-17.6c2.3-0.6,1.5-4.7,1.5-6.4
			c0.1-6.5,0.8-13.4-3.4-18.9c-3.3-4.2-12.9-9.2-12.9-9.3c-0.1-0.6-0.7-1-1.3-0.7c-0.9,0.5-0.5,2.1-0.4,2.8
			c0.5,3.8,1.4,7.5,2.5,11.1c1.5,4.7,3.4,9.7,5.9,14.1v0c0.8,1.4,1.7,2.8,2.7,4c0.9,1.3,2.4,2.9,4.1,3.2l6.1,7.1l0.2,0.2l9.9,11.7
			l1.1,1.3l3.6,4.3c2,2.3,7.4,9,12.4,15.3c0.6,0.8,1.2,1.6,1.8,2.3c3.2,4.1,6,7.7,7.2,9.5c1.5,2.3,3,4.6,4.5,6.9c0,0,0,0,0,0
			c0.4,0.7,0.9,1.4,1.3,2.1v0c1.3,2.1,2.6,4.2,3.8,6.3c1.5,2.5,3,5.1,4.4,7.6c0.5,0.8,0.9,1.6,1.4,2.5c0.4,0.7,0.8,1.5,1.3,2.2
			c0.2,0.3,0.4,0.7,0.6,1.1c4.4,7.8,8.1,16.1,10.7,24.8c0,0,0,0,0,0c0.3,0.9,0.5,1.8,0.8,2.7c0,0,0,0,0,0c2.9,10.5,4.4,21.4,4,32.5
			c0.4,0.1,0.9,0.1,1.2-0.1c0.4-0.3,1.2-0.8,2.1-1.1c0.5-0.2,0.9-0.3,1.4-0.4C104.1,252.1,103.7,245.8,102.7,239.6z M22,116.4
			c-0.4-0.4-0.8-0.9-1.2-1.4C21.2,115.5,21.6,116,22,116.4z M62,121.4C62,121.4,62,121.4,62,121.4C62,121.4,62,121.4,62,121.4z"/>
		<path class="st29" d="M81.9,194.5c0,0-0.5-0.4-1.4-0.9c-1.9-1.2-5.7-3.3-10.1-5.2h0c-6-2.5-13.3-4.6-18.4-3
			c-1.6,0.5-5.3,1.4-5.3,3.6c0,1.2,1.2,2.1,2,2.8c1.1,1,2.2,1.9,3.4,2.8c4.8,3.5,10.6,5.6,16.6,6.1c3.2,0.3,6.9,0.4,9.9-0.8
			c0.8-0.3,1.6-0.8,2.2-1.4c0.7-0.7,1.1-1.5,1.3-2.4C82,195.6,82,195.1,81.9,194.5z"/>
		<path class="st32" d="M72.2,178.4c0,0-0.4-0.3-1.2-0.8c0,0,0,0,0,0c-4.4-2.7-19.7-11.1-28.7-8.2c-1.6,0.5-5.3,1.4-5.2,3.6
			c0,1.1,1.2,2.1,2,2.8c1.1,1,2.2,1.9,3.3,2.8c4.8,3.5,10.6,5.6,16.6,6.2c3.2,0.3,6.9,0.4,9.9-0.8c1.8-0.7,3.3-2.3,3.5-4.1v0
			C72.3,179.3,72.3,178.9,72.2,178.4z"/>
		<path class="st32" d="M59.2,160c0,0-0.6-0.5-1.7-1.1c-4.9-3-19.5-10.7-28.2-8c-1.6,0.5-5.3,1.4-5.3,3.6c0,1.2,1.2,2.1,2,2.8
			c1.1,1,2.2,1.9,3.4,2.8c4.8,3.5,10.6,5.6,16.6,6.2c3.1,0.3,6.9,0.4,9.9-0.8c1.8-0.7,3.4-2.3,3.5-4.2
			C59.3,160.8,59.3,160.4,59.2,160z"/>
		<path class="st32" d="M41.2,138.4c0,0-6-3.1-14.7-1.9c-8.7,1.2-14.2,6.3-14.2,6.3s19.3,18.3,29.2-3.5L41.2,138.4z"/>
		<path class="st32" d="M30.5,126.3c0,0-9.9-5.2-16.5-3.5c-6.5,1.7-11.1,3.2-11.1,3.2S21.8,142.4,30.5,126.3z"/>
		<path class="st32" d="M24.1,119c0,0,0.1-0.1-5.4-6c-5.5-6-18.6-6-18.6-6s3.4,15.4,11.7,14.2C20.1,120.1,24.1,119,24.1,119z"/>
	</g>
	<g>
		<path d="M159.8,3.8c-0.1-0.9-0.1-3.1-1.5-3.4c-0.1,0-0.2,0-0.2,0c-0.1,0-0.2,0-0.2,0c-0.1,0-0.2,0-0.2,0.1c-0.1,0-0.1,0.1-0.2,0.1
			c0,0-0.1,0.1-0.1,0.1v0c-0.2,0.3-0.4,0.7-0.3,1c0,0-2,1.9-4.5,4.6c-0.3,0.4-0.7,0.8-1.1,1.2c-0.9,1-1.9,2.2-2.8,3.3
			c-0.4,0.5-0.7,0.9-1.1,1.4c-0.4,0.5-0.7,0.9-1,1.4c-0.3,0.4-0.6,0.8-0.8,1.2c-0.1,0.2-0.2,0.4-0.4,0.6c-0.1,0.2-0.2,0.4-0.4,0.6
			c-0.1,0.2-0.2,0.4-0.3,0.6c-0.1,0.2-0.2,0.4-0.3,0.6c-0.2,0.4-0.4,0.7-0.5,1.1c-3.4,8.4,0,17,2.5,25.2c0,0.1,0.1,0.3,0.1,0.4
			c0.1,0.2,0.1,0.5,0.2,0.8c0,0.2,0.1,0.4,0.1,0.6c0,0.2,0.1,0.4,0.1,0.6s0.1,0.4,0.2,0.6c0,0.2,0.1,0.3,0.1,0.5
			c0.1,0.3,0.1,0.5,0.2,0.8c0.1,0.2,0.1,0.4,0.2,0.6c0.1,0.2,0.2,0.4,0.2,0.6c0.1,0.2,0.2,0.4,0.3,0.5c0.1,0.2,0.2,0.4,0.4,0.5
			c0.1,0.1,0.2,0.2,0.3,0.3c0.1,0.1,0.2,0.2,0.3,0.3c0,0,0.1,0.1,0.1,0.1c0,0,0.1,0.1,0.2,0.1c0.1,0,0.2,0.1,0.2,0.1
			c0.1,0,0.2,0.1,0.3,0.1c0.1,0,0.3,0.1,0.5,0.1h0.1c-4.2,9.3-8.4,18.6-12.6,27.9c3.4-15-0.6-31.1-10.7-42.8l0,0c0,0,0,0,0,0
			c0,0,0,0,0,0c0,0-0.1,0.1-0.1,0.2c0,0.1,0,0.1-0.1,0.2c-0.1,0.2-0.2,0.4-0.2,0.8c-0.1,0.2-0.1,0.4-0.2,0.7
			c-0.7,2.5-1.9,7-2.7,10.8c0,0.2-0.1,0.5-0.1,0.7c0,0.1,0,0.2-0.1,0.3c-0.1,0.2-0.1,0.4-0.1,0.6c-0.2,0.9-0.3,1.7-0.4,2.4
			c0,0.2-0.1,0.3-0.1,0.4c0,0.1,0,0.3-0.1,0.4c-0.7,4.9-1.3,9.9-0.7,14.8c0.1,0.6,0.2,1.1,0.3,1.7c0,0.2,0.1,0.4,0.1,0.6
			c0.3,1.1,0.6,2.2,1.1,3.2c0.1,0.3,0.2,0.5,0.3,0.8c0.1,0.2,0.2,0.5,0.3,0.7c0.1,0.2,0.2,0.5,0.4,0.7c0,0,0,0.1,0,0.1
			c0.1,0.2,0.2,0.4,0.4,0.6c0.3,0.5,0.6,0.9,0.9,1.3c0.2,0.2,0.3,0.4,0.5,0.7c0.2,0.2,0.3,0.4,0.5,0.6c0.2,0.2,0.4,0.4,0.6,0.6
			c0.3,0.3,0.7,0.6,1,0.9c0.3,0.2,0.5,0.4,0.8,0.6s0.5,0.4,0.8,0.6c0.2,0.1,0.4,0.2,0.6,0.3c0.2,0.1,0.4,0.2,0.6,0.3
			c0.4,0.2,0.8,0.4,1.3,0.5c0.4,0.2,0.9,0.3,1.3,0.4c0.5,0.1,0.9,0.2,1.4,0.3c0,0,0,0.1,0,0.1c-0.6,1.3-1.2,2.7-1.8,4h0
			c-2.4,5.2-4.7,10.5-7,15.7c0-0.2,0-0.4,0-0.6c0.1-6.5-2-13-5.5-18.4c-1-1.5-2.2-3.3-3.7-5.2c-0.2-0.2-0.3-0.4-0.5-0.6
			c-0.2-0.2-0.3-0.4-0.5-0.7c-0.3-0.4-0.5-0.7-0.8-1.1c-1.1-1.4-2.2-2.7-3.4-4c-0.3-0.4-0.7-0.7-1-1.1c-0.6-0.6-1.2-1.2-1.8-1.7
			c-0.2-0.2-0.4-0.3-0.6-0.5c-0.2-0.2-0.5-0.4-0.8-0.6c-0.2-0.2-0.4-0.3-0.6-0.4c-0.2-0.1-0.4-0.3-0.5-0.4c-0.2-0.1-0.4-0.3-0.6-0.4
			c-0.2-0.1-0.3-0.2-0.5-0.3c-0.2-0.1-0.4-0.2-0.5-0.3c-0.1-0.1-0.2-0.1-0.3-0.2c0,0.2,0,0.6,0,1.2c0,0.2,0,0.5-0.1,0.8
			c0,0.1,0,0.2,0,0.3c0,0.2,0,0.4-0.1,0.6c0,0.4-0.1,0.7-0.1,1.1c-0.1,0.5-0.1,1-0.2,1.3c0,0.1,0,0.1,0,0.2c0,0.2,0,0.4,0,0.4
			c-1.1,8.2-2.1,16.7,0.4,24.7c1.9,6.1,6,11.9,12,14.5c1.5,0.7,3.2,1,4.8,0.7c0.4-0.1,0.8-0.2,1.1-0.3c-0.9,2.2-1.8,4.4-2.6,6.7
			c-0.9,2.2-1.7,4.5-2.5,6.7c-1.2,3.4-2.3,6.8-3.3,10.3c-0.3,1-0.6,2.1-0.9,3.1c-0.3,1-0.6,2.1-0.9,3.1v0c0-0.4,0.1-0.7,0.1-1.1
			c0-0.5,0.1-0.9,0.1-1.4c0-0.2,0-0.5,0-0.7c0.1-2.5-0.1-5.1-0.8-7.6c0-0.2-0.1-0.4-0.2-0.6c-0.1-0.2-0.1-0.5-0.2-0.7
			c-0.1-0.4-0.3-0.7-0.4-1.1c-1.9-4.2-5.6-7.4-8.8-10.7l-0.2-0.2c-0.5-0.6-1.3-1.4-2.2-2.4c-0.2-0.2-0.4-0.4-0.6-0.6
			c-1.8-1.8-3.8-3.8-5.3-4.9c-0.1-0.1-0.2-0.1-0.3-0.2c-0.3-0.2-0.6-0.4-0.8-0.5c-0.1,0-0.1-0.1-0.2-0.1c-0.1,0-0.1,0-0.2-0.1
			c-0.1,0-0.1,0-0.1,0c-0.1,0-0.3,0-0.4,0c0,0-0.1,0-0.1,0c-0.1,0-0.1,0-0.2,0.1c0,0-0.1,0-0.1,0.1c0,0-0.1,0.1-0.1,0.1
			c-0.1,0.1-0.2,0.2-0.3,0.2c-0.1,0.1-0.2,0.2-0.2,0.3c0,0.1-0.1,0.1-0.1,0.2c-0.1,0.1-0.1,0.1-0.2,0.2c-0.1,0.2-0.2,0.4-0.3,0.6
			c-0.1,0.1-0.1,0.2-0.2,0.3c-0.1,0.2-0.2,0.5-0.3,0.7c0,0.1-0.1,0.2-0.1,0.4c0,0.1-0.1,0.3-0.1,0.4c0,0.1-0.1,0.2-0.1,0.3
			c-0.2,0.7-0.4,1.6-0.6,2.4c-0.1,0.5-0.2,1-0.3,1.5c-0.1,0.3-0.1,0.7-0.2,1c-0.6,4.6-0.5,9.6,0.5,11.3c0.9,4.9,2.3,9.6,4.6,13.9
			c0.2,0.4,0.4,0.8,0.6,1.2c0.5,0.8,0.9,1.5,1.5,2.3c0.3,0.4,0.5,0.7,0.8,1.1c0.3,0.3,0.6,0.7,0.9,1c0.2,0.2,0.3,0.3,0.5,0.5
			c0.2,0.2,0.4,0.4,0.6,0.6c0.2,0.2,0.4,0.3,0.5,0.5c0.4,0.4,0.9,0.8,1.4,1.1c0.2,0.1,0.4,0.3,0.7,0.4c1.6,1,3.7,1.8,5.7,1.9
			c0.9,0,1.7-0.2,2.4-0.6c0.2-0.1,0.5-0.3,0.7-0.5c0,0,0,0,0.1-0.1c-1.2,4.7-2.4,9.4-3.5,14c-0.2,0.7-0.4,1.4-0.5,2.2
			c0,0.2-0.1,0.4-0.1,0.6c-0.1,0.5-0.2,1-0.4,1.5c0,0,0,0,0,0c-0.8,3.2-1.6,6.5-2.3,9.8c-0.8-0.2-1.7-0.3-2.5-0.4
			c-0.4,0-0.8-0.1-1.2-0.1c-0.3,0-0.7,0-1,0h-0.3c-0.7,0-1.4,0-2.1,0.1c0,0,0,0,0,0c-0.6,0-1.2,0.1-1.8,0.2
			c-0.6,0.1-1.2,0.2-1.8,0.3c0,0,0,0,0,0c-1,0.2-2,0.4-3,0.6h0c-0.8,0.2-1.6,0.4-2.3,0.6c0,0,0,0,0,0c-0.6,0.1-1.2,0.3-1.8,0.5
			c-1.2,0.3-2.4,0.7-3.5,1.1c-0.5,0.2-1.1,0.4-1.6,0.6c-0.4,0.1-0.7,0.3-1.1,0.4c-0.3,0.1-0.6,0.2-1,0.4c-0.4,0.2-0.9,0.3-1.3,0.5
			c-0.3,0.1-0.5,0.2-0.5,0.2s-0.1,0-0.2,0.1c-1.1,0.5-2.3,0.9-3.3,1.4c-0.5,0.2-1,0.4-1.2,0.5c-0.3,0.1-0.6,0.3-0.9,0.4h0
			c-0.3,0.1-0.5,0.3-0.8,0.4c-2.8,1.3-4.9,2.4-6.1,3.1c-0.2,0.1-0.4,0.2-0.5,0.3c-0.6,0.4-0.9,0.6-0.9,0.6c5.2,4.4,11.9,6,18.6,5.7
			c0.9,0,1.7-0.1,2.6-0.2c0.6-0.1,1.2-0.2,1.9-0.2c0.3,0,0.5-0.1,0.8-0.2c6.4-1.2,13.8-4.4,16-10.6c-1.7,8.4-3.1,16.8-3.8,25.4
			c-0.2,2.7-0.4,5.4-0.5,8c-0.1,1.6-0.1,3.2-0.1,4.7v0c0,0.8,0,1.6,0,2.4c0.2,10.3,1.8,20.6,5,30.4c0.5-0.2,0.9-0.3,1.4-0.4
			c0.7-0.1,1.4,0,2.1,0.3c1.2,0.6,2.3,0.8,3.2,0.9c-2.2-6.4-4-12.8-5.2-19.4c-0.2-1-0.4-2.1-0.6-3.1c-1.6-9.5-2.2-19.2-2-28.8v0
			c0-1,0.1-1.9,0.1-2.8c0.1-1.6,0.2-3.1,0.3-4.6c0.1-0.8,0.1-1.6,0.2-2.4c0.1-0.9,0.2-1.9,0.3-2.8c0.1-0.9,0.2-1.9,0.3-2.8v0
			c0.1-0.5,0.1-1,0.2-1.5c0.1-1,0.3-2.1,0.5-3.1c0.7-4.5,1.6-8.9,2.6-13.2c0.4-1.6,0.8-3.2,1.2-4.8c0.3-1.2,0.6-2.5,0.9-3.7
			c1.7-6.9,3.4-13.8,5.4-20.7c0.3-1.1,0.6-2.1,0.9-3.2c1-3.5,2.1-7,3.2-10.5c0.9-2.7,3.1-8.3,5.7-14.6c0.5-1.2,1-2.4,1.5-3.6
			c4-9.8,8.5-20.3,10.1-23.9l3-6.7l0.9-2v0l8.3-18.5l0.2-0.4l5.1-11.3c2-1.1,3.3-3.7,4-5.6c0.7-2,1.4-4,1.9-6.1c0,0,0,0,0,0
			c1.6-6.5,2.2-13.5,2.3-20.1C160.8,13.8,160.5,8.7,159.8,3.8z M155.3,44.3c-0.3,0.8-0.6,1.5-1,2.2C154.6,45.8,154.9,45,155.3,44.3z
			 M105.2,67.5C105.3,67.5,105.3,67.5,105.2,67.5C105.3,67.5,105.3,67.4,105.2,67.5z"/>
		<path d="M106.8,167.6C106.8,167.6,106.8,167.6,106.8,167.6L106.8,167.6C106.8,167.6,106.8,167.6,106.8,167.6
			C106.8,167.6,106.8,167.6,106.8,167.6c0-0.1,0-0.1,0-0.1c0,0,0,0,0,0c0-0.1-0.1-0.2-0.2-0.3c-1-0.9-4.3-3.8-8.7-6.9
			c-0.4-0.2-0.7-0.5-1.1-0.8c-3.7-2.6-8.1-5.2-12.6-7.2l0,0c0,0-0.1,0-0.1,0c-0.2-0.1-0.3-0.2-0.5-0.2c-0.1,0-0.2-0.1-0.3-0.1
			c0,0,0,0,0,0c-0.6-0.3-1.3-0.5-1.9-0.7c-0.2-0.1-0.5-0.2-0.7-0.3c0,0,0,0,0,0c-0.2-0.1-0.5-0.2-0.7-0.2c-0.2-0.1-0.4-0.1-0.6-0.2
			c0,0-0.1,0-0.1,0c-0.3-0.1-0.6-0.2-0.8-0.2c-0.2,0-0.3-0.1-0.5-0.1c-0.2,0-0.3-0.1-0.4-0.1c-0.1,0-0.3-0.1-0.4-0.1
			c-0.2,0-0.3-0.1-0.5-0.1c0,0,0,0,0,0c-0.1,0-0.2,0-0.3-0.1c-0.1,0-0.2,0-0.3-0.1c-0.1,0-0.2,0-0.3,0c-0.2,0-0.3-0.1-0.4-0.1
			c-0.3-0.1-0.7-0.1-1-0.1c-0.1,0-0.2,0-0.3,0c0,0-0.1,0-0.1,0c-0.3,0-0.6,0-0.8-0.1c-0.3,0-0.6,0-0.8,0c-0.1,0-0.2,0-0.3,0
			c-0.3,0-0.6,0-0.8,0c-0.2,0-0.4,0-0.6,0c-0.2,0-0.4,0-0.6,0.1c-0.1,0-0.2,0-0.3,0c-0.1,0-0.2,0-0.3,0c-0.1,0-0.1,0-0.2,0
			c-0.1,0-0.3,0-0.4,0.1c-0.4,0-0.8,0.1-1.2,0.2c-0.2,0-0.5,0.1-0.7,0.1c-0.3,0.1-0.7,0.2-1,0.2c-0.3,0.1-0.6,0.2-0.8,0.3
			c-0.1,0-0.2,0.1-0.3,0.1c-0.7,0.3-1.3,0.7-1.8,1.2c0,0,0,0,0,0c-0.1,0.1-0.1,0.2-0.2,0.2c-0.1,0.1-0.1,0.2-0.2,0.3c0,0,0,0,0,0
			c0,0.1-0.1,0.2-0.1,0.3c0,0.1-0.1,0.2-0.1,0.4c-0.2,1.1,0.5,2.2,1.3,3.1c0.3,0.3,0.5,0.7,0.8,0.9c0.3,0.4,0.6,0.8,0.9,1.1
			c0.6,0.7,1.2,1.5,1.9,2.2c0.3,0.3,0.7,0.7,1,1c1.1,1.1,2.3,2.2,3.5,3.1c4.5,3.6,9.8,6.4,15.4,8c0.5,0.1,0.9,0.3,1.4,0.4
			c4.1,1,8.9,1.9,13,1c0.2,0,0.4-0.1,0.6-0.1c0.1,0,0.3-0.1,0.4-0.1c0.2,0,0.3-0.1,0.5-0.2c0.2-0.1,0.3-0.1,0.5-0.2
			c0.1-0.1,0.3-0.2,0.4-0.2c0.1-0.1,0.3-0.2,0.4-0.3c0.1-0.1,0.3-0.2,0.4-0.3c0.1-0.1,0.3-0.2,0.4-0.3c0.1-0.1,0.2-0.2,0.4-0.3
			c0.1-0.1,0.2-0.2,0.3-0.3c0,0,0,0,0,0c0.1-0.1,0.2-0.3,0.3-0.4c0.1-0.1,0.2-0.3,0.3-0.4c0.1-0.1,0.2-0.3,0.2-0.4
			c0.1-0.2,0.1-0.3,0.2-0.4c0.1-0.3,0.2-0.6,0.3-0.9c0,0,0,0,0,0c0-0.1,0-0.3,0-0.4c0-0.2,0-0.3,0-0.5
			C106.8,167.9,106.8,167.8,106.8,167.6z"/>
		<path class="st32" d="M106.8,167.6C106.8,167.6,106.8,167.6,106.8,167.6C106.8,167.6,106.8,167.6,106.8,167.6
			C106.8,167.5,106.8,167.5,106.8,167.6c-0.1-0.1-0.2-0.2-0.3-0.3c-1-0.9-4.3-3.8-8.7-6.9c-0.4-0.2-0.7-0.5-1.1-0.8
			c-3.7-2.6-8.1-5.2-12.6-7.2l0,0c0,0-0.1,0-0.1,0c-0.2-0.1-0.3-0.2-0.5-0.2c-0.1,0-0.2-0.1-0.3-0.1c0,0,0,0,0,0
			c-0.6-0.3-1.3-0.5-1.9-0.7c-0.2-0.1-0.5-0.2-0.7-0.2c0,0,0,0,0,0c-0.2-0.1-0.5-0.2-0.7-0.2c-0.2-0.1-0.4-0.1-0.7-0.2
			c0,0-0.1,0-0.1,0c-0.3-0.1-0.6-0.2-0.8-0.2c-0.3-0.1-0.6-0.2-0.9-0.2c-0.3-0.1-0.6-0.1-0.9-0.2c0,0,0,0,0,0c-0.1,0-0.2,0-0.3-0.1
			c-0.2,0-0.4-0.1-0.5-0.1c0,0,0,0,0,0c-0.2,0-0.3-0.1-0.4-0.1c-0.2,0-0.3,0-0.5-0.1c-0.3,0-0.5-0.1-0.8-0.1c0,0-0.1,0-0.1,0
			c-0.3,0-0.6,0-0.8-0.1c-0.3,0-0.6,0-0.8,0c-0.4,0-0.8,0-1.1,0c-0.2,0-0.4,0-0.6,0c-0.2,0-0.4,0-0.6,0.1c-0.1,0-0.2,0-0.3,0
			c-0.1,0-0.2,0-0.3,0c-0.1,0-0.1,0-0.2,0c-0.1,0-0.3,0-0.4,0.1c-0.4,0-0.8,0.1-1.2,0.2c-0.2,0-0.5,0.1-0.7,0.1
			c-0.3,0.1-0.7,0.2-1,0.2c-0.3,0.1-0.6,0.2-0.8,0.3c-0.1,0-0.2,0.1-0.3,0.1c-0.7,0.3-1.3,0.7-1.8,1.2c0,0,0,0,0,0
			c-0.1,0.1-0.1,0.2-0.2,0.2c-0.1,0.1-0.1,0.2-0.2,0.3c0,0,0,0,0,0c0,0.1-0.1,0.2-0.1,0.3c0,0.1-0.1,0.2-0.1,0.4
			c-0.2,1.1,0.5,2.2,1.3,3.1c0.3,0.3,0.5,0.7,0.8,0.9c0.3,0.4,0.6,0.8,0.9,1.1c0.6,0.7,1.2,1.5,1.9,2.2c0.3,0.3,0.7,0.7,1,1
			c1.1,1.1,2.3,2.2,3.5,3.1c4.5,3.6,9.8,6.4,15.4,8c0.5,0.1,0.9,0.3,1.4,0.4c4.1,1,8.9,1.9,13,1c0.2,0,0.4-0.1,0.6-0.1
			c0.1,0,0.3-0.1,0.4-0.1c0.2,0,0.3-0.1,0.5-0.2c0.2-0.1,0.3-0.1,0.5-0.2c0.1-0.1,0.3-0.2,0.4-0.2c0.1-0.1,0.3-0.2,0.4-0.3
			c0.1-0.1,0.3-0.2,0.4-0.3c0.1-0.1,0.3-0.2,0.4-0.3c0.1-0.1,0.2-0.2,0.4-0.3c0.1-0.1,0.2-0.2,0.3-0.3c0,0,0,0,0,0
			c0.1-0.1,0.2-0.3,0.3-0.4c0.1-0.1,0.2-0.3,0.3-0.4c0.1-0.1,0.2-0.3,0.2-0.4c0.1-0.2,0.1-0.3,0.2-0.4c0.1-0.3,0.2-0.6,0.3-0.9
			c0,0,0,0,0,0c0-0.1,0-0.3,0-0.4c0-0.2,0-0.3,0-0.5C106.8,167.9,106.8,167.7,106.8,167.6z"/>
		<path d="M149.4,147.8c-0.8-2.8-5.8-2.6-8-2.7c-12.2-0.3-28.4,15.5-33.2,20.8c-0.9,1-1.4,1.6-1.4,1.7c0,0,0,0,0,0v0c0,0,0,0,0,0
			c0,0,0,0,0,0c0,0.2,0,0.5,0.1,0.7c0,0,0,0,0,0c0.1,0.4,0.2,0.8,0.4,1.2c1,2.1,3.3,3.4,5.8,3.6c4.2,0.4,8.9-1.1,12.8-2.6
			c7.3-2.9,13.9-7.7,18.8-13.9c1.2-1.5,2.3-3.1,3.2-4.7C148.6,150.8,149.8,149.2,149.4,147.8z"/>
		<path d="M155.8,123.8c-0.8-2.8-5.8-2.6-8-2.7c-12.3-0.3-28.7,15.8-33.4,20.9c-0.8,0.9-1.3,1.5-1.3,1.5c0,0.6,0.2,1.1,0.4,1.7
			c0.9,2.3,3.4,3.7,6,4c4.2,0.4,8.9-1.1,12.8-2.6c7.3-2.9,13.9-7.7,18.8-13.9c1.2-1.5,2.3-3.1,3.2-4.7
			C155,126.8,156.2,125.2,155.8,123.8z"/>
		<path d="M165.7,95.6c-0.8-2.8-5.8-2.6-8-2.7c-11.9-0.3-27.6,14.8-32.8,20.4c-1.2,1.2-1.8,2-1.8,2.1c0,0.5,0.1,1.1,0.3,1.5
			c0.8,2.3,3.4,3.9,6,4.1c4.2,0.4,8.9-1.1,12.8-2.6c7.3-2.9,13.9-7.7,18.8-13.9c1.2-1.5,2.3-3.1,3.2-4.7
			C164.8,98.7,166,97.1,165.7,95.6z"/>
		<path class="st30" d="M103.3,187.7c0,0,21.2-1.8,31.3-5.7c10-3.9,10-3.9,10-3.9s-2.3,20.1-18.2,22.1
			C110.4,202.3,99.4,194.3,103.3,187.7z"/>
		<path class="st30" d="M101.3,204.6c0,0,15.9,11.6,26.9,6.2c11-5.5,12.1-6.2,12.1-6.2s-4.1,14.8-14.1,18
			C116.1,225.8,101.7,218,101.3,204.6z"/>
		<path d="M138,81.5c0,0,6.5-6.2,18-7.8c11.5-1.6,20.3,2.7,20.3,2.7s-17.8,30.3-38.3,6.3V81.5z"/>
		<path d="M147.1,62.1c0,0,10.7-10.3,19.6-10.5c8.9-0.2,15.3,0,15.3,0S164,79.4,147.1,62.1z"/>
		<path d="M152.5,50.5c0,0-0.1-0.1,4.7-9.7c4.8-9.6,21.4-14.4,21.4-14.4s1.4,20.7-9.6,22.3C158,50.5,152.5,50.5,152.5,50.5z"/>
		<path class="st29" d="M159.8,3.8c-0.1-0.9-0.1-3.1-1.5-3.4c-0.1,0-0.2,0-0.2,0c-0.1,0-0.2,0-0.2,0c-0.1,0-0.2,0-0.2,0.1
			c-0.1,0-0.1,0.1-0.2,0.1c0,0-0.1,0.1-0.1,0.1v0c-0.2,0.3-0.4,0.7-0.3,1c0,0-2,1.9-4.5,4.6c-0.3,0.4-0.7,0.8-1.1,1.2
			c-0.9,1-1.9,2.2-2.8,3.3c-0.4,0.5-0.7,0.9-1.1,1.4c-0.4,0.5-0.7,0.9-1,1.4c-0.3,0.4-0.6,0.8-0.8,1.2c-0.1,0.2-0.2,0.4-0.4,0.6
			c-0.1,0.2-0.2,0.4-0.4,0.6c-0.1,0.2-0.2,0.4-0.3,0.6c-0.1,0.2-0.2,0.4-0.3,0.6c-0.2,0.4-0.4,0.7-0.5,1.1c-3.4,8.4,0,17,2.5,25.2
			c0,0.1,0.1,0.3,0.1,0.4c0.1,0.2,0.1,0.5,0.2,0.8c0,0.2,0.1,0.4,0.1,0.6c0,0.2,0.1,0.4,0.1,0.6s0.1,0.4,0.2,0.6
			c0,0.2,0.1,0.3,0.1,0.5c0.1,0.3,0.1,0.5,0.2,0.8c0.1,0.2,0.1,0.4,0.2,0.6c0.1,0.2,0.2,0.4,0.2,0.6c0.1,0.2,0.2,0.4,0.3,0.5
			c0.1,0.2,0.2,0.4,0.4,0.5c0.1,0.1,0.2,0.2,0.3,0.3c0.1,0.1,0.2,0.2,0.3,0.3c0,0,0.1,0.1,0.1,0.1c0,0,0.1,0.1,0.2,0.1
			c0.1,0,0.2,0.1,0.2,0.1c0.1,0,0.2,0.1,0.3,0.1c0.1,0,0.3,0.1,0.5,0.1h0.1c-4.2,9.3-8.4,18.6-12.5,27.9c3.4-15-0.6-31.1-10.7-42.8
			v0h0c0,0,0,0,0,0c0,0,0,0,0,0c0,0-0.1,0.1-0.1,0.2c0,0.1,0,0.1-0.1,0.2c-0.1,0.2-0.2,0.4-0.2,0.8c-0.1,0.2-0.1,0.4-0.2,0.7
			c-0.7,2.5-1.9,7-2.7,10.8c0,0.2-0.1,0.5-0.1,0.7c0,0.1,0,0.2-0.1,0.3c-0.1,0.2-0.1,0.4-0.1,0.6c-0.2,0.9-0.3,1.7-0.4,2.4
			c0,0.2-0.1,0.3-0.1,0.4c0,0.1,0,0.3-0.1,0.4c-0.7,4.9-1.3,9.9-0.7,14.8c0.1,0.6,0.2,1.1,0.3,1.7c0,0.2,0.1,0.4,0.1,0.6
			c0.3,1.1,0.6,2.2,1.1,3.2c0.1,0.3,0.2,0.5,0.3,0.8c0.1,0.2,0.2,0.5,0.3,0.7c0.1,0.2,0.2,0.5,0.4,0.7c0,0,0,0.1,0,0.1
			c0.1,0.2,0.2,0.4,0.4,0.6c0.3,0.5,0.6,0.9,0.9,1.3c0.2,0.2,0.3,0.4,0.5,0.7c0.2,0.2,0.3,0.4,0.5,0.6c0.2,0.2,0.4,0.4,0.6,0.6
			c0.3,0.3,0.7,0.6,1,0.9c0.3,0.2,0.5,0.4,0.8,0.6s0.5,0.4,0.8,0.6c0.2,0.1,0.4,0.2,0.6,0.3c0.2,0.1,0.4,0.2,0.6,0.3
			c0.4,0.2,0.8,0.4,1.3,0.5c0.4,0.2,0.9,0.3,1.3,0.4c0.5,0.1,0.9,0.2,1.4,0.3c0,0,0,0.1,0,0.1c-0.6,1.3-1.2,2.7-1.8,4
			c-2.4,5.2-4.7,10.5-7,15.7c0-0.2,0-0.4,0-0.6c0.1-6.5-2-13-5.5-18.4c-1-1.5-2.2-3.3-3.7-5.2c-0.2-0.2-0.3-0.4-0.5-0.6
			c-0.2-0.2-0.3-0.4-0.5-0.7c-0.3-0.4-0.5-0.7-0.8-1.1c-1.1-1.4-2.2-2.7-3.4-4c-0.3-0.4-0.7-0.7-1-1.1c-0.6-0.6-1.2-1.2-1.8-1.7
			c-0.2-0.2-0.4-0.3-0.6-0.5c-0.2-0.2-0.5-0.4-0.8-0.6c-0.2-0.2-0.4-0.3-0.6-0.4c-0.2-0.1-0.4-0.3-0.5-0.4c-0.2-0.1-0.4-0.3-0.6-0.4
			c-0.2-0.1-0.3-0.2-0.5-0.3c-0.2-0.1-0.4-0.2-0.5-0.3c-0.1-0.1-0.2-0.1-0.3-0.2c0,0.2,0,0.6,0,1.2c0,0.2,0,0.5-0.1,0.8v0
			c0,0.1,0,0.2,0,0.3c0,0.2,0,0.4-0.1,0.6c0,0.4-0.1,0.7-0.1,1.1c-0.1,0.5-0.1,1-0.2,1.3c0,0.1,0,0.1,0,0.2c0,0.2,0,0.4,0,0.4
			c-1.1,8.2-2.1,16.7,0.4,24.7c1.9,6.1,6,11.9,12,14.5c1.5,0.7,3.2,1,4.8,0.7c0.4-0.1,0.8-0.2,1.1-0.3c-0.9,2.2-1.8,4.4-2.6,6.7
			c-0.9,2.2-1.7,4.5-2.5,6.7c-1.2,3.4-2.3,6.8-3.3,10.3c-0.3,1-0.6,2.1-0.9,3.1c-0.3,1-0.6,2.1-0.9,3.1c0-0.4,0.1-0.7,0.1-1.1
			c0-0.5,0.1-0.9,0.1-1.4c0-0.2,0-0.5,0-0.7c0.1-2.5-0.1-5.1-0.8-7.6c0-0.2-0.1-0.4-0.2-0.6c-0.1-0.2-0.1-0.5-0.2-0.7
			c-0.1-0.4-0.3-0.7-0.4-1.1c-1.9-4.2-5.6-7.4-8.8-10.7l-0.2-0.2c-0.5-0.6-1.3-1.4-2.2-2.4c-0.2-0.2-0.4-0.4-0.6-0.6
			c-1.8-1.8-3.8-3.8-5.3-4.9c-0.1-0.1-0.2-0.1-0.3-0.2c-0.3-0.2-0.6-0.4-0.8-0.5c-0.1,0-0.1-0.1-0.2-0.1c-0.1,0-0.1,0-0.2-0.1
			c0,0-0.1,0-0.1,0c-0.1,0-0.2,0-0.3,0c0,0-0.1,0-0.1,0c0,0,0,0,0,0c0,0-0.1,0-0.1,0c-0.1,0-0.1,0-0.2,0.1c0,0-0.1,0-0.1,0.1
			c0,0-0.1,0.1-0.1,0.1c-0.1,0.1-0.2,0.2-0.3,0.2c-0.1,0.1-0.2,0.2-0.2,0.3c0,0.1-0.1,0.1-0.1,0.2c-0.1,0.1-0.1,0.1-0.2,0.2
			c-0.1,0.2-0.2,0.4-0.3,0.6c-0.1,0.1-0.1,0.2-0.2,0.3c-0.1,0.2-0.2,0.5-0.3,0.7c0,0.1-0.1,0.2-0.1,0.4c0,0.1-0.1,0.3-0.1,0.4
			c0,0.1-0.1,0.2-0.1,0.3c-0.2,0.7-0.4,1.6-0.6,2.4c-0.1,0.5-0.2,1-0.3,1.5c-0.1,0.3-0.1,0.7-0.2,1c-0.6,4.6-0.5,9.6,0.5,11.3
			c0.9,4.9,2.3,9.6,4.6,13.9c0.2,0.4,0.4,0.8,0.6,1.2c0.4,0.8,0.9,1.5,1.5,2.3c0.3,0.4,0.5,0.7,0.8,1.1c0.3,0.3,0.6,0.7,0.9,1
			c0.2,0.2,0.3,0.3,0.5,0.5c0.2,0.2,0.4,0.4,0.6,0.6c0.2,0.2,0.4,0.3,0.5,0.5c0.4,0.4,0.9,0.8,1.4,1.1c0.2,0.1,0.4,0.3,0.7,0.4
			c1.6,1,3.7,1.8,5.7,1.9c0.9,0,1.7-0.2,2.4-0.6c0.2-0.1,0.5-0.3,0.7-0.5c0,0,0,0,0.1-0.1c-1.2,4.7-2.4,9.4-3.5,14
			c-0.2,0.7-0.4,1.4-0.5,2.2c0,0.2-0.1,0.4-0.1,0.6c-0.1,0.5-0.2,1-0.4,1.5c0,0,0,0,0,0c-0.8,3.2-1.6,6.5-2.3,9.8
			c-0.8-0.2-1.7-0.3-2.5-0.4c-0.4,0-0.8-0.1-1.2-0.1s-0.8,0-1.3,0c-0.7,0-1.4,0-2.1,0.1c0,0,0,0,0,0c-0.6,0-1.2,0.1-1.8,0.2
			c-0.6,0.1-1.2,0.2-1.8,0.3c0,0,0,0,0,0c-1,0.2-2,0.4-3,0.6h0c-0.8,0.2-1.6,0.4-2.3,0.6c0,0,0,0,0,0c-0.6,0.1-1.2,0.3-1.8,0.5
			c-1.2,0.3-2.4,0.7-3.5,1.1c-0.6,0.2-1.2,0.4-1.7,0.6c-0.3,0.1-0.6,0.2-0.9,0.3c-0.3,0.1-0.7,0.3-1,0.4c-0.4,0.2-0.9,0.3-1.3,0.5
			c-0.3,0.1-0.5,0.2-0.5,0.2s-0.1,0-0.2,0.1c-1.1,0.5-2.3,0.9-3.3,1.4c-0.5,0.2-1,0.4-1.2,0.5c-0.3,0.1-0.6,0.3-0.9,0.4h0
			c-0.3,0.1-0.5,0.3-0.8,0.4c-2.8,1.3-4.9,2.4-6.1,3.1c-0.2,0.1-0.4,0.2-0.5,0.3c-0.6,0.4-0.9,0.6-0.9,0.6c5.2,4.4,11.9,6,18.6,5.7
			c0.9,0,1.7-0.1,2.6-0.2c0.6-0.1,1.2-0.2,1.9-0.2c0.3,0,0.5-0.1,0.8-0.2c6.4-1.2,13.8-4.4,16-10.6c-1.7,8.4-3.1,16.8-3.8,25.4
			c-0.2,2.7-0.4,5.4-0.5,8c-0.1,1.6-0.1,3.2-0.1,4.7v0c0,0.8,0,1.6,0,2.4c0.2,10.3,1.8,20.6,5,30.4c0.5-0.2,0.9-0.3,1.4-0.4
			c0.7-0.1,1.4,0,2.1,0.3c1.2,0.6,2.3,0.8,3.2,0.9c-2.2-6.4-4-12.8-5.2-19.4c-0.2-1-0.4-2.1-0.6-3.1c-1.6-9.5-2.2-19.2-2-28.8v0
			c0-1,0.1-1.9,0.1-2.8c0.1-1.6,0.2-3.1,0.3-4.6c0.1-0.8,0.1-1.6,0.2-2.4c0.1-0.9,0.2-1.9,0.3-2.8c0.1-0.9,0.2-1.9,0.3-2.8v0
			c0.1-0.5,0.1-1,0.2-1.5c0.1-1,0.3-2.1,0.5-3.1c0.7-4.5,1.6-8.9,2.6-13.2c0.4-1.6,0.8-3.2,1.2-4.8c0.3-1.2,0.6-2.5,0.9-3.7
			c1.7-6.9,3.4-13.8,5.4-20.7c0.3-1.1,0.6-2.1,0.9-3.2c1-3.5,2.1-7,3.2-10.5c0.9-2.7,3.1-8.3,5.7-14.6c0.5-1.2,1-2.4,1.5-3.6
			c4-9.8,8.5-20.3,10.1-23.9l3-6.7l0.9-2v0l8.3-18.5l0.2-0.4l5.1-11.3c2-1.1,3.3-3.7,4-5.6c0.7-2,1.4-4,1.9-6.1c0,0,0,0,0,0
			c1.6-6.5,2.2-13.5,2.3-20.1C160.8,13.8,160.5,8.7,159.8,3.8z M155.3,44.3c-0.3,0.8-0.6,1.5-1,2.2C154.6,45.8,154.9,45,155.3,44.3z
			 M105.2,67.5C105.3,67.5,105.3,67.5,105.2,67.5C105.3,67.5,105.3,67.4,105.2,67.5z"/>
		<path class="st30" d="M149.4,147.8c-0.8-2.8-5.8-2.6-8-2.7c-12.2-0.3-28.4,15.5-33.2,20.8c-0.9,1-1.4,1.6-1.4,1.7c0,0,0,0,0,0v0
			c0,0,0,0,0,0c0,0,0,0,0,0c0,0.2,0,0.5,0.1,0.7c0,0,0,0,0,0c0.1,0.4,0.2,0.8,0.4,1.2c1,2.1,3.3,3.4,5.8,3.6
			c4.2,0.4,8.9-1.1,12.8-2.6c7.3-2.9,13.9-7.7,18.8-13.9c1.2-1.5,2.3-3.1,3.2-4.7C148.6,150.8,149.8,149.2,149.4,147.8z"/>
		<path class="st30" d="M155.8,123.8c-0.8-2.8-5.8-2.6-8-2.7c-12.3-0.3-28.7,15.8-33.4,20.9c-0.8,0.9-1.3,1.5-1.3,1.5
			c0,0.6,0.2,1.1,0.4,1.7c0.9,2.3,3.4,3.7,6,4c4.2,0.4,8.9-1.1,12.8-2.6c7.3-2.9,13.9-7.7,18.8-13.9c1.2-1.5,2.3-3.1,3.2-4.7
			C155,126.8,156.2,125.2,155.8,123.8z"/>
		<path class="st30" d="M165.7,95.6c-0.8-2.8-5.8-2.6-8-2.7c-11.9-0.3-27.6,14.8-32.8,20.4c-1.2,1.2-1.8,2-1.8,2.1
			c0,0.5,0.1,1.1,0.3,1.5c0.8,2.3,3.4,3.9,6,4.1c4.2,0.4,8.9-1.1,12.8-2.6c7.3-2.9,13.9-7.7,18.8-13.9c1.2-1.5,2.3-3.1,3.2-4.7
			C164.8,98.7,166,97.1,165.7,95.6z"/>
		<path class="st30" d="M138,81.5c0,0,6.5-6.2,18-7.8c11.5-1.6,20.3,2.7,20.3,2.7s-17.8,30.3-38.3,6.3V81.5z"/>
		<path class="st30" d="M147.1,62.1c0,0,10.7-10.3,19.6-10.5c8.9-0.2,15.3,0,15.3,0S164,79.4,147.1,62.1z"/>
		<path class="st30" d="M152.5,50.5c0,0-0.1-0.1,4.7-9.7c4.8-9.6,21.4-14.4,21.4-14.4s1.4,20.7-9.6,22.3
			C158,50.5,152.5,50.5,152.5,50.5z"/>
		<path class="st31" d="M106.8,154.3c-2.2,0-4.7-1.2-6.3-2.3c-3-2-5.2-5-6.8-8.2c-2.2-4.3-3.6-9-4.6-13.9c-2-3.5-0.3-20.4,3.6-20.1
			c0,0,0.1,0,0.1,0L106.8,154.3L106.8,154.3z"/>
		<path class="st31" d="M105.3,67.5C105.3,67.5,105.2,67.5,105.3,67.5C105.3,67.4,105.3,67.5,105.3,67.5z"/>
		<path class="st31" d="M123.2,112.8C123.2,112.8,123.2,112.8,123.2,112.8c-1.8,0.8-4,0.5-5.9-0.3c-6-2.5-10.1-8.4-12-14.5
			c-2.5-8-1.5-16.5-0.4-24.7c-0.1-0.1,0.7-5.2,0.5-5.8c0.1,0,0.2,0.1,0.3,0.2L123.2,112.8z"/>
		<path class="st31" d="M134,88.2c0.6-1.3,1.2-2.6,1.8-4c0,0,0,0,0-0.1c-7.7-1.2-12.3-8.4-13.3-15.7c-0.7-4.9,0-9.9,0.7-14.8
			c0.7-5.2,3.7-16.8,4.2-17.5C131.6,53.3,139.8,87.3,134,88.2z"/>
		<path class="st31" d="M157.3,0.7C157.1,21,156,49.4,150.7,51c-3.1,0.1-3.6-5.4-4.3-7.6c-2.5-8.2-6-16.8-2.6-25.2
			c2.6-6.5,13-16.4,13-16.5C156.9,1.4,157,1,157.3,0.7z"/>
		<path class="st31" d="M106.7,168.9c-2.6,4.1-34.7-13-44-17.2c1.5-1.7,5.2-2,7-2.3c14.3-2.1,36.9,17.6,37.1,18.1c0,0,0,0,0,0
			C107,168.2,106.9,168.6,106.7,168.9z"/>
		<path class="st29" d="M103.6,236.5c-1.1,1.2-1.5,2.6-0.9,3.1c0.6,0.5,1.9,0,3-1.1c1.1-1.2,1.5-2.6,0.9-3.1
			C106,234.9,104.7,235.4,103.6,236.5z"/>
		<path class="st29" d="M97.2,225c0.8,1.1,1,2.3,0.4,2.7c-0.6,0.4-1.7,0-2.5-1.1c-0.8-1.1-1-2.3-0.4-2.7
			C95.3,223.5,96.5,224,97.2,225z"/>
	</g>
	<path class="st23" d="M114.7,258c0,0-2.2-1.2-1.6-2s0.5-0.3,2.4-0.5c1.8-0.2,2.5-1.4,3.1-0.1s0.2,2.9,0.2,2.9L114.7,258z"/>
</g>
</svg>
