<?xml version="1.0" encoding="utf-8"?>
<!-- Generator: Adobe Illustrator 25.0.0, SVG Export Plug-In . SVG Version: 6.00 Build 0)  -->
<svg version="1.1" id="Calque_1" xmlns="http://www.w3.org/2000/svg" xmlns:xlink="http://www.w3.org/1999/xlink" x="0px" y="0px"
	 viewBox="0 0 205 365" style="enable-background:new 0 0 205 365;" xml:space="preserve">
<style type="text/css">
	.st0{fill:#EBEFC2;}
	.st1{fill:#E5CC88;}
	.st2{fill:#D6BF80;}
	.st3{fill:#E9D59F;}
	.st4{fill:#BA847A;}
	.st5{fill:#FFFFFF;}
	.st6{opacity:0.15;fill:#FFFFFF;enable-background:new    ;}
	.st7{fill:#CFB28A;}
</style>
<ellipse class="st0" cx="101" cy="342.9" rx="54.2" ry="20.2"/>
<g>
	<g>
		<path class="st1" d="M161.7,290.1c-1.2,3.7-2.6,7.4-4.4,11c-0.3,0.7-0.7,1.3-1,2c-4,7.5-9.3,14.5-15.6,19.9
			c-7.3,6.2-18.6,9.5-22.2,19.3c0,1-7.9,1.9-17.7,1.9s-17.7-0.8-17.7-1.9c-2.3-6-8.3-9.9-13.5-13.1c-9-5.6-16-13.5-21.5-22.5
			c-1-1.6-1.9-3.3-2.7-4.9l0,0c-7.3-14.4-10.9-31.1-11.4-46.4c0-0.6,0-1.1,0-1.7c0-1.6,0-3.2,0.1-4.8c0-0.7,0.1-1.5,0.1-2.2
			c0.1-1.9,0.4-3.7,0.7-5.5c0.2-1.4,2-10.1,3.8-13.1c0.4-0.6,0.7-1,1.1-1c0,0,0.3,0,0.8,0h120.6c0.5,0,0.8,0,0.8,0
			c0.3,0,0.7,0.4,1,1l0,0c1.9,3.4,3.8,14.4,4.7,20c0.2,1.1,0.3,1.9,0.3,2.5c0,0.2,0,0.4,0,0.5c0,0.2,0,0.4,0,0.7
			C168.6,264.3,165.5,278.1,161.7,290.1z"/>
		<path class="st2" d="M161.6,288.3c-2.4,5.4-5.7,10.3-9.5,14.8s-7.9,8.9-12.3,12.7c-4.5,3.9-9.3,7.5-14.1,10.9
			c-1.9,1.4-3.8,2.6-6,3.4c-2.5,0.9-5.2,1.4-7.9,1.6c-10.7,1-22-1.3-30.6-8.1c-7.5-5.9-13-14.6-16.6-23.2
			c-3.8-8.9-5.9-18.5-6.8-28.1c-1.5-15.1-0.3-30.6,3-45.5H40.5c-0.5,0-0.8,0-0.8,0c-0.3,0-0.7,0.4-1.1,1c-1.7,3-3.5,11.6-3.8,13.1
			c-0.3,1.8-0.5,3.7-0.7,5.5c-0.1,0.7-0.1,1.5-0.1,2.2c-0.1,1.6-0.1,3.2-0.1,4.8c0,0.6,0,1.1,0,1.7c0.1,2.4,0.2,4.8,0.5,7.3l0,0
			c0,0.2,0,0.3,0,0.5c0.1,0.6,0.1,1.3,0.2,1.9c0,0.3,0.1,0.6,0.1,0.9c0.1,0.7,0.2,1.3,0.3,2c0,0.3,0.1,0.5,0.1,0.8
			c0.1,0.7,0.2,1.4,0.3,2.2c0,0.2,0.1,0.4,0.1,0.6c0.1,0.8,0.3,1.6,0.4,2.4c0,0.1,0,0.2,0.1,0.3c0.2,0.9,0.3,1.7,0.5,2.6
			c0,0,0,0,0,0.1c1.9,8.6,4.7,17.1,8.7,25l0,0c0.9,1.7,1.8,3.3,2.7,4.9c5.4,9.1,12.5,16.9,21.5,22.5c5.1,3.2,11.2,7.1,13.5,13.1
			c0,1,7.9,1.9,17.7,1.9s17.7-0.8,17.7-1.9c3.7-9.7,15-13.1,22.2-19.3c6.3-5.4,11.6-12.3,15.6-19.9c0.3-0.7,0.7-1.3,1-2
			c1.8-3.6,3.3-7.3,4.4-11c0.6-2,1.2-4,1.8-6l0,0l0,0c0-0.1,0.1-0.3,0.1-0.4C163,285.2,162.3,286.8,161.6,288.3z"/>
		<path class="st2" d="M111.4,231.4c3.7,1.7,7.7,2.7,11.8,3.2c4.8,0.6,9.7,0.7,14.5,0.8c4.6,0.1,9.6,0,14.1,1.1
			c4.4,1.1,8.4,3.8,11.1,7.4c2.5,3.4,4,7.4,5.1,11.5c0-1.3,0-2.6-0.1-3.9c0-0.2,0-0.4,0-0.7c0-0.1,0-0.3,0-0.5
			c-0.1-0.6-0.2-1.4-0.3-2.5c-0.8-5.6-2.8-16.6-4.7-20l0,0c-0.3-0.6-0.7-1-1-1c0,0-0.3,0-0.8,0h-56.2
			C106.8,228.7,109,230.3,111.4,231.4z"/>
		<path class="st3" d="M106.5,333.9c-3.1,0.1-6.2,0.3-9.4,0.2c-3.5-0.1-7-0.4-10.5-0.7c-3.2-0.3-6.4-0.6-9.6-1.2
			c-1.2-0.2-2.5-0.5-3.7-0.6c4,2.7,8,6.1,9.7,10.6c0,1,7.9,1.9,17.7,1.9s17.7-0.8,17.7-1.9c1.6-4.2,4.6-7.2,8.1-9.8
			C119.9,333.3,113.2,333.6,106.5,333.9z"/>
		<path class="st4" d="M114.4,338.4c-7,0.5-14.1,0.6-21.2,0.6c-4.4,0-8.7-0.6-12.9-1.5c1.2,1.4,2.1,3,2.8,4.7c0,1,7.9,1.9,17.7,1.9
			s17.7-0.8,17.7-1.9c0.7-1.8,1.6-3.3,2.7-4.7C119,337.9,116.7,338.2,114.4,338.4z"/>
		<g>
			<path class="st5" d="M157.3,301.1c-0.3,0.7-0.7,1.3-1,2c-1-0.2-2-0.3-2.9-0.1c-1.3,0.3-2.2,1.1-3.2,2c-1.4,1.2-2.9,2.6-5.6,2.4
				c-1.5-0.1-2.8-0.7-4.1-1.2c-1.6-0.6-3.1-1.2-4.7-1c-1.3,0.2-2.4,1.1-3.6,1.9c-1.1,0.8-2.2,1.7-3.6,2.2c-3.9,1.4-7.2,0-10.3-1.4
				c-0.6-0.3-1.2-0.5-1.8-0.7c-2.7-1-3.9-0.5-6.3,1.1c-3.2,2.1-6.2,2.6-10.4,1.8c-1.1-0.2-2.2-0.6-3.2-0.9c-2.3-0.7-4.4-1.4-6.5-0.8
				c-0.8,0.3-1.3,0.7-1.8,1.2c-0.7,0.7-1.6,1.5-3.3,1.5c-0.3,0-0.6,0-1-0.1c-1.6-0.3-3.1-0.9-4.5-1.4c-1.5-0.6-3-1.2-4.5-1.4
				c-1.5-0.2-3-0.1-4,0.1c-0.4,0.1-0.8,0.4-1.2,0.7c-0.5,0.3-1.1,0.7-1.8,0.9c-2.8,0.8-5.5-1-7.5-2.7c-0.2-0.2-0.4-0.3-0.6-0.5
				c-1.6-1.3-2.4-2-4.5-1.7c-0.8,0.1-1.6,0.4-2.5,0.7c-1.4,0.5-3,1.1-4.8,0.8l-2.7-4.9c0.7,1.2,1.3,2.1,2.4,2.6
				c1.5,0.6,2.8,0.1,4.4-0.4c0.9-0.3,1.9-0.7,2.9-0.8c3-0.4,4.4,0.7,6.2,2.2c0.2,0.2,0.4,0.3,0.6,0.5c1.6,1.3,3.8,2.8,5.6,2.3
				c0.3-0.1,0.7-0.4,1.1-0.6c0.5-0.4,1.1-0.8,1.8-1c1.7-0.5,3.7-0.3,4.8-0.2c1.8,0.2,3.4,0.9,5,1.5c1.4,0.5,2.7,1.1,4.1,1.3
				c1.3,0.2,1.6-0.2,2.4-0.9c0.6-0.6,1.3-1.3,2.6-1.7c2.7-0.9,5.4,0,7.8,0.8c1,0.3,2,0.7,3,0.8c3.7,0.7,6.2,0.3,8.9-1.5
				c2.5-1.6,4.6-2.7,8.3-1.3c0.6,0.2,1.2,0.5,1.8,0.8c3,1.3,5.6,2.4,8.8,1.3c1.1-0.4,2-1.1,3-1.9c1.3-1,2.7-2.1,4.5-2.3
				c2.2-0.4,4.1,0.4,5.9,1.1c1.2,0.5,2.3,0.9,3.5,1c1.7,0.1,2.7-0.8,4-1.9c1.1-1,2.3-2.1,4.2-2.4
				C154.5,300.6,155.9,300.8,157.3,301.1z"/>
		</g>
		<g>
			<path class="st5" d="M167.9,250.4c-1.4,1.1-2.9,1.9-4.4,2.1c-1.5,0.2-2.9,0-4.2-0.3c-1.3-0.2-2.6-0.5-3.8-0.2
				c-1.3,0.3-2.3,1.1-3.4,2c-1.4,1.3-3.1,2.7-5.8,2.5c-1.6-0.1-2.9-0.7-4.3-1.2c-1.7-0.7-3.2-1.3-5-1c-1.4,0.2-2.5,1.1-3.7,2
				c-1.1,0.9-2.3,1.8-3.8,2.3c-4.1,1.4-7.4,0-10.7-1.4c-0.6-0.3-1.2-0.5-1.9-0.8c-2.8-1.1-4.1-0.5-6.6,1.1
				c-3.3,2.2-6.5,2.7-10.8,1.9c-1.1-0.2-2.3-0.6-3.4-0.9c-2.4-0.8-4.6-1.5-6.8-0.8c-0.8,0.3-1.3,0.7-1.9,1.3
				c-0.8,0.7-1.7,1.6-3.4,1.6c-0.3,0-0.6,0-1-0.1c-1.7-0.3-3.2-0.9-4.7-1.5c-1.6-0.6-3.1-1.2-4.7-1.4c-1.6-0.2-3.1-0.1-4.1,0.1
				c-0.4,0.1-0.8,0.4-1.3,0.7c-0.5,0.4-1.1,0.8-1.8,1c-2.9,0.8-5.7-1.1-7.8-2.8c-0.2-0.2-0.4-0.4-0.7-0.5c-1.7-1.4-2.5-2.1-4.8-1.8
				c-0.9,0.1-1.7,0.4-2.6,0.8c-1.8,0.7-3.8,1.4-6.2,0.4c-1.8-0.8-2.7-2.3-3.5-3.6c-0.4-0.7-0.9-1.5-1.4-2c-1.5-1.6-3.6-1.6-5.6-1
				c0-0.7,0.1-1.5,0.1-2.2c2.8-0.6,5.2-0.1,7,1.7c0.7,0.7,1.2,1.6,1.7,2.4c0.7,1.2,1.3,2.3,2.5,2.7c1.6,0.7,3,0.1,4.6-0.5
				c1-0.4,1.9-0.7,3-0.9c3.2-0.4,4.6,0.8,6.4,2.3c0.2,0.2,0.4,0.3,0.6,0.5c1.7,1.4,4,2.9,5.9,2.4c0.4-0.1,0.8-0.4,1.2-0.7
				c0.5-0.4,1.2-0.8,1.9-1c1.8-0.5,3.9-0.3,5-0.2c1.9,0.2,3.6,0.9,5.2,1.6c1.5,0.6,2.9,1.1,4.3,1.4c1.3,0.2,1.8-0.2,2.6-0.9
				c0.6-0.6,1.4-1.3,2.6-1.7c2.8-0.9,5.5-0.1,8.1,0.8c1.1,0.3,2.1,0.7,3.1,0.9c3.8,0.7,6.4,0.3,9.3-1.6c2.6-1.7,4.8-2.8,8.6-1.3
				c0.7,0.3,1.3,0.5,1.9,0.8c3.1,1.3,5.9,2.5,9.2,1.4c1.1-0.4,2.1-1.1,3.2-1.9c1.4-1,2.8-2.1,4.7-2.4c2.3-0.4,4.2,0.4,6.1,1.1
				c1.3,0.5,2.4,1,3.7,1.1c1.8,0.1,2.9-0.8,4.2-2c1.1-1,2.4-2.2,4.4-2.5c1.6-0.3,3.1,0,4.6,0.2c1.2,0.2,2.4,0.4,3.5,0.3
				c1.4-0.2,3-1.2,4.4-2.5C167.7,249,167.8,249.8,167.9,250.4z"/>
		</g>
		<g>
			<path class="st5" d="M164.8,279c-0.6,0.4-0.8,0.4-1,0.4c-1.5,0.2-2.9,0-4.2-0.3c-1.3-0.2-2.6-0.5-3.8-0.2c-1.3,0.3-2.3,1.1-3.4,2
				c-1.4,1.3-3.1,2.7-5.8,2.5c-1.6-0.1-2.9-0.7-4.3-1.2c-1.7-0.7-3.2-1.3-5-1c-1.4,0.2-2.5,1.1-3.7,2c-1.1,0.9-2.3,1.8-3.8,2.3
				c-4.1,1.4-7.4,0-10.7-1.4c-0.6-0.3-1.2-0.5-1.9-0.8c-2.8-1.1-4.1-0.5-6.6,1.1c-3.3,2.2-6.5,2.7-10.8,1.9
				c-1.1-0.2-2.3-0.6-3.4-0.9c-2.4-0.8-4.6-1.5-6.8-0.8c-0.8,0.3-1.3,0.7-1.9,1.3c-0.8,0.7-1.7,1.6-3.4,1.6c-0.3,0-0.6,0-1-0.1
				c-1.7-0.3-3.2-0.9-4.7-1.5c-1.6-0.6-3.1-1.2-4.7-1.4c-1.6-0.2-3.1-0.1-4.1,0.1c-0.4,0.1-0.8,0.4-1.3,0.7c-0.5,0.4-1.1,0.8-1.8,1
				c-2.9,0.8-5.7-1.1-7.8-2.8c-0.2-0.2-0.4-0.4-0.7-0.5c-1.7-1.4-2.5-2.1-4.8-1.8c-0.9,0.1-1.7,0.4-2.6,0.8
				c-1.8,0.7-3.8,1.4-6.2,0.4c-1.8-0.8-2.7-2.3-3.5-3.6c-0.4-0.7-0.9-1.5-1.4-2c-1.5-1.6-1.6-1.6-3.6-1c-0.1-0.7-0.3-1.6-0.5-2.4
				c2.8-0.6,3.9,0.2,5.6,1.9c0.7,0.7,1.2,1.6,1.7,2.4c0.7,1.2,1.3,2.3,2.5,2.7c1.6,0.7,3,0.1,4.6-0.5c1-0.4,1.9-0.7,3-0.9
				c3.2-0.4,4.6,0.8,6.4,2.3c0.2,0.2,0.4,0.3,0.6,0.5c1.7,1.4,4,2.9,5.9,2.4c0.4-0.1,0.8-0.4,1.2-0.7c0.5-0.4,1.2-0.8,1.9-1
				c1.8-0.5,3.9-0.3,5-0.2c1.9,0.2,3.6,0.9,5.2,1.6c1.5,0.6,2.9,1.1,4.3,1.4c1.3,0.2,1.8-0.2,2.6-0.9c0.6-0.6,1.4-1.3,2.6-1.7
				c2.8-0.9,5.5-0.1,8.1,0.8c1.1,0.3,2.1,0.7,3.1,0.9c3.8,0.7,6.4,0.3,9.3-1.6c2.6-1.7,4.8-2.8,8.6-1.3c0.7,0.3,1.3,0.5,1.9,0.8
				c3.1,1.3,5.9,2.5,9.2,1.4c1.1-0.4,2.1-1.1,3.2-1.9c1.4-1,2.8-2.1,4.7-2.4c2.3-0.4,4.2,0.4,6.1,1.1c1.3,0.5,2.4,1,3.7,1.1
				c1.8,0.1,2.9-0.8,4.2-2c1.1-1,2.4-2.2,4.4-2.5c1.6-0.3,3.1,0,4.6,0.2c1.2,0.2,2.4,0.4,3.5,0.3c1.4-0.2,0.6-0.4,2-1.7
				C165.3,276.7,165,278.4,164.8,279z"/>
		</g>
		<path class="st6" d="M147.5,244.8c3.8-0.9,9.5-2,11.2,2.1c1.2,3.1,0.7,9.3,0.4,12.6c-0.7,6.1-3.1,12.8-4.9,18.6
			c-2,6.2-4.8,12.3-7.9,18c-2.5,4.6-5.5,17.1-12.9,15.8c-3.8-0.7-3.4-4.8-4.1-8.4c-1.2-5.7-2.8-11.7-5.6-16.9
			c-6.4-11.8-16.4-19.5-27.2-26.7c-3.1-2.1-8.7-5.1-9.5-9c-1.4-6.5,10.6-3.6,14-3.5C116.5,248.2,132.2,248.3,147.5,244.8z"/>
	</g>
	<path class="st4" d="M38.8,209.9l11.3,0.4c11.2-5.9,29.7-9.8,50.7-9.8c23.4,0,43.8,4.8,54.3,11.9c4.4-1.3,8.8-2.6,8.8-2.6
		l-1.3,14.7l0,0c-1.6,12.2-28.6,21.8-61.8,21.8c-33.5,0-60.8-9.9-61.8-22.3l-0.2-0.2v-13.5l0,0L38.8,209.9L38.8,209.9z"/>
	<path class="st7" d="M38.6,209.7c0,12.8,28.4,23,62.9,23s62.5-10.3,62.5-23.1s-28-23.1-62.5-23.1C67,186.5,38.6,196.9,38.6,209.7
		L38.6,209.7z"/>
	<path class="st1" d="M40.7,209.5c0,11.5,27.1,20.9,60.4,20.9c33.4,0,60.4-9.4,60.4-20.9s-27-20.9-60.4-20.9
		C67.8,188.6,40.7,197.9,40.7,209.5L40.7,209.5z"/>
	<path class="st1" d="M40.7,209.5"/>
	<path class="st6" d="M48.4,206c0.6-0.9,1.2-1.3,1.9-1.8c4.9-3.3,25.8-11.2,52.1-9.8c0,0,12.1,0.4,2.8,5.2
		c-9.3,4.7-15.3,5.5-28.4,8.2C64.3,210.4,44.6,212.2,48.4,206z"/>
</g>
</svg>
