<?xml version="1.0" encoding="utf-8"?>
<!-- Generator: Adobe Illustrator 25.0.0, SVG Export Plug-In . SVG Version: 6.00 Build 0)  -->
<svg version="1.1" id="Calque_1" xmlns="http://www.w3.org/2000/svg" xmlns:xlink="http://www.w3.org/1999/xlink" x="0px" y="0px"
	 viewBox="0 0 205 365" style="enable-background:new 0 0 205 365;" xml:space="preserve">
<style type="text/css">
	.st0{fill:#EBEFC2;}
	.st1{fill:#E5CC88;}
	.st2{fill:#D6BF80;}
	.st3{fill:#E9D59F;}
	.st4{fill:#BA847A;}
	.st5{fill:#FFFFFF;}
	.st6{opacity:0.15;fill:#FFFFFF;enable-background:new    ;}
	.st7{fill:#CFB28A;}
	.st8{fill:#584521;}
	.st9{fill:#3E321A;}
	.st10{fill:#6E562B;}
	.st11{fill:#795E2F;}
	.st12{fill:#7D6333;}
	.st13{fill:#46361A;}
	.st14{fill:#54401D;}
	.st15{fill:#3D3018;}
	.st16{fill:#674E21;}
	.st17{fill:#3C2E18;}
	.st18{fill:#855825;}
	.st19{fill:#282115;}
	.st20{fill:#493719;}
	.st21{fill:#543F1C;}
	.st22{fill:#2E2316;}
	.st23{fill:#382A18;}
	.st24{fill:#261E14;}
	.st25{fill:#433218;}
</style>
<ellipse class="st0" cx="101.2" cy="343.5" rx="54.2" ry="20.2"/>
<g>
	<g>
		<path class="st1" d="M161.9,290.7c-1.2,3.7-2.6,7.4-4.4,11c-0.3,0.7-0.7,1.3-1,2c-4,7.5-9.3,14.5-15.6,19.9
			c-7.3,6.2-18.6,9.5-22.2,19.3c0,1-7.9,1.9-17.7,1.9s-17.7-0.8-17.7-1.9c-2.3-6-8.3-9.9-13.5-13.1c-9-5.6-16-13.5-21.5-22.5
			c-1-1.6-1.9-3.3-2.7-4.9l0,0C38.3,288,34.7,271.3,34.2,256c0-0.6,0-1.1,0-1.7c0-1.6,0-3.2,0.1-4.8c0-0.7,0.1-1.5,0.1-2.2
			c0.1-1.9,0.4-3.7,0.7-5.5c0.2-1.4,2-10.1,3.8-13.1c0.4-0.6,0.7-1,1.1-1c0,0,0.3,0,0.8,0h120.6c0.5,0,0.8,0,0.8,0
			c0.3,0,0.7,0.4,1,1l0,0c1.9,3.4,3.8,14.4,4.7,20c0.2,1.1,0.3,1.9,0.3,2.5c0,0.2,0,0.4,0,0.5c0,0.2,0,0.4,0,0.7
			C168.7,264.9,165.6,278.7,161.9,290.7z"/>
		<path class="st2" d="M161.8,289c-2.4,5.4-5.7,10.3-9.5,14.8s-7.9,8.9-12.3,12.7c-4.5,3.9-9.3,7.5-14.1,10.9
			c-1.9,1.4-3.8,2.6-6,3.4c-2.5,0.9-5.2,1.4-7.9,1.6c-10.7,1-22-1.3-30.6-8.1c-7.5-5.9-13-14.6-16.6-23.2
			c-3.8-8.9-5.9-18.5-6.8-28.1c-1.5-15.1-0.3-30.6,3-45.5H40.6c-0.5,0-0.8,0-0.8,0c-0.3,0-0.7,0.4-1.1,1c-1.7,3-3.5,11.6-3.8,13.1
			c-0.3,1.8-0.5,3.7-0.7,5.5c-0.1,0.7-0.1,1.5-0.1,2.2c-0.1,1.6-0.1,3.2-0.1,4.8c0,0.6,0,1.1,0,1.7c0.1,2.4,0.2,4.8,0.5,7.3l0,0
			c0,0.2,0,0.3,0,0.5c0.1,0.6,0.1,1.3,0.2,1.9c0,0.3,0.1,0.6,0.1,0.9c0.1,0.7,0.2,1.3,0.3,2c0,0.3,0.1,0.5,0.1,0.8
			c0.1,0.7,0.2,1.4,0.3,2.2c0,0.2,0.1,0.4,0.1,0.6c0.1,0.8,0.3,1.6,0.4,2.4c0,0.1,0,0.2,0.1,0.3c0.2,0.9,0.3,1.7,0.5,2.6
			c0,0,0,0,0,0.1c1.9,8.6,4.7,17.1,8.7,25l0,0c0.9,1.7,1.8,3.3,2.7,4.9c5.4,9.1,12.5,16.9,21.5,22.5c5.1,3.2,11.2,7.1,13.5,13.1
			c0,1,7.9,1.9,17.7,1.9s17.7-0.8,17.7-1.9c3.7-9.7,15-13.1,22.2-19.3c6.3-5.4,11.6-12.3,15.6-19.9c0.3-0.7,0.7-1.3,1-2
			c1.8-3.6,3.3-7.3,4.4-11c0.6-2,1.2-4,1.8-6l0,0l0,0c0-0.1,0.1-0.3,0.1-0.4C163.1,285.8,162.5,287.4,161.8,289z"/>
		<path class="st2" d="M111.6,232.1c3.7,1.7,7.7,2.7,11.8,3.2c4.8,0.6,9.7,0.7,14.5,0.8c4.6,0.1,9.6,0,14.1,1.1
			c4.4,1.1,8.4,3.8,11.1,7.4c2.5,3.4,4,7.4,5.1,11.5c0-1.3,0-2.6-0.1-3.9c0-0.2,0-0.4,0-0.7c0-0.1,0-0.3,0-0.5
			c-0.1-0.6-0.2-1.4-0.3-2.5c-0.8-5.6-2.8-16.6-4.7-20l0,0c-0.3-0.6-0.7-1-1-1c0,0-0.3,0-0.8,0H105
			C106.9,229.4,109.2,230.9,111.6,232.1z"/>
		<path class="st3" d="M106.7,334.5c-3.1,0.1-6.2,0.3-9.4,0.2c-3.5-0.1-7-0.4-10.5-0.7c-3.2-0.3-6.4-0.6-9.6-1.2
			c-1.2-0.2-2.5-0.5-3.7-0.6c4,2.7,8,6.1,9.7,10.6c0,1,7.9,1.9,17.7,1.9s17.7-0.8,17.7-1.9c1.6-4.2,4.6-7.2,8.1-9.8
			C120.1,333.9,113.3,334.3,106.7,334.5z"/>
		<path class="st4" d="M114.5,339.1c-7,0.5-14.1,0.6-21.2,0.6c-4.4,0-8.7-0.6-12.9-1.5c1.2,1.4,2.1,3,2.8,4.7c0,1,7.9,1.9,17.7,1.9
			s17.7-0.8,17.7-1.9c0.7-1.8,1.6-3.3,2.7-4.7C119.1,338.6,116.8,338.9,114.5,339.1z"/>
		<g>
			<path class="st5" d="M157.5,301.8c-0.3,0.7-0.7,1.3-1,2c-1-0.2-2-0.3-2.9-0.1c-1.3,0.3-2.2,1.1-3.2,2c-1.4,1.2-2.9,2.6-5.6,2.4
				c-1.5-0.1-2.8-0.7-4.1-1.2c-1.6-0.6-3.1-1.2-4.7-1c-1.3,0.2-2.4,1.1-3.6,1.9c-1.1,0.8-2.2,1.7-3.6,2.2c-3.9,1.4-7.2,0-10.3-1.4
				c-0.6-0.3-1.2-0.5-1.8-0.7c-2.7-1-3.9-0.5-6.3,1.1c-3.2,2.1-6.2,2.6-10.4,1.8c-1.1-0.2-2.2-0.6-3.2-0.9c-2.3-0.7-4.4-1.4-6.5-0.8
				c-0.8,0.3-1.3,0.7-1.8,1.2c-0.7,0.7-1.6,1.5-3.3,1.5c-0.3,0-0.6,0-1-0.1c-1.6-0.3-3.1-0.9-4.5-1.4c-1.5-0.6-3-1.2-4.5-1.4
				c-1.5-0.2-3-0.1-4,0.1c-0.4,0.1-0.8,0.4-1.2,0.7c-0.5,0.3-1.1,0.7-1.8,0.9c-2.8,0.8-5.5-1-7.5-2.7c-0.2-0.2-0.4-0.3-0.6-0.5
				c-1.6-1.3-2.4-2-4.5-1.7c-0.8,0.1-1.6,0.4-2.5,0.7c-1.4,0.5-3,1.1-4.8,0.8l-2.7-4.9c0.7,1.2,1.3,2.1,2.4,2.6
				c1.5,0.6,2.8,0.1,4.4-0.4c0.9-0.3,1.9-0.7,2.9-0.8c3-0.4,4.4,0.7,6.2,2.2c0.2,0.2,0.4,0.3,0.6,0.5c1.6,1.3,3.8,2.8,5.6,2.3
				c0.3-0.1,0.7-0.4,1.1-0.6c0.5-0.4,1.1-0.8,1.8-1c1.7-0.5,3.7-0.3,4.8-0.2c1.8,0.2,3.4,0.9,5,1.5c1.4,0.5,2.7,1.1,4.1,1.3
				c1.3,0.2,1.6-0.2,2.4-0.9c0.6-0.6,1.3-1.3,2.6-1.7c2.7-0.9,5.4,0,7.8,0.8c1,0.3,2,0.7,3,0.8c3.7,0.7,6.2,0.3,8.9-1.5
				c2.5-1.6,4.6-2.7,8.3-1.3c0.6,0.2,1.2,0.5,1.8,0.8c3,1.3,5.6,2.4,8.8,1.3c1.1-0.4,2-1.1,3-1.9c1.3-1,2.7-2.1,4.5-2.3
				c2.2-0.4,4.1,0.4,5.9,1.1c1.2,0.5,2.3,0.9,3.5,1c1.7,0.1,2.7-0.8,4-1.9c1.1-1,2.3-2.1,4.2-2.4
				C154.7,301.3,156.1,301.5,157.5,301.8z"/>
		</g>
		<g>
			<path class="st5" d="M168,251.1c-1.4,1.1-2.9,1.9-4.4,2.1c-1.5,0.2-2.9,0-4.2-0.3c-1.3-0.2-2.6-0.5-3.8-0.2
				c-1.3,0.3-2.3,1.1-3.4,2c-1.4,1.3-3.1,2.7-5.8,2.5c-1.6-0.1-2.9-0.7-4.3-1.2c-1.7-0.7-3.2-1.3-5-1c-1.4,0.2-2.5,1.1-3.7,2
				c-1.1,0.9-2.3,1.8-3.8,2.3c-4.1,1.4-7.4,0-10.7-1.4c-0.6-0.3-1.2-0.5-1.9-0.8c-2.8-1.1-4.1-0.5-6.6,1.1
				c-3.3,2.2-6.5,2.7-10.8,1.9c-1.1-0.2-2.3-0.6-3.4-0.9c-2.4-0.8-4.6-1.5-6.8-0.8c-0.8,0.3-1.3,0.7-1.9,1.3
				c-0.8,0.7-1.7,1.6-3.4,1.6c-0.3,0-0.6,0-1-0.1c-1.7-0.3-3.2-0.9-4.7-1.5c-1.6-0.6-3.1-1.2-4.7-1.4c-1.6-0.2-3.1-0.1-4.1,0.1
				c-0.4,0.1-0.8,0.4-1.3,0.7c-0.5,0.4-1.1,0.8-1.8,1c-2.9,0.8-5.7-1.1-7.8-2.8c-0.2-0.2-0.4-0.4-0.7-0.5c-1.7-1.4-2.5-2.1-4.8-1.8
				c-0.9,0.1-1.7,0.4-2.6,0.8c-1.8,0.7-3.8,1.4-6.2,0.4c-1.8-0.8-2.7-2.3-3.5-3.6c-0.4-0.7-0.9-1.5-1.4-2c-1.5-1.6-3.6-1.6-5.6-1
				c0-0.7,0.1-1.5,0.1-2.2c2.8-0.6,5.2-0.1,7,1.7c0.7,0.7,1.2,1.6,1.7,2.4c0.7,1.2,1.3,2.3,2.5,2.7c1.6,0.7,3,0.1,4.6-0.5
				c1-0.4,1.9-0.7,3-0.9c3.2-0.4,4.6,0.8,6.4,2.3c0.2,0.2,0.4,0.3,0.6,0.5c1.7,1.4,4,2.9,5.9,2.4c0.4-0.1,0.8-0.4,1.2-0.7
				c0.5-0.4,1.2-0.8,1.9-1c1.8-0.5,3.9-0.3,5-0.2c1.9,0.2,3.6,0.9,5.2,1.6c1.5,0.6,2.9,1.1,4.3,1.4c1.3,0.2,1.8-0.2,2.6-0.9
				c0.6-0.6,1.4-1.3,2.6-1.7c2.8-0.9,5.5-0.1,8.1,0.8c1.1,0.3,2.1,0.7,3.1,0.9c3.8,0.7,6.4,0.3,9.3-1.6c2.6-1.7,4.8-2.8,8.6-1.3
				c0.7,0.3,1.3,0.5,1.9,0.8c3.1,1.3,5.9,2.5,9.2,1.4c1.1-0.4,2.1-1.1,3.2-1.9c1.4-1,2.8-2.1,4.7-2.4c2.3-0.4,4.2,0.4,6.1,1.1
				c1.3,0.5,2.4,1,3.7,1.1c1.8,0.1,2.9-0.8,4.2-2c1.1-1,2.4-2.2,4.4-2.5c1.6-0.3,3.1,0,4.6,0.2c1.2,0.2,2.4,0.4,3.5,0.3
				c1.4-0.2,3-1.2,4.4-2.5C167.8,249.6,167.9,250.5,168,251.1z"/>
		</g>
		<g>
			<path class="st5" d="M165,279.7c-0.6,0.4-0.8,0.4-1,0.4c-1.5,0.2-2.9,0-4.2-0.3c-1.3-0.2-2.6-0.5-3.8-0.2c-1.3,0.3-2.3,1.1-3.4,2
				c-1.4,1.3-3.1,2.7-5.8,2.5c-1.6-0.1-2.9-0.7-4.3-1.2c-1.7-0.7-3.2-1.3-5-1c-1.4,0.2-2.5,1.1-3.7,2c-1.1,0.9-2.3,1.8-3.8,2.3
				c-4.1,1.4-7.4,0-10.7-1.4c-0.6-0.3-1.2-0.5-1.9-0.8c-2.8-1.1-4.1-0.5-6.6,1.1c-3.3,2.2-6.5,2.7-10.8,1.9
				c-1.1-0.2-2.3-0.6-3.4-0.9c-2.4-0.8-4.6-1.5-6.8-0.8c-0.8,0.3-1.3,0.7-1.9,1.3c-0.8,0.7-1.7,1.6-3.4,1.6c-0.3,0-0.6,0-1-0.1
				c-1.7-0.3-3.2-0.9-4.7-1.5c-1.6-0.6-3.1-1.2-4.7-1.4c-1.6-0.2-3.1-0.1-4.1,0.1c-0.4,0.1-0.8,0.4-1.3,0.7c-0.5,0.4-1.1,0.8-1.8,1
				c-2.9,0.8-5.7-1.1-7.8-2.8c-0.2-0.2-0.4-0.4-0.7-0.5c-1.7-1.4-2.5-2.1-4.8-1.8c-0.9,0.1-1.7,0.4-2.6,0.8
				c-1.8,0.7-3.8,1.4-6.2,0.4c-1.8-0.8-2.7-2.3-3.5-3.6c-0.4-0.7-0.9-1.5-1.4-2c-1.5-1.6-1.6-1.6-3.6-1c-0.1-0.7-0.3-1.6-0.5-2.4
				c2.8-0.6,3.9,0.2,5.6,1.9c0.7,0.7,1.2,1.6,1.7,2.4c0.7,1.2,1.3,2.3,2.5,2.7c1.6,0.7,3,0.1,4.6-0.5c1-0.4,1.9-0.7,3-0.9
				c3.2-0.4,4.6,0.8,6.4,2.3c0.2,0.2,0.4,0.3,0.6,0.5c1.7,1.4,4,2.9,5.9,2.4c0.4-0.1,0.8-0.4,1.2-0.7c0.5-0.4,1.2-0.8,1.9-1
				c1.8-0.5,3.9-0.3,5-0.2c1.9,0.2,3.6,0.9,5.2,1.6c1.5,0.6,2.9,1.1,4.3,1.4c1.3,0.2,1.8-0.2,2.6-0.9c0.6-0.6,1.4-1.3,2.6-1.7
				c2.8-0.9,5.5-0.1,8.1,0.8c1.1,0.3,2.1,0.7,3.1,0.9c3.8,0.7,6.4,0.3,9.3-1.6c2.6-1.7,4.8-2.8,8.6-1.3c0.7,0.3,1.3,0.5,1.9,0.8
				c3.1,1.3,5.9,2.5,9.2,1.4c1.1-0.4,2.1-1.1,3.2-1.9c1.4-1,2.8-2.1,4.7-2.4c2.3-0.4,4.2,0.4,6.1,1.1c1.3,0.5,2.4,1,3.7,1.1
				c1.8,0.1,2.9-0.8,4.2-2c1.1-1,2.4-2.2,4.4-2.5c1.6-0.3,3.1,0,4.6,0.2c1.2,0.2,2.4,0.4,3.5,0.3c1.4-0.2,0.6-0.4,2-1.7
				C165.5,277.4,165.1,279,165,279.7z"/>
		</g>
		<path class="st6" d="M147.7,245.5c3.8-0.9,9.5-2,11.2,2.1c1.2,3.1,0.7,9.3,0.4,12.6c-0.7,6.1-3.1,12.8-4.9,18.6
			c-2,6.2-4.8,12.3-7.9,18c-2.5,4.6-5.5,17.1-12.9,15.8c-3.8-0.7-3.4-4.8-4.1-8.4c-1.2-5.7-2.8-11.7-5.6-16.9
			c-6.4-11.8-16.4-19.5-27.2-26.7c-3.1-2.1-8.7-5.1-9.5-9c-1.4-6.5,10.6-3.6,14-3.5C116.7,248.8,132.4,249,147.7,245.5z"/>
	</g>
	<path class="st4" d="M38.9,210.6l11.3,0.4c11.2-5.9,29.7-9.8,50.7-9.8c23.4,0,43.8,4.8,54.3,11.9c4.4-1.3,8.8-2.6,8.8-2.6
		l-1.3,14.7l0,0c-1.6,12.2-28.6,21.8-61.8,21.8c-33.5,0-60.8-9.9-61.8-22.3l-0.2-0.2V211l0,0L38.9,210.6L38.9,210.6z"/>
	<path class="st7" d="M38.7,210.4c0,12.8,28.4,23,62.9,23s62.5-10.3,62.5-23.1s-28-23.1-62.5-23.1C67.1,187.2,38.7,197.6,38.7,210.4
		L38.7,210.4z"/>
	<path class="st1" d="M40.9,210.1c0,11.5,27.1,20.9,60.4,20.9c33.4,0,60.4-9.4,60.4-20.9s-27-20.9-60.4-20.9
		C68,189.2,40.9,198.6,40.9,210.1L40.9,210.1z"/>
	<g>
		<path class="st8" d="M140.2,207c0,0,1.1-2.7-8.6-6c-9.7-3.3-12,2.5-12,2.5s0.3-2.5-4.9-5.6c-5.2-3.1-13,1.9-13,1.9
			c-8.5-3.6-14.9,4.5-14.9,4.5c-7.8-7.2-21-0.1-21-0.1c-13.4-2.7-16.7,7.5-16.7,7.5c-3.3-0.1-5.1,0.6-6.9,2
			c6.6,9.1,29.4,16.5,57.4,17.2c30.3,0.7,55.6-6.5,60.2-16.4c-3.4-3.2-9.6-4.2-9.6-4.2C147.1,206.3,140.2,207,140.2,207L140.2,207z"
			/>
		<path class="st9" d="M140.5,207.1c1-3.1-7-5.5-8.8-6.1c-3.7-1.3-9.7-2-12,1.9c-0.3,0.6-0.2,0.5-0.1,0.5s0.3-0.1,0.3,0.2
			c-0.1-0.9-0.6-1.6-1.1-2.4c-1.5-2.2-4.3-3.6-6.9-4.2c-2.4-0.5-5,0.4-7.2,1.2c-1.1,0.4-2.2,1-3.2,1.6c0.4-0.2-3.8-0.8-3.3-0.8
			c-3-0.1-5.5,0.6-8,2.1c-1.1,0.7-2.1,1.6-3,2.5c-1.2,1.2-1.3-0.3-2.9-1c-5.7-2.5-11.6-1.4-17.2,0.9c-1.4,0.6-2.7,0.5-4.1,0.4
			c-0.8-0.1-1.7-0.1-2.6-0.1c-3,0.3-5.6,1.1-7.9,2.9c-1.6,1.2-2.7,2.9-3.5,4.6c-0.2,0.4-1.8,0.5-3.5,0.9c-1.4,0.4-2.9,1-3.6,1.4
			l0.3,0.7c3.4,5.6,12.4,9.3,20.1,11.6c12,3.6,24.7,4.9,37.3,5.3c13.1,0.4,26.4-0.8,39-4c7.6-1.9,17.6-5.3,21.4-12.5l-0.1-0.1
			c-3.2-2.6-7.5-3.1-10.6-5.3c-2.7-1.9-5.9-2.6-9.3-2.3c-0.3,0,0.2,0.3,0.4,0.3c3.9-0.3,6.9,2.7,10.6,3.5c3.2,0.7,10,2.2,7.1,6.1
			c-1,1.4-2.5,2.5-3.9,3.5c-9.5,6.8-23.3,8.7-34.8,9.9c-15.8,1.7-32.2,0.8-47.7-2.3c-6.7-1.3-12.9-3.4-19.1-6.3
			c-2.4-1.1-4.4-2.4-6.4-3.9c-0.9-0.7-1.7-1.3-2.4-2.1c-3-3,5.2-3.7,5.5-3.7l0.2-0.1c2.3-6.6,9.7-8.6,16.4-7.5
			c0.6,0.1,2-0.9,2.6-1.1c5.9-2.4,12.8-3.2,18.1,1.1l0.5,0.1c0.8-1,1.8-1.8,2.8-2.6c4.1-3.3,6.3-2,11.9-1.8c1,0,2.5-1.3,3.4-1.7
			c4.5-2,14.2-0.4,14.1,5.2l0.6,0.1c0.9-2,3-3,5.2-3.4c-1.6,0.3,16.3,1.8,14.8,6.7L140.5,207.1L140.5,207.1z"/>
		<path class="st10" d="M66.6,206.2c0,0-10.8-1.8-12.9,3.6c-2.1,5.3-9.1,2.5-4.6,7.1s11.4,4.8,14.6,2.3c3.1-2.5,4.2-6,10.5-5.5
			c6.2,0.5,2.4-4.1-1.3-4.2c-3.7-0.1,3.2-4.4,6.2-4.7C82,204.5,72.6,201.4,66.6,206.2L66.6,206.2z"/>
		<path class="st10" d="M93.6,211.5c0,0-2.4-2.8-9.7-2.9c-7.3-0.2-3.1,2.6-3.5,3.9c-0.3,1.3,4.5,3.9,4.5,3.9S86.9,211.9,93.6,211.5
			L93.6,211.5z"/>
		<path class="st10" d="M90.3,205.2c-0.7,0,4.5-5.3,9.8-3.7c2.4,0.7,4.7,0.2,6.8-0.4c2.6-0.7,5-1.3,7.4,0.3c4.3,3,2.4,5.4,2.4,5.4
			s-13.5-0.1-14.8,5.4C102,212.3,97.9,205.7,90.3,205.2L90.3,205.2z"/>
		<path class="st10" d="M126.2,211.5c-0.1,0-1.2-0.2-2.8-0.3c-4.4-0.5-12.8-1-15.7,2.9c0,0-1.7,1.1,1.5,3.6s5.5,3.2,5.5,6.2
			c0,0,4.3-8.8,21.2-5c16.9,3.9,18.8-2.9,15.4-4.8c-3.4-1.9-10.2,0.8-10.2,0.8S138.3,208.8,126.2,211.5L126.2,211.5z"/>
		<path class="st11" d="M136,206.5c0,0-3.7-4.1-8.7-3.2C122.3,204.2,137.4,210.7,136,206.5z"/>
		<path class="st10" d="M106.1,222.1c0,0-5.5-4.1-12.7-2.1c0,0-0.6,6.6-2.3,6.5c-1.7-0.1-4.3-9.7-13.1-8.9c-8.7,0.8-12.6,4.1-9,6.9
			c3.6,2.8,20.8,6.1,31.3,5.3C110.7,228.9,108.7,224.6,106.1,222.1L106.1,222.1z"/>
		<path class="st10" d="M129,221.9c0,0-7.2-0.8-10.5,3.2s11.8,3.2,17.2,0.9C141,223.6,129.8,221.9,129,221.9L129,221.9z"/>
		<path class="st12" d="M66.7,208.2c-0.2-0.4-3.1-2.1-8.5-0.2c-5.4,1.9-2.4,4.5,1.7,3.9C64.1,211.3,67.5,209.6,66.7,208.2
			L66.7,208.2z"/>
		<path class="st12" d="M87.6,209.8c0,0-3.7-0.7-3,0.7C85.2,211.9,91.3,210.4,87.6,209.8L87.6,209.8z"/>
		<path class="st12" d="M115.6,205.2c0,0-1.4-4.2-6-3.6C104.9,202.2,115.4,207.7,115.6,205.2L115.6,205.2z"/>
		<path class="st12" d="M139.2,214.7c0,0-8.8-4.2-8.8-0.2C130.4,218.6,142.5,217.6,139.2,214.7L139.2,214.7z"/>
		<path class="st13" d="M115.6,227c-0.2,0-0.4,0-0.6,0c0.1,0,0.2,0,0.3,0C115.4,227,115.4,227,115.6,227
			C115.5,227.1,115.5,227.1,115.6,227L115.6,227z"/>
		<path class="st8" d="M63.3,209.8c0,0-3.9-3.4-8.2,0.4c-4.3,3.9-2.1,7.3,2.4,6.9C62,216.6,67.8,213.1,63.3,209.8L63.3,209.8z"/>
		<path class="st9" d="M63.6,209.7c-1.6-1.4-3.9-1.8-6-1.2c-2.8,0.8-6.8,4.8-4.4,7.5c1.9,2.2,6.1,1.1,8.4,0.1
			c1.4-0.6,2.9-1.6,3.5-2.9C65.7,211.8,64.6,210.5,63.6,209.7l-0.5,0.1c2.4,1.9,1.6,4.1-0.8,5.6c-2.3,1.5-7,2.7-8.8,0.1
			c-1.7-2.5,2.1-5.7,4.1-6.6c1.8-0.8,4.1-0.2,5.5,1L63.6,209.7L63.6,209.7z"/>
		<path class="st14" d="M64.2,211.1c-0.1,0.3-0.2,0.7-0.6,1.1c0.3,0,0.6,0.1,0.9,0.2C64.5,212,64.4,211.6,64.2,211.1L64.2,211.1z"/>
		<path class="st15" d="M64.3,210.7c0,0,0,0.2-0.1,0.5c0.2,0.4,0.3,0.8,0.3,1.3c0.1,0,0.3,0.1,0.4,0.2C65,212,64.8,211.3,64.3,210.7
			L64.3,210.7z"/>
		<path class="st14" d="M53,213.8c-0.1,0.6,0.1,1.1,0.4,1.7c0.8,1.1,2.1,1.5,3.5,1.5c1.2,0,2.4-0.3,3.6-0.7
			c-0.5-0.7-0.3-1.5,0.1-2.2c-0.2,0.1-0.5,0.1-0.7,0.2c0,0-2,1-3.8,1c-0.5,0-0.9-0.1-1.3-0.2C53.7,214.6,53.1,214.3,53,213.8
			L53,213.8z"/>
		<path class="st15" d="M53.5,212c-1.8,2.9-0.1,5.1,3.3,5.1c0.2,0,0.5,0,0.7,0c1-0.1,2-0.3,3-0.7c0,0,0-0.1-0.1-0.1
			c-1.1,0.4-2.4,0.7-3.6,0.7c-1.4,0-2.7-0.4-3.5-1.5c-0.4-0.5-0.5-1.1-0.4-1.7c-0.1-0.4,0.1-0.9,0.6-1.7V212L53.5,212z"/>
		<path class="st16" d="M59.8,209.2c-2.6,0-4.6,2.4-4.6,2.4c-0.4,0.5-0.6,0.9-0.6,1.1c0,0.3,0.3,0.5,0.8,0.5c0.9,0,2.4-0.5,3-0.9
			c0.8-0.5,3.7-1.3,3.7-2.2c0-0.3-0.3-0.5-1.1-0.8C60.6,209.3,60.2,209.2,59.8,209.2L59.8,209.2z"/>
		<path class="st8" d="M65.4,213.1c0,0-2-1.8-4,0.3c-1.9,2.1-0.8,3.9,1.4,3.7C64.9,216.8,67.6,214.9,65.4,213.1L65.4,213.1z"/>
		<path class="st9" d="M65.6,213c-0.7-0.6-1.9-1-2.8-0.7c-1.7,0.4-3.6,2.7-2.2,4.2C62.6,218.6,68.6,215.6,65.6,213l-0.5,0.1
			c2.7,2.4-2.8,5.1-4.2,3c-0.8-1.1,0.6-2.6,1.4-3.3c0.9-0.7,2-0.4,2.8,0.3L65.6,213L65.6,213z"/>
		<path class="st8" d="M144.1,216.3c0,0-3.9-3.4-8.2,0.4c-4.3,3.9-2.1,7.3,2.4,6.9C142.8,223.2,148.7,219.7,144.1,216.3L144.1,216.3
			z"/>
		<path class="st9" d="M144.4,216.3c-1.5-1.3-3.6-1.8-5.6-1.4c-3,0.6-7.2,4.8-4.7,7.6c1.9,2.2,6.1,1.2,8.4,0.2
			c1.4-0.6,2.9-1.5,3.5-2.9C146.5,218.4,145.4,217.2,144.4,216.3c-0.1-0.1-0.7-0.2-0.5,0c5.8,4.6-7.4,10.1-9.8,5.5
			c-1.3-2.4,2-5.2,3.9-6.2s4.4-0.6,5.9,0.7C144,216.4,144.6,216.5,144.4,216.3L144.4,216.3z"/>
		<path class="st14" d="M141.3,220.7c-0.2,0.1-0.4,0.1-0.7,0.1c0,0-2,1-3.8,1c-0.1,0-0.3,0-0.4,0c-0.6,0.2-1.2,0.4-2,0.6
			c0.7,0.9,1.9,1.2,3.3,1.2c1.1,0,2.4-0.3,3.5-0.7C140.7,222.2,140.8,221.4,141.3,220.7L141.3,220.7z M145,217.7
			c-0.1,0.3-0.2,0.7-0.6,1.1c0.3,0,0.6,0.1,0.9,0.2C145.4,218.6,145.3,218.1,145,217.7L145,217.7z"/>
		<path class="st15" d="M134.4,222.4c-0.1,0-0.1,0-0.2,0.1c0.7,0.8,1.9,1.3,3.4,1.3c0.2,0,0.5,0,0.7,0c1-0.1,2-0.3,3-0.7l0,0
			c0,0,0,0-0.1-0.1c-1.2,0.4-2.4,0.7-3.5,0.7C136.3,223.6,135.1,223.2,134.4,222.4L134.4,222.4z M145.1,217.3c0,0,0,0.2-0.1,0.4
			c0.2,0.4,0.3,0.9,0.3,1.3c0.1,0.1,0.3,0.1,0.4,0.2C145.8,218.6,145.6,217.9,145.1,217.3L145.1,217.3z"/>
		<path class="st16" d="M140.6,215.8c-0.4,0-0.8,0.1-1.2,0.2c1.1,0.5,1.6,1.1,1,2.2c-0.1,0.1-0.1,0.2-0.2,0.3
			c1.1-0.5,2.7-1.1,2.7-1.7c0-0.3-0.3-0.5-1.1-0.8C141.4,215.9,141,215.8,140.6,215.8L140.6,215.8z"/>
		<path class="st8" d="M146.2,219.7c0,0-2-1.8-3.9,0.3s-0.8,3.9,1.4,3.7C145.8,223.3,148.5,221.4,146.2,219.7L146.2,219.7z"/>
		<path class="st9" d="M146.5,219.6c-0.7-0.6-1.9-1-2.8-0.8c-1.4,0.4-3.7,2.6-2.3,4.1C143.4,225.2,149.4,222.2,146.5,219.6H146
			c2.7,2.4-2.8,5.1-4.2,3.1c-0.6-0.9,0.2-2.1,0.8-2.8c0.9-1,2.4-1.2,3.4-0.3H146.5L146.5,219.6z"/>
		<path class="st17" d="M84.8,216.4c0,0-4.8-2.6-4.5-3.9c0.3-1.3-3.6-3.9,2.9-3.9c0.2,0,0.4,0,0.6,0c7.3,0.2,9.7,2.9,9.7,2.9
			C86.9,211.9,84.8,216.4,84.8,216.4L84.8,216.4z M84.8,217c0.8,0,1.6-0.5,1.6-0.5c2.1-2.7,10.2-1.5,9.6-4.3s-12.5-6.3-12.5-6.3
			c0.5,0,0.9,0,1.4,0c11.6,0,17.5,9,17.5,9c2.3-4.2,9-5.3,12-5.3c1.8,0,2.3,0.4-0.2,0.8c-6.8,1-9.3,6.3-9.3,6.3
			c5.3,1.4,9.3,7.4,7.5,7.4c-0.5,0-1.6-0.6-3.4-2c-3.8-3.1-9.5-4-13.9-4c-4.3,0-7.2,0.8-5.7,1.3c3.1,0.9,2,6.2,2,6.2
			c-0.9-5.3-9.7-8.6-9.7-8.6c-1.9-0.4-3.6-0.6-5.1-0.6c-3.5,0-5.8,0.9-7.5,2c-1.1,1-2.2,2.3-3.2,3.9c0,0,0.7-2.2,3.2-3.9
			c2.8-2.5,5.7-3.3,8.1-3.3c3.7,0,6.5,1.7,7,1.9C84.5,216.9,84.7,217,84.8,217L84.8,217z M92.4,203.2c-1.4,0-2.9,0.1-4.4,0.4
			c-0.3,0.3-0.6,0.6-0.9,1l-0.5-0.1c-0.2-0.2-0.5-0.4-0.7-0.5c-4.5,0.9-9.2,2.5-12.8,3.6c-1.4,1-1.9,2-0.2,2c3.5,0,7.2,4.2,2.2,4.2
			c-0.3,0-0.6,0-0.9,0c-0.4,0-0.8,0-1.1,0c-5.3,0-6.4,3.3-9.4,5.6c-0.5,0.4-1.2,0.8-1.9,1c0.6,0.5,1.3,0.9,2.3,1.4
			c1.9,0.9,3.1,1.6,4.3,2.1c-2.3-2.6,1.6-5.5,9.7-6.3c0.3,0,0.7,0,1,0c7.9,0,10.5,8.8,12.1,8.9l0,0c1.6,0,2.2-6.5,2.2-6.5
			c1.4-0.4,2.7-0.5,4-0.5c5.2,0,8.8,2.7,8.8,2.7c2.1,2.1,3.9,5.4-1.5,7c1.3-0.2,2.6-0.5,3.9-0.8c2-0.5,4.2-0.9,6.5-1.1
			c-2.1-0.5,0.5-6.2,9.5-7.8c1.5-0.3,3-0.4,4.4-0.4c1.7,0,3.3,0.2,4.7,0.5c0.1-0.3,0.2-0.6,0.4-0.9c-2.3-0.4-4.3-0.6-6-0.6
			c-10.4,0-13.3,6-13.3,6c0.1-3.1-2.3-3.8-5.5-6.2c-3.2-2.5-1.5-3.6-1.5-3.6c2-2.6,6.3-3.2,10.3-3.2c2,0,4,0.2,5.5,0.3
			c1.5,0.2,2.5,0.3,2.8,0.3l0,0c0.9-0.2,1.7-0.3,2.4-0.4c-3.9-1.2-10-2.2-10.8-4.2c-0.1-0.3-0.4-0.6-0.6-0.9
			c-0.1,0.6-0.4,0.9-0.4,0.9s0,0-0.1,0c-1.1,0-13.5,0.1-14.8,5.4c0,0-4.1-6.6-11.6-7C90,205.2,90.9,204.2,92.4,203.2L92.4,203.2z"/>
		<path class="st18" d="M87,203.7c-0.3,0.1-0.6,0.1-0.9,0.2l0,0c0.1,0,0.2,0.1,0.3,0.1C86.6,203.9,86.8,203.9,87,203.7L87,203.7z"/>
		<path class="st17" d="M75.5,227c0.1,0,0.2,0.1,0.3,0.1c2.1,0.9,4.7,1.3,7.5,1.5C80.5,228.2,77.8,227.6,75.5,227L75.5,227z
			 M86.1,203.8L86.1,203.8C86.1,203.9,86.2,203.9,86.1,203.8C86.2,203.9,86.1,203.9,86.1,203.8L86.1,203.8z"/>
		<path class="st19" d="M87.9,203.5c-0.3,0.1-0.6,0.1-0.9,0.2c-0.2,0.2-0.4,0.3-0.6,0.3c-0.1,0-0.2,0-0.3-0.1l0,0
			c-0.1,0-0.2,0-0.3,0.1c0.2,0.2,0.5,0.3,0.7,0.5l0.5,0.1C87.3,204.2,87.6,203.8,87.9,203.5L87.9,203.5z"/>
		<path class="st20" d="M73.1,207.5c-1,0.3-1.9,0.6-2.7,0.9c-5.8,1.7,0.1,2.8-4.3,5.1c1.4,1.8-1.4,3.7-3.6,3.7
			c-0.6,0-1.2-0.1-1.6-0.5c-0.9,1.2-0.5,2.4,0.9,3.6c0.7-0.3,1.4-0.6,1.9-1c2.9-2.3,4.1-5.6,9.4-5.6c0.4,0,0.7,0,1.1,0
			c0.3,0,0.6,0,0.9,0c5,0,1.3-4.2-2.2-4.2C71.1,209.5,71.7,208.5,73.1,207.5L73.1,207.5z"/>
		<path class="st20" d="M86.2,211.1c-0.8,0-1.5-0.2-1.6-0.6c-0.3-0.7,0.5-0.9,1.4-0.9c0.8,0,1.7,0.2,1.7,0.2
			C90.1,210.2,87.9,211.1,86.2,211.1L86.2,211.1z M83.2,208.6c-6.5,0-2.5,2.6-2.9,3.9c-0.3,1.3,4.5,3.9,4.5,3.9s2.1-4.5,8.7-4.9
			c0,0-2.4-2.8-9.7-2.9C83.6,208.6,83.4,208.6,83.2,208.6L83.2,208.6z"/>
		<path class="st20" d="M92.4,203.2L92.4,203.2c-1.6,1-2.4,2.1-2.1,2.1c7.6,0.5,11.6,7,11.6,7c1.2-5.3,13.6-5.4,14.8-5.4
			c0.1,0,0.1,0,0.1,0s0.3-0.3,0.4-0.9c-0.4-0.4-1-0.6-1.6-0.7c-0.1,0.4-0.5,0.5-1,0.5c-0.7,0-1.6-0.3-2.5-0.6c-1.2,0.1-2,0.4-2,0.4
			c-3.4-1-6,0.5-13.2-1.8C95.5,203.3,94,203.2,92.4,203.2L92.4,203.2z"/>
		<path class="st20" d="M117.9,210.8c-4,0-8.3,0.6-10.3,3.2c0,0-1.7,1.1,1.5,3.6s5.5,3.2,5.5,6.2c0,0,2.9-6,13.3-6
			c1.8,0,3.8,0.2,6,0.6c0.3-0.4,0.6-0.9,1-1.2c-2.3-0.1-4.5-1-4.5-2.7c0-1.1,0.6-1.6,1.5-1.7c-0.2-0.7-1.5-1.3-3.3-1.8
			c-0.8,0.1-1.6,0.3-2.4,0.4l0,0c-0.2,0-1.3-0.2-2.8-0.3C121.9,211,119.9,210.8,117.9,210.8L117.9,210.8z"/>
		<path class="st20" d="M79,217.5c-0.3,0-0.7,0-1,0c-8.1,0.7-12,3.6-9.7,6.3c1.9,0.9,3.6,1.6,7.2,3.2c2.3,0.6,5,1.2,7.8,1.7
			c5.5,0.4,11.6,0,15.3,0.6c0.7,0.1,1.4,0.2,2.1,0.2c1.3,0,2.6-0.2,3.9-0.4c5.4-1.5,3.6-4.9,1.5-7c0,0-3.6-2.7-8.8-2.7
			c-1.2,0-2.6,0.1-4,0.5c0,0-0.6,6.5-2.2,6.5l0,0C89.5,226.3,86.9,217.5,79,217.5L79,217.5z"/>
		<path class="st21" d="M85.9,209.6c-0.9,0-1.7,0.2-1.4,0.9c0.2,0.4,0.9,0.6,1.6,0.6c1.8,0,4-0.9,1.4-1.3
			C87.6,209.8,86.7,209.6,85.9,209.6L85.9,209.6z"/>
		<path class="st21" d="M113.7,205.1c-0.6,0-1.1,0-1.7,0.1c0.9,0.4,1.8,0.6,2.5,0.6c0.5,0,0.9-0.2,1-0.5
			C115,205.1,114.4,205.1,113.7,205.1L113.7,205.1z"/>
		<path class="st21" d="M131.9,212.8c-0.9,0.1-1.5,0.6-1.5,1.7c0,1.7,2.2,2.6,4.5,2.7c0.7-0.8,1.6-1.4,2.5-1.8
			c-2.6-0.6-5.8-0.9-5.5-2.3C131.9,213,131.9,212.9,131.9,212.8L131.9,212.8z"/>
		<path class="st22" d="M69.1,218.3c-2.5,1.7-3.2,3.9-3.2,3.9C66.9,220.6,68,219.3,69.1,218.3L69.1,218.3z M84.9,205.8
			c-0.5,0-0.9,0-1.4,0c0,0,11.9,3.5,12.5,6.3s-7.5,1.6-9.6,4.3c0,0-0.8,0.5-1.6,0.5c-0.2,0-0.4,0-0.6-0.1c-0.5-0.2-3.3-1.9-7-1.9
			c-2.5,0-5.4,0.8-8.1,3.3c1.6-1.1,4-2,7.5-2c1.5,0,3.2,0.2,5.1,0.6c0,0,8.8,3.3,9.7,8.6c0,0,1.1-5.3-2-6.2
			c-1.5-0.4,1.5-1.3,5.7-1.3c4.4,0,10.2,0.9,13.9,4c1.7,1.4,2.8,2,3.4,2c1.7,0-2.2-6-7.5-7.4c0,0,2.5-5.3,9.3-6.3
			c2.6-0.4,2.1-0.8,0.2-0.8c-3,0-9.8,1.1-12,5.3C102.4,214.8,96.4,205.8,84.9,205.8L84.9,205.8z"/>
		<path class="st17" d="M130.6,220.8c-10.9,0-14.2,5.5-15,6.2c0.7-0.1,1.4-0.1,2.2-0.1c0.2,0,0.4,0,0.6,0c0.1,0,0.1,0,0.2,0
			c-0.6-0.4-0.7-1.1,0-1.9c2.3-2.9,6.6-3.3,8.9-3.3c1,0,1.6,0.1,1.6,0.1c0.3,0,2.3,0.3,4.3,0.8c0.3-0.1,0.5-0.1,0.8-0.2
			c-0.4-0.5-0.6-1-0.7-1.5C132.4,220.9,131.4,220.8,130.6,220.8L130.6,220.8z"/>
		<path class="st20" d="M127.4,221.8c-2.3,0-6.6,0.4-8.9,3.3c-0.7,0.8-0.6,1.4,0,1.9c0.2,0,0.3,0,0.5,0c7.3,0,7.6-2.5,12.9-4
			c0.5-0.1,0.9-0.2,1.3-0.4c-1.9-0.5-3.9-0.8-4.3-0.8C129,221.9,128.4,221.8,127.4,221.8L127.4,221.8z"/>
		<path class="st22" d="M128.9,218.9c-1.4,0-2.8,0.1-4.4,0.4c-9,1.6-11.6,7.4-9.5,7.8c0.2,0,0.4,0,0.6,0c0.7-0.7,4.1-6.2,15-6.2
			c0.9,0,1.8,0,2.7,0.1c-0.1-0.5,0-1.1,0.2-1.6C132.2,219,130.6,218.9,128.9,218.9L128.9,218.9z"/>
		<path class="st17" d="M65.6,213.7c-0.2,0.1-0.4,0.2-0.6,0.2c-1.9,0.8-3.2,1.6-3.9,2.4c0.4,0.4,0.9,0.5,1.4,0.5
			C64.3,216.9,66.6,215.3,65.6,213.7L65.6,213.7z"/>
		<path class="st19" d="M66,213.5c-0.1,0.1-0.3,0.1-0.4,0.2c1,1.6-1.3,3.2-3.1,3.2c-0.6,0-1.1-0.1-1.4-0.5c-0.1,0.1-0.2,0.2-0.3,0.4
			c0.4,0.3,1,0.5,1.6,0.5C64.7,217.2,67.4,215.3,66,213.5L66,213.5z"/>
		<path class="st17" d="M138.1,215.6c0,0-0.1,0-0.1,0.1c-1.5,0.8-3.9,2.8-4.1,4.8c0.2,0.4,0.7,0.8,1.8,1.2c0.3,0.1,0.6,0.2,0.9,0.2
			c1.7-0.6,2.5-1.2,3.7-3.3c-0.4,0.2-0.8,0.3-1,0.4c-0.6,0.3-2,0.9-3,0.9c-0.5,0-0.8-0.1-0.8-0.5c0-0.3,0.2-0.6,0.6-1.1
			c0,0,1.4-1.7,3.3-2.2C139,215.8,138.6,215.7,138.1,215.6L138.1,215.6z"/>
		<path class="st19" d="M137.4,215.4c-0.9,0.4-1.8,1.1-2.5,1.8c-0.4,0.4-0.7,0.8-1,1.2c-0.2,0.3-0.3,0.6-0.4,0.9
			c-0.2,0.5-0.3,1.1-0.2,1.6s0.3,1.1,0.7,1.5c0.1,0,0.1,0,0.2,0c-0.8-0.9-0.9-2.3,0.1-3.9l0.1,0.2c-0.5,0.8-0.7,1.3-0.6,1.7
			c0.2-2,2.6-4,4.1-4.8c0,0,0.1,0,0.1-0.1C137.9,215.5,137.6,215.5,137.4,215.4L137.4,215.4z"/>
		<path class="st23" d="M133.8,220.4c-0.1,0.5,0,1,0.3,1.4c0.1,0.2,0.2,0.3,0.3,0.5c0.8-0.2,1.5-0.4,2-0.6c-0.3,0-0.6-0.1-0.9-0.2
			C134.5,221.2,134,220.9,133.8,220.4L133.8,220.4z"/>
		<path class="st24" d="M134.3,218.6c-1,1.5-0.9,2.9-0.1,3.9c0.1,0,0.1,0,0.2-0.1c-0.1-0.1-0.2-0.3-0.3-0.5c-0.2-0.5-0.3-1-0.3-1.4
			c-0.2-0.4,0-0.9,0.6-1.7L134.3,218.6L134.3,218.6z"/>
		<path class="st25" d="M139.4,216c-1.9,0.6-3.3,2.2-3.3,2.2c-0.4,0.5-0.6,0.9-0.6,1.1c0,0.3,0.3,0.5,0.8,0.5c0.9,0,2.4-0.5,3-0.9
			c0.2-0.1,0.6-0.3,1-0.4c0.1-0.1,0.1-0.2,0.2-0.3C141,217.1,140.4,216.5,139.4,216L139.4,216z"/>
	</g>
	<path class="st6" d="M104.8,190.9c-26.3,0-45.7,7.2-45.7,7.2c-3.8,2-0.3,4.9,5,4.9c2.3,0,5-0.6,7.6-2c2.1-1.2,4.1-1.6,5.9-1.6
		s3.5,0.4,4.9,0.8c1.5,0.4,2.8,0.8,3.9,0.8c1,0,1.9-0.3,2.6-1.3c1.4-1.9,4.2-2.4,6.6-2.4c2.8,0,5.3,0.7,5.3,0.7s0.6-2.5,8.2-2.5
		c0.4,0,0.8,0,1.2,0c8.8,0.3,9.9,4.5,9.9,4.5c0.7-2.7,7-2.5,8-4.9c1-2.4-2.7-2.6-2.7-2.6C118.4,191.3,111.4,190.9,104.8,190.9
		L104.8,190.9z"/>
</g>
</svg>
