<?xml version="1.0" encoding="utf-8"?>
<!-- Generator: Adobe Illustrator 25.0.0, SVG Export Plug-In . SVG Version: 6.00 Build 0)  -->
<svg version="1.1" id="Calque_1" xmlns="http://www.w3.org/2000/svg" xmlns:xlink="http://www.w3.org/1999/xlink" x="0px" y="0px"
	 viewBox="0 0 205 369.1" style="enable-background:new 0 0 205 369.1;" xml:space="preserve">
<style type="text/css">
	.st0{fill:#EBEFC2;}
	.st1{fill:#E5CC88;}
	.st2{fill:#D6BF80;}
	.st3{fill:#E9D59F;}
	.st4{fill:#BA847A;}
	.st5{fill:#FFFFFF;}
	.st6{opacity:0.15;fill:#FFFFFF;enable-background:new    ;}
	.st7{fill:#CFB28A;}
	.st8{fill:#584521;}
	.st9{fill:#3E321A;}
	.st10{fill:#6E562B;}
	.st11{fill:#795E2F;}
	.st12{fill:#7D6333;}
	.st13{fill:#46361A;}
	.st14{fill:#54401D;}
	.st15{fill:#3D3018;}
	.st16{fill:#674E21;}
	.st17{fill:#3C2E18;}
	.st18{fill:#855825;}
	.st19{fill:#282115;}
	.st20{fill:#493719;}
	.st21{fill:#543F1C;}
	.st22{fill:#2E2316;}
	.st23{fill:#382A18;}
	.st24{fill:#261E14;}
	.st25{fill:#433218;}
	.st26{fill:#285137;}
	.st27{fill:#386D4D;}
	.st28{fill:#1B3926;}
	.st29{fill:#9CCDA5;}
</style>
<ellipse class="st0" cx="102.5" cy="348.8" rx="54.2" ry="20.2"/>
<g>
	<g>
		<path class="st1" d="M161.8,296c-1.2,3.7-2.6,7.4-4.4,11c-0.3,0.7-0.7,1.3-1,2c-4,7.5-9.3,14.5-15.6,19.9
			c-7.3,6.2-18.6,9.5-22.2,19.3c0,1-7.9,1.9-17.7,1.9s-17.7-0.8-17.7-1.9c-2.3-6-8.3-9.9-13.5-13.1c-9-5.6-16-13.5-21.5-22.5
			c-1-1.6-1.9-3.3-2.7-4.9l0,0c-7.3-14.4-10.9-31.1-11.4-46.4c0-0.6,0-1.1,0-1.7c0-1.6,0-3.2,0.1-4.8c0-0.7,0.1-1.5,0.1-2.2
			c0.1-1.9,0.4-3.7,0.7-5.5c0.2-1.4,2-10.1,3.8-13.1c0.4-0.6,0.7-1,1.1-1c0,0,0.3,0,0.8,0h120.6c0.5,0,0.8,0,0.8,0
			c0.3,0,0.7,0.4,1,1l0,0c1.9,3.4,3.8,14.4,4.7,20c0.2,1.1,0.3,1.9,0.3,2.5c0,0.2,0,0.4,0,0.5c0,0.2,0,0.4,0,0.7
			C168.7,270.2,165.5,284,161.8,296z"/>
		<path class="st2" d="M161.7,294.3c-2.4,5.4-5.7,10.3-9.5,14.8s-7.9,8.9-12.3,12.7c-4.5,3.9-9.3,7.5-14.1,10.9
			c-1.9,1.4-3.8,2.6-6,3.4c-2.5,0.9-5.2,1.4-7.9,1.6c-10.7,1-22-1.3-30.6-8.1c-7.5-5.9-13-14.6-16.6-23.2
			c-3.8-8.9-5.9-18.5-6.8-28.1c-1.5-15.1-0.3-30.6,3-45.5H40.6c-0.5,0-0.8,0-0.8,0c-0.3,0-0.7,0.4-1.1,1c-1.7,3-3.5,11.6-3.8,13.1
			c-0.3,1.8-0.5,3.7-0.7,5.5c-0.1,0.7-0.1,1.5-0.1,2.2c-0.1,1.6-0.1,3.2-0.1,4.8c0,0.6,0,1.1,0,1.7c0.1,2.4,0.2,4.8,0.5,7.3l0,0
			c0,0.2,0,0.3,0,0.5c0.1,0.6,0.1,1.3,0.2,1.9c0,0.3,0.1,0.6,0.1,0.9c0.1,0.7,0.2,1.3,0.3,2c0,0.3,0.1,0.5,0.1,0.8
			c0.1,0.7,0.2,1.4,0.3,2.2c0,0.2,0.1,0.4,0.1,0.6c0.1,0.8,0.3,1.6,0.4,2.4c0,0.1,0,0.2,0.1,0.3c0.2,0.9,0.3,1.7,0.5,2.6
			c0,0,0,0,0,0.1c1.9,8.6,4.7,17.1,8.7,25l0,0c0.9,1.7,1.8,3.3,2.7,4.9c5.4,9.1,12.5,16.9,21.5,22.5c5.1,3.2,11.2,7.1,13.5,13.1
			c0,1,7.9,1.9,17.7,1.9s17.7-0.8,17.7-1.9c3.7-9.7,15-13.1,22.2-19.3c6.3-5.4,11.6-12.3,15.6-19.9c0.3-0.7,0.7-1.3,1-2
			c1.8-3.6,3.3-7.3,4.4-11c0.6-2,1.2-4,1.8-6l0,0l0,0c0-0.1,0.1-0.3,0.1-0.4C163.1,291.1,162.4,292.7,161.7,294.3z"/>
		<path class="st2" d="M111.5,237.3c3.7,1.7,7.7,2.7,11.8,3.2c4.8,0.6,9.7,0.7,14.5,0.8c4.6,0.1,9.6,0,14.1,1.1
			c4.4,1.1,8.4,3.8,11.1,7.4c2.5,3.4,4,7.4,5.1,11.5c0-1.3,0-2.6-0.1-3.9c0-0.2,0-0.4,0-0.7c0-0.1,0-0.3,0-0.5
			c-0.1-0.6-0.2-1.4-0.3-2.5c-0.8-5.6-2.8-16.6-4.7-20l0,0c-0.3-0.6-0.7-1-1-1c0,0-0.3,0-0.8,0H105
			C106.9,234.6,109.1,236.2,111.5,237.3z"/>
		<path class="st3" d="M106.6,339.8c-3.1,0.1-6.2,0.3-9.4,0.2c-3.5-0.1-7-0.4-10.5-0.7c-3.2-0.3-6.4-0.6-9.6-1.2
			c-1.2-0.2-2.5-0.5-3.7-0.6c4,2.7,8,6.1,9.7,10.6c0,1,7.9,1.9,17.7,1.9s17.7-0.8,17.7-1.9c1.6-4.2,4.6-7.2,8.1-9.8
			C120,339.2,113.3,339.5,106.6,339.8z"/>
		<path class="st4" d="M114.5,344.3c-7,0.5-14.1,0.6-21.2,0.6c-4.4,0-8.7-0.6-12.9-1.5c1.2,1.4,2.1,3,2.8,4.7c0,1,7.9,1.9,17.7,1.9
			s17.7-0.8,17.7-1.9c0.7-1.8,1.6-3.3,2.7-4.7C119,343.8,116.8,344.2,114.5,344.3z"/>
		<g>
			<path class="st5" d="M157.4,307c-0.3,0.7-0.7,1.3-1,2c-1-0.2-2-0.3-2.9-0.1c-1.3,0.3-2.2,1.1-3.2,2c-1.4,1.2-2.9,2.6-5.6,2.4
				c-1.5-0.1-2.8-0.7-4.1-1.2c-1.6-0.6-3.1-1.2-4.7-1c-1.3,0.2-2.4,1.1-3.6,1.9c-1.1,0.8-2.2,1.7-3.6,2.2c-3.9,1.4-7.2,0-10.3-1.4
				c-0.6-0.3-1.2-0.5-1.8-0.7c-2.7-1-3.9-0.5-6.3,1.1c-3.2,2.1-6.2,2.6-10.4,1.8c-1.1-0.2-2.2-0.6-3.2-0.9c-2.3-0.7-4.4-1.4-6.5-0.8
				c-0.8,0.3-1.3,0.7-1.8,1.2c-0.7,0.7-1.6,1.5-3.3,1.5c-0.3,0-0.6,0-1-0.1c-1.6-0.3-3.1-0.9-4.5-1.4c-1.5-0.6-3-1.2-4.5-1.4
				c-1.5-0.2-3-0.1-4,0.1c-0.4,0.1-0.8,0.4-1.2,0.7c-0.5,0.3-1.1,0.7-1.8,0.9c-2.8,0.8-5.5-1-7.5-2.7c-0.2-0.2-0.4-0.3-0.6-0.5
				c-1.6-1.3-2.4-2-4.5-1.7c-0.8,0.1-1.6,0.4-2.5,0.7c-1.4,0.5-3,1.1-4.8,0.8l-2.7-4.9c0.7,1.2,1.3,2.1,2.4,2.6
				c1.5,0.6,2.8,0.1,4.4-0.4c0.9-0.3,1.9-0.7,2.9-0.8c3-0.4,4.4,0.7,6.2,2.2c0.2,0.2,0.4,0.3,0.6,0.5c1.6,1.3,3.8,2.8,5.6,2.3
				c0.3-0.1,0.7-0.4,1.1-0.6c0.5-0.4,1.1-0.8,1.8-1c1.7-0.5,3.7-0.3,4.8-0.2c1.8,0.2,3.4,0.9,5,1.5c1.4,0.5,2.7,1.1,4.1,1.3
				c1.3,0.2,1.6-0.2,2.4-0.9c0.6-0.6,1.3-1.3,2.6-1.7c2.7-0.9,5.4,0,7.8,0.8c1,0.3,2,0.7,3,0.8c3.7,0.7,6.2,0.3,8.9-1.5
				c2.5-1.6,4.6-2.7,8.3-1.3c0.6,0.2,1.2,0.5,1.8,0.8c3,1.3,5.6,2.4,8.8,1.3c1.1-0.4,2-1.1,3-1.9c1.3-1,2.7-2.1,4.5-2.3
				c2.2-0.4,4.1,0.4,5.9,1.1c1.2,0.5,2.3,0.9,3.5,1c1.7,0.1,2.7-0.8,4-1.9c1.1-1,2.3-2.1,4.2-2.4C154.6,306.5,156,306.7,157.4,307z"
				/>
		</g>
		<g>
			<path class="st5" d="M167.9,256.3c-1.4,1.1-2.9,1.9-4.4,2.1s-2.9,0-4.2-0.3c-1.3-0.2-2.6-0.5-3.8-0.2c-1.3,0.3-2.3,1.1-3.4,2
				c-1.4,1.3-3.1,2.7-5.8,2.5c-1.6-0.1-2.9-0.7-4.3-1.2c-1.7-0.7-3.2-1.3-5-1c-1.4,0.2-2.5,1.1-3.7,2c-1.1,0.9-2.3,1.8-3.8,2.3
				c-4.1,1.4-7.4,0-10.7-1.4c-0.6-0.3-1.2-0.5-1.9-0.8c-2.8-1.1-4.1-0.5-6.6,1.1c-3.3,2.2-6.5,2.7-10.8,1.9
				c-1.1-0.2-2.3-0.6-3.4-0.9c-2.4-0.8-4.6-1.5-6.8-0.8c-0.8,0.3-1.3,0.7-1.9,1.3c-0.8,0.7-1.7,1.6-3.4,1.6c-0.3,0-0.6,0-1-0.1
				c-1.7-0.3-3.2-0.9-4.7-1.5c-1.6-0.6-3.1-1.2-4.7-1.4c-1.6-0.2-3.1-0.1-4.1,0.1c-0.4,0.1-0.8,0.4-1.3,0.7c-0.5,0.4-1.1,0.8-1.8,1
				c-2.9,0.8-5.7-1.1-7.8-2.8c-0.2-0.2-0.4-0.4-0.7-0.5c-1.7-1.4-2.5-2.1-4.8-1.8c-0.9,0.1-1.7,0.4-2.6,0.8
				c-1.8,0.7-3.8,1.4-6.2,0.4c-1.8-0.8-2.7-2.3-3.5-3.6c-0.4-0.7-0.9-1.5-1.4-2c-1.5-1.6-3.6-1.6-5.6-1c0-0.7,0.1-1.5,0.1-2.2
				c2.8-0.6,5.2-0.1,7,1.7c0.7,0.7,1.2,1.6,1.7,2.4c0.7,1.2,1.3,2.3,2.5,2.7c1.6,0.7,3,0.1,4.6-0.5c1-0.4,1.9-0.7,3-0.9
				c3.2-0.4,4.6,0.8,6.4,2.3c0.2,0.2,0.4,0.3,0.6,0.5c1.7,1.4,4,2.9,5.9,2.4c0.4-0.1,0.8-0.4,1.2-0.7c0.5-0.4,1.2-0.8,1.9-1
				c1.8-0.5,3.9-0.3,5-0.2c1.9,0.2,3.6,0.9,5.2,1.6c1.5,0.6,2.9,1.1,4.3,1.4c1.3,0.2,1.8-0.2,2.6-0.9c0.6-0.6,1.4-1.3,2.6-1.7
				c2.8-0.9,5.5-0.1,8.1,0.8c1.1,0.3,2.1,0.7,3.1,0.9c3.8,0.7,6.4,0.3,9.3-1.6c2.6-1.7,4.8-2.8,8.6-1.3c0.7,0.3,1.3,0.5,1.9,0.8
				c3.1,1.3,5.9,2.5,9.2,1.4c1.1-0.4,2.1-1.1,3.2-1.9c1.4-1,2.8-2.1,4.7-2.4c2.3-0.4,4.2,0.4,6.1,1.1c1.3,0.5,2.4,1,3.7,1.1
				c1.8,0.1,2.9-0.8,4.2-2c1.1-1,2.4-2.2,4.4-2.5c1.6-0.3,3.1,0,4.6,0.2c1.2,0.2,2.4,0.4,3.5,0.3c1.4-0.2,3-1.2,4.4-2.5
				C167.8,254.9,167.9,255.7,167.9,256.3z"/>
		</g>
		<g>
			<path class="st5" d="M164.9,284.9c-0.6,0.4-0.8,0.4-1,0.4c-1.5,0.2-2.9,0-4.2-0.3c-1.3-0.2-2.6-0.5-3.8-0.2
				c-1.3,0.3-2.3,1.1-3.4,2c-1.4,1.3-3.1,2.7-5.8,2.5c-1.6-0.1-2.9-0.7-4.3-1.2c-1.7-0.7-3.2-1.3-5-1c-1.4,0.2-2.5,1.1-3.7,2
				c-1.1,0.9-2.3,1.8-3.8,2.3c-4.1,1.4-7.4,0-10.7-1.4c-0.6-0.3-1.2-0.5-1.9-0.8c-2.8-1.1-4.1-0.5-6.6,1.1
				c-3.3,2.2-6.5,2.7-10.8,1.9c-1.1-0.2-2.3-0.6-3.4-0.9c-2.4-0.8-4.6-1.5-6.8-0.8c-0.8,0.3-1.3,0.7-1.9,1.3
				c-0.8,0.7-1.7,1.6-3.4,1.6c-0.3,0-0.6,0-1-0.1c-1.7-0.3-3.2-0.9-4.7-1.5c-1.6-0.6-3.1-1.2-4.7-1.4c-1.6-0.2-3.1-0.1-4.1,0.1
				c-0.4,0.1-0.8,0.4-1.3,0.7c-0.5,0.4-1.1,0.8-1.8,1c-2.9,0.8-5.7-1.1-7.8-2.8c-0.2-0.2-0.4-0.4-0.7-0.5c-1.7-1.4-2.5-2.1-4.8-1.8
				c-0.9,0.1-1.7,0.4-2.6,0.8c-1.8,0.7-3.8,1.4-6.2,0.4c-1.8-0.8-2.7-2.3-3.5-3.6c-0.4-0.7-0.9-1.5-1.4-2c-1.5-1.6-1.6-1.6-3.6-1
				c-0.1-0.7-0.3-1.6-0.5-2.4c2.8-0.6,3.9,0.2,5.6,1.9c0.7,0.7,1.2,1.6,1.7,2.4c0.7,1.2,1.3,2.3,2.5,2.7c1.6,0.7,3,0.1,4.6-0.5
				c1-0.4,1.9-0.7,3-0.9c3.2-0.4,4.6,0.8,6.4,2.3c0.2,0.2,0.4,0.3,0.6,0.5c1.7,1.4,4,2.9,5.9,2.4c0.4-0.1,0.8-0.4,1.2-0.7
				c0.5-0.4,1.2-0.8,1.9-1c1.8-0.5,3.9-0.3,5-0.2c1.9,0.2,3.6,0.9,5.2,1.6c1.5,0.6,2.9,1.1,4.3,1.4c1.3,0.2,1.8-0.2,2.6-0.9
				c0.6-0.6,1.4-1.3,2.6-1.7c2.8-0.9,5.5-0.1,8.1,0.8c1.1,0.3,2.1,0.7,3.1,0.9c3.8,0.7,6.4,0.3,9.3-1.6c2.6-1.7,4.8-2.8,8.6-1.3
				c0.7,0.3,1.3,0.5,1.9,0.8c3.1,1.3,5.9,2.5,9.2,1.4c1.1-0.4,2.1-1.1,3.2-1.9c1.4-1,2.8-2.1,4.7-2.4c2.3-0.4,4.2,0.4,6.1,1.1
				c1.3,0.5,2.4,1,3.7,1.1c1.8,0.1,2.9-0.8,4.2-2c1.1-1,2.4-2.2,4.4-2.5c1.6-0.3,3.1,0,4.6,0.2c1.2,0.2,2.4,0.4,3.5,0.3
				c1.4-0.2,0.6-0.4,2-1.7C165.4,282.7,165,284.3,164.9,284.9z"/>
		</g>
		<path class="st6" d="M147.6,250.7c3.8-0.9,9.5-2,11.2,2.1c1.2,3.1,0.7,9.3,0.4,12.6c-0.7,6.1-3.1,12.8-4.9,18.6
			c-2,6.2-4.8,12.3-7.9,18c-2.5,4.6-5.5,17.1-12.9,15.8c-3.8-0.7-3.4-4.8-4.1-8.4c-1.2-5.7-2.8-11.7-5.6-16.9
			c-6.4-11.8-16.4-19.5-27.2-26.7c-3.1-2.1-8.7-5.1-9.5-9c-1.4-6.5,10.6-3.6,14-3.5C116.6,254.1,132.3,254.2,147.6,250.7z"/>
	</g>
	<path class="st4" d="M38.8,215.8l11.3,0.4c11.2-5.9,29.7-9.8,50.7-9.8c23.4,0,43.8,4.8,54.3,11.9c4.4-1.3,8.8-2.6,8.8-2.6
		l-1.3,14.7l0,0c-1.6,12.2-28.6,21.8-61.8,21.8c-33.5,0-60.8-9.9-61.8-22.3l-0.2-0.2v-13.5l0,0L38.8,215.8L38.8,215.8z"/>
	<path class="st7" d="M38.6,215.6c0,12.8,28.4,23,62.9,23s62.5-10.3,62.5-23.1s-28-23.1-62.5-23.1S38.6,202.9,38.6,215.6L38.6,215.6
		z"/>
	<path class="st1" d="M40.8,215.4c0,11.5,27.1,20.9,60.4,20.9c33.4,0,60.4-9.4,60.4-20.9s-27-20.9-60.4-20.9
		C67.9,194.5,40.8,203.8,40.8,215.4L40.8,215.4z"/>
	<g>
		<path class="st8" d="M140.1,212.3c0,0,1.1-2.7-8.6-6c-9.7-3.3-12,2.5-12,2.5s0.3-2.5-4.9-5.6c-5.2-3.1-13,1.9-13,1.9
			c-8.5-3.6-14.9,4.5-14.9,4.5c-7.8-7.2-21-0.1-21-0.1C52.3,206.8,49,217,49,217c-3.3-0.1-5.1,0.6-6.9,2
			c6.6,9.1,29.4,16.5,57.4,17.2c30.3,0.7,55.6-6.5,60.2-16.4c-3.4-3.2-9.6-4.2-9.6-4.2C147,211.5,140.1,212.3,140.1,212.3
			L140.1,212.3z"/>
		<path class="st9" d="M140.4,212.4c1-3.1-7-5.5-8.8-6.1c-3.7-1.3-9.7-2-12,1.9c-0.3,0.6-0.2,0.5-0.1,0.5s0.3-0.1,0.3,0.2
			c-0.1-0.9-0.6-1.6-1.1-2.4c-1.5-2.2-4.3-3.6-6.9-4.2c-2.4-0.5-5,0.4-7.2,1.2c-1.1,0.4-2.2,1-3.2,1.6c0.4-0.2-3.8-0.8-3.3-0.8
			c-3-0.1-5.5,0.6-8,2.1c-1.1,0.7-2.1,1.6-3,2.5c-1.2,1.2-1.3-0.3-2.9-1c-5.7-2.5-11.6-1.4-17.2,0.9c-1.4,0.6-2.7,0.5-4.1,0.4
			c-0.8-0.1-1.7-0.1-2.6-0.1c-3,0.3-5.6,1.1-7.9,2.9c-1.6,1.2-2.7,2.9-3.5,4.6c-0.2,0.4-1.8,0.5-3.5,0.9c-1.4,0.4-2.9,1-3.6,1.4
			l0.3,0.7c3.4,5.6,12.4,9.3,20.1,11.6c12,3.6,24.7,4.9,37.3,5.3c13.1,0.4,26.4-0.8,39-4c7.6-1.9,17.6-5.3,21.4-12.5l-0.1-0.1
			c-3.2-2.6-7.5-3.1-10.6-5.3c-2.7-1.9-5.9-2.6-9.3-2.3c-0.3,0,0.2,0.3,0.4,0.3c3.9-0.3,6.9,2.7,10.6,3.5c3.2,0.7,10,2.2,7.1,6.1
			c-1,1.4-2.5,2.5-3.9,3.5c-9.5,6.8-23.3,8.7-34.8,9.9c-15.8,1.7-32.2,0.8-47.7-2.3c-6.7-1.3-12.9-3.4-19.1-6.3
			c-2.4-1.1-4.4-2.4-6.4-3.9c-0.9-0.7-1.7-1.3-2.4-2.1c-3-3,5.2-3.7,5.5-3.7l0.2-0.1c2.3-6.6,9.7-8.6,16.4-7.5
			c0.6,0.1,2-0.9,2.6-1.1c5.9-2.4,12.8-3.2,18.1,1.1l0.5,0.1c0.8-1,1.8-1.8,2.8-2.6c4.1-3.3,6.3-2,11.9-1.8c1,0,2.5-1.3,3.4-1.7
			c4.5-2,14.2-0.4,14.1,5.2l0.6,0.1c0.9-2,3-3,5.2-3.4c-1.6,0.3,16.3,1.8,14.8,6.7L140.4,212.4L140.4,212.4z"/>
		<path class="st10" d="M66.5,211.5c0,0-10.8-1.8-12.9,3.6c-2.1,5.3-9.1,2.5-4.6,7.1s11.4,4.8,14.6,2.3c3.1-2.5,4.2-6,10.5-5.5
			c6.2,0.5,2.4-4.1-1.3-4.2c-3.7-0.1,3.2-4.4,6.2-4.7C81.9,209.7,72.6,206.7,66.5,211.5L66.5,211.5z"/>
		<path class="st10" d="M93.5,216.8c0,0-2.4-2.8-9.7-2.9c-7.3-0.2-3.1,2.6-3.5,3.9c-0.3,1.3,4.5,3.9,4.5,3.9S86.8,217.1,93.5,216.8
			L93.5,216.8z"/>
		<path class="st10" d="M90.3,210.5c-0.7,0,4.5-5.3,9.8-3.7c2.4,0.7,4.7,0.2,6.8-0.4c2.6-0.7,5-1.3,7.4,0.3c4.3,3,2.4,5.4,2.4,5.4
			s-13.5-0.1-14.8,5.4C101.9,217.5,97.8,211,90.3,210.5L90.3,210.5z"/>
		<path class="st10" d="M126.1,216.7c-0.1,0-1.2-0.2-2.8-0.3c-4.4-0.5-12.8-1-15.7,2.9c0,0-1.7,1.1,1.5,3.6s5.5,3.2,5.5,6.2
			c0,0,4.3-8.8,21.2-5c16.9,3.9,18.8-2.9,15.4-4.8c-3.4-1.9-10.2,0.8-10.2,0.8S138.2,214.1,126.1,216.7L126.1,216.7z"/>
		<path class="st11" d="M136,211.7c0,0-3.7-4.1-8.7-3.2C122.2,209.5,137.4,215.9,136,211.7z"/>
		<path class="st10" d="M106,227.3c0,0-5.5-4.1-12.7-2.1c0,0-0.6,6.6-2.3,6.5c-1.7-0.1-4.3-9.7-13.1-8.9c-8.7,0.8-12.6,4.1-9,6.9
			c3.6,2.8,20.8,6.1,31.3,5.3C110.6,234.2,108.6,229.9,106,227.3L106,227.3z"/>
		<path class="st10" d="M128.9,227.1c0,0-7.2-0.8-10.5,3.2s11.8,3.2,17.2,0.9C140.9,228.8,129.7,227.2,128.9,227.1L128.9,227.1z"/>
		<path class="st12" d="M66.7,213.5c-0.2-0.4-3.1-2.1-8.5-0.2c-5.4,1.9-2.4,4.5,1.7,3.9C64,216.6,67.5,214.9,66.7,213.5L66.7,213.5z
			"/>
		<path class="st12" d="M87.5,215c0,0-3.7-0.7-3,0.7C85.1,217.2,91.2,215.7,87.5,215L87.5,215z"/>
		<path class="st12" d="M115.5,210.4c0,0-1.4-4.2-6-3.6C104.9,207.5,115.3,212.9,115.5,210.4L115.5,210.4z"/>
		<path class="st12" d="M139.1,220c0,0-8.8-4.2-8.8-0.2S142.4,222.9,139.1,220L139.1,220z"/>
		<path class="st13" d="M115.5,232.3c-0.2,0-0.4,0-0.6,0c0.1,0,0.2,0,0.3,0C115.3,232.3,115.3,232.3,115.5,232.3
			C115.4,232.4,115.5,232.3,115.5,232.3L115.5,232.3z"/>
		<path class="st8" d="M63.2,215c0,0-3.9-3.4-8.2,0.4c-4.3,3.9-2.1,7.3,2.4,6.9C61.9,221.9,67.7,218.4,63.2,215L63.2,215z"/>
		<path class="st9" d="M63.5,214.9c-1.6-1.4-3.9-1.8-6-1.2c-2.8,0.8-6.8,4.8-4.4,7.5c1.9,2.2,6.1,1.1,8.4,0.1
			c1.4-0.6,2.9-1.6,3.5-2.9C65.6,217,64.5,215.8,63.5,214.9L63,215c2.4,1.9,1.6,4.1-0.8,5.6c-2.3,1.5-7,2.7-8.8,0.1
			c-1.7-2.5,2.1-5.7,4.1-6.6c1.8-0.8,4.1-0.2,5.5,1L63.5,214.9L63.5,214.9z"/>
		<path class="st14" d="M64.1,216.4c-0.1,0.3-0.2,0.7-0.6,1.1c0.3,0,0.6,0.1,0.9,0.2C64.4,217.2,64.3,216.8,64.1,216.4L64.1,216.4z"
			/>
		<path class="st15" d="M64.2,215.9c0,0,0,0.2-0.1,0.5c0.2,0.4,0.3,0.8,0.3,1.3c0.1,0,0.3,0.1,0.4,0.2
			C64.9,217.2,64.7,216.6,64.2,215.9L64.2,215.9z"/>
		<path class="st14" d="M52.9,219.1c-0.1,0.6,0.1,1.1,0.4,1.7c0.8,1.1,2.1,1.5,3.5,1.5c1.2,0,2.4-0.3,3.6-0.7
			c-0.5-0.7-0.3-1.5,0.1-2.2c-0.2,0.1-0.5,0.1-0.7,0.2c0,0-2,1-3.8,1c-0.5,0-0.9-0.1-1.3-0.2C53.6,219.8,53,219.5,52.9,219.1
			L52.9,219.1z"/>
		<path class="st15" d="M53.4,217.2c-1.8,2.9-0.1,5.1,3.3,5.1c0.2,0,0.5,0,0.7,0c1-0.1,2-0.3,3-0.7c0,0,0-0.1-0.1-0.1
			c-1.1,0.4-2.4,0.7-3.6,0.7c-1.4,0-2.7-0.4-3.5-1.5c-0.4-0.5-0.5-1.1-0.4-1.7c-0.1-0.4,0.1-0.9,0.6-1.7V217.2L53.4,217.2z"/>
		<path class="st16" d="M59.7,214.5c-2.6,0-4.6,2.4-4.6,2.4c-0.4,0.5-0.6,0.9-0.6,1.1c0,0.3,0.3,0.5,0.8,0.5c0.9,0,2.4-0.5,3-0.9
			c0.8-0.5,3.7-1.3,3.7-2.2c0-0.3-0.3-0.5-1.1-0.8C60.5,214.6,60.1,214.5,59.7,214.5L59.7,214.5z"/>
		<path class="st8" d="M65.3,218.3c0,0-2-1.8-4,0.3c-1.9,2.1-0.8,3.9,1.4,3.7C64.9,222,67.6,220.1,65.3,218.3L65.3,218.3z"/>
		<path class="st9" d="M65.6,218.3c-0.7-0.6-1.9-1-2.8-0.7c-1.7,0.4-3.6,2.7-2.2,4.2C62.5,223.9,68.5,220.8,65.6,218.3l-0.5,0.1
			c2.7,2.4-2.8,5.1-4.2,3c-0.8-1.1,0.6-2.6,1.4-3.3c0.9-0.7,2-0.4,2.8,0.3L65.6,218.3L65.6,218.3z"/>
		<path class="st8" d="M144.1,221.6c0,0-3.9-3.4-8.2,0.4c-4.3,3.9-2.1,7.3,2.4,6.9C142.7,228.5,148.6,225,144.1,221.6L144.1,221.6z"
			/>
		<path class="st9" d="M144.3,221.6c-1.5-1.3-3.6-1.8-5.6-1.4c-3,0.6-7.2,4.8-4.7,7.6c1.9,2.2,6.1,1.2,8.4,0.2
			c1.4-0.6,2.9-1.5,3.5-2.9C146.4,223.7,145.3,222.4,144.3,221.6c-0.1-0.1-0.7-0.2-0.5,0c5.8,4.6-7.4,10.1-9.8,5.5
			c-1.3-2.4,2-5.2,3.9-6.2s4.4-0.6,5.9,0.7C143.9,221.7,144.5,221.8,144.3,221.6L144.3,221.6z"/>
		<path class="st14" d="M141.2,225.9c-0.2,0.1-0.4,0.1-0.7,0.1c0,0-2,1-3.8,1c-0.1,0-0.3,0-0.4,0c-0.6,0.2-1.2,0.4-2,0.6
			c0.7,0.9,1.9,1.2,3.3,1.2c1.1,0,2.4-0.3,3.5-0.7C140.6,227.5,140.8,226.6,141.2,225.9L141.2,225.9z M145,222.9
			c-0.1,0.3-0.2,0.7-0.6,1.1c0.3,0,0.6,0.1,0.9,0.2C145.3,223.8,145.2,223.4,145,222.9L145,222.9z"/>
		<path class="st15" d="M134.3,227.6c-0.1,0-0.1,0-0.2,0.1c0.7,0.8,1.9,1.3,3.4,1.3c0.2,0,0.5,0,0.7,0c1-0.1,2-0.3,3-0.7l0,0
			c0,0,0,0-0.1-0.1c-1.2,0.4-2.4,0.7-3.5,0.7C136.3,228.8,135.1,228.5,134.3,227.6L134.3,227.6z M145.1,222.5c0,0,0,0.2-0.1,0.4
			c0.2,0.4,0.3,0.9,0.3,1.3c0.1,0.1,0.3,0.1,0.4,0.2C145.7,223.8,145.6,223.2,145.1,222.5L145.1,222.5z"/>
		<path class="st16" d="M140.5,221.1c-0.4,0-0.8,0.1-1.2,0.2c1.1,0.5,1.6,1.1,1,2.2c-0.1,0.1-0.1,0.2-0.2,0.3
			c1.1-0.5,2.7-1.1,2.7-1.7c0-0.3-0.3-0.5-1.1-0.8C141.3,221.1,140.9,221.1,140.5,221.1L140.5,221.1z"/>
		<path class="st8" d="M146.1,224.9c0,0-2-1.8-3.9,0.3s-0.8,3.9,1.4,3.7C145.7,228.6,148.4,226.7,146.1,224.9L146.1,224.9z"/>
		<path class="st9" d="M146.4,224.9c-0.7-0.6-1.9-1-2.8-0.8c-1.4,0.4-3.7,2.6-2.3,4.1C143.3,230.4,149.3,227.5,146.4,224.9h-0.5
			c2.7,2.4-2.8,5.1-4.2,3.1c-0.6-0.9,0.2-2.1,0.8-2.8c0.9-1,2.4-1.2,3.4-0.3H146.4L146.4,224.9z"/>
		<path class="st17" d="M84.8,221.6c0,0-4.8-2.6-4.5-3.9c0.3-1.3-3.6-3.9,2.9-3.9c0.2,0,0.4,0,0.6,0c7.3,0.2,9.7,2.9,9.7,2.9
			C86.8,217.1,84.8,221.6,84.8,221.6L84.8,221.6z M84.8,222.2c0.8,0,1.6-0.5,1.6-0.5c2.1-2.7,10.2-1.5,9.6-4.3s-12.5-6.3-12.5-6.3
			c0.5,0,0.9,0,1.4,0c11.6,0,17.5,9,17.5,9c2.3-4.2,9-5.3,12-5.3c1.8,0,2.3,0.4-0.2,0.8c-6.8,1-9.3,6.3-9.3,6.3
			c5.3,1.4,9.3,7.4,7.5,7.4c-0.5,0-1.6-0.6-3.4-2c-3.8-3.1-9.5-4-13.9-4c-4.3,0-7.2,0.8-5.7,1.3c3.1,0.9,2,6.2,2,6.2
			c-0.9-5.3-9.7-8.6-9.7-8.6c-1.9-0.4-3.6-0.6-5.1-0.6c-3.5,0-5.8,0.9-7.5,2c-1.1,1-2.2,2.3-3.2,3.9c0,0,0.7-2.2,3.2-3.9
			c2.8-2.5,5.7-3.3,8.1-3.3c3.7,0,6.5,1.7,7,1.9C84.4,222.2,84.6,222.2,84.8,222.2L84.8,222.2z M92.3,208.4c-1.4,0-2.9,0.1-4.4,0.4
			c-0.3,0.3-0.6,0.6-0.9,1l-0.5-0.1c-0.2-0.2-0.5-0.4-0.7-0.5c-4.5,0.9-9.2,2.5-12.8,3.6c-1.4,1-1.9,2-0.2,2c3.5,0,7.2,4.2,2.2,4.2
			c-0.3,0-0.6,0-0.9,0c-0.4,0-0.8,0-1.1,0c-5.3,0-6.4,3.3-9.4,5.6c-0.5,0.4-1.2,0.8-1.9,1c0.6,0.5,1.3,0.9,2.3,1.4
			c1.9,0.9,3.1,1.6,4.3,2.1c-2.3-2.6,1.6-5.5,9.7-6.3c0.3,0,0.7,0,1,0c7.9,0,10.5,8.8,12.1,8.9l0,0c1.6,0,2.2-6.5,2.2-6.5
			c1.4-0.4,2.7-0.5,4-0.5c5.2,0,8.8,2.7,8.8,2.7c2.1,2.1,3.9,5.4-1.5,7c1.3-0.2,2.6-0.5,3.9-0.8c2-0.5,4.2-0.9,6.5-1.1
			c-2.1-0.5,0.5-6.2,9.5-7.8c1.5-0.3,3-0.4,4.4-0.4c1.7,0,3.3,0.2,4.7,0.5c0.1-0.3,0.2-0.6,0.4-0.9c-2.3-0.4-4.3-0.6-6-0.6
			c-10.4,0-13.3,6-13.3,6c0.1-3.1-2.3-3.8-5.5-6.2c-3.2-2.5-1.5-3.6-1.5-3.6c2-2.6,6.3-3.2,10.3-3.2c2,0,4,0.2,5.5,0.3
			c1.5,0.2,2.5,0.3,2.8,0.3l0,0c0.9-0.2,1.7-0.3,2.4-0.4c-3.9-1.2-10-2.2-10.8-4.2c-0.1-0.3-0.4-0.6-0.6-0.9
			c-0.1,0.6-0.4,0.9-0.4,0.9s0,0-0.1,0c-1.1,0-13.5,0.1-14.8,5.4c0,0-4.1-6.6-11.6-7C89.9,210.5,90.8,209.4,92.3,208.4L92.3,208.4z"
			/>
		<path class="st18" d="M87,208.9c-0.3,0.1-0.6,0.1-0.9,0.2l0,0c0.1,0,0.2,0.1,0.3,0.1C86.5,209.2,86.7,209.1,87,208.9L87,208.9z"/>
		<path class="st17" d="M75.4,232.2c0.1,0,0.2,0.1,0.3,0.1c2.1,0.9,4.7,1.3,7.5,1.5C80.4,233.4,77.7,232.9,75.4,232.2L75.4,232.2z
			 M86.1,209.1L86.1,209.1L86.1,209.1L86.1,209.1L86.1,209.1z"/>
		<path class="st19" d="M87.9,208.8c-0.3,0.1-0.6,0.1-0.9,0.2c-0.2,0.2-0.4,0.3-0.6,0.3c-0.1,0-0.2,0-0.3-0.1l0,0
			c-0.1,0-0.2,0-0.3,0.1c0.2,0.2,0.5,0.3,0.7,0.5l0.5,0.1C87.3,209.4,87.6,209.1,87.9,208.8L87.9,208.8z"/>
		<path class="st20" d="M73,212.7c-1,0.3-1.9,0.6-2.7,0.9c-5.8,1.7,0.1,2.8-4.3,5.1c1.4,1.8-1.4,3.7-3.6,3.7c-0.6,0-1.2-0.1-1.6-0.5
			c-0.9,1.2-0.5,2.4,0.9,3.6c0.7-0.3,1.4-0.6,1.9-1c2.9-2.3,4.1-5.6,9.4-5.6c0.4,0,0.7,0,1.1,0c0.3,0,0.6,0,0.9,0
			c5,0,1.3-4.2-2.2-4.2C71.1,214.7,71.6,213.8,73,212.7L73,212.7z"/>
		<path class="st20" d="M86.1,216.3c-0.8,0-1.5-0.2-1.6-0.6c-0.3-0.7,0.5-0.9,1.4-0.9c0.8,0,1.7,0.2,1.7,0.2
			C90.1,215.5,87.9,216.3,86.1,216.3L86.1,216.3z M83.1,213.8c-6.5,0-2.5,2.6-2.9,3.9c-0.3,1.3,4.5,3.9,4.5,3.9s2.1-4.5,8.7-4.9
			c0,0-2.4-2.8-9.7-2.9C83.5,213.8,83.3,213.8,83.1,213.8L83.1,213.8z"/>
		<path class="st20" d="M92.4,208.4C92.3,208.4,92.3,208.4,92.4,208.4c-1.6,1-2.4,2.1-2.1,2.1c7.6,0.5,11.6,7,11.6,7
			c1.2-5.3,13.6-5.4,14.8-5.4c0.1,0,0.1,0,0.1,0s0.3-0.3,0.4-0.9c-0.4-0.4-1-0.6-1.6-0.7c-0.1,0.4-0.5,0.5-1,0.5
			c-0.7,0-1.6-0.3-2.5-0.6c-1.2,0.1-2,0.4-2,0.4c-3.4-1-6,0.5-13.2-1.8C95.4,208.6,94,208.4,92.4,208.4L92.4,208.4z"/>
		<path class="st20" d="M117.8,216c-4,0-8.3,0.6-10.3,3.2c0,0-1.7,1.1,1.5,3.6s5.5,3.2,5.5,6.2c0,0,2.9-6,13.3-6
			c1.8,0,3.8,0.2,6,0.6c0.3-0.4,0.6-0.9,1-1.2c-2.3-0.1-4.5-1-4.5-2.7c0-1.1,0.6-1.6,1.5-1.7c-0.2-0.7-1.5-1.3-3.3-1.8
			c-0.8,0.1-1.6,0.3-2.4,0.4l0,0c-0.2,0-1.3-0.2-2.8-0.3C121.8,216.2,119.8,216,117.8,216L117.8,216z"/>
		<path class="st20" d="M78.9,222.8c-0.3,0-0.7,0-1,0c-8.1,0.7-12,3.6-9.7,6.3c1.9,0.9,3.6,1.6,7.2,3.2c2.3,0.6,5,1.2,7.8,1.7
			c5.5,0.4,11.6,0,15.3,0.6c0.7,0.1,1.4,0.2,2.1,0.2c1.3,0,2.6-0.2,3.9-0.4c5.4-1.5,3.6-4.9,1.5-7c0,0-3.6-2.7-8.8-2.7
			c-1.2,0-2.6,0.1-4,0.5c0,0-0.6,6.5-2.2,6.5l0,0C89.4,231.6,86.9,222.8,78.9,222.8L78.9,222.8z"/>
		<path class="st21" d="M85.8,214.9c-0.9,0-1.7,0.2-1.4,0.9c0.2,0.4,0.9,0.6,1.6,0.6c1.8,0,4-0.9,1.4-1.3
			C87.5,215,86.6,214.9,85.8,214.9L85.8,214.9z"/>
		<path class="st21" d="M113.7,210.3c-0.6,0-1.1,0-1.7,0.1c0.9,0.4,1.8,0.6,2.5,0.6c0.5,0,0.9-0.2,1-0.5
			C114.9,210.4,114.3,210.3,113.7,210.3L113.7,210.3z"/>
		<path class="st21" d="M131.8,218.1c-0.9,0.1-1.5,0.6-1.5,1.7c0,1.7,2.2,2.6,4.5,2.7c0.7-0.8,1.6-1.4,2.5-1.8
			c-2.6-0.6-5.8-0.9-5.5-2.3C131.8,218.3,131.8,218.2,131.8,218.1L131.8,218.1z"/>
		<path class="st22" d="M69,223.5c-2.5,1.7-3.2,3.9-3.2,3.9C66.8,225.8,67.9,224.5,69,223.5L69,223.5z M84.8,211.1
			c-0.5,0-0.9,0-1.4,0c0,0,11.9,3.5,12.5,6.3s-7.5,1.6-9.6,4.3c0,0-0.8,0.5-1.6,0.5c-0.2,0-0.4,0-0.6-0.1c-0.5-0.2-3.3-1.9-7-1.9
			c-2.5,0-5.4,0.8-8.1,3.3c1.6-1.1,4-2,7.5-2c1.5,0,3.2,0.2,5.1,0.6c0,0,8.8,3.3,9.7,8.6c0,0,1.1-5.3-2-6.2
			c-1.5-0.4,1.5-1.3,5.7-1.3c4.4,0,10.2,0.9,13.9,4c1.7,1.4,2.8,2,3.4,2c1.7,0-2.2-6-7.5-7.4c0,0,2.5-5.3,9.3-6.3
			c2.6-0.4,2.1-0.8,0.2-0.8c-3,0-9.8,1.1-12,5.3C102.3,220,96.4,211.1,84.8,211.1L84.8,211.1z"/>
		<path class="st17" d="M130.5,226.1c-10.9,0-14.2,5.5-15,6.2c0.7-0.1,1.4-0.1,2.2-0.1c0.2,0,0.4,0,0.6,0c0.1,0,0.1,0,0.2,0
			c-0.6-0.4-0.7-1.1,0-1.9c2.3-2.9,6.6-3.3,8.9-3.3c1,0,1.6,0.1,1.6,0.1c0.3,0,2.3,0.3,4.3,0.8c0.3-0.1,0.5-0.1,0.8-0.2
			c-0.4-0.5-0.6-1-0.7-1.5C132.3,226.1,131.4,226.1,130.5,226.1L130.5,226.1z"/>
		<path class="st20" d="M127.3,227.1c-2.3,0-6.6,0.4-8.9,3.3c-0.7,0.8-0.6,1.4,0,1.9c0.2,0,0.3,0,0.5,0c7.3,0,7.6-2.5,12.9-4
			c0.5-0.1,0.9-0.2,1.3-0.4c-1.9-0.5-3.9-0.8-4.3-0.8C128.9,227.1,128.3,227.1,127.3,227.1L127.3,227.1z"/>
		<path class="st22" d="M128.8,224.1c-1.4,0-2.8,0.1-4.4,0.4c-9,1.6-11.6,7.4-9.5,7.8c0.2,0,0.4,0,0.6,0c0.7-0.7,4.1-6.2,15-6.2
			c0.9,0,1.8,0,2.7,0.1c-0.1-0.5,0-1.1,0.2-1.6C132.1,224.3,130.5,224.1,128.8,224.1L128.8,224.1z"/>
		<path class="st17" d="M65.5,219c-0.2,0.1-0.4,0.2-0.6,0.2c-1.9,0.8-3.2,1.6-3.9,2.4c0.4,0.4,0.9,0.5,1.4,0.5
			C64.3,222.1,66.5,220.5,65.5,219L65.5,219z"/>
		<path class="st19" d="M66,218.7c-0.1,0.1-0.3,0.1-0.4,0.2c1,1.6-1.3,3.2-3.1,3.2c-0.6,0-1.1-0.1-1.4-0.5c-0.1,0.1-0.2,0.2-0.3,0.4
			c0.4,0.3,1,0.5,1.6,0.5C64.6,222.5,67.4,220.6,66,218.7L66,218.7z"/>
		<path class="st17" d="M138,220.8c0,0-0.1,0-0.1,0.1c-1.5,0.8-3.9,2.8-4.1,4.8c0.2,0.4,0.7,0.8,1.8,1.2c0.3,0.1,0.6,0.2,0.9,0.2
			c1.7-0.6,2.5-1.2,3.7-3.3c-0.4,0.2-0.8,0.3-1,0.4c-0.6,0.3-2,0.9-3,0.9c-0.5,0-0.8-0.1-0.8-0.5c0-0.3,0.2-0.6,0.6-1.1
			c0,0,1.4-1.7,3.3-2.2C138.9,221.1,138.5,220.9,138,220.8L138,220.8z"/>
		<path class="st19" d="M137.3,220.6c-0.9,0.4-1.8,1.1-2.5,1.8c-0.4,0.4-0.7,0.8-1,1.2c-0.2,0.3-0.3,0.6-0.4,0.9
			c-0.2,0.5-0.3,1.1-0.2,1.6s0.3,1.1,0.7,1.5c0.1,0,0.1,0,0.2,0c-0.8-0.9-0.9-2.3,0.1-3.9l0.1,0.2c-0.5,0.8-0.7,1.3-0.6,1.7
			c0.2-2,2.6-4,4.1-4.8c0,0,0.1,0,0.1-0.1C137.8,220.8,137.6,220.7,137.3,220.6L137.3,220.6z"/>
		<path class="st23" d="M133.7,225.7c-0.1,0.5,0,1,0.3,1.4c0.1,0.2,0.2,0.3,0.3,0.5c0.8-0.2,1.5-0.4,2-0.6c-0.3,0-0.6-0.1-0.9-0.2
			C134.5,226.4,133.9,226.1,133.7,225.7L133.7,225.7z"/>
		<path class="st24" d="M134.2,223.8c-1,1.5-0.9,2.9-0.1,3.9c0.1,0,0.1,0,0.2-0.1c-0.1-0.1-0.2-0.3-0.3-0.5c-0.2-0.5-0.3-1-0.3-1.4
			c-0.2-0.4,0-0.9,0.6-1.7L134.2,223.8L134.2,223.8z"/>
		<path class="st25" d="M139.3,221.2c-1.9,0.6-3.3,2.2-3.3,2.2c-0.4,0.5-0.6,0.9-0.6,1.1c0,0.3,0.3,0.5,0.8,0.5c0.9,0,2.4-0.5,3-0.9
			c0.2-0.1,0.6-0.3,1-0.4c0.1-0.1,0.1-0.2,0.2-0.3C140.9,222.4,140.4,221.7,139.3,221.2L139.3,221.2z"/>
	</g>
	<path class="st6" d="M104.6,196.1c-26.3,0-45.7,7.2-45.7,7.2c-3.8,2-0.3,4.9,5,4.9c2.3,0,5-0.6,7.6-2c2.1-1.2,4.1-1.6,5.9-1.6
		s3.5,0.4,4.9,0.8c1.5,0.4,2.8,0.8,3.9,0.8c1,0,1.9-0.3,2.6-1.3c1.4-1.9,4.2-2.4,6.6-2.4c2.8,0,5.3,0.7,5.3,0.7s0.6-2.5,8.2-2.5
		c0.4,0,0.8,0,1.2,0c8.8,0.3,9.9,4.5,9.9,4.5c0.7-2.7,7-2.5,8-4.9s-2.7-2.6-2.7-2.6C118.2,196.6,111.2,196.1,104.6,196.1
		L104.6,196.1z"/>
	<g>
		<path class="st26" d="M95.5,216.5L95.5,216.5c-0.2-3.4-0.6-6.8-1.2-10.1c-0.2-0.9-0.3-1.9-0.5-2.8c-0.6-3-1.3-5.8-2.2-8.5l0,0
			c-0.3-1.1-0.7-2.1-1.1-3.1c-0.5-1.4-1.5-3.5-2.7-5.9c-2.6-5.3-6.3-12.1-8.2-15.6c-0.5-1-0.9-1.7-1.1-2c-1.7-3-3.8-5.6-5.6-8.5
			c1.5,0.1,3.1-1,4.2-2.1l0,0c0.2-0.2,0.4-0.4,0.5-0.6c1.5-1.8,2.4-4.1,2.8-6.4c0.1-0.4,0.2-0.9,0.2-1.3c0.4-2.5,0.4-5,0.2-7.5
			c0-0.2,0-0.5-0.1-0.7c0.4-1.5-0.9-5.6-2.5-8.6l0,0c-1.1-2.1-2.4-3.7-3.4-3.4c-0.3,0.1-0.7,0.6-1.2,1.3l0,0c-1.3,1.8-2.9,5-3.5,6.2
			c-0.1,0.1-0.1,0.2-0.1,0.3c-1.1,2.1-2.4,4.2-3.1,6.5l0,0c-0.1,0.5-0.3,1-0.3,1.5c-0.4,3,0.4,5.9,1.5,8.6c-2-3.2-4.1-6.4-6.3-9.5
			c-1.8-2.6-3.7-5.1-5.7-7.5c0.9,0.1,1.9-0.2,2.7-0.7c0.3-0.2,0.6-0.4,0.9-0.6c0.8-0.7,1.5-1.4,2.1-2.3c0.9-1.3,1.6-2.7,2-4.2
			c0.5-1.6,0.7-3.2,0.8-4.8c0.1-5.5-2-10.7-4.2-15.6c0.1-0.1-1.4-3.1-1.4-3.6c-3.2,2.7-5.8,9.9-7,13.8c-1.3,4.1-1.4,8.5-0.1,12.6
			c0,0.1,0.1,0.2,0.1,0.4c-3-3.6-6.1-7.2-9.1-10.8l0,0c4.6-2.1,6.2-7.5,5.5-12.3c-0.5-3.2-1.8-6.2-3.1-9.2
			c-1.4-3.3-5.8-10.5-5.9-10.3c-4.3,9.2-3.8,20.1,1,28.9c-4.3-5.1-8.6-10.2-13-15.3c2-0.5,1.3-4,1.3-5.5c0.1-5.6,0.7-11.6-3-16.3
			c-2.9-3.6-11.2-8-11.2-8c-0.1-0.5-0.6-0.9-1.1-0.6c-0.8,0.4-0.4,1.8-0.3,2.4c0.5,3.3,1.2,6.5,2.1,9.6c1.3,4.1,2.9,8.4,5.1,12.2
			c0.7,1.2,1.5,2.4,2.3,3.5s2.1,2.5,3.6,2.8l5.2,6.2l0,0l0.2,0.2l8.6,10.1l0.9,1.1l3.1,3.7c1.7,2,6.4,7.8,10.7,13.2
			c0.5,0.7,1.1,1.3,1.6,2c2.8,3.5,5.2,6.7,6.2,8.2c1.3,2,2.6,4,3.9,6l0,0c0.4,0.6,0.8,1.2,1.1,1.9c0.9,1.5,1.8,3,2.8,4.5l0,0
			c1.5,2.5,2.9,5,4.4,7.5c0.4,0.7,0.8,1.4,1.2,2.1c0.3,0.5,0.5,0.9,0.8,1.4s0.5,0.9,0.8,1.4c3.9,6.9,7.1,14.2,9.4,21.9
			c2.7,9,4.2,18.4,4.1,27.9c0.1,0.2,0.1,0.4,0.2,0.6c0.2-0.1,0.3-0.1,0.5-0.2c1.5-0.7,2.5-0.7,3.4-0.6
			C95.6,220.1,95.6,218.3,95.5,216.5z M24.5,100.5c-0.4-0.4-0.7-0.8-1-1.2C23.8,99.7,24.2,100.1,24.5,100.5z M59.2,104.8L59.2,104.8
			L59.2,104.8z"/>
		<path class="st26" d="M76.4,168.2c0,0-0.4-0.3-1.2-0.8c-1.9-1.2-5.8-3.4-10.3-5.1c-4.9-1.9-10.4-3.3-14.4-2
			c-1.4,0.4-4.6,1.2-4.6,3.1c0,1,1.1,1.8,1.7,2.4c0.9,0.9,1.9,1.7,2.9,2.4c4.2,3,9.2,4.9,14.4,5.3c2.7,0.3,5.9,0.3,8.5-0.7
			c0.9-0.3,1.7-0.9,2.2-1.7c0.4-0.5,0.6-1.1,0.7-1.7C76.6,169.1,76.5,168.6,76.4,168.2z"/>
		<path class="st27" d="M68,154.2c0,0-0.4-0.3-1.1-0.7l0,0c-3.8-2.3-17.1-9.6-24.8-7.1c-1.4,0.4-4.6,1.2-4.5,3.1
			c0,1,1.1,1.8,1.7,2.4c0.9,0.9,1.9,1.7,2.9,2.4c4.2,3,9.2,4.9,14.4,5.3c2.7,0.3,5.9,0.3,8.5-0.7c1.6-0.6,2.9-2,3-3.6
			C68.1,155,68.1,154.6,68,154.2z"/>
		<path class="st27" d="M56.7,138.2c0,0-0.5-0.4-1.5-1c-4.2-2.6-16.9-9.3-24.4-6.9c-1.4,0.4-4.6,1.2-4.6,3.1c0,1,1.1,1.8,1.7,2.4
			c0.9,0.9,1.9,1.7,2.9,2.4c4.2,3,9.2,4.9,14.3,5.3c2.7,0.3,5.9,0.3,8.5-0.7c1.6-0.6,2.9-2,3-3.7C56.8,138.9,56.8,138.6,56.7,138.2z
			"/>
		<path class="st27" d="M41.1,119.6c0,0-5.2-2.7-12.7-1.6s-12.3,5.4-12.3,5.4s16.7,15.9,25.3-3L41.1,119.6z"/>
		<path class="st27" d="M31.9,109c0,0-8.6-4.5-14.3-3c-5.6,1.5-9.6,2.8-9.6,2.8S24.4,123,31.9,109z"/>
		<path class="st27" d="M26.4,102.7c0,0,0.1-0.1-4.7-5.2C17,92.3,5.6,92.3,5.6,92.3s2.9,13.3,10.1,12.3
			C22.9,103.7,26.4,102.7,26.4,102.7z"/>
	</g>
	<g>
		<path d="M144.4,3.7c-0.1-0.8-0.1-2.7-1.3-2.9c-0.1,0-0.1,0-0.2,0c-0.1,0-0.1,0-0.2,0c-0.1,0-0.1,0-0.2,0.1c-0.1,0-0.1,0.1-0.2,0.1
			l-0.1,0.1l-0.1,0.1c0,0,0,0.1-0.1,0.1c0,0.1-0.1,0.1-0.1,0.2s0,0.1,0,0.2s0,0.3,0,0.4c0,0-0.2,0.2-0.5,0.5l-0.2,0.2
			c-0.1,0.1-0.1,0.1-0.2,0.2c-0.1,0.1-0.2,0.2-0.3,0.3s-0.2,0.2-0.3,0.3s-0.2,0.2-0.3,0.4c-0.6,0.6-1.3,1.4-2.1,2.2
			c-0.3,0.3-0.6,0.7-0.9,1c-0.2,0.2-0.3,0.4-0.5,0.5c-0.3,0.4-0.6,0.7-1,1.1c-0.3,0.3-0.5,0.6-0.8,0.9c-0.2,0.3-0.4,0.5-0.6,0.8
			c-0.2,0.3-0.5,0.6-0.7,0.9c-0.2,0.3-0.4,0.6-0.6,0.9c-0.3,0.4-0.5,0.8-0.8,1.2c-0.2,0.3-0.4,0.7-0.6,1c-0.4,0.6-0.6,1.2-0.9,1.8
			c-0.1,0.3-0.2,0.6-0.3,0.8c-0.1,0.3-0.2,0.6-0.3,0.8c-0.1,0.3-0.2,0.5-0.2,0.8c-0.1,0.2-0.1,0.4-0.1,0.6c0,0.1-0.1,0.2-0.1,0.4
			c-0.1,0.8-0.2,1.5-0.2,2.3c0,0.3,0,0.6,0,0.9c0,0.5,0,1.1,0.1,1.6c0,0.2,0,0.3,0,0.5s0,0.5,0.1,0.7c0,0.2,0.1,0.4,0.1,0.6
			c0,0.1,0,0.1,0,0.1c0,0.2,0,0.3,0.1,0.5c0.2,1.1,0.4,2.1,0.7,3.2c0.1,0.3,0.2,0.6,0.2,0.9c0.4,1.4,0.8,2.9,1.3,4.3
			c0.3,0.9,0.6,1.9,0.9,2.8c0,0.1,0.1,0.2,0.1,0.4c0.1,0.3,0.1,0.6,0.2,0.9c0,0.2,0.1,0.3,0.1,0.5c0.1,0.5,0.2,1,0.4,1.4
			c0,0.1,0.1,0.3,0.1,0.4c0.1,0.2,0.1,0.4,0.2,0.6c0.1,0.1,0.1,0.3,0.2,0.4c0.1,0.1,0.1,0.2,0.2,0.4c0,0.1,0.1,0.2,0.1,0.2
			c0.1,0.1,0.2,0.3,0.3,0.4c0.1,0.1,0.2,0.3,0.4,0.4c0.1,0.1,0.1,0.1,0.2,0.2l0.1,0.1c0.1,0.1,0.3,0.2,0.4,0.2h0.1l0,0h0.1
			c0.1,0,0.1,0,0.2,0c0.1,0,0.1,0,0.2,0h0.1c-3.6,8-7.3,16.1-10.9,24.1c1.7-7.7,1.2-15.7-1.3-23.1c-0.1-0.4-0.3-0.7-0.4-1.1
			c-0.4-1.1-0.9-2.2-1.4-3.3l0,0c-0.4-0.9-0.8-1.7-1.3-2.5c-0.5-0.9-1.1-1.8-1.7-2.7c-1-1.5-2.1-2.9-3.2-4.3l0,0l0,0
			c-0.1,0.1-0.1,0.3-0.3,0.6c-0.1,0.2-0.1,0.4-0.2,0.6c-0.1,0.5-0.3,1-0.5,1.6c-0.1,0.5-0.3,1-0.4,1.5c-0.3,1.3-0.7,2.7-1,4.1
			c-0.1,0.4-0.2,0.8-0.3,1.2c-0.2,1-0.4,2-0.6,2.9c-0.1,0.3-0.1,0.7-0.2,1s-0.1,0.5-0.1,0.7c0,0.1,0,0.3-0.1,0.4
			c0,0.1,0,0.2-0.1,0.3c-0.6,4.2-1.1,8.5-0.6,12.8c0.8,6.3,4.9,12.6,11.5,13.6c0,0,0,0,0,0.1c-0.5,1.2-1,2.3-1.6,3.4
			c-2.1,4.5-4.1,9.1-6.1,13.6c0-0.2,0-0.3,0-0.5c0.1-5.6-1.7-11.3-4.8-16c-0.8-1.2-1.7-2.5-2.8-4c-0.2-0.3-0.5-0.6-0.7-1
			c-0.9-1.2-1.8-2.3-2.8-3.5c-0.2-0.3-0.5-0.6-0.7-0.8c-0.5-0.5-0.9-1-1.4-1.5c-0.2-0.2-0.3-0.3-0.5-0.5c-1-0.9-1.9-1.8-2.9-2.5
			c-0.2-0.1-0.3-0.2-0.5-0.3c-0.5-0.3-1-0.6-1.4-0.8c0.1,0.3,0,0.3-0.1,0.3c0.1,0.2,0,1.2-0.1,2.2c0,0.2,0,0.3-0.1,0.5
			c-0.1,0.6-0.2,1.3-0.2,1.7c0,0.1,0,0.2,0,0.2v0.1v0.1c0,0.1,0,0.1,0,0.2l0,0l0,0c-0.2,1.4-0.4,2.9-0.5,4.3c-0.1,0.5-0.1,1-0.1,1.5
			c0,0.4-0.1,0.7-0.1,1.1c0,0.2,0,0.4,0,0.5s0,0.2,0,0.3c0,0.6-0.1,1.2-0.1,1.7c0,0.1,0,0.2,0,0.2c0,0.2,0,0.4,0,0.7
			c0,0.8,0,1.7,0,2.5c0,0.4,0,0.7,0,1.1c0,0.3,0,0.6,0.1,0.9c0,0.2,0,0.5,0.1,0.7c0,0.1,0,0.2,0,0.3c0,0.1,0,0.3,0,0.4s0,0.2,0,0.3
			c0.1,0.4,0.1,0.8,0.2,1.2c0.1,0.8,0.3,1.6,0.5,2.4c0.1,0.4,0.2,0.8,0.3,1.2c1.7,5.3,5.2,10.3,10.4,12.5c0.3,0.1,0.5,0.2,0.8,0.3
			c0.2,0.1,0.4,0.1,0.6,0.2s0.4,0.1,0.6,0.1c0.1,0,0.3,0,0.4,0.1c0.2,0,0.4,0,0.6,0.1c0.6,0,1.1-0.1,1.7-0.2
			c0.2-0.1,0.3-0.1,0.5-0.2c-1.2,2.9-2.3,5.8-3.4,8.7c-0.4,1-0.7,1.9-1.1,2.9c-0.8,2.4-1.6,4.7-2.3,7.1c-0.7,2.4-1.5,4.8-2.1,7.2
			c0.4-3.9,0.4-7.9-1.2-11.5c-1.6-3.7-4.8-6.4-7.6-9.3c-0.1-0.1-0.2-0.2-0.3-0.4c-0.1-0.1-0.2-0.2-0.3-0.3c-0.1-0.1-0.2-0.2-0.3-0.4
			c-0.4-0.4-0.9-0.9-1.4-1.5c-0.2-0.2-0.4-0.4-0.5-0.6c-0.6-0.6-1.1-1.2-1.7-1.7c-0.1-0.1-0.2-0.2-0.3-0.3c-1.3-1.3-2.6-2.3-3.4-2.6
			c-0.1,0-0.1,0-0.2-0.1h-0.1c-3.4-0.3-4.9,14.4-3.1,17.4c0.8,4.2,2,8.3,4,12.1c1.4,2.7,3.3,5.3,5.9,7.1c0.3,0.2,0.6,0.4,0.9,0.6
			c0.2,0.1,0.3,0.2,0.5,0.3c0.6,0.3,1.3,0.6,2.1,0.8c0.1,0,0.2,0.1,0.4,0.1c0.5,0.1,1.1,0.2,1.6,0.2c0.7,0,1.5-0.1,2.1-0.5
			c0.2-0.1,0.4-0.3,0.6-0.4c0,0,0,0,0.1-0.1c-1,4.1-2.1,8.1-3.1,12.2c-0.2,0.6-0.3,1.2-0.5,1.9c0,0.2-0.1,0.3-0.1,0.5
			c-0.1,0.4-0.2,0.9-0.3,1.3l0,0l0,0c-0.3,1.2-0.6,2.4-0.8,3.6c-0.3,1.1-0.5,2.2-0.8,3.3c-0.1,0.5-0.3,1.1-0.4,1.6l0,0
			c-0.7-0.2-1.4-0.3-2.1-0.4c-0.5-0.1-1-0.1-1.5-0.1c-0.1,0-0.3,0-0.4,0h-0.1H91c-0.6,0-1.2,0-1.8,0.1c-0.5,0-1,0.1-1.6,0.1
			c-0.5,0.1-1.1,0.1-1.6,0.2c-0.9,0.1-1.7,0.3-2.6,0.5l0,0c-0.6,0.1-1.1,0.3-1.7,0.4c-0.6,0.1-1.1,0.3-1.7,0.4l0,0
			c-0.4,0.1-0.8,0.2-1.2,0.3c-0.6,0.2-1.2,0.4-1.7,0.5c-0.6,0.2-1.1,0.4-1.7,0.6c-0.1,0-0.2,0.1-0.3,0.1l0,0
			c-0.4,0.1-0.9,0.3-1.3,0.5c-0.5,0.2-1,0.4-1.5,0.6c-0.3,0.1-0.5,0.2-0.6,0.2c-1,0.4-2,0.8-2.9,1.2c-0.3,0.1-0.6,0.3-0.9,0.4
			c-0.1,0-0.1,0.1-0.2,0.1c-0.5,0.2-1,0.5-1.5,0.7c-2.4,1.1-4.2,2.1-5.2,2.7c-0.2,0.1-0.3,0.2-0.4,0.3c-0.5,0.3-0.8,0.5-0.8,0.5
			c5.3,4.5,12.2,5.6,18.9,4.7c0.3,0,0.6-0.1,1-0.1c0.2,0,0.4-0.1,0.6-0.1c0.7-0.1,1.5-0.3,2.3-0.5c4.9-1.3,10-4,11.7-8.7
			c-1.5,7.3-2.7,14.6-3.3,22c-0.1,0.8-0.1,1.6-0.2,2.4c-0.2,2.7-0.3,5.5-0.3,8.2c0,0.2,0,0.3,0,0.5l0,0c0,0.7,0,1.4,0,2
			c0.2,8.6,1.4,17.1,4,25.3c0.1,0.2,0.1,0.4,0.2,0.6c0.2-0.1,0.3-0.1,0.5-0.2c1.5-0.7,2.5-0.7,3.4-0.6c0.6,0.1,1.1,0.3,1.6,0.4
			c-0.3-0.9-0.6-1.8-0.9-2.7c-0.3-0.8-0.5-1.7-0.8-2.5c0-0.2-0.1-0.3-0.1-0.5l0,0c-0.4-1.5-0.8-3-1.2-4.6c-0.4-1.6-0.7-3.2-1-4.8
			l0,0c-0.2-0.9-0.3-1.8-0.5-2.7c-0.5-3.1-0.9-6.2-1.2-9.3l0,0c-0.5-5.2-0.6-10.4-0.5-15.5l0,0c0-0.8,0.1-1.7,0.1-2.5l0,0
			c0.2-3.7,0.5-7.3,0.9-10.9c0.2-1.3,0.4-2.7,0.6-4c0.6-3.9,1.4-7.7,2.3-11.5c0.3-1.4,0.7-2.8,1-4.2c0.3-1.1,0.5-2.1,0.8-3.2
			c1.3-5.3,2.7-10.6,4.1-15.9c0.2-0.7,0.4-1.3,0.6-2c0-0.1,0.1-0.2,0.1-0.3c0.2-0.8,0.5-1.6,0.7-2.4c0.9-3,1.8-6.1,2.8-9.1
			c0.8-2.3,2.7-7.2,4.9-12.7c0.4-1,0.8-2.1,1.3-3.2c3.5-8.5,7.3-17.5,8.8-20.7l2.6-5.8l0.8-1.7l0,0l7.2-16l0.1-0.3l4.4-9.8
			c1.7-0.9,2.9-3.2,3.5-4.9s1.2-3.5,1.6-5.3l0,0c1.4-5.7,1.9-11.7,2-17.4C145.3,12.4,145,8,144.4,3.7z M140.5,38.9
			c-0.2,0.6-0.5,1.3-0.8,1.9C139.9,40.1,140.2,39.5,140.5,38.9z M97.2,58.9C97.2,59,97.2,59,97.2,58.9L97.2,58.9L97.2,58.9z
			 M97.2,58.9L97.2,58.9L97.2,58.9L97.2,58.9L97.2,58.9z"/>
		<path d="M98.5,145.6L98.5,145.6L98.5,145.6L98.5,145.6L98.5,145.6c-0.1-0.1-0.2-0.2-0.3-0.3c-0.3-0.3-0.8-0.7-1.5-1.4
			c-0.1-0.1-0.2-0.2-0.3-0.2c-0.7-0.6-1.7-1.4-2.7-2.2c-0.2-0.1-0.3-0.3-0.5-0.4c0,0-0.1-0.1-0.2-0.1c-0.1-0.1-0.3-0.2-0.5-0.3
			c-2-1.5-4.4-3.1-6.9-4.7c-0.4-0.2-0.8-0.5-1.2-0.7c-0.3-0.2-0.6-0.4-1-0.5c-0.5-0.3-1-0.5-1.5-0.8c-0.3-0.1-0.5-0.3-0.8-0.4l0,0
			c-0.1-0.1-0.3-0.1-0.4-0.2c-1.4-0.7-2.8-1.3-4.3-1.9l0,0l0,0c-0.1,0-0.2-0.1-0.3-0.1c-0.3-0.1-0.6-0.2-0.8-0.3
			c-1.6-0.6-3.3-1-4.8-1.2c-0.3,0-0.5-0.1-0.8-0.1s-0.5,0-0.8-0.1c-0.2,0-0.5,0-0.7,0c-0.5,0-0.9,0-1.3,0.1c-0.2,0-0.4,0-0.6,0.1
			c-0.1,0-0.3,0-0.5,0.1c-0.1,0-0.2,0-0.3,0c-0.2,0-0.4,0.1-0.7,0.1c-0.3,0-0.5,0.1-0.8,0.1c-0.3,0.1-0.6,0.1-0.9,0.2
			c-0.3,0.1-0.6,0.2-0.9,0.2c-0.1,0-0.2,0.1-0.3,0.1h-0.1c-0.3,0.1-0.5,0.2-0.8,0.4c-0.1,0.1-0.2,0.1-0.3,0.2l-0.1,0.1l0,0
			c0,0,0,0-0.1,0c-0.1,0.1-0.3,0.2-0.4,0.3c-0.2,0.2-0.4,0.5-0.5,0.8c0,0.1,0,0.1-0.1,0.2v0.1c0,0.3,0,0.5,0.1,0.8
			c0,0.2,0.1,0.4,0.2,0.6c0.1,0.1,0.1,0.3,0.2,0.4c0,0.1,0.1,0.1,0.1,0.2c0.1,0.1,0.2,0.3,0.3,0.4c0.3,0.4,0.6,0.8,0.8,1.1
			c0.1,0.2,0.2,0.3,0.4,0.5c0.4,0.5,0.8,1,1.2,1.5c0.6,0.6,1.1,1.2,1.7,1.8c1.6,1.6,3.3,3,5.1,4.2c0.3,0.2,0.6,0.4,0.9,0.6
			c3.6,2.3,7.5,4.1,11.6,5.2c0.4,0.1,0.8,0.2,1.2,0.3c3.2,0.8,6.9,1.3,10.1,0.6c0.2,0,0.3-0.1,0.5-0.1c0.5-0.1,1-0.3,1.4-0.6
			c0.1-0.1,0.2-0.1,0.3-0.2c0.1,0,0.1-0.1,0.2-0.1c0.1-0.1,0.2-0.2,0.4-0.3c0.3-0.2,0.6-0.5,0.9-0.8l0,0l0,0
			c0.3-0.3,0.5-0.6,0.6-0.9c0.1-0.1,0.1-0.2,0.1-0.3c0.1-0.1,0.1-0.2,0.1-0.3s0.1-0.2,0.1-0.3V147c0-0.1,0-0.2,0.1-0.3v-0.1l0,0l0,0
			c0,0,0,0,0-0.1C98.5,146.3,98.6,146,98.5,145.6z"/>
		<path class="st27" d="M98.5,145.6L98.5,145.6L98.5,145.6L98.5,145.6L98.5,145.6c-0.1-0.1-0.2-0.2-0.3-0.3
			c-0.3-0.3-0.8-0.7-1.5-1.4c-0.1-0.1-0.2-0.2-0.3-0.2c-0.7-0.6-1.7-1.4-2.7-2.2c-0.2-0.1-0.3-0.3-0.5-0.4c0,0-0.1-0.1-0.2-0.1
			c-0.1-0.1-0.3-0.2-0.5-0.3c-2-1.5-4.4-3.1-6.9-4.7c-0.4-0.2-0.8-0.5-1.2-0.7c-0.3-0.2-0.6-0.4-1-0.5c-0.5-0.3-1-0.5-1.5-0.8
			c-0.3-0.1-0.5-0.3-0.8-0.4c-0.1-0.1-0.3-0.1-0.4-0.2c-1.4-0.7-2.8-1.3-4.3-1.9l0,0c-0.1,0-0.2-0.1-0.3-0.1
			c-0.3-0.1-0.6-0.2-0.8-0.3c-1.6-0.6-3.3-1-4.8-1.2c-0.3,0-0.5-0.1-0.8-0.1s-0.5,0-0.8-0.1c-0.2,0-0.5,0-0.7,0
			c-0.5,0-0.9,0-1.3,0.1c-0.2,0-0.4,0-0.6,0.1c-0.1,0-0.3,0-0.5,0.1c-0.1,0-0.2,0-0.3,0c-0.2,0-0.4,0.1-0.7,0.1
			c-0.3,0-0.5,0.1-0.8,0.1c-0.3,0.1-0.6,0.1-0.9,0.2c-0.3,0.1-0.6,0.2-0.9,0.2c-0.1,0-0.2,0.1-0.3,0.1h-0.1
			c-0.3,0.1-0.5,0.2-0.8,0.4c-0.1,0.1-0.2,0.1-0.3,0.2l-0.1,0.1l0,0c0,0,0,0-0.1,0c-0.1,0.1-0.3,0.2-0.4,0.3
			c-0.2,0.2-0.4,0.5-0.5,0.8c0,0.1,0,0.1-0.1,0.2v0.1c0,0.3,0,0.5,0,0.8c0,0.2,0.1,0.4,0.2,0.6c0.1,0.1,0.1,0.3,0.2,0.4
			c0,0.1,0.1,0.1,0.1,0.2c0.1,0.1,0.2,0.3,0.3,0.4c0.3,0.4,0.6,0.8,0.8,1.1c0.1,0.2,0.2,0.3,0.4,0.5c0.4,0.5,0.8,1,1.2,1.5
			c0.5,0.6,1.1,1.2,1.7,1.8l0,0c1.6,1.6,3.3,3,5.1,4.2l0,0c0.3,0.2,0.6,0.4,0.9,0.6c3.6,2.3,7.5,4.1,11.6,5.2
			c0.4,0.1,0.8,0.2,1.2,0.3c3.2,0.8,6.9,1.3,10.1,0.6c0.2,0,0.3-0.1,0.5-0.1c0.5-0.1,1-0.3,1.4-0.6c0.1-0.1,0.2-0.1,0.3-0.2
			c0.1,0,0.1-0.1,0.2-0.1c0.1-0.1,0.2-0.2,0.4-0.3c0.3-0.2,0.6-0.5,0.9-0.8l0,0l0,0c0.3-0.3,0.5-0.6,0.6-0.9
			c0.1-0.1,0.1-0.2,0.1-0.3c0.1-0.1,0.1-0.2,0.1-0.3s0.1-0.2,0.1-0.3V147c0-0.1,0-0.2,0.1-0.3v-0.1l0,0l0,0c0,0,0,0,0-0.1
			C98.5,146.3,98.6,146,98.5,145.6z"/>
		<path d="M135.4,128.5c-0.7-2.4-5-2.3-6.9-2.3c-10.6-0.3-24.6,13.5-28.8,18c-0.8,0.9-1.2,1.4-1.2,1.4l0,0c0,0.2,0,0.5,0.1,0.7l0,0
			c0.1,0.4,0.2,0.7,0.3,1c0.9,1.8,2.9,3,5,3.2c3.7,0.3,7.7-0.9,11.1-2.3c6.3-2.5,12-6.7,16.3-12c1-1.3,2-2.7,2.8-4.1
			C134.8,131.1,135.8,129.8,135.4,128.5z"/>
		<path d="M141,107.7c-0.7-2.4-5.1-2.3-6.9-2.3c-10.7-0.3-24.9,13.7-28.9,18.1c-0.7,0.8-1.1,1.3-1.1,1.3c0,0.5,0.1,1,0.3,1.4l0,0
			c0.8,2,2.9,3.2,5.1,3.4c3.7,0.3,7.7-0.9,11.1-2.3c6.3-2.5,12-6.7,16.3-12c1-1.3,2-2.7,2.8-4.1C140.3,110.3,141.4,109,141,107.7z"
			/>
		<path d="M149.5,83.3c-0.7-2.4-5-2.3-6.9-2.3c-10.3-0.3-23.9,12.8-28.4,17.6c-1,1.1-1.6,1.8-1.6,1.8c0,0.5,0.1,0.9,0.3,1.3
			c0.7,2,2.9,3.3,5.2,3.5c3.7,0.3,7.7-0.9,11.1-2.3c6.3-2.5,12-6.7,16.3-12c1-1.3,2-2.7,2.8-4.1C148.8,85.9,149.9,84.6,149.5,83.3z"
			/>
		<path class="st28" d="M95.5,163c0,0,18.4-1.6,27.1-4.9c8.7-3.4,8.7-3.4,8.7-3.4s-2,17.4-15.8,19.2
			C101.6,175.7,92.2,168.8,95.5,163z"/>
		<path class="st28" d="M93.7,177.7c0,0,13.8,10.1,23.3,5.3c9.5-4.7,10.5-5.3,10.5-5.3s-3.6,12.8-12.2,15.6
			C106.6,196,94.1,189.3,93.7,177.7z"/>
		<path d="M125.5,71c0,0,5.6-5.3,15.6-6.7c9.9-1.4,17.6,2.4,17.6,2.4s-15.4,26.2-33.2,5.4L125.5,71L125.5,71z"/>
		<path d="M133.4,54.2c0,0,9.3-8.9,17-9.1c7.7-0.2,13.2,0,13.2,0S148,69.3,133.4,54.2z"/>
		<path d="M138.1,44.2c0,0-0.1-0.1,4-8.4s18.6-12.4,18.6-12.4s1.2,18-8.3,19.4C142.9,44.2,138.1,44.2,138.1,44.2z"/>
		<path class="st26" d="M144.4,3.7c-0.1-0.8-0.1-2.7-1.3-2.9c-0.1,0-0.1,0-0.2,0c-0.1,0-0.1,0-0.2,0c-0.1,0-0.1,0-0.2,0.1
			c-0.1,0-0.1,0.1-0.2,0.1l-0.1,0.1l-0.1,0.1c0,0,0,0.1-0.1,0.1c0,0.1-0.1,0.1-0.1,0.2s0,0.1,0,0.2s0,0.3,0,0.4c0,0-0.2,0.2-0.5,0.5
			l-0.2,0.2c-0.1,0.1-0.1,0.1-0.2,0.2c-0.1,0.1-0.2,0.2-0.3,0.3s-0.2,0.2-0.3,0.3s-0.2,0.2-0.3,0.4c-0.6,0.6-1.3,1.4-2.1,2.2
			c-0.3,0.3-0.6,0.7-0.9,1c-0.2,0.2-0.3,0.4-0.5,0.5c-0.3,0.4-0.6,0.7-1,1.1c-0.3,0.3-0.5,0.6-0.8,0.9c-0.2,0.3-0.4,0.5-0.6,0.8
			c-0.2,0.3-0.5,0.6-0.7,0.9c-0.2,0.3-0.4,0.6-0.6,0.9c-0.3,0.4-0.5,0.8-0.8,1.2c-0.2,0.3-0.4,0.7-0.6,1c-0.4,0.6-0.6,1.2-0.9,1.8
			c-0.1,0.3-0.2,0.6-0.3,0.8c-0.1,0.3-0.2,0.6-0.3,0.8c-0.1,0.3-0.2,0.5-0.2,0.8c-0.1,0.2-0.1,0.4-0.1,0.6c0,0.1-0.1,0.2-0.1,0.4
			c-0.1,0.8-0.2,1.5-0.2,2.3c0,0.3,0,0.6,0,0.9c0,0.5,0,1.1,0.1,1.6c0,0.2,0,0.3,0,0.5s0,0.5,0.1,0.7c0,0.2,0.1,0.4,0.1,0.6
			c0,0.1,0,0.1,0,0.1c0,0.2,0,0.3,0.1,0.5c0.2,1.1,0.4,2.1,0.7,3.2c0.1,0.3,0.2,0.6,0.2,0.9c0.4,1.4,0.8,2.9,1.3,4.3
			c0.3,0.9,0.6,1.9,0.9,2.8c0,0.1,0.1,0.2,0.1,0.4c0.1,0.3,0.1,0.6,0.2,0.9c0,0.2,0.1,0.3,0.1,0.5c0.1,0.5,0.2,1,0.4,1.4
			c0,0.1,0.1,0.3,0.1,0.4c0.1,0.2,0.1,0.4,0.2,0.6c0.1,0.1,0.1,0.3,0.2,0.4c0.1,0.1,0.1,0.2,0.2,0.4c0,0.1,0.1,0.2,0.1,0.2
			c0.1,0.1,0.2,0.3,0.3,0.4c0.1,0.1,0.2,0.3,0.4,0.4c0.1,0.1,0.1,0.1,0.2,0.2l0.1,0.1c0.1,0.1,0.3,0.2,0.4,0.2h0.1l0,0h0.1
			c0.1,0,0.1,0,0.2,0c0.1,0,0.1,0,0.2,0h0.1c-3.6,8-7.3,16.1-10.9,24.1c1.7-7.7,1.2-15.7-1.3-23.1c-0.1-0.4-0.3-0.7-0.4-1.1
			c-0.4-1.1-0.9-2.2-1.4-3.3l0,0c-0.4-0.9-0.8-1.7-1.3-2.5c-0.5-0.9-1.1-1.8-1.7-2.7c-1-1.5-2.1-2.9-3.2-4.3l0,0l0,0
			c-0.1,0.1-0.1,0.3-0.3,0.6c-0.1,0.2-0.1,0.4-0.2,0.6c-0.1,0.5-0.3,1-0.5,1.6c-0.1,0.5-0.3,1-0.4,1.5c-0.3,1.3-0.7,2.7-1,4.1
			c-0.1,0.4-0.2,0.8-0.3,1.2c-0.2,1-0.4,2-0.6,2.9c-0.1,0.3-0.1,0.7-0.2,1s-0.1,0.5-0.1,0.7c0,0.1,0,0.3-0.1,0.4
			c0,0.1,0,0.2-0.1,0.3c-0.6,4.2-1.1,8.5-0.6,12.8c0.8,6.3,4.9,12.6,11.5,13.6c0,0,0,0,0,0.1c-0.5,1.2-1,2.3-1.6,3.4
			c-2.1,4.5-4.1,9.1-6.1,13.6c0-0.2,0-0.3,0-0.5c0.1-5.6-1.7-11.3-4.8-16c-0.8-1.2-1.7-2.5-2.8-4c-0.2-0.3-0.5-0.6-0.7-1
			c-0.9-1.2-1.8-2.3-2.8-3.5c-0.2-0.3-0.5-0.6-0.7-0.8c-0.5-0.5-0.9-1-1.4-1.5c-0.2-0.2-0.3-0.3-0.5-0.5c-1-0.9-1.9-1.8-2.9-2.5
			c-0.2-0.1-0.3-0.2-0.5-0.3c-0.5-0.3-1-0.6-1.4-0.8c0.1,0.3,0,0.3-0.1,0.3c0.1,0.2,0,1.2-0.1,2.2c0,0.2,0,0.3-0.1,0.5
			c-0.1,0.6-0.2,1.3-0.2,1.7c0,0.1,0,0.2,0,0.2v0.1v0.1c0,0.1,0,0.1,0,0.2l0,0l0,0l0,0c-0.1,0.7-0.2,1.4-0.3,2.1
			c-0.1,0.7-0.2,1.4-0.3,2.2c-0.1,0.5-0.1,1-0.1,1.5c0,0.4-0.1,0.7-0.1,1.1c0,0.2,0,0.4,0,0.5s0,0.2,0,0.3c0,0.6-0.1,1.2-0.1,1.7
			c0,0.1,0,0.2,0,0.2c0,0.2,0,0.4,0,0.7c0,0.8,0,1.7,0,2.5c0,0.4,0,0.7,0,1.1c0,0.3,0,0.6,0.1,0.9c0,0.2,0,0.5,0.1,0.7
			c0,0.1,0,0.2,0,0.3c0,0.1,0,0.3,0,0.4s0,0.2,0,0.3c0.1,0.4,0.1,0.8,0.2,1.2c0.1,0.8,0.3,1.6,0.5,2.4c0.1,0.4,0.2,0.8,0.3,1.2
			c1.7,5.3,5.2,10.3,10.4,12.5c0.3,0.1,0.5,0.2,0.8,0.3c0.2,0.1,0.4,0.1,0.6,0.2s0.4,0.1,0.6,0.1c0.1,0,0.3,0,0.4,0.1
			c0.2,0,0.4,0,0.6,0.1c0.6,0,1.1-0.1,1.7-0.2c0.2-0.1,0.3-0.1,0.5-0.2c-1.2,2.9-2.3,5.8-3.4,8.7c-0.4,1-0.7,1.9-1,2.9
			c-0.8,2.4-1.6,4.7-2.4,7.1c-0.7,2.4-1.5,4.8-2.1,7.2c0.4-3.9,0.4-7.9-1.2-11.5c-1.6-3.7-4.8-6.4-7.6-9.3c-0.1-0.1-0.2-0.2-0.3-0.4
			c-0.1-0.1-0.2-0.2-0.3-0.3c-0.1-0.1-0.2-0.2-0.3-0.4c-0.4-0.4-0.9-0.9-1.4-1.5c-0.2-0.2-0.4-0.4-0.5-0.6c-0.6-0.6-1.1-1.2-1.7-1.7
			c-0.1-0.1-0.2-0.2-0.3-0.3c-1.3-1.3-2.6-2.3-3.4-2.6c-0.1,0-0.1,0-0.2-0.1h-0.1c-3.4-0.3-4.9,14.4-3.1,17.4c0.8,4.2,2,8.3,4,12.1
			c1.4,2.7,3.3,5.3,5.9,7.1c0.3,0.2,0.6,0.4,0.9,0.6c0.2,0.1,0.3,0.2,0.5,0.3c0.6,0.3,1.3,0.6,2.1,0.8c0.1,0,0.2,0.1,0.4,0.1
			c0.5,0.1,1.1,0.2,1.6,0.2c0.7,0,1.5-0.1,2.1-0.5c0.2-0.1,0.4-0.3,0.6-0.4c0,0,0,0,0.1-0.1c-1,4.1-2.1,8.1-3.1,12.2
			c-0.2,0.6-0.3,1.2-0.5,1.9c0,0.2-0.1,0.3-0.1,0.5c-0.1,0.4-0.2,0.9-0.3,1.3l0,0c-0.3,1.2-0.6,2.4-0.9,3.6
			c-0.3,1.1-0.5,2.2-0.8,3.3c-0.1,0.5-0.3,1.1-0.4,1.6c-0.7-0.2-1.4-0.3-2.1-0.4c-0.5-0.1-1-0.1-1.5-0.1c-0.1,0-0.3,0-0.4,0
			s-0.3,0-0.4,0c-0.6,0-1.2,0-1.8,0.1c-0.5,0-1,0.1-1.6,0.1c-0.5,0.1-1.1,0.1-1.6,0.2c-0.9,0.1-1.7,0.3-2.6,0.5l0,0
			c-0.6,0.1-1.1,0.3-1.7,0.4c-0.6,0.1-1.1,0.3-1.7,0.5c-0.4,0.1-0.8,0.2-1.2,0.3c-0.6,0.2-1.2,0.4-1.7,0.5c-0.6,0.2-1.1,0.4-1.7,0.6
			c-0.1,0-0.2,0.1-0.3,0.1l0,0c-0.4,0.2-0.9,0.3-1.3,0.5c-0.5,0.2-1,0.4-1.5,0.6c-0.3,0.1-0.5,0.2-0.6,0.2c-1,0.4-2,0.8-2.9,1.2
			c-0.3,0.1-0.6,0.3-0.9,0.4c-0.1,0-0.1,0.1-0.2,0.1c-0.5,0.2-1,0.5-1.5,0.7c-2.4,1.1-4.2,2.1-5.2,2.7c-0.2,0.1-0.3,0.2-0.4,0.3
			c-0.5,0.3-0.8,0.5-0.8,0.5c5.3,4.5,12.2,5.6,18.9,4.7c0.3,0,0.6-0.1,1-0.1c0.2,0,0.4-0.1,0.6-0.1c0.7-0.1,1.5-0.3,2.3-0.5
			c4.9-1.3,10-4,11.7-8.7c-1.5,7.3-2.7,14.6-3.3,22c-0.1,0.8-0.1,1.6-0.2,2.4c-0.2,2.7-0.3,5.5-0.3,8.2c0,0.2,0,0.3,0,0.5l0,0
			c0,0.7,0,1.4,0,2c0.2,8.6,1.4,17.1,4,25.3c0.1,0.2,0.1,0.4,0.2,0.6c0.2-0.1,0.3-0.1,0.5-0.2c1.5-0.7,2.5-0.7,3.4-0.6
			c0.6,0.1,1.1,0.3,1.6,0.4c-0.3-0.9-0.6-1.8-0.9-2.7c-0.3-0.8-0.5-1.7-0.8-2.5c0-0.2-0.1-0.3-0.1-0.5l0,0c-0.4-1.5-0.8-3-1.2-4.6
			c-0.4-1.6-0.7-3.2-1-4.8l0,0c-0.2-0.9-0.3-1.8-0.5-2.7c-0.5-3.1-0.9-6.2-1.2-9.3l0,0c-0.5-5.2-0.6-10.4-0.5-15.5l0,0
			c0-0.8,0.1-1.7,0.1-2.5l0,0c0.2-3.7,0.5-7.3,0.9-10.9c0.2-1.3,0.4-2.7,0.6-4c0.6-3.9,1.4-7.7,2.3-11.5c0.3-1.4,0.7-2.8,1-4.2
			c0.3-1.1,0.5-2.1,0.8-3.2c1.3-5.3,2.7-10.6,4.1-15.9c0.2-0.7,0.4-1.3,0.5-2c0-0.1,0.1-0.2,0.1-0.3c0.2-0.8,0.5-1.6,0.7-2.4
			c0.9-3,1.8-6.1,2.8-9.1c0.8-2.3,2.7-7.2,4.9-12.7c0.4-1,0.8-2.1,1.3-3.2c3.5-8.5,7.3-17.5,8.8-20.7l2.6-5.8l0.8-1.7l0,0l7.2-16
			l0.1-0.3l4.4-9.8c1.7-0.9,2.9-3.2,3.5-4.9s1.2-3.5,1.6-5.3l0,0c1.4-5.7,1.9-11.7,2-17.4C145.3,12.4,145,8,144.4,3.7z M140.5,38.9
			c-0.2,0.6-0.5,1.3-0.8,1.9C139.9,40.1,140.2,39.5,140.5,38.9z M97.2,58.9L97.2,58.9L97.2,58.9L97.2,58.9L97.2,58.9z"/>
		<path class="st28" d="M135.4,128.5c-0.7-2.4-5-2.3-6.9-2.3c-10.6-0.3-24.6,13.5-28.8,18c-0.8,0.9-1.2,1.4-1.2,1.4l0,0
			c0,0.2,0,0.5,0.1,0.7l0,0c0.1,0.4,0.2,0.7,0.3,1c0.9,1.8,2.9,3,5,3.2c3.7,0.3,7.7-0.9,11.1-2.3c6.3-2.5,12-6.7,16.3-12
			c1-1.3,2-2.7,2.8-4.1C134.8,131.1,135.8,129.8,135.4,128.5z"/>
		<path class="st28" d="M141,107.7c-0.7-2.4-5.1-2.3-6.9-2.3c-10.7-0.3-24.9,13.7-28.9,18.1c-0.7,0.8-1.1,1.3-1.1,1.3
			c0,0.5,0.1,1,0.3,1.4l0,0c0.8,2,2.9,3.2,5.1,3.4c3.7,0.3,7.7-0.9,11.1-2.3c6.3-2.5,12-6.7,16.3-12c1-1.3,2-2.7,2.8-4.1
			C140.3,110.3,141.4,109,141,107.7z"/>
		<path class="st28" d="M149.5,83.3c-0.7-2.4-5-2.3-6.9-2.3c-10.3-0.3-23.9,12.8-28.4,17.6c-1,1.1-1.6,1.8-1.6,1.8
			c0,0.5,0.1,0.9,0.3,1.3c0.7,2,2.9,3.3,5.2,3.5c3.7,0.3,7.7-0.9,11.1-2.3c6.3-2.5,12-6.7,16.3-12c1-1.3,2-2.7,2.8-4.1
			C148.8,85.9,149.9,84.6,149.5,83.3z"/>
		<path class="st28" d="M125.5,71c0,0,5.6-5.3,15.6-6.7c9.9-1.4,17.6,2.4,17.6,2.4s-15.4,26.2-33.2,5.4L125.5,71L125.5,71z"/>
		<path class="st28" d="M133.4,54.2c0,0,9.3-8.9,17-9.1c7.7-0.2,13.2,0,13.2,0S148,69.3,133.4,54.2z"/>
		<path class="st28" d="M138.1,44.2c0,0-0.1-0.1,4-8.4s18.6-12.4,18.6-12.4s1.2,18-8.3,19.4C142.9,44.2,138.1,44.2,138.1,44.2z"/>
		<path class="st29" d="M98.5,134.1c-1.9,0-4-1-5.5-2c-2.6-1.7-4.5-4.3-5.9-7.1c-1.9-3.7-3.2-7.8-4-12.1c-1.8-3-0.3-17.7,3.1-17.4
			h0.1L98.5,134.1L98.5,134.1z"/>
		<path class="st29" d="M97.2,58.9L97.2,58.9L97.2,58.9z"/>
		<path class="st29" d="M112.7,98.2L112.7,98.2c-1.6,0.7-3.5,0.4-5.1-0.3c-5.2-2.2-8.7-7.3-10.4-12.5C95,78.5,95.8,71.1,96.8,64
			c-0.1,0,0.6-4.5,0.5-5.1c0.1,0,0.2,0.1,0.3,0.1L112.7,98.2z"/>
		<path class="st29" d="M122.1,76.8c0.5-1.1,1-2.3,1.6-3.4c0,0,0,0,0-0.1c-6.7-1-10.7-7.3-11.5-13.6c-0.6-4.3,0-8.6,0.6-12.8
			c0.6-4.5,3.2-14.6,3.7-15.1C120,46.6,127.1,76.1,122.1,76.8z"/>
		<path class="st29" d="M142.3,1.1c-0.1,17.6-1.1,42.1-5.7,43.6c-2.7,0.1-3.1-4.7-3.7-6.5c-2.2-7.1-5.2-14.5-2.2-21.8
			C133,10.6,142,2.1,142,2C141.9,1.7,142,1.3,142.3,1.1z"/>
		<path class="st29" d="M98.5,146.8c-2.2,3.5-30-11.3-38.1-14.9c1.3-1.5,4.5-1.7,6-2c12.4-1.8,31.9,15.2,32.1,15.7l0,0
			C98.7,146.1,98.6,146.5,98.5,146.8z"/>
		<path class="st26" d="M95.7,205.4c-0.9,1-1.3,2.2-0.8,2.7s1.7,0,2.6-1s1.3-2.2,0.8-2.7C97.8,203.9,96.7,204.4,95.7,205.4z"/>
		<path class="st26" d="M90.3,195.4c0.7,0.9,0.8,2,0.3,2.4s-1.5,0-2.2-1c-0.7-0.9-0.8-2-0.3-2.4C88.6,194.1,89.6,194.5,90.3,195.4z"
			/>
	</g>
	<g>
		<path class="st26" d="M157.3,150.4c-0.1,0.1-0.2,0.2-0.3,0.3c-1.6,0.5-3.1,1.3-4.6,2.1c-0.6,0.4-1.2,0.8-1.8,1.2
			c-2.8,1.9-5.3,4.4-7.8,6.8c-0.2,0.2-0.4,0.4-0.6,0.6l0,0c-0.5,0.5-0.9,0.9-1.4,1.4c-0.3,0.3-0.7,0.7-1,1c-1.5,1.6-3,3.1-4.5,4.7
			c-0.4,0.5-0.8,0.9-1.3,1.4l0,0c-2.7,3.1-5.3,6.3-7.7,9.6l0,0c-2.6,3.5-4.9,7.2-7.1,11c-0.2,0.3-0.4,0.7-0.6,1.1
			c-4.4,8.4-9.8,24.5-11.3,29.4c-1-0.1-2,0-3.1,0.1c1-3.4,4.9-13.8,7-18.7c1.6-3.8,3.5-7.5,5.6-11.1c0.4-0.6,0.7-1.2,1.1-1.8
			c2.1-3.4,4.4-6.8,6.8-10c0.2-0.3,0.5-0.7,0.7-1c1.4-1.9,2.9-3.8,4.4-5.6c1.4-1.7,2.9-3.4,4.4-5.1l0,0c2.2-2.4,4.5-4.7,6.8-7
			c0.6-0.6,1.3-1.3,1.9-1.9c1.4-1.4,2.8-2.7,4.3-4c1-0.8,1.9-1.5,3-2.2c1.2-0.8,2.4-1.5,3.6-2.1c0.9-0.4,1.7-0.8,2.7-1.1
			c0.1,0,0.2,0,0.3,0C157.3,149.6,157.4,150.1,157.3,150.4z"/>
		<path class="st28" d="M153.7,151c-2,2.4-5,3.8-6.3,4c-2.2,0.2-4.2-3.5-3.6-8.7c0.6-4.9,4-14.4,4.1-16c0-0.1,0-0.2,0-0.2
			c0.3,0.5,7.1,9.7,7.6,15.4C155.7,147.6,154.9,149.5,153.7,151z"/>
		<path class="st28" d="M132.5,140.4c0,0-1.9,8.8-3.9,13.2c-2,4.3,1.4,16.9,5.6,14.3c4.2-2.7,8-4.5,6.9-11.5
			C140.1,149.4,132.5,140.4,132.5,140.4z"/>
		<path class="st28" d="M134,170c0,0-1.1-2,5.5-1.7c6.6,0.2,10.7,5.5,12.9,5.6s8-0.9,8-0.9s-10.8,12.9-18.4,8.4
			C134.4,176.9,132.3,174,134,170z"/>
		<path class="st28" d="M142.2,161.4c0,0,1.7-2.2,5.5-2.5s6.7,2.7,9.6,2.5c2.9-0.1,5.8-1.3,5.8-1.3s2.7,3.5-5.8,6.9
			c-8.4,3.4-19.1-0.6-17.4-3.7C141.6,160.3,142.2,161.4,142.2,161.4z"/>
		<path class="st28" d="M150.4,153.1c0,0,3.7-0.8,7,0s10.5,1.3,10.5,1.3s-4.2,3.1-10.5,3.6C151,158.5,150.4,153.1,150.4,153.1z"/>
		<path class="st28" d="M155.5,150.2c0,0,1.8-0.5,5-3.1s3.3-4.9,11.8-4.5c8.6,0.4,10.9,1.7,10.9,1.7s-8.3,7.5-11.2,7.6
			C169.2,152,155.5,150.2,155.5,150.2z"/>
		<path class="st28" d="M126.3,179.6c0,0,11.8,1.4,14.1,6.6c2.4,5.1,0.8,6.2,2.2,7.9s5.7,1.1,5.7,1.1s-4.8,5.3-11,4
			C131.1,197.7,122.8,186.2,126.3,179.6z"/>
		<path class="st28" d="M118.7,191.7c0,0,1.8,1.4,5,2.7s4.6,3.9,4.4,7.8c-0.2,3.8,4.5,5.3,4.5,5.3s-3.8,4.3-8,0
			C120.3,203.1,118.7,191.7,118.7,191.7z"/>
		<path class="st29" d="M153.7,151c-1.8,1.4-3.3,2.1-3.3,2.1l-2.5-22.8v-0.2l0,0l0,0c0.3,0.5,7.1,9.7,7.6,15.4
			C155.7,147.6,154.9,149.5,153.7,151z"/>
		<path class="st26" d="M117.9,189.8c0,1-0.3,1.9-0.7,1.9c-0.4,0-0.7-0.8-0.7-1.9c0-1,0.3-1.9,0.7-1.9
			C117.6,188,117.9,188.8,117.9,189.8z"/>
		<path class="st26" d="M125.5,177.9c0,0.9-0.3,1.7-0.8,1.7c-0.4,0-0.8-0.8-0.8-1.7s0.3-1.7,0.8-1.7
			C125.2,176.1,125.5,176.9,125.5,177.9z"/>
	</g>
</g>
</svg>
